<?xml version="1.0" standalone="no"?>
<!DOCTYPE svg PUBLIC "-//W3C//DTD SVG 20010904//EN"
 "http://www.w3.org/TR/2001/REC-SVG-20010904/DTD/svg10.dtd">
<svg version="1.0" xmlns="http://www.w3.org/2000/svg"
 width="512.000000pt" height="512.000000pt" viewBox="0 0 512.000000 512.000000"
 preserveAspectRatio="xMidYMid meet">
<metadata>
Created by potrace 1.16, written by Peter Selinger 2001-2019
</metadata>
<g transform="translate(0.000000,512.000000) scale(0.100000,-0.100000)"
fill="#000000" stroke="none">
<path d="M2340 4770 c-395 -84 -703 -383 -803 -780 -17 -67 -21 -116 -21 -230
-1 -145 -1 -145 42 -270 118 -343 436 -853 879 -1407 63 -79 118 -143 123
-143 12 0 260 313 390 491 215 296 380 558 490 779 83 165 115 245 147 369 22
85 24 110 20 216 -21 477 -363 879 -832 976 -119 25 -318 25 -435 -1z m403
-305 c259 -66 472 -282 539 -548 17 -66 19 -102 16 -201 -8 -197 -65 -335
-196 -477 -328 -355 -898 -306 -1163 99 -141 216 -160 493 -50 725 102 213
315 374 553 417 70 12 223 4 301 -15z"/>
<path d="M2460 4330 c-230 -43 -407 -204 -474 -430 -20 -65 -22 -224 -5 -296
50 -212 230 -391 441 -439 208 -47 402 8 554 160 86 85 132 161 159 265 19 72
19 230 0 304 -50 191 -202 351 -393 415 -70 24 -213 35 -282 21z m242 -110
c171 -53 311 -205 347 -378 52 -247 -98 -495 -349 -578 -75 -24 -207 -24 -280
0 -252 84 -401 331 -349 578 59 282 359 462 631 378z"/>
<path d="M1050 3236 l-365 -192 -3 -1337 c-1 -735 1 -1337 5 -1337 5 0 190 96
413 213 l405 212 0 1220 0 1220 -41 92 c-22 51 -42 95 -45 97 -2 2 -168 -83
-369 -188z"/>
<path d="M3689 3402 c-6 -15 -26 -63 -45 -108 l-34 -80 2 -1210 3 -1209 405
-212 c223 -117 408 -213 413 -213 4 0 6 602 5 1337 l-3 1337 -230 121 c-126
66 -292 153 -368 193 l-138 72 -10 -28z m629 -592 c41 -38 40 -113 -1 -157
-26 -29 -56 -29 -91 -2 -23 18 -26 28 -26 77 0 43 5 61 22 79 26 28 67 30 96
3z m8 -351 c18 -20 19 -46 19 -691 l0 -670 -24 -19 c-30 -25 -76 -24 -101 1
-20 20 -20 33 -20 690 0 657 0 670 20 690 27 27 81 26 106 -1z"/>
<path d="M1660 1857 l0 -1062 405 -213 c223 -116 407 -212 410 -212 3 0 5 321
5 714 l0 714 -61 74 c-207 246 -508 657 -658 898 -51 82 -95 150 -97 150 -2 0
-4 -478 -4 -1063z"/>
<path d="M3370 2788 c-161 -257 -406 -594 -634 -872 l-106 -129 0 -709 c0
-468 3 -708 10 -708 6 0 192 96 415 212 l405 213 0 1062 c0 585 -2 1063 -4
1063 -2 0 -41 -60 -86 -132z"/>
</g>
</svg>
