<?xml version="1.0" standalone="no"?>
<!DOCTYPE svg PUBLIC "-//W3C//DTD SVG 20010904//EN"
 "http://www.w3.org/TR/2001/REC-SVG-20010904/DTD/svg10.dtd">
<svg version="1.0" xmlns="http://www.w3.org/2000/svg"
 width="512.000000pt" height="512.000000pt" viewBox="0 0 512.000000 512.000000"
 preserveAspectRatio="xMidYMid meet">

<g transform="translate(0.000000,512.000000) scale(0.100000,-0.100000)"
fill="#000000" stroke="none">
<path d="M515 5105 c-225 -49 -405 -209 -481 -428 l-29 -82 -3 -2005 c-3
-2227 -7 -2078 63 -2225 88 -183 269 -321 465 -355 46 -8 353 -10 1025 -8
l960 3 85 31 c194 69 335 210 404 404 l31 85 3 338 3 337 440 0 439 0 0 -170
c0 -148 -2 -170 -16 -170 -27 0 -119 -101 -132 -146 -26 -88 -5 -178 56 -239
49 -49 83 -66 147 -72 171 -18 303 143 253 309 -14 48 -90 136 -124 144 l-24
6 0 225 0 224 -25 24 -24 25 -496 0 -495 0 0 70 c0 62 3 74 32 115 43 60 50
145 19 223 -12 29 -21 75 -21 102 l0 50 388 0 388 0 31 -44 c97 -138 254 -156
368 -41 98 97 101 222 8 325 -64 72 -152 96 -245 68 -45 -13 -122 -77 -144
-119 l-15 -29 -354 0 c-195 0 -355 3 -355 8 0 22 70 87 124 113 100 50 147
107 161 194 3 22 8 50 11 63 l4 22 680 0 680 0 0 -290 c0 -256 -2 -290 -16
-290 -27 0 -119 -101 -132 -146 -28 -96 -4 -182 68 -247 100 -90 220 -90 320
0 72 65 96 151 68 247 -13 45 -105 146 -132 146 -14 0 -16 64 -16 615 l0 614
29 15 c42 22 106 99 119 144 25 84 4 176 -54 236 -45 46 -83 66 -144 73 -78 9
-137 -12 -195 -71 -115 -115 -97 -272 41 -369 l44 -31 0 -243 0 -243 -680 0
-680 0 -4 23 c-3 12 -8 40 -11 62 -14 87 -61 144 -161 194 -54 26 -124 91
-124 113 0 5 162 8 360 8 320 0 360 -2 360 -16 0 -27 101 -119 146 -132 94
-28 169 -8 239 63 102 101 102 229 0 330 -102 102 -229 102 -332 -2 -29 -28
-53 -59 -53 -67 0 -14 -43 -16 -395 -16 l-395 0 0 50 c0 27 9 72 20 100 31 79
27 141 -15 217 -30 54 -35 73 -35 128 l0 65 499 0 500 0 20 26 c20 25 21 39
21 250 0 197 2 224 16 224 27 0 119 101 132 146 25 87 5 177 -54 238 -46 47
-85 67 -149 73 -171 18 -303 -143 -253 -309 13 -45 77 -122 119 -144 l29 -15
0 -164 0 -165 -440 0 -440 0 0 311 c0 347 -7 401 -65 524 -85 177 -253 310
-442 350 -96 21 -1925 21 -2018 0z m1971 -491 c15 -11 37 -33 48 -48 20 -26
21 -42 24 -398 l3 -371 -68 5 c-49 4 -89 15 -143 40 -99 46 -134 78 -175 157
-57 113 -112 147 -256 158 l-77 6 -6 43 c-13 100 -86 198 -181 244 -72 35
-199 35 -270 0 -63 -31 -131 -98 -158 -158 l-22 -47 0 -1685 0 -1685 25 -50
c32 -64 92 -124 155 -155 60 -29 187 -34 245 -11 106 44 183 134 203 239 l11
59 71 6 c145 11 204 47 260 157 39 77 81 115 180 161 47 23 87 33 136 37 l70
5 -3 -371 c-3 -356 -4 -372 -24 -398 -11 -15 -33 -37 -48 -48 -27 -21 -34 -21
-966 -21 -932 0 -939 0 -966 21 -15 11 -37 33 -48 48 l-21 27 -3 1952 c-1
1074 0 1966 3 1984 7 40 49 91 90 109 24 11 202 13 957 11 918 -2 927 -2 954
-23z m1561 -96 c39 -38 41 -56 8 -92 -32 -34 -74 -34 -109 0 -30 31 -32 50 -9
84 34 51 64 53 110 8z m-2052 -538 c8 -7 32 -44 52 -82 23 -43 55 -86 87 -114
57 -50 188 -118 256 -133 78 -18 188 -13 262 12 65 23 67 23 102 5 46 -24 170
-149 186 -188 11 -26 10 -39 -9 -95 -23 -73 -28 -184 -10 -250 21 -76 97 -223
137 -267 23 -24 73 -62 113 -84 95 -51 103 -70 104 -229 0 -156 -7 -173 -88
-211 -92 -42 -159 -114 -212 -227 -23 -50 -48 -110 -54 -132 -18 -65 -13 -172
11 -253 19 -64 19 -76 7 -99 -21 -40 -144 -160 -186 -181 -36 -19 -37 -19
-102 4 -127 45 -259 27 -423 -58 -91 -47 -145 -102 -190 -192 -31 -63 -34 -66
-80 -76 -62 -13 -173 -13 -235 0 -47 10 -49 12 -86 85 -47 91 -113 153 -209
198 l-68 32 0 238 0 238 33 -24 c147 -111 397 -163 593 -123 374 75 625 363
651 743 31 472 -366 868 -842 839 -151 -9 -280 -50 -389 -126 l-46 -31 0 238
0 238 69 32 c92 43 160 107 204 191 42 79 51 88 92 95 57 10 254 0 270 -13z
m2940 -565 c16 -15 25 -36 25 -55 0 -19 -9 -40 -25 -55 -15 -16 -36 -25 -55
-25 -19 0 -40 9 -55 25 -16 15 -25 36 -25 55 0 19 9 40 25 55 15 16 36 25 55
25 19 0 40 -9 55 -25z m-800 -241 c15 -16 25 -39 25 -56 0 -39 -40 -78 -80
-78 -19 0 -40 9 -55 25 -50 49 -15 135 55 135 21 0 39 -9 55 -26z m0 -1119
c50 -49 15 -135 -55 -135 -41 0 -80 39 -80 80 0 41 39 80 80 80 19 0 40 -9 55
-25z m800 -320 c50 -49 15 -135 -55 -135 -41 0 -80 39 -80 80 0 41 39 80 80
80 19 0 40 -9 55 -25z m-880 -1040 c50 -49 15 -135 -55 -135 -41 0 -80 39 -80
80 0 41 39 80 80 80 19 0 40 -9 55 -25z"/>
</g>
</svg>
