<?xml version="1.0" encoding="UTF-8"?>
<svg version="1.1" xmlns="http://www.w3.org/2000/svg" width="512" height="512">
<path d="M0 0 C10.23906578 7.73254248 18.72711365 17.59665562 20.6875 30.6875 C22.11678455 48.13329299 19.50517553 61.04058775 8.03125 74.65234375 C0.02533375 83.28136197 -10.26078398 88.35475631 -21.96875 89.00390625 C-38.65548452 89.56319388 -50.64291019 85.89777041 -63.0625 74.375 C-73.05541038 63.81645319 -75.82689781 52.26922077 -75.73217773 38.15722656 C-75.32139743 24.03483761 -69.475381 12.95884274 -59.25 3.28125 C-42.59283172 -10.42061423 -18.05009418 -11.9794347 0 0 Z " fill="#000000" transform="translate(459.3125,391.3125)"/>
<path d="M0 0 C10.23906578 7.73254248 18.72711365 17.59665562 20.6875 30.6875 C22.11678455 48.13329299 19.50517553 61.04058775 8.03125 74.65234375 C0.02533375 83.28136197 -10.26078398 88.35475631 -21.96875 89.00390625 C-38.65548452 89.56319388 -50.64291019 85.89777041 -63.0625 74.375 C-73.05541038 63.81645319 -75.82689781 52.26922077 -75.73217773 38.15722656 C-75.32139743 24.03483761 -69.475381 12.95884274 -59.25 3.28125 C-42.59283172 -10.42061423 -18.05009418 -11.9794347 0 0 Z " fill="#000000" transform="translate(107.3125,391.3125)"/>
<path d="M0 0 C10.23906578 7.73254248 18.72711365 17.59665562 20.6875 30.6875 C22.11678455 48.13329299 19.50517553 61.04058775 8.03125 74.65234375 C0.02533375 83.28136197 -10.26078398 88.35475631 -21.96875 89.00390625 C-38.65548452 89.56319388 -50.64291019 85.89777041 -63.0625 74.375 C-73.05541038 63.81645319 -75.82689781 52.26922077 -75.73217773 38.15722656 C-75.32139743 24.03483761 -69.475381 12.95884274 -59.25 3.28125 C-42.59283172 -10.42061423 -18.05009418 -11.9794347 0 0 Z " fill="#000000" transform="translate(283.3125,215.3125)"/>
<path d="M0 0 C10.23906578 7.73254248 18.72711365 17.59665562 20.6875 30.6875 C22.11678455 48.13329299 19.50517553 61.04058775 8.03125 74.65234375 C0.02533375 83.28136197 -10.26078398 88.35475631 -21.96875 89.00390625 C-38.65548452 89.56319388 -50.64291019 85.89777041 -63.0625 74.375 C-73.05541038 63.81645319 -75.82689781 52.26922077 -75.73217773 38.15722656 C-75.32139743 24.03483761 -69.475381 12.95884274 -59.25 3.28125 C-42.59283172 -10.42061423 -18.05009418 -11.9794347 0 0 Z " fill="#000000" transform="translate(459.3125,39.3125)"/>
<path d="M0 0 C10.23906578 7.73254248 18.72711365 17.59665562 20.6875 30.6875 C22.11678455 48.13329299 19.50517553 61.04058775 8.03125 74.65234375 C0.02533375 83.28136197 -10.26078398 88.35475631 -21.96875 89.00390625 C-38.65548452 89.56319388 -50.64291019 85.89777041 -63.0625 74.375 C-73.05541038 63.81645319 -75.82689781 52.26922077 -75.73217773 38.15722656 C-75.32139743 24.03483761 -69.475381 12.95884274 -59.25 3.28125 C-42.59283172 -10.42061423 -18.05009418 -11.9794347 0 0 Z " fill="#000000" transform="translate(107.3125,39.3125)"/>
<path d="M0 0 C75.9 0 151.8 0 230 0 C229.67 1.98 229.34 3.96 229 6 C228.91549405 7.58169627 228.86951293 9.16604958 228.8671875 10.75 C228.86525391 12.03390625 228.86525391 12.03390625 228.86328125 13.34375 C228.86714844 14.2203125 228.87101563 15.096875 228.875 16 C228.87113281 16.8765625 228.86726562 17.753125 228.86328125 18.65625 C228.86457031 19.5121875 228.86585938 20.368125 228.8671875 21.25 C228.86887939 22.40242188 228.86887939 22.40242188 228.87060547 23.578125 C229.02171892 26.4065127 229.53435275 29.20611652 230 32 C154.1 32 78.2 32 0 32 C0.33 30.02 0.66 28.04 1 26 C1.08450595 24.41830373 1.13048707 22.83395042 1.1328125 21.25 C1.13410156 20.3940625 1.13539063 19.538125 1.13671875 18.65625 C1.13285156 17.7796875 1.12898437 16.903125 1.125 16 C1.12886719 15.1234375 1.13273438 14.246875 1.13671875 13.34375 C1.13542969 12.4878125 1.13414062 11.631875 1.1328125 10.75 C1.13168457 9.98171875 1.13055664 9.2134375 1.12939453 8.421875 C0.97828108 5.5934873 0.46564725 2.79388348 0 0 Z " fill="#000000" transform="translate(141,416)"/>
<path d="M0 0 C75.9 0 151.8 0 230 0 C229.67 1.98 229.34 3.96 229 6 C228.91549405 7.58169627 228.86951293 9.16604958 228.8671875 10.75 C228.86525391 12.03390625 228.86525391 12.03390625 228.86328125 13.34375 C228.86714844 14.2203125 228.87101563 15.096875 228.875 16 C228.87113281 16.8765625 228.86726562 17.753125 228.86328125 18.65625 C228.86457031 19.5121875 228.86585938 20.368125 228.8671875 21.25 C228.86887939 22.40242188 228.86887939 22.40242188 228.87060547 23.578125 C229.02171892 26.4065127 229.53435275 29.20611652 230 32 C154.1 32 78.2 32 0 32 C0.33 30.02 0.66 28.04 1 26 C1.08450595 24.41830373 1.13048707 22.83395042 1.1328125 21.25 C1.13410156 20.3940625 1.13539063 19.538125 1.13671875 18.65625 C1.13285156 17.7796875 1.12898437 16.903125 1.125 16 C1.12886719 15.1234375 1.13273438 14.246875 1.13671875 13.34375 C1.13542969 12.4878125 1.13414062 11.631875 1.1328125 10.75 C1.13168457 9.98171875 1.13055664 9.2134375 1.12939453 8.421875 C0.97828108 5.5934873 0.46564725 2.79388348 0 0 Z " fill="#000000" transform="translate(141,64)"/>
<path d="M0 0 C3.82026877 1.27342292 4.37177718 2.73754073 6.5625 6.0625 C11.34426803 12.86323675 17.13815974 17.42543983 24 22 C22.59771936 25.17098328 20.94394221 27.30370777 18.49459839 29.74591064 C17.40504852 30.8395845 17.40504852 30.8395845 16.29348755 31.95535278 C15.49651459 32.74513519 14.69954163 33.5349176 13.87841797 34.34863281 C13.03931885 35.18802399 12.20021973 36.02741516 11.33569336 36.89224243 C9.03782233 39.18895972 6.73557743 41.48118096 4.43131018 43.7714777 C2.02274213 46.16753468 -0.38015516 48.56926488 -2.78366089 50.97039795 C-7.33408956 55.51461297 -11.88959199 60.0537061 -16.44694126 64.59097934 C-21.63584111 69.75751666 -26.81905625 74.92974101 -32.00180268 80.10244989 C-42.66155703 90.74130483 -53.32842605 101.37300007 -64 112 C-67.82026877 110.72657708 -68.37177718 109.26245927 -70.5625 105.9375 C-75.34426803 99.13676325 -81.13815974 94.57456017 -88 90 C-86.59771936 86.82901672 -84.94394221 84.69629223 -82.49459839 82.25408936 C-81.76823181 81.52497345 -81.04186523 80.79585754 -80.29348755 80.04464722 C-79.49651459 79.25486481 -78.69954163 78.4650824 -77.87841797 77.65136719 C-76.61976929 76.39228043 -76.61976929 76.39228043 -75.33569336 75.10775757 C-73.03782233 72.81104028 -70.73557743 70.51881904 -68.43131018 68.2285223 C-66.02274213 65.83246532 -63.61984484 63.43073512 -61.21633911 61.02960205 C-56.66591044 56.48538703 -52.11040801 51.9462939 -47.55305874 47.40902066 C-42.36415889 42.24248334 -37.18094375 37.07025899 -31.99819732 31.89755011 C-21.33844297 21.25869517 -10.67157395 10.62699993 0 0 Z " fill="#000000" transform="translate(200,288)"/>
<path d="M0 0 C3.82026877 1.27342292 4.37177718 2.73754073 6.5625 6.0625 C11.34426803 12.86323675 17.13815974 17.42543983 24 22 C22.59771936 25.17098328 20.94394221 27.30370777 18.49459839 29.74591064 C17.40504852 30.8395845 17.40504852 30.8395845 16.29348755 31.95535278 C15.49651459 32.74513519 14.69954163 33.5349176 13.87841797 34.34863281 C13.03931885 35.18802399 12.20021973 36.02741516 11.33569336 36.89224243 C9.03782233 39.18895972 6.73557743 41.48118096 4.43131018 43.7714777 C2.02274213 46.16753468 -0.38015516 48.56926488 -2.78366089 50.97039795 C-7.33408956 55.51461297 -11.88959199 60.0537061 -16.44694126 64.59097934 C-21.63584111 69.75751666 -26.81905625 74.92974101 -32.00180268 80.10244989 C-42.66155703 90.74130483 -53.32842605 101.37300007 -64 112 C-67.82026877 110.72657708 -68.37177718 109.26245927 -70.5625 105.9375 C-75.34426803 99.13676325 -81.13815974 94.57456017 -88 90 C-86.59771936 86.82901672 -84.94394221 84.69629223 -82.49459839 82.25408936 C-81.76823181 81.52497345 -81.04186523 80.79585754 -80.29348755 80.04464722 C-79.49651459 79.25486481 -78.69954163 78.4650824 -77.87841797 77.65136719 C-76.61976929 76.39228043 -76.61976929 76.39228043 -75.33569336 75.10775757 C-73.03782233 72.81104028 -70.73557743 70.51881904 -68.43131018 68.2285223 C-66.02274213 65.83246532 -63.61984484 63.43073512 -61.21633911 61.02960205 C-56.66591044 56.48538703 -52.11040801 51.9462939 -47.55305874 47.40902066 C-42.36415889 42.24248334 -37.18094375 37.07025899 -31.99819732 31.89755011 C-21.33844297 21.25869517 -10.67157395 10.62699993 0 0 Z " fill="#000000" transform="translate(376,112)"/>
</svg>
