<?xml version="1.0" standalone="no"?>
<!DOCTYPE svg PUBLIC "-//W3C//DTD SVG 20010904//EN"
 "http://www.w3.org/TR/2001/REC-SVG-20010904/DTD/svg10.dtd">
<svg version="1.0" xmlns="http://www.w3.org/2000/svg"
 width="512.000000pt" height="512.000000pt" viewBox="0 0 512.000000 512.000000"
 preserveAspectRatio="xMidYMid meet">

<g transform="translate(0.000000,512.000000) scale(0.100000,-0.100000)"
fill="#000000" stroke="none">
<path d="M415 4786 c-37 -16 -70 -52 -84 -89 -7 -18 -11 -173 -11 -443 l0
-414 640 0 640 0 0 480 0 480 -577 0 c-459 -1 -584 -4 -608 -14z m600 -171
c23 -22 25 -32 25 -120 l0 -95 95 0 c88 0 98 -2 120 -25 33 -32 33 -78 0 -110
-22 -23 -32 -25 -120 -25 l-95 0 0 -95 c0 -88 -2 -98 -25 -120 -15 -16 -36
-25 -55 -25 -19 0 -40 9 -55 25 -23 22 -25 32 -25 120 l0 95 -95 0 c-88 0 -98
2 -120 25 -33 32 -33 78 0 110 22 23 32 25 120 25 l95 0 0 95 c0 88 2 98 25
120 15 16 36 25 55 25 19 0 40 -9 55 -25z"/>
<path d="M1760 4320 l0 -480 800 0 800 0 0 480 0 480 -800 0 -800 0 0 -480z
m1088 184 c186 -139 201 -156 188 -208 -9 -35 -360 -296 -398 -296 -53 0 -92
61 -72 114 3 9 38 39 77 68 l71 53 -298 5 -298 5 -19 24 c-10 13 -19 36 -19
51 0 15 9 38 19 51 l19 24 298 5 298 5 -71 53 c-39 29 -74 59 -77 68 -12 32
-5 66 19 89 45 46 66 37 263 -111z"/>
<path d="M3520 4320 l0 -480 640 0 641 0 -3 429 c-3 416 -4 430 -24 457 -11
15 -33 37 -48 48 -27 21 -39 21 -617 24 l-589 2 0 -480z m935 295 c45 -44 37
-61 -150 -342 -181 -272 -192 -284 -248 -269 -12 3 -66 50 -120 104 -82 84
-97 104 -97 131 0 42 38 81 80 81 25 0 45 -12 90 -56 l59 -56 140 210 c77 116
146 212 153 215 32 13 70 6 93 -18z"/>
<path d="M322 2051 c3 -1628 3 -1630 24 -1657 11 -15 33 -37 48 -48 27 -21 39
-21 617 -24 l589 -2 0 1680 0 1680 -640 0 -640 0 2 -1629z m933 1444 c25 -24
25 -26 25 -215 0 -189 0 -191 -25 -215 l-24 -25 -271 0 -271 0 -24 25 c-25 24
-25 26 -25 215 0 189 0 191 25 215 l24 25 271 0 271 0 24 -25z m0 -800 c25
-24 25 -26 25 -215 0 -189 0 -191 -25 -215 l-24 -25 -271 0 -271 0 -24 25
c-25 24 -25 26 -25 215 0 189 0 191 25 215 l24 25 271 0 271 0 24 -25z m0
-800 c25 -24 25 -26 25 -215 0 -189 0 -191 -25 -215 l-24 -25 -271 0 -271 0
-24 25 c-25 24 -25 26 -25 215 0 189 0 191 25 215 l24 25 271 0 271 0 24 -25z
m0 -800 c25 -24 25 -26 25 -215 0 -189 0 -191 -25 -215 l-24 -25 -271 0 -271
0 -24 25 c-25 24 -25 26 -25 215 0 189 0 191 25 215 l24 25 271 0 271 0 24
-25z"/>
<path d="M1760 2000 l0 -1680 800 0 800 0 0 1680 0 1680 -800 0 -800 0 0
-1680z m1255 1495 c25 -24 25 -26 25 -215 0 -189 0 -191 -25 -215 l-24 -25
-431 0 -431 0 -24 25 c-25 24 -25 26 -25 215 0 189 0 191 25 215 l24 25 431 0
431 0 24 -25z m0 -800 c25 -24 25 -26 25 -215 0 -189 0 -191 -25 -215 l-24
-25 -431 0 -431 0 -24 25 c-25 24 -25 26 -25 215 0 189 0 191 25 215 l24 25
431 0 431 0 24 -25z m0 -800 c25 -24 25 -26 25 -215 0 -189 0 -191 -25 -215
l-24 -25 -431 0 -431 0 -24 25 c-25 24 -25 26 -25 215 0 189 0 191 25 215 l24
25 431 0 431 0 24 -25z m0 -800 c25 -24 25 -26 25 -215 0 -189 0 -191 -25
-215 l-24 -25 -431 0 -431 0 -24 25 c-25 24 -25 26 -25 215 0 189 0 191 25
215 l24 25 431 0 431 0 24 -25z"/>
<path d="M3520 2000 l0 -1680 589 2 c578 3 590 3 617 24 15 11 37 33 48 48 21
27 21 29 24 1657 l2 1629 -640 0 -640 0 0 -1680z m935 1495 c25 -24 25 -26 25
-215 0 -189 0 -191 -25 -215 l-24 -25 -271 0 -271 0 -24 25 c-25 24 -25 26
-25 215 0 189 0 191 25 215 l24 25 271 0 271 0 24 -25z m0 -800 c25 -24 25
-26 25 -215 0 -189 0 -191 -25 -215 l-24 -25 -271 0 -271 0 -24 25 c-25 24
-25 26 -25 215 0 189 0 191 25 215 l24 25 271 0 271 0 24 -25z m0 -800 c25
-24 25 -26 25 -215 0 -189 0 -191 -25 -215 l-24 -25 -271 0 -271 0 -24 25
c-25 24 -25 26 -25 215 0 189 0 191 25 215 l24 25 271 0 271 0 24 -25z m0
-800 c25 -24 25 -26 25 -215 0 -189 0 -191 -25 -215 l-24 -25 -271 0 -271 0
-24 25 c-25 24 -25 26 -25 215 0 189 0 191 25 215 l24 25 271 0 271 0 24 -25z"/>
</g>
</svg>
