<?xml version="1.0" encoding="UTF-8"?>
<svg version="1.1" xmlns="http://www.w3.org/2000/svg" width="512" height="512">
<path d="M0 0 C0.825 -0.02191406 1.65 -0.04382812 2.5 -0.06640625 C6.032666 0.82228004 7.89821781 2.70174091 10 5.5625 C11.7477479 9.12074677 13.06636105 12.80848258 14.3984375 16.5390625 C14.9955101 18.15885513 14.9955101 18.15885513 15.60464478 19.81137085 C16.87448001 23.26546316 18.12502446 26.72617777 19.375 30.1875 C20.20705849 32.46140439 21.04038015 34.73484699 21.875 37.0078125 C22.28196106 38.12105896 22.68892212 39.23430542 23.10821533 40.38128662 C23.92539023 42.60791049 24.7492289 44.83210025 25.57977295 47.05377197 C27.43975135 52.06731327 29.17772371 57.02589668 30.52832031 62.20214844 C32.58138912 70.3923287 32.58138912 70.3923287 37.63287354 76.87841797 C41.89677078 79.29016278 46.50351931 80.51325979 51.21166992 81.76696777 C56.48354364 83.27107429 61.5743595 85.29938143 66.703125 87.2265625 C68.94060096 88.04906896 71.17889186 88.86936173 73.41796875 89.6875 C74.53993652 90.09871094 75.6619043 90.50992188 76.81787109 90.93359375 C79.12606867 91.77687891 81.43566869 92.61633423 83.74658203 93.45214844 C87.13217497 94.67817156 90.51174619 95.91967472 93.890625 97.1640625 C94.91875305 97.5318985 95.9468811 97.8997345 97.00616455 98.27871704 C109.10442795 102.7713559 109.10442795 102.7713559 112 108.5625 C112.70183123 115.58081234 112.70183123 115.58081234 109.88769531 119.51708984 C107.1055087 122.75328323 104.30068326 124.07616292 100.2734375 125.5546875 C99.64394196 125.79035431 99.01444641 126.02602112 98.36587524 126.26882935 C97.04617732 126.75927658 95.72328163 127.2411977 94.39746094 127.71484375 C92.36724087 128.44027245 90.34749077 129.19025382 88.328125 129.9453125 C78.52391951 133.5625 78.52391951 133.5625 75 133.5625 C75.33 145.1125 75.66 156.6625 76 168.5625 C79.12468608 160.14608566 79.12468608 160.14608566 82.22167969 151.71948242 C82.81577637 150.14710815 82.81577637 150.14710815 83.421875 148.54296875 C83.81987305 147.46942139 84.21787109 146.39587402 84.62792969 145.28979492 C86.10491809 142.35395197 87.16630921 141.17049652 90 139.5625 C94.42713643 138.56282403 96.90258448 138.24593783 101.25 139.5 C106.86549462 143.71162097 108.15493841 149.87577352 109.56640625 156.44921875 C112.53898322 170.14698145 112.53898322 170.14698145 120.81500244 180.93493652 C129.17735842 185.88224533 138.96392015 188.5996737 148.37849426 190.77987671 C153.22890725 191.97761744 155.80494491 193.74457812 159 197.5625 C160.5547669 200.67203379 160.28644437 203.12516761 160 206.5625 C157.29313761 211.6754623 154.95956872 213.50009072 149.5625 215.4375 C148.92868408 215.67162598 148.29486816 215.90575195 147.6418457 216.14697266 C146.22838698 216.66898389 144.81210115 217.18338338 143.39355469 217.69140625 C140.71908562 218.66473404 138.0667945 219.68768472 135.4140625 220.71875 C127.32986294 223.85241628 127.32986294 223.85241628 124.26171875 225.0234375 C123.48787842 225.32040527 122.71403809 225.61737305 121.91674805 225.92333984 C120 226.5625 120 226.5625 118 226.5625 C117.88374268 227.41320068 117.76748535 228.26390137 117.64770508 229.14038086 C116.59642157 234.69478752 114.45034218 239.86410723 112.44458008 245.13061523 C111.68978579 247.11897851 110.95095765 249.11279882 110.21289062 251.10742188 C109.73012797 252.38578011 109.24643474 253.66378739 108.76171875 254.94140625 C108.32819092 256.0919751 107.89466309 257.24254395 107.44799805 258.42797852 C105.69695278 262.21851472 103.82892585 265.64803707 100 267.5625 C98.01171875 267.80078125 98.01171875 267.80078125 95.6875 267.875 C94.92824219 267.91238281 94.16898437 267.94976562 93.38671875 267.98828125 C89.84583323 267.35660118 88.49120983 266.18378882 86 263.5625 C84.31728419 260.37402136 83.06268658 257.06519707 81.8125 253.6875 C81.47025391 252.80191406 81.12800781 251.91632813 80.77539062 251.00390625 C79.06889477 246.55707627 77.50049219 242.0830953 76 237.5625 C75.99641747 239.46586152 75.99641747 239.46586152 75.99276257 241.40767479 C75.93536513 271.54952175 75.86260791 301.69128912 75.77101372 331.83304974 C75.75974596 335.54543777 75.74860745 339.25782618 75.73754883 342.97021484 C75.73534514 343.7092642 75.73314146 344.44831356 75.730871 345.20975836 C75.69552788 357.16606573 75.67064691 369.12237303 75.64965298 381.07871322 C75.62786712 393.35299792 75.5947903 405.62721501 75.55129844 417.90144217 C75.52482963 425.47130975 75.50709917 433.04109312 75.50065396 440.61100467 C75.49476136 446.42202653 75.47313637 452.23290894 75.44572449 458.0438652 C75.43694418 460.42301098 75.43322166 462.80218176 75.43499184 465.18134308 C75.4366486 468.43608731 75.41991015 471.69025129 75.39872742 474.94491577 C75.40599878 476.34865592 75.40599878 476.34865592 75.41341704 477.78075445 C75.29986928 488.39273904 72.54988517 496.95442689 65 504.5625 C58.60424873 509.75696234 52.40550451 512.8081397 44.03941631 512.81976891 C42.8625994 512.8262178 41.68578248 512.83266669 40.47330445 512.839311 C39.18956195 512.8362138 37.90581945 512.8331166 36.58317566 512.82992554 C35.19847612 512.83366366 33.81377869 512.83826582 32.4290846 512.84365618 C28.62906315 512.85588162 24.82912977 512.85562626 21.02909315 512.85326743 C16.92876987 512.85285915 12.82847479 512.86389948 8.72816467 512.87338257 C0.69678527 512.88999093 -7.33456478 512.89549204 -15.36595992 512.89660732 C-21.89463455 512.89755786 -28.42329949 512.90166841 -34.95197105 512.90800858 C-53.46434565 512.92562039 -71.97669707 512.93484752 -90.48908011 512.93334763 C-91.48695369 512.93326772 -92.48482728 512.9331878 -93.51293945 512.93310547 C-94.51203221 512.93302371 -95.51112497 512.93294195 -96.54049327 512.93285771 C-112.73272048 512.93204478 -128.92485467 512.95118429 -145.11705498 512.9793822 C-161.7454275 513.00811106 -178.37375465 513.0219225 -195.00215262 513.02019465 C-204.33680537 513.01953076 -213.67136059 513.0250227 -223.00599098 513.04655075 C-230.95357616 513.06476255 -238.90101962 513.06910989 -246.84861664 513.0555319 C-250.90243095 513.04900228 -254.95597337 513.04888467 -259.00976181 513.0662384 C-262.72395855 513.08197466 -266.43766792 513.07910027 -270.15185281 513.06167014 C-272.12527452 513.05715248 -274.09871138 513.07225324 -276.07207423 513.08814943 C-286.44033309 513.00764987 -293.59874639 510.5697419 -301.2109375 503.48828125 C-307.54527741 496.66987607 -310.24607066 489.44730346 -310.26006222 480.14226341 C-310.26386789 479.41293482 -310.26767356 478.68360623 -310.27159455 477.93217677 C-310.28190484 475.48713212 -310.27800522 473.04231987 -310.27415466 470.59725952 C-310.27860738 468.82696704 -310.28392154 467.05667656 -310.29002339 465.28638899 C-310.30420992 460.42042037 -310.30586655 455.5545156 -310.30542648 450.68852925 C-310.30707412 445.44089895 -310.3201397 440.193295 -310.33161926 434.94567871 C-310.35447298 423.47038801 -310.36239034 411.9951158 -310.36744571 400.51980543 C-310.37070243 393.35394611 -310.37722478 386.18809216 -310.3844471 379.02223587 C-310.40401386 359.18027354 -310.42041751 339.33831621 -310.42332363 319.49634361 C-310.4235112 318.22650025 -310.42369877 316.95665688 -310.42389202 315.64833341 C-310.42425827 313.0740672 -310.42462197 310.49980098 -310.42498314 307.92553477 C-310.42516595 306.64767177 -310.42534876 305.36980877 -310.42553711 304.05322266 C-310.42571766 302.77379904 -310.42589821 301.49437542 -310.42608423 300.17618139 C-310.42962561 279.44647264 -310.45664549 258.71686778 -310.494035 237.98719506 C-310.53211905 216.70202802 -310.55148112 195.41691252 -310.55178314 174.13171065 C-310.55236771 162.1817938 -310.56085901 150.23200088 -310.58978081 138.28211594 C-310.61429597 128.10617047 -310.62157661 117.93039413 -310.60653328 107.75442712 C-310.59936492 102.56404206 -310.60021896 97.37399095 -310.62294388 92.18364334 C-310.64356801 87.42746922 -310.64090131 82.67188506 -310.62006903 77.91571708 C-310.61658072 76.19967369 -310.62145615 74.48358743 -310.63577347 72.76760022 C-310.72940503 60.76731158 -309.63792076 50.31741212 -301.1875 41.0625 C-295.62976798 35.99949034 -289.09729887 32.43586598 -281.47663593 32.43945217 C-280.54407956 32.43746112 -279.6115232 32.43547007 -278.65070754 32.43341869 C-277.62445382 32.43633153 -276.5982001 32.43924437 -275.54084778 32.44224548 C-273.90766547 32.44096385 -273.90766547 32.44096385 -272.24148959 32.43965632 C-268.57479495 32.4380026 -264.90814554 32.44352116 -261.24145508 32.44897461 C-258.62035625 32.44925653 -255.99925735 32.44909865 -253.37815857 32.4485321 C-247.72566569 32.44800729 -242.07318433 32.45114967 -236.42069435 32.45676994 C-228.24810378 32.46489067 -220.07551879 32.46750075 -211.90292462 32.46875793 C-198.64402015 32.47094755 -185.38512183 32.47760519 -172.1262207 32.48706055 C-159.24503612 32.496237 -146.36385321 32.50331669 -133.48266602 32.50756836 C-132.29203704 32.50796244 -132.29203704 32.50796244 -131.07735495 32.50836449 C-127.09540391 32.50966951 -123.11345285 32.51093322 -119.13150179 32.51217639 C-86.08766339 32.52254619 -53.04383252 32.54016206 -20 32.5625 C-19.70384293 31.5627565 -19.70384293 31.5627565 -19.40170288 30.54281616 C-19.13813995 29.65776398 -18.87457703 28.77271179 -18.60302734 27.86083984 C-18.34371429 26.98809418 -18.08440125 26.11534851 -17.81723022 25.21615601 C-16.56485848 21.1495372 -15.12981709 17.16645329 -13.625 13.1875 C-13.3465625 12.40761719 -13.068125 11.62773437 -12.78125 10.82421875 C-10.36661188 4.461321 -7.420332 -0.01159427 0 0 Z M-1 44.5625 C-1.20409485 45.11516037 -1.4081897 45.66782074 -1.61846924 46.23722839 C-3.74886346 52.00035544 -5.89236176 57.75848452 -8.04345703 63.51391602 C-8.84401571 65.66110445 -9.64125026 67.80953536 -10.43505859 69.95922852 C-11.57814078 73.05298975 -12.73319212 76.14205232 -13.890625 79.23046875 C-14.24183411 80.18898239 -14.59304321 81.14749603 -14.95489502 82.13505554 C-19.0981319 93.10759005 -19.0981319 93.10759005 -24.12713623 95.62898254 C-26.87445949 96.77299905 -29.64522333 97.78361523 -32.453125 98.76953125 C-33.97616241 99.32491829 -33.97616241 99.32491829 -35.52996826 99.89152527 C-38.76488284 101.06736996 -42.00709937 102.22138664 -45.25 103.375 C-47.44843349 104.16979585 -49.64635701 104.96600382 -51.84375 105.76367188 C-57.22336299 107.71302136 -62.60912812 109.6445219 -68 111.5625 C-68 112.2225 -68 112.8825 -68 113.5625 C-67.43259094 113.76437424 -66.86518188 113.96624847 -66.28057861 114.17424011 C-60.36895509 116.28097603 -54.46554928 118.4095978 -48.56640625 120.55102539 C-46.36465743 121.34701983 -44.16088379 122.13743679 -41.95507812 122.92211914 C-38.78224905 124.05190355 -35.61727581 125.20163738 -32.453125 126.35546875 C-31.46757629 126.70151657 -30.48202759 127.04756439 -29.46661377 127.40409851 C-20.74691425 130.62407681 -20.74691425 130.62407681 -18 135.5625 C-16.47839055 138.95483512 -15.16947089 142.40432782 -13.890625 145.89453125 C-13.51895203 146.88627853 -13.14727905 147.87802582 -12.76434326 148.89982605 C-11.58415216 152.05503623 -10.41693022 155.21486449 -9.25 158.375 C-8.45007078 160.52050016 -7.6492989 162.66568633 -6.84765625 164.81054688 C-4.88865997 170.05759951 -2.94027769 175.30849878 -1 180.5625 C1.68165624 179.22167188 1.71756488 178.09043807 2.69238281 175.28979492 C3.01321838 174.38182663 3.33405396 173.47385834 3.66461182 172.53837585 C4.17867584 171.05564934 4.17867584 171.05564934 4.703125 169.54296875 C5.443254 167.46782902 6.18416425 165.39296779 6.92578125 163.31835938 C8.09064448 160.0360762 9.2493021 156.75200538 10.39404297 153.46264648 C11.49995882 150.29522916 12.63083773 147.13763752 13.765625 143.98046875 C14.26754364 142.50685127 14.26754364 142.50685127 14.77960205 141.00346375 C16.83430704 135.35023247 18.33246721 132.24800947 24 129.5625 C27.29320129 128.15140677 30.623768 126.89145909 33.9921875 125.671875 C34.93812775 125.32239807 35.88406799 124.97292114 36.8586731 124.612854 C39.86146804 123.50537734 42.86810969 122.4088022 45.875 121.3125 C47.91953497 120.56061368 49.96380886 119.80801705 52.0078125 119.0546875 C57.00221541 117.2157247 61.99981576 115.38568052 67 113.5625 C67 112.9025 67 112.2425 67 111.5625 C66.47461639 111.37093323 65.94923279 111.17936646 65.40792847 110.98199463 C59.92110137 108.97960466 54.43843334 106.96613209 48.95800781 104.94628906 C46.91444967 104.19476198 44.86986137 103.4460298 42.82421875 102.70019531 C39.87742703 101.62524697 36.93453395 100.54017273 33.9921875 99.453125 C33.0825827 99.12378967 32.17297791 98.79445435 31.23580933 98.45513916 C19.32815758 94.02623249 19.32815758 94.02623249 16.85653687 89.44137573 C15.70828973 86.70693297 14.7218094 83.95185882 13.765625 81.14453125 C13.40152527 80.13154465 13.03742554 79.11855804 12.66229248 78.07487488 C11.50576867 74.84800551 10.37665996 71.61240426 9.25 68.375 C8.10463674 65.12868449 6.95362986 61.88454465 5.79486084 58.64299011 C5.07594601 56.62732968 4.36562741 54.6085793 3.66461182 52.58662415 C3.34377625 51.67865585 3.02294067 50.77068756 2.69238281 49.83520508 C2.41291809 49.03230545 2.13345337 48.22940582 1.84552002 47.4021759 C1.14618765 45.37478495 1.14618765 45.37478495 -1 44.5625 Z M-232 158.5625 C-234.46672109 162.26258163 -234.670778 165.26952078 -234 169.5625 C-232.15001332 172.83555336 -230.84524126 174.199032 -227.39404297 175.68310547 C-223.26861618 176.75200112 -219.55923826 176.81402877 -215.3203125 176.7578125 C-214.50754852 176.7549826 -213.69478455 176.75215271 -212.85739136 176.74923706 C-210.27977325 176.73810619 -207.70251181 176.71301515 -205.125 176.6875 C-203.36979671 176.67746101 -201.61458794 176.66833677 -199.859375 176.66015625 C-195.57278074 176.63819015 -191.2864507 176.60370978 -187 176.5625 C-187.00666183 178.53447861 -187.00666183 178.53447861 -187.01345825 180.54629517 C-187.05400095 192.93541029 -187.08398282 205.32451195 -187.10362434 217.71367836 C-187.11406168 224.08307281 -187.12822012 230.45241371 -187.15087891 236.82177734 C-187.17260884 242.96850486 -187.184569 249.11518086 -187.18975449 255.26194382 C-187.19344995 257.60708807 -187.20066621 259.95222951 -187.21146011 262.29735184 C-187.22597682 265.58192286 -187.22797784 268.86628097 -187.22705078 272.15087891 C-187.23424133 273.12048553 -187.24143188 274.09009216 -187.24884033 275.08908081 C-187.23075894 281.00904829 -186.91923512 285.93243705 -183.3125 290.875 C-180.11722413 293.2066878 -177.94449245 293.5625 -174 293.5625 C-169.94873321 291.49864711 -167.66553868 289.77845936 -166 285.5625 C-165.70802169 283.33447145 -165.70802169 283.33447145 -165.75949097 280.94342041 C-165.75674164 280.02077896 -165.75399231 279.09813751 -165.75115967 278.14753723 C-165.75835022 277.14268784 -165.76554077 276.13783844 -165.77294922 275.10253906 C-165.77265717 274.03881577 -165.77236511 272.97509247 -165.77206421 271.87913513 C-165.7734579 268.36204887 -165.78902118 264.84517427 -165.8046875 261.328125 C-165.80841748 258.89003617 -165.81126453 256.45194584 -165.81326294 254.01385498 C-165.82090052 247.59572209 -165.84055018 241.17767966 -165.8626709 234.75958252 C-165.88312658 228.21082788 -165.89226407 221.66205863 -165.90234375 215.11328125 C-165.92379586 202.26298223 -165.95754915 189.41274593 -166 176.5625 C-164.8855249 176.57821045 -163.7710498 176.5939209 -162.62280273 176.61010742 C-158.46499943 176.66464631 -154.3072274 176.6989368 -150.14916992 176.72729492 C-148.35386833 176.74232716 -146.55860312 176.76275857 -144.76342773 176.78881836 C-142.17422474 176.82544786 -139.58550972 176.8422821 -136.99609375 176.85546875 C-136.20101913 176.87095261 -135.40594452 176.88643646 -134.58677673 176.90238953 C-129.31557767 176.90396059 -125.66060828 176.08468969 -121 173.5625 C-118.71124482 170.34393803 -118 168.44391866 -118 164.5 C-119.43356502 160.28890274 -122.01395284 157.55552358 -126 155.5625 C-129.11097748 155.45317702 -132.19990808 155.40515435 -135.31152344 155.40136719 C-136.27753479 155.39640228 -137.24354614 155.39143738 -138.23883057 155.38632202 C-141.44568588 155.37167609 -144.65249169 155.36489375 -147.859375 155.359375 C-150.0841675 155.35362481 -152.30895998 155.34786706 -154.53375244 155.34210205 C-159.20447013 155.33158463 -163.87517057 155.32574706 -168.54589844 155.32226562 C-174.52926317 155.31678449 -180.51239993 155.29276758 -186.49569321 155.26429367 C-191.09393985 155.24566255 -195.6921317 155.24046139 -200.2904129 155.23892975 C-202.49600722 155.23590292 -204.70160057 155.2278734 -206.9071579 155.21474457 C-209.99524717 155.19767723 -213.08278105 155.19956637 -216.17089844 155.20605469 C-217.08125854 155.1968399 -217.99161865 155.18762512 -218.92956543 155.1781311 C-224.02217833 155.21162478 -227.6232704 155.65961162 -232 158.5625 Z M-95.4375 161.375 C-96.31325348 164.780708 -95.89136765 167.17530292 -95 170.5625 C-92.2372778 173.99723571 -90.30895415 175.79825371 -86 176.5625 C-82.39900289 176.80809865 -78.79605026 176.79359469 -75.1875 176.8125 C-74.21490234 176.833125 -73.24230469 176.85375 -72.24023438 176.875 C-66.37512647 176.90676768 -62.13889826 176.47843025 -57 173.5625 C-54.71124482 170.34393803 -54 168.44391866 -54 164.5 C-55.43356502 160.28890274 -58.01395284 157.55552358 -62 155.5625 C-66.24394198 155.26423925 -70.4968166 155.28437379 -74.75 155.25 C-75.93078125 155.22099609 -77.1115625 155.19199219 -78.328125 155.16210938 C-85.80181052 155.10740334 -90.5795276 155.24973045 -95.4375 161.375 Z M95 182.5625 C94.68546875 183.46613281 94.3709375 184.36976563 94.046875 185.30078125 C93.61890625 186.48027344 93.1909375 187.65976563 92.75 188.875 C92.12351562 190.63263672 92.12351562 190.63263672 91.484375 192.42578125 C89.44210302 196.74142441 87.52499489 197.92566554 83.203125 199.73046875 C82.22859375 200.06691406 81.2540625 200.40335938 80.25 200.75 C79.26515625 201.09417969 78.2803125 201.43835938 77.265625 201.79296875 C76.51796875 202.04691406 75.7703125 202.30085938 75 202.5625 C77.26595342 204.82845342 78.8752032 205.32907678 81.875 206.375 C87.36460667 208.54402562 89.71066406 210.62768288 92.1171875 216.10546875 C93.12758334 218.57571238 94.08487253 221.05563486 95 223.5625 C97.26595342 221.29654658 97.76657678 219.6872968 98.8125 216.6875 C100.98152562 211.19789333 103.06518288 208.85183594 108.54296875 206.4453125 C111.01321238 205.43491666 113.49313486 204.47762747 116 203.5625 C112.59100846 201.28983897 109.21818264 200.11893969 105.375 198.7578125 C100.71120989 196.41057603 99.45162744 192.5603174 97.8125 187.8125 C97.46832031 186.82765625 97.12414062 185.8428125 96.76953125 184.828125 C96.51558594 184.08046875 96.26164062 183.3328125 96 182.5625 C95.67 182.5625 95.34 182.5625 95 182.5625 Z M-93 211.5625 C-95.28875518 214.78106197 -96 216.68108134 -96 220.625 C-94.56643498 224.83609726 -91.98604716 227.56947642 -88 229.5625 C-86.51533288 229.66721731 -85.02614515 229.71117047 -83.5378418 229.72363281 C-82.61315598 229.73324036 -81.68847015 229.7428479 -80.73576355 229.75274658 C-79.23267387 229.7591214 -79.23267387 229.7591214 -77.69921875 229.765625 C-76.6706929 229.77132507 -75.64216705 229.77702515 -74.58247375 229.78289795 C-72.40273063 229.79235619 -70.22297314 229.79888519 -68.04321289 229.80273438 C-64.71149648 229.81243017 -61.3803994 229.84344216 -58.04882812 229.875 C-55.93229533 229.88153093 -53.81575813 229.88678105 -51.69921875 229.890625 C-50.70323166 229.9029718 -49.70724457 229.9153186 -48.68107605 229.92803955 C-42.4487342 229.90801704 -38.79904143 229.26502276 -34.1875 224.8125 C-32.45431891 221.52857794 -32.55067367 219.22130015 -33 215.5625 C-34.83774359 212.38178994 -36.17353865 210.92634641 -39.53930664 209.44458008 C-44.0004119 208.30750965 -48.16047189 208.25701037 -52.74609375 208.26171875 C-53.67543228 208.25743362 -54.60477081 208.2531485 -55.56227112 208.24873352 C-57.52140491 208.24300846 -59.48055994 208.24247647 -61.43969727 208.24682617 C-64.42436235 208.24998609 -67.40803538 208.22650421 -70.39257812 208.20117188 C-72.30208209 208.19889857 -74.2115887 208.19819553 -76.12109375 208.19921875 C-77.44952553 208.18540413 -77.44952553 208.18540413 -78.80479431 208.17131042 C-84.28714858 208.21191511 -88.16637147 208.90575036 -93 211.5625 Z M-123 265.5625 C-125.32826375 268.77772137 -125.39711181 271.67080425 -125 275.5625 C-123.27329286 279.36125571 -121.83972574 281.02310477 -118 282.5625 C-115.7233741 282.86829867 -115.7233741 282.86829867 -113.2694397 282.83665466 C-111.84799904 282.85161736 -111.84799904 282.85161736 -110.39784241 282.86688232 C-108.84860329 282.86787933 -108.84860329 282.86787933 -107.26806641 282.86889648 C-106.17496658 282.87722 -105.08186676 282.88554352 -103.9556427 282.89411926 C-100.33757987 282.91823979 -96.71969723 282.92699371 -93.1015625 282.93359375 C-90.58816472 282.94255802 -88.07476751 282.95167982 -85.56137085 282.96095276 C-80.29058084 282.97745054 -75.01983489 282.98517747 -69.74902344 282.98803711 C-63.66402497 282.99167196 -57.57953101 283.021566 -51.49468672 283.06344169 C-45.63312253 283.10236126 -39.77175801 283.11363051 -33.91007614 283.11476326 C-31.41977577 283.11897169 -28.92947521 283.13143071 -26.43925858 283.15228081 C-22.95596583 283.17912544 -19.4740659 283.1743892 -15.99072266 283.16186523 C-14.96194504 283.17669952 -13.93316742 283.19153381 -12.87321472 283.20681763 C-8.35712334 283.16056248 -5.02386878 283.09417378 -1.37948608 280.24378967 C1.58661084 276.90148602 2.0793669 275.00704647 2 270.5625 C0.38181482 266.81512379 -1.5805378 264.72932624 -5 262.5625 C-7.27384965 262.1164975 -7.27384965 262.1164975 -9.73728943 262.18154907 C-11.16089783 262.16885986 -11.16089783 262.16885986 -12.61326599 262.15591431 C-13.64766312 262.161987 -14.68206024 262.16805969 -15.74780273 262.17431641 C-16.84250885 262.16905945 -17.93721497 262.16380249 -19.06509399 262.15838623 C-22.68807189 262.14516976 -26.31061129 262.1539311 -29.93359375 262.1640625 C-32.44938746 262.1620421 -34.96518059 262.15913095 -37.48097229 262.15536499 C-42.75599651 262.15093928 -48.03090652 262.15709441 -53.3059082 262.17138672 C-59.39876241 262.18770465 -65.4913153 262.18243064 -71.58416218 262.1659075 C-77.45107677 262.1506356 -83.31787714 262.15227472 -89.1848011 262.1610527 C-91.67869166 262.16305498 -94.17258989 262.16059451 -96.66647148 262.15361404 C-100.15212267 262.14599977 -103.6371947 262.1576047 -107.12280273 262.17431641 C-108.67136208 262.16520737 -108.67136208 262.16520737 -110.25120544 262.15591431 C-117.12170485 262.19533798 -117.12170485 262.19533798 -123 265.5625 Z M-235.8125 320.3125 C-237.54568109 323.59642206 -237.44932633 325.90369985 -237 329.5625 C-235.14706063 332.76951044 -233.81611838 334.20899348 -230.41334438 335.68292522 C-226.19304836 336.77044102 -222.349916 336.8429542 -218.01148987 336.82319641 C-216.66976154 336.82893473 -216.66976154 336.82893473 -215.30092758 336.83478898 C-212.30936362 336.84509207 -209.31799255 336.84113193 -206.32641602 336.8371582 C-204.17927879 336.84150614 -202.03214313 336.84668956 -199.88500977 336.85264587 C-194.05655106 336.86603776 -188.22815719 336.86661436 -182.3996861 336.86408257 C-177.53376682 336.86301307 -172.66786067 336.86789567 -167.8019442 336.872688 C-156.32294956 336.88378368 -144.84398764 336.88422013 -133.36499023 336.87817383 C-121.52251778 336.87213202 -109.68016407 336.88445024 -97.83771187 336.9057439 C-87.66940508 336.9233551 -77.50113611 336.92936204 -67.33281463 336.92610615 C-61.26005222 336.92429251 -55.18737454 336.92693773 -49.11462593 336.94082069 C-43.40432444 336.95338663 -37.69420822 336.95146649 -31.98390961 336.93840981 C-29.88890712 336.93604186 -27.79389164 336.93878649 -25.69890404 336.94703293 C-22.83755194 336.95748338 -19.97682347 336.94941322 -17.11549377 336.9367218 C-15.87404117 336.94778323 -15.87404117 336.94778323 -14.60750872 336.95906812 C-9.34688323 336.91003063 -5.65301684 336.07899783 -1 333.5625 C1.28875518 330.34393803 2 328.44391866 2 324.5 C0.56643498 320.28890274 -2.01395284 317.55552358 -6 315.5625 C-8.8987069 315.45994528 -11.77364381 315.4191318 -14.67280579 315.42205811 C-15.58161898 315.41908698 -16.49043218 315.41611586 -17.42678517 315.4130547 C-20.49066869 315.40434083 -23.55451326 315.40285719 -26.6184082 315.40136719 C-28.80760787 315.39674092 -30.99680673 315.39171652 -33.18600464 315.38632202 C-39.14677532 315.37317765 -45.10753473 315.3667491 -51.06831765 315.36231136 C-54.78942979 315.35938393 -58.51053882 315.35527976 -62.2316494 315.35080719 C-73.86558352 315.33712692 -85.49951115 315.32744687 -97.13345271 315.3236053 C-98.47300168 315.32316183 -99.81255065 315.32271527 -101.15209961 315.32226562 C-101.81656415 315.3220442 -102.48102869 315.32182277 -103.16562852 315.32159463 C-113.93215463 315.31764669 -124.69861306 315.30019344 -135.46511302 315.2769061 C-146.51559513 315.25319723 -157.56604156 315.24098848 -168.61654919 315.23956418 C-174.82233561 315.23851437 -181.0280266 315.23256928 -187.23378944 315.21474457 C-193.07041936 315.19830683 -198.90688169 315.19608748 -204.74352646 315.20488358 C-206.88774628 315.20565626 -209.03197495 315.20128098 -211.17617226 315.19142532 C-214.09973071 315.17877379 -217.02268953 315.18454569 -219.94624329 315.19500732 C-220.79799631 315.18695092 -221.64974933 315.17889452 -222.52731305 315.17059398 C-228.22980939 315.21843313 -231.60453836 316.24964049 -235.8125 320.3125 Z M-235 377.5625 C-237.32826375 380.77772137 -237.39711181 383.67080425 -237 387.5625 C-235.27057557 391.36723374 -233.82937843 392.99559391 -230 394.5625 C-226.97520829 394.75968401 -224.04243305 394.8451522 -221.01748657 394.83665466 C-219.64051119 394.84450968 -219.64051119 394.84450968 -218.23571813 394.85252339 C-215.15270709 394.86755246 -212.0698616 394.86822918 -208.98681641 394.86889648 C-206.77923807 394.87651596 -204.57166239 394.88494309 -202.36408997 394.89411926 C-196.36204417 394.91609083 -190.36004933 394.92486664 -184.35796785 394.92994571 C-180.60969594 394.93358585 -176.86143744 394.9398241 -173.11317062 394.9469471 C-162.73320916 394.96640396 -152.35325699 394.98291652 -141.97327614 394.98582363 C-140.97718212 394.98610499 -140.97718212 394.98610499 -139.960965 394.98639202 C-138.61478289 394.98675827 -137.26860078 394.98712197 -135.92241867 394.98748314 C-135.25418262 394.98766595 -134.58594657 394.98784876 -133.89746094 394.98803711 C-133.22840848 394.98821766 -132.55935603 394.98839821 -131.87002926 394.98858423 C-121.0266497 394.99212662 -110.18346864 395.01915411 -99.34015794 395.056535 C-88.2048601 395.09461506 -77.06963488 395.11353996 -65.93426454 395.11428314 C-59.68313855 395.11507717 -53.43226868 395.12387391 -47.18120193 395.15228081 C-41.30258765 395.17839738 -35.42444301 395.18070222 -29.54579735 395.16462517 C-27.38747702 395.16280564 -25.22913008 395.16954659 -23.07086754 395.18544388 C-20.12551232 395.2058172 -17.18181386 395.19540369 -14.23648071 395.17723083 C-13.38122287 395.1904308 -12.52596503 395.20363077 -11.64479029 395.21723074 C-7.51443679 395.15897241 -4.79887197 394.83391913 -1.48912621 392.24282932 C1.60300676 388.91317306 2.08061128 387.07673189 2 382.5625 C0.39111625 378.83666395 -1.47844599 376.55182667 -5 374.5625 C-7.99454946 374.11416647 -10.96613341 374.15803546 -13.98924255 374.18154907 C-15.36727628 374.17452911 -15.36727628 374.17452911 -16.77314907 374.16736734 C-19.85859615 374.15537944 -22.94360218 374.16488952 -26.02905273 374.17431641 C-28.23825338 374.17025237 -30.44745199 374.16491144 -32.65664673 374.15838623 C-38.66280288 374.14468612 -44.66880479 374.15002266 -50.67496371 374.15952349 C-56.95470525 374.16710706 -63.23443338 374.16007801 -69.51417542 374.15536499 C-80.73804226 374.14955316 -91.96184541 374.15889021 -103.18569726 374.174143 C-113.36121909 374.18754313 -123.53663823 374.18522113 -133.7121582 374.17138672 C-145.52805903 374.15532961 -157.34391011 374.14935774 -169.15982395 374.15822351 C-175.41475043 374.16290436 -181.66960617 374.16351359 -187.92452812 374.15361404 C-193.80552724 374.14495694 -199.68633221 374.1509435 -205.56731033 374.16829681 C-207.72764959 374.17226853 -209.88800514 374.17111595 -212.04833794 374.16450882 C-214.9937049 374.15633036 -217.93844684 374.16657047 -220.8837738 374.18154907 C-221.74194448 374.17485691 -222.60011516 374.16816474 -223.48429102 374.16126978 C-228.15310055 374.20743106 -231.19372428 374.55595681 -235 377.5625 Z " fill="#000000" transform="translate(331,-0.5625)"/>
<path d="M0 0 C2.97046873 1.79023785 5.42502414 3.85004828 7 7 C7.07181821 9.71760108 7.09299506 12.40859388 7.0625 15.125 C7.05798828 15.87910156 7.05347656 16.63320313 7.04882812 17.41015625 C7.03703499 19.27347127 7.01909942 21.13674555 7 23 C8.09699219 22.96519531 9.19398438 22.93039063 10.32421875 22.89453125 C11.77863045 22.86638135 13.2330588 22.83908248 14.6875 22.8125 C15.40873047 22.78736328 16.12996094 22.76222656 16.87304688 22.73632812 C21.47336884 22.67331002 24.34385445 23.16094758 28 26 C30.32826375 29.21522137 30.39711181 32.10830425 30 36 C28.78504751 38.67289548 27.81031577 40.42404026 25.40625 42.1328125 C21.88862458 43.40052815 18.43573763 43.20965475 14.75 43.125 C14.00492187 43.11597656 13.25984375 43.10695312 12.4921875 43.09765625 C10.66131941 43.07418358 8.83061762 43.03831525 7 43 C7.05220703 44.64548828 7.05220703 44.64548828 7.10546875 46.32421875 C7.13361865 47.77863045 7.16091752 49.2330588 7.1875 50.6875 C7.21263672 51.40873047 7.23777344 52.12996094 7.26367188 52.87304688 C7.32667231 57.47207891 6.88572296 60.37434807 4 64 C0.30390328 66.46406448 -2.71027391 66.67864807 -7 66 C-11.07560268 63.60779843 -12.61694494 61.44553413 -14 57 C-14.1953125 53.44921875 -14.1953125 53.44921875 -14.125 49.6875 C-14.10695313 48.43324219 -14.08890625 47.17898437 -14.0703125 45.88671875 C-14.04710937 44.93410156 -14.02390625 43.98148438 -14 43 C-15.09699219 43.04640625 -16.19398438 43.0928125 -17.32421875 43.140625 C-18.7786185 43.1781579 -20.23304783 43.21455643 -21.6875 43.25 C-22.40873047 43.28351562 -23.12996094 43.31703125 -23.87304688 43.3515625 C-27.77954343 43.42291404 -29.56934334 43.27534719 -32.95703125 41.109375 C-36.10123992 37.86296452 -36.33404929 35.55792189 -36.29296875 31.0390625 C-35.83745033 27.86865433 -34.24684343 26.1807598 -32 24 C-28.81175432 22.40587716 -25.37103338 22.89825265 -21.875 22.9375 C-21.12089844 22.94201172 -20.36679687 22.94652344 -19.58984375 22.95117188 C-17.72652873 22.96296501 -15.86325445 22.98090058 -14 23 C-14.05220703 21.58847656 -14.05220703 21.58847656 -14.10546875 20.1484375 C-14.13253906 18.90320313 -14.15960938 17.65796875 -14.1875 16.375 C-14.23970703 14.53035156 -14.23970703 14.53035156 -14.29296875 12.6484375 C-13.91284211 7.91459379 -12.49195711 4.59852547 -9.25 1.125 C-5.91027806 -0.54486097 -3.6879065 -0.50867676 0 0 Z " fill="#000000" transform="translate(430,15)"/>
</svg>
