<?xml version="1.0" standalone="no"?>
<!DOCTYPE svg PUBLIC "-//W3C//DTD SVG 20010904//EN"
 "http://www.w3.org/TR/2001/REC-SVG-20010904/DTD/svg10.dtd">
<svg version="1.0" xmlns="http://www.w3.org/2000/svg"
 width="512.000000pt" height="512.000000pt" viewBox="0 0 512.000000 512.000000"
 preserveAspectRatio="xMidYMid meet">

<g transform="translate(0.000000,512.000000) scale(0.100000,-0.100000)"
fill="#000000" stroke="none">
<path d="M2362 5017 c-21 -22 -22 -33 -22 -181 0 -153 1 -157 25 -181 13 -14
36 -25 50 -25 14 0 37 11 50 25 24 24 25 28 25 183 0 153 -1 159 -23 180 -31
29 -77 29 -105 -1z"/>
<path d="M3388 4823 c-39 -45 -148 -252 -148 -282 0 -65 83 -97 127 -48 31 34
153 254 153 275 0 11 -9 31 -21 46 -25 32 -87 37 -111 9z"/>
<path d="M1375 4675 c-14 -13 -25 -35 -25 -48 0 -34 143 -279 171 -295 48 -25
109 13 109 67 0 32 -120 247 -156 279 -33 29 -69 28 -99 -3z"/>
<path d="M2428 4469 c-502 -44 -945 -331 -1197 -774 -87 -153 -155 -357 -182
-543 -19 -134 -6 -403 24 -532 75 -312 200 -534 441 -775 76 -77 166 -176 198
-219 76 -102 160 -273 195 -398 l27 -98 273 0 273 0 0 448 0 449 -72 13 c-204
36 -381 131 -519 277 -166 176 -251 391 -251 633 1 247 82 453 246 628 190
200 407 295 676 295 263 0 482 -93 666 -284 111 -117 170 -215 217 -364 83
-265 42 -552 -114 -784 -139 -208 -353 -350 -598 -397 l-91 -18 0 -448 0 -448
275 0 c263 0 275 1 275 19 0 37 51 195 90 276 67 140 133 226 303 398 186 186
264 290 347 462 92 189 134 345 149 552 34 450 -122 866 -444 1188 -269 270
-579 413 -963 445 -64 5 -126 9 -137 8 -11 0 -59 -4 -107 -9z"/>
<path d="M4085 4089 c-129 -75 -155 -98 -155 -136 0 -33 42 -73 77 -73 33 0
247 119 281 156 12 14 22 36 22 50 0 34 -42 74 -77 74 -16 -1 -80 -31 -148
-71z"/>
<path d="M696 3889 c-32 -25 -36 -79 -8 -107 36 -36 251 -152 282 -152 64 0
95 83 48 127 -35 32 -252 153 -275 153 -11 0 -32 -9 -47 -21z"/>
<path d="M2400 3704 c-140 -30 -272 -102 -376 -204 -103 -101 -161 -197 -205
-340 -20 -62 -24 -97 -24 -205 0 -156 15 -220 81 -353 97 -193 277 -338 495
-398 97 -27 290 -25 392 4 210 60 386 204 481 394 66 133 81 197 81 353 0 108
-4 143 -24 205 -106 343 -400 562 -748 559 -48 0 -117 -7 -153 -15z m210 -162
c15 -12 24 -33 27 -63 5 -41 9 -47 38 -58 83 -30 157 -131 171 -234 5 -37 2
-48 -18 -72 -18 -20 -34 -28 -57 -28 -43 0 -71 30 -82 89 -6 33 -19 59 -39 79
-27 27 -37 30 -90 30 -53 0 -63 -3 -91 -31 -59 -59 -48 -161 22 -203 16 -10
57 -21 89 -24 154 -17 263 -132 264 -282 1 -57 -4 -80 -27 -127 -31 -63 -91
-121 -142 -138 -29 -10 -33 -16 -38 -57 -6 -54 -33 -83 -77 -83 -44 0 -71 29
-77 82 -5 41 -9 48 -36 57 -78 28 -148 114 -167 208 -14 67 -1 106 41 123 54
23 109 -19 109 -83 0 -33 35 -84 69 -102 95 -49 200 26 188 134 -8 68 -53 106
-138 114 -163 17 -272 132 -273 287 0 114 72 226 169 261 29 11 33 17 38 58 6
52 33 81 77 81 15 0 38 -8 50 -18z"/>
<path d="M4261 3144 c-28 -35 -26 -69 4 -99 24 -24 28 -25 180 -25 152 0 156
1 180 25 32 31 33 74 2 103 -22 21 -33 22 -184 22 l-162 0 -20 -26z"/>
<path d="M492 2857 c-29 -31 -28 -72 3 -102 24 -24 28 -25 180 -25 152 0 156
1 180 25 30 30 32 64 4 99 l-20 26 -163 0 c-157 0 -163 -1 -184 -23z"/>
<path d="M4124 2265 c-56 -23 -62 -91 -11 -128 52 -40 229 -138 257 -143 41
-9 80 28 80 75 0 46 -6 52 -142 130 -138 79 -147 82 -184 66z"/>
<path d="M965 1954 c-120 -70 -155 -102 -155 -140 0 -31 42 -74 73 -74 21 0
255 127 284 154 25 23 26 70 3 99 -35 44 -76 36 -205 -39z"/>
<path d="M1995 958 c-48 -17 -93 -55 -122 -106 -63 -106 -19 -261 89 -318 15
-8 50 -19 78 -25 l50 -11 0 -93 c0 -74 4 -97 18 -113 21 -26 420 -212 453
-212 33 0 430 186 452 211 13 17 17 40 17 115 l0 93 38 6 c125 21 212 119 212
241 0 87 -76 188 -159 213 -51 15 -1082 14 -1126 -1z"/>
</g>
</svg>
