<?xml version="1.0" encoding="UTF-8"?>
<svg version="1.1" xmlns="http://www.w3.org/2000/svg" width="512" height="512">
<path d="M0 0 C1.5582528 0.00084792 3.1165068 0.00036792 4.67475891 -0.00132751 C8.87242789 -0.00218248 13.06983568 0.01536163 17.26744437 0.03639436 C21.66630436 0.05524512 26.06517141 0.05691818 30.46406555 0.06047058 C38.77942561 0.0697665 47.09466626 0.09434682 55.40997392 0.12451905 C64.88282513 0.15813975 74.35568226 0.17456829 83.82857835 0.18960536 C103.30155788 0.22089876 122.77442654 0.27361116 142.24731445 0.34057617 C139.62477786 2.34828122 137.22296963 3.94208444 134.18823242 5.25415039 C133.39996063 5.59815887 132.61168884 5.94216736 131.79953003 6.29660034 C130.53231613 6.84043869 130.53231613 6.84043869 129.23950195 7.39526367 C128.35884064 7.77868927 127.47817932 8.16211487 126.5708313 8.55715942 C123.75679247 9.78161608 120.93979718 10.9990673 118.12231445 12.21557617 C115.3266456 13.42580777 112.53168871 14.63761816 109.73806763 15.85256958 C108.00291591 16.60687966 106.2665651 17.35844011 104.52877808 18.10665894 C87.25867103 25.60177033 72.77847529 34.41184368 65.27856445 52.57885742 C64.93825195 53.49022461 64.59793945 54.4015918 64.24731445 55.34057617 C63.92762695 56.17975586 63.60793945 57.01893555 63.27856445 57.88354492 C58.51354517 72.46538633 60.5850509 88.45403991 67.37231445 101.96557617 C74.43642499 114.34628144 83.9005877 122.2997941 96.5715332 128.54370117 C97.63847412 129.07125 98.70541504 129.59879883 99.8046875 130.14233398 C101.01378784 130.73546387 101.01378784 130.73546387 102.24731445 131.34057617 C102.28695312 132.32227783 102.3265918 133.30397949 102.36743164 134.31542969 C102.52211668 138.03455992 102.6990943 141.75237876 102.88208008 145.47021484 C102.95761829 147.06499942 103.02748401 148.66006504 103.09106445 150.25537109 C103.64887041 164.09157358 105.40529182 177.21934243 111.99731445 189.65307617 C112.34020508 190.31694336 112.6830957 190.98081055 113.03637695 191.66479492 C116.12533155 197.45940319 119.81174264 202.49300461 124.24731445 207.34057617 C125.13290039 208.36344727 125.13290039 208.36344727 126.03637695 209.40698242 C153.07080787 238.79973604 206.27323178 253.59372161 244.89306641 255.31689453 C267.2141157 255.84294838 290.15989136 252.89104665 311.13793945 245.03979492 C313.24731445 244.34057617 313.24731445 244.34057617 316.24731445 244.34057617 C316.34086088 265.68115426 316.41134416 287.0216984 316.45456314 308.36244011 C316.47516612 318.27188863 316.50324337 328.18120956 316.54907227 338.09057617 C316.58900942 346.73013622 316.61476372 355.36960383 316.62366843 364.00925362 C316.62887154 368.58160163 316.64105336 373.15368527 316.67023468 377.72594833 C316.69751261 382.03515047 316.7057346 386.34398091 316.69974518 390.65326118 C316.70083991 392.22938753 316.7087199 393.80552712 316.72413635 395.38157845 C316.89921956 414.21447076 316.89921956 414.21447076 310.49713516 421.26916313 C306.04957749 425.41120328 301.5428367 427.59488711 295.39408875 427.58108521 C294.44483017 427.58383453 293.49557159 427.58658386 292.51754761 427.5894165 C291.48824127 427.58222595 290.45893494 427.5750354 289.3984375 427.56762695 C287.75874245 427.56806503 287.75874245 427.56806503 286.08592224 427.56851196 C282.47687817 427.5671199 278.86804117 427.55156424 275.2590332 427.53588867 C272.75511284 427.53215811 270.25119102 427.52931134 267.74726868 427.52731323 C261.8329352 427.52046017 255.91866803 427.50470112 250.0043686 427.48461425 C242.60815022 427.46004112 235.2119226 427.44931896 227.81567383 427.43823242 C214.62618304 427.41678834 201.43675345 427.38304121 188.24731445 427.34057617 C188.25730721 428.69241501 188.25730721 428.69241501 188.26750183 430.07156372 C188.32767804 438.57559748 188.37332198 447.07955946 188.40275097 455.5837574 C188.41838948 459.95558907 188.43959446 464.32724441 188.47363281 468.69897461 C188.5062912 472.92000938 188.52418112 477.14087482 188.53194618 481.36202621 C188.53747808 482.9703424 188.5482806 484.5786496 188.56450462 486.18689346 C188.58636552 488.44421476 188.58927784 490.70084138 188.58789062 492.95825195 C188.59788338 494.88352219 188.59788338 494.88352219 188.608078 496.84768677 C188.14756398 501.30635382 186.78775852 504.69038037 183.7121582 507.98510742 C177.52552035 512.71606578 173.01632701 513.32399548 165.24731445 512.34057617 C162.01815705 510.90800453 159.7815955 508.77236792 157.24731445 506.34057617 C155.7733677 505.00681458 154.29940779 503.67306749 152.82519531 502.33959961 C151.24916799 500.90476366 149.68619271 499.45689891 148.1262207 498.00463867 C145.2394372 495.33328678 142.30069868 492.73956133 139.3215332 490.17260742 C137.67469237 488.71805309 136.0587744 487.22850163 134.4543457 485.72729492 C133.96522705 485.27104736 133.4761084 484.8147998 132.97216797 484.34472656 C131.56426057 483.02817816 130.16341578 481.70408914 128.76293945 480.37963867 C126.32774326 478.40576847 125.29095713 477.6407453 122.24731445 477.34057617 C120.44708035 478.37487149 120.44708035 478.37487149 118.85668945 480.05932617 C117.92215942 480.95808472 117.92215942 480.95808472 116.96875 481.875 C116.31817627 482.52364014 115.66760254 483.17228027 114.99731445 483.84057617 C113.64521751 485.14736048 112.29236132 486.4533597 110.9387207 487.75854492 C109.97409912 488.69899658 109.97409912 488.69899658 108.98999023 489.65844727 C106.45512143 492.10524554 103.80834542 494.40460604 101.1340332 496.69604492 C99.67734869 497.96574302 98.24741375 499.26617084 96.8293457 500.57885742 C83.88327369 512.54565016 83.88327369 512.54565016 75.68481445 512.90307617 C70.39915763 512.62488371 67.3973345 511.64365335 63.24731445 508.34057617 C59.78978055 503.26044822 58.7503556 500.02080863 58.79321289 493.75292969 C58.79262878 493.03014328 58.79204468 492.30735687 58.79144287 491.56266785 C58.79420704 489.1977666 58.82521684 486.83416065 58.85668945 484.46948242 C58.86415785 482.8203958 58.86984795 481.17130024 58.87384033 479.52220154 C58.8890497 475.19999313 58.92829018 470.87832979 58.97265625 466.55633545 C59.01371096 462.13878755 59.03187304 457.72115084 59.05200195 453.3034668 C59.09478972 444.64892091 59.16298312 435.99481651 59.24731445 427.34057617 C58.35941223 427.34723801 57.47151001 427.35389984 56.55670166 427.36076355 C48.14283449 427.42115643 39.7290413 427.46669278 31.31500626 427.49601269 C26.99042682 427.51159364 22.66602817 427.5326915 18.34155273 427.56689453 C14.15939332 427.59976071 9.97740657 427.61748594 5.79512787 427.6252079 C4.20851681 427.63070295 2.62191399 427.64143174 1.0353775 427.65776634 C-18.81318066 427.85378526 -34.84199626 422.82004747 -49.75268555 409.34057617 C-50.46038086 408.7140918 -51.16807617 408.08760742 -51.8972168 407.44213867 C-61.55651893 398.39231449 -68.71894862 386.37740759 -69.2532568 372.94492435 C-69.27375491 370.55012701 -69.27267853 368.15508054 -69.25389099 365.76026917 C-69.25779173 364.41876177 -69.26343834 363.07725854 -69.27066189 361.73576492 C-69.28532404 358.07812402 -69.27529099 354.42091769 -69.26092517 350.76329124 C-69.24976609 346.8075054 -69.26177428 342.85177808 -69.27076721 338.89599609 C-69.28466861 331.15768332 -69.27716629 323.41953422 -69.26209163 315.6812293 C-69.24519089 306.66047759 -69.24844697 297.63976619 -69.25218571 288.61900353 C-69.25805871 272.51761651 -69.24391521 256.41630779 -69.21923828 240.31494141 C-69.19532318 224.70879175 -69.1882332 209.10274672 -69.19873047 193.49658203 C-69.21015352 176.48369667 -69.2120523 159.47085964 -69.19763237 142.45797485 C-69.19610661 140.64196043 -69.19458626 138.825946 -69.19307137 137.00993156 C-69.19231355 136.11652914 -69.19155574 135.22312671 -69.19077496 134.30265148 C-69.18604254 128.02235829 -69.18787619 121.74208676 -69.19213676 115.4617939 C-69.19707611 107.80207732 -69.19102282 100.14245943 -69.17124247 92.48276538 C-69.16140671 88.57846625 -69.15622488 84.674317 -69.16413498 80.77000999 C-69.17124107 77.18913909 -69.16427346 73.60856933 -69.14653135 70.02773785 C-69.14063178 68.13334054 -69.14926166 66.23891471 -69.15857786 64.34453112 C-69.02727854 46.46634754 -62.92657523 31.52063824 -50.3659668 18.89135742 C-49.50358398 18.04959961 -48.64120117 17.2078418 -47.75268555 16.34057617 C-47.16874023 15.73600586 -46.58479492 15.13143555 -45.9831543 14.50854492 C-33.54818779 2.57727326 -16.43904418 -0.12640412 0 0 Z M-19.8112793 348.37573242 C-20.26631836 349.04475586 -20.72135742 349.7137793 -21.19018555 350.40307617 C-21.66327148 351.07467773 -22.13635742 351.7462793 -22.6237793 352.43823242 C-25.69556856 357.61456934 -25.40883986 363.52365759 -24.75268555 369.34057617 C-22.41052226 375.37577701 -18.26705199 379.18660964 -12.81518555 382.52807617 C-8.10249311 384.38459137 -3.20394455 384.46399763 1.8034668 384.45410156 C3.72477921 384.45398827 3.72477921 384.45398827 5.68490601 384.45387268 C7.06768839 384.44876722 8.45047037 384.44355125 9.83325195 384.43823242 C11.25957184 384.43636535 12.68589237 384.43494281 14.11221313 384.4339447 C17.85058388 384.43014232 21.58891523 384.42033169 25.32727051 384.40924072 C29.82109259 384.39717019 34.31492791 384.3926135 38.8087616 384.38678741 C45.62163987 384.37711856 52.43443187 384.35794613 59.24731445 384.34057617 C59.24731445 370.48057617 59.24731445 356.62057617 59.24731445 342.34057617 C47.17899222 342.22411393 47.17899222 342.22411393 35.1105957 342.14526367 C30.18382401 342.12140883 25.25735142 342.0932756 20.33081055 342.03881836 C16.35613744 341.99516094 12.38178535 341.9713974 8.40689087 341.9610672 C6.89510042 341.9537113 5.38332631 341.93934717 3.87167358 341.91765594 C-9.08294619 341.68395345 -9.08294619 341.68395345 -19.8112793 348.37573242 Z M188.24731445 342.34057617 C188.24731445 356.20057617 188.24731445 370.06057617 188.24731445 384.34057617 C215.96731445 384.34057617 243.68731445 384.34057617 272.24731445 384.34057617 C272.24731445 370.48057617 272.24731445 356.62057617 272.24731445 342.34057617 C244.52731445 342.34057617 216.80731445 342.34057617 188.24731445 342.34057617 Z " fill="#000000" transform="translate(89.752685546875,-0.340576171875)"/>
<path d="M0 0 C2.28996458 1.0234488 4.56939928 2.07066663 6.83984375 3.13671875 C8.12550271 3.71951129 9.41224691 4.29991449 10.69995117 4.87817383 C13.52800416 6.15116404 16.35044018 7.43568102 19.16992188 8.72753906 C24.04671857 10.95536398 28.94862231 13.12447291 33.85546875 15.28515625 C35.16062187 15.85992455 35.16062187 15.85992455 36.49214172 16.44630432 C38.28316413 17.23481498 40.07424656 18.02318931 41.86538696 18.81143188 C46.45187492 20.83205533 51.03425484 22.86195439 55.6171875 24.890625 C65.74299768 29.37043203 75.87515628 33.8356847 86.01260376 38.28909302 C88.61985236 39.43493928 91.2263289 40.5825286 93.83276367 41.73022461 C100.78681178 44.78841336 107.7418271 47.8338585 114.76171875 50.73828125 C115.74285645 51.1461084 116.72399414 51.55393555 117.73486328 51.97412109 C119.41317564 52.66627517 121.09592139 53.34786846 122.78466797 54.01416016 C128.58463997 56.40269289 133.78105445 59.69959202 137.21484375 65.07421875 C138.39102518 70.82443908 138.7543312 75.87024385 136.08984375 81.19921875 C132.36936382 85.42246624 128.5229485 88.16095191 123.38671875 90.42578125 C122.30680664 90.90619873 121.22689453 91.38661621 120.11425781 91.8815918 C118.93057617 92.39890869 117.74689453 92.91622559 116.52734375 93.44921875 C115.25071131 94.01347904 113.97435232 94.57835831 112.69824219 95.14379883 C109.15736547 96.71010485 105.61215051 98.26636016 102.06591797 99.82049561 C98.92330621 101.19878263 95.78278472 102.58180179 92.64213562 103.96455383 C84.04565314 107.7489738 75.44391215 111.52130614 66.84025574 115.28938293 C60.54133463 118.04893522 54.24633352 120.81729117 47.953125 123.58984375 C39.42146848 127.34833684 30.8838349 131.09294176 22.34130859 134.82666016 C19.41744821 136.10500806 16.49583933 137.38824553 13.57666016 138.67724609 C9.94136587 140.28214189 6.29765795 141.86720038 2.65234375 143.44921875 C1.62826416 143.90482178 0.60418457 144.3604248 -0.45092773 144.82983398 C-1.38880127 145.23274658 -2.3266748 145.63565918 -3.29296875 146.05078125 C-4.08461426 146.39705566 -4.87625977 146.74333008 -5.69189453 147.10009766 C-12.04710093 148.91849841 -17.05645942 147.47584282 -22.91015625 144.875 C-24.0081958 144.40481194 -24.0081958 144.40481194 -25.12841797 143.92512512 C-27.49928788 142.90499838 -29.86123536 141.86601149 -32.22265625 140.82421875 C-33.80453303 140.13424861 -35.38656516 139.44463451 -36.96875 138.75537109 C-41.16461201 136.9204606 -45.35172764 135.06635267 -49.53634644 133.20596313 C-54.24359017 131.11327845 -58.95408518 129.02792929 -63.6640625 126.94140625 C-64.62711807 126.51453018 -65.59017365 126.08765411 -66.58241272 125.64784241 C-75.58307025 121.65994051 -84.59742179 117.70359836 -93.61434937 113.75265503 C-98.65297658 111.54400875 -103.68964759 109.33090702 -108.72624207 107.11763 C-112.95409012 105.25975327 -117.18249437 103.40316749 -121.41210938 101.54931641 C-125.6203093 99.70429771 -129.82583956 97.85331321 -134.02957153 95.99813843 C-135.59662046 95.30767425 -137.16453242 94.61916493 -138.73336792 93.93276978 C-140.892329 92.9878123 -143.04804351 92.03579675 -145.203125 91.08203125 C-145.82930725 90.80990311 -146.4554895 90.53777496 -147.10064697 90.25740051 C-152.10447517 88.02832538 -156.81815096 85.74370931 -160.09765625 81.26171875 C-162.10818959 75.11842242 -162.41356964 69.25015344 -159.53515625 63.38671875 C-155.01867076 58.38196456 -150.30156954 55.72790745 -144.20703125 53.12890625 C-143.4162619 52.78429855 -142.62549255 52.43969086 -141.8107605 52.0846405 C-139.20103748 50.94916393 -136.58686359 49.82432775 -133.97265625 48.69921875 C-132.12513484 47.89721671 -130.27797269 47.0943866 -128.43115234 46.29077148 C-124.59515155 44.62239807 -120.75763107 42.95759613 -116.91894531 41.29541016 C-109.05239823 37.88637325 -101.20300136 34.43843928 -93.35437012 30.98840332 C-90.84237963 29.88439971 -88.32993729 28.78143033 -85.81738281 27.67871094 C-69.22130873 20.39336512 -52.64270357 13.06849155 -36.06640625 5.73828125 C-35.30254608 5.40051163 -34.53868591 5.062742 -33.75167847 4.71473694 C-32.65740036 4.23066628 -32.65740036 4.23066628 -31.54101562 3.73681641 C-30.83195572 3.42550278 -30.12289581 3.11418915 -29.39234924 2.79344177 C-27.87867942 2.1172707 -26.37342994 1.4220687 -24.87510681 0.71253967 C-16.19953739 -3.34252206 -9.01889834 -3.57426482 0 0 Z " fill="#000000" transform="translate(353.22265625,2.17578125)"/>
<path d="M0 0 C10.68420229 3.88686273 21.01893582 8.4782353 31.38772583 13.12698364 C34.36208145 14.45971618 37.33874686 15.78715523 40.31616211 17.11303711 C47.88783949 20.48511761 55.45860659 23.85919767 63.02148438 27.25097656 C66.69874217 28.89994722 70.37978368 30.54013606 74.0640564 32.17337036 C75.37379326 32.75608676 76.68198599 33.34228908 77.98843384 33.93234253 C93.85356656 41.09527044 107.16541557 44.46798678 124 39 C128.43787763 37.28404442 132.77864944 35.37208181 137.125 33.4375 C138.40503728 32.87468415 139.68540288 32.31261455 140.96606445 31.7512207 C143.77079651 30.52008766 146.57340211 29.28427444 149.37451172 28.04492188 C157.08467847 24.6340683 164.80578803 21.24806313 172.52508545 17.85794067 C175.10827333 16.72232933 177.69026171 15.5840327 180.27197266 14.44506836 C191.46639385 9.51256846 202.71160501 4.71338883 214 0 C214.11798604 3.77056169 214.18783864 7.54063765 214.25 11.3125 C214.28351563 12.36501953 214.31703125 13.41753906 214.3515625 14.50195312 C214.47429325 24.47382681 212.17936199 33.33561572 205.80688477 41.18041992 C183.07070927 64.07634155 141.45810032 75.72000356 110.02758789 76.24169922 C76.48592403 76.35758343 43.91065393 65.48842783 16 47 C15.15050781 46.44183594 14.30101562 45.88367188 13.42578125 45.30859375 C6.17513281 39.79810093 1.43345853 29.87201329 0 21 C-0.07700286 19.30742755 -0.10805067 17.61226001 -0.09765625 15.91796875 C-0.09443359 14.98662109 -0.09121094 14.05527344 -0.08789062 13.09570312 C-0.07951172 12.13599609 -0.07113281 11.17628906 -0.0625 10.1875 C-0.05798828 9.20845703 -0.05347656 8.22941406 -0.04882812 7.22070312 C-0.03708684 4.81373889 -0.02066419 2.40690143 0 0 Z " fill="#000000" transform="translate(234,138)"/>
</svg>
