<?xml version="1.0" encoding="UTF-8"?>
<svg version="1.1" xmlns="http://www.w3.org/2000/svg" width="512" height="512">
<path d="M0 0 C1.75538567 -0.0057106 3.51076762 -0.01267752 5.2661438 -0.02079773 C10.01006173 -0.03866879 14.75379408 -0.03757209 19.4977355 -0.03185534 C23.46867411 -0.02875446 27.43957754 -0.03486598 31.41051114 -0.04089409 C40.78412081 -0.05491808 50.1576393 -0.05339598 59.53125 -0.04199219 C69.1777331 -0.03051522 78.82393803 -0.04458445 88.47038448 -0.07138866 C96.77475872 -0.09359347 105.07904596 -0.10017222 113.38344777 -0.09431225 C118.33348768 -0.09095264 123.28334937 -0.09329116 128.23336411 -0.11056328 C132.89075797 -0.12610656 137.54774198 -0.12199552 142.20512009 -0.10325813 C143.90617295 -0.09959248 145.60725668 -0.10262108 147.30828094 -0.11314392 C163.82453904 -0.20745019 175.96336083 3.28768613 188.28173828 14.71655273 C198.23000143 25.22792512 200.99308838 37.01531821 200.91941833 51.10723877 C200.92749664 52.97580493 200.92749664 52.97580493 200.93573815 54.88211989 C200.94751241 58.31419101 200.94597373 61.74577256 200.93857133 65.17782354 C200.93382215 68.88879454 200.94636458 72.59971454 200.95658875 76.31066895 C200.97374503 83.56914487 200.97462376 90.8275341 200.96937584 98.08602503 C200.96532877 103.98486698 200.96678405 109.88368337 200.9721241 115.78252411 C200.97287252 116.62314669 200.97362094 117.46376927 200.97439205 118.32986526 C200.97592356 120.03770354 200.9774619 121.74554181 200.97900701 123.45338008 C200.99271932 139.45052169 200.98730217 155.44761433 200.9758218 171.44475481 C200.96587974 186.08033014 200.97884912 200.71577922 201.00275599 215.35133508 C201.02713222 230.38763879 201.03675918 245.42388367 201.03010327 260.46020675 C201.02660918 268.89876337 201.02885621 277.33722278 201.04635429 285.77576447 C201.06105735 292.95516366 201.06173608 300.13439709 201.04428338 307.31379297 C201.03575733 310.97639159 201.03366287 314.63869382 201.04893494 318.30127716 C201.06528146 322.27060447 201.05066729 326.23947191 201.03294373 330.20880127 C201.04254873 331.36735131 201.05215374 332.52590134 201.06204981 333.71955895 C201.00484006 339.92612341 200.74585142 343.71398357 196.53173828 348.40405273 C192.00747241 352.22020895 188.82740809 352.90749366 182.96923828 352.92163086 C181.87047363 352.93214478 181.87047363 352.93214478 180.74951172 352.94287109 C178.34319446 352.9603867 175.9380662 352.94885228 173.53173828 352.93530273 C171.85074642 352.93799952 170.16975608 352.9418835 168.48876953 352.94689941 C164.97169085 352.95278571 161.45501948 352.94425982 157.93798828 352.92553711 C153.43871639 352.90274774 148.94039901 352.91587554 144.44116211 352.93982697 C140.97176981 352.95430864 137.50260234 352.94966817 134.03320312 352.9393158 C132.37467332 352.93665504 130.71612284 352.9398953 129.05761719 352.94923401 C126.73594407 352.9594392 124.41579817 352.94384552 122.09423828 352.92163086 C120.77552734 352.91844849 119.45681641 352.91526611 118.09814453 352.9119873 C112.56628788 352.12412944 109.71305881 349.82270328 106.18788147 345.58930969 C104.27240353 341.90527471 104.03287615 339.57488786 104.03344727 335.43994141 C104.02516907 334.43618721 104.02516907 334.43618721 104.01672363 333.41215515 C104.00744518 331.96848156 104.00726401 330.5247261 104.01531792 329.08104515 C104.02801859 326.78834474 104.01659362 324.49683605 103.99928284 322.20417786 C103.9726297 318.15848708 103.96698487 314.11309085 103.96838379 310.06732178 C103.97061465 303.60373096 103.95623123 297.14050651 103.91279793 290.67705727 C103.90303834 288.43198086 103.91163703 286.18749202 103.92149353 283.94242859 C104.04592321 271.53966051 104.04592321 271.53966051 98.28173828 260.96655273 C90.88442154 256.76353186 83.06458171 257.06317643 74.82617188 257.08837891 C72.66891725 257.09153492 70.51304237 257.06804713 68.35595703 257.04272461 C55.81552175 256.8519372 55.81552175 256.8519372 45.09423828 262.65405273 C42.01437262 268.07461629 41.2827778 273.36795198 41.27636719 279.52929688 C41.27274673 280.20343124 41.26912628 280.87756561 41.26539612 281.5721283 C41.25854964 283.02290058 41.25598768 284.47369836 41.25734329 285.92448616 C41.25831575 288.2246073 41.24528392 290.52427033 41.22836304 292.82432556 C41.18229577 299.35908553 41.15747837 305.89379389 41.15087891 312.42871094 C41.14585613 316.43756341 41.12157634 320.44593057 41.08555222 324.45461845 C41.07577995 325.97635417 41.07340822 327.49815682 41.07872391 329.01991463 C41.08581911 331.14987056 41.06846769 333.27838349 41.04589844 335.40820312 C41.0430484 336.6173085 41.04019836 337.82641388 41.03726196 339.07215881 C40.2250717 344.42528451 37.83066681 347.30842433 33.75439453 350.7467041 C29.89013321 352.73401758 27.3039014 352.91117025 22.96923828 352.92163086 C21.87047363 352.93214478 21.87047363 352.93214478 20.74951172 352.94287109 C18.34319446 352.9603867 15.9380662 352.94885228 13.53173828 352.93530273 C11.85074642 352.93799952 10.16975608 352.9418835 8.48876953 352.94689941 C4.97169085 352.95278571 1.45501948 352.94425982 -2.06201172 352.92553711 C-6.56128361 352.90274774 -11.05960099 352.91587554 -15.55883789 352.93982697 C-19.02823019 352.95430864 -22.49739766 352.94966817 -25.96679688 352.9393158 C-27.62532668 352.93665504 -29.28387716 352.9398953 -30.94238281 352.94923401 C-33.26405593 352.9594392 -35.58420183 352.94384552 -37.90576172 352.92163086 C-39.22447266 352.91844849 -40.54318359 352.91526611 -41.90185547 352.9119873 C-47.22278819 352.15416963 -50.06856169 349.96269513 -53.61009979 346.0189991 C-56.65898634 341.24309887 -56.01838106 335.69309122 -55.97619629 330.22225952 C-55.98555623 328.36517001 -55.98555623 328.36517001 -55.99510527 326.47056353 C-56.00829103 323.04089831 -56.00355771 319.61211043 -55.99116039 316.18249869 C-55.98210712 312.480878 -55.99608136 308.77933376 -56.00708008 305.07772827 C-56.02487014 297.82735636 -56.02102227 290.57715007 -56.00942951 283.32677166 C-56.00039319 277.43074111 -55.99917207 271.53475695 -56.00352478 265.63872147 C-56.00413771 264.79928926 -56.00475064 263.95985706 -56.00538215 263.09498752 C-56.00666108 261.38957748 -56.00795793 259.68416746 -56.00927252 257.97875746 C-56.02068082 241.98334042 -56.00756288 225.98801504 -55.98607105 209.99261303 C-55.96821941 196.28254561 -55.9712877 182.57261377 -55.98974609 168.86254883 C-56.01118219 152.9333802 -56.01956156 137.00429207 -56.00729704 121.07511103 C-56.00602289 119.3741669 -56.00476541 117.67322275 -56.00352478 115.97227859 C-56.00259913 114.71703202 -56.00259913 114.71703202 -56.00165477 113.43642693 C-55.99820862 107.55392569 -56.00401476 101.67147569 -56.01344299 95.78898239 C-56.02469569 88.61038122 -56.02155535 81.43195486 -56.00032002 74.25337355 C-55.98985031 70.59411598 -55.98561708 66.93514919 -55.99891663 63.27589417 C-56.01314868 59.29968312 -55.99608639 55.32394191 -55.97619629 51.3477478 C-55.98511918 50.20394634 -55.99404206 49.06014487 -56.00323534 47.88168275 C-55.86625677 33.71047722 -50.70358506 22.94498497 -41.15576172 12.65405273 C-29.11928983 1.26239184 -15.78920176 -0.04652662 0 0 Z M26.53173828 83.40405273 C24.05131411 87.41419095 24.19791387 91.74827483 24.21923828 96.34155273 C24.203125 97.0318457 24.18701172 97.72213867 24.17041016 98.43334961 C24.16593038 103.15951726 24.85370342 106.48910416 27.53173828 110.40405273 C31.5418765 112.88447691 35.87596038 112.73787714 40.46923828 112.71655273 C41.50467773 112.74072266 41.50467773 112.74072266 42.56103516 112.76538086 C47.28720281 112.76986064 50.61678971 112.0820876 54.53173828 109.40405273 C57.01216245 105.39391452 56.86556269 101.05983064 56.84423828 96.46655273 C56.86035156 95.77625977 56.87646484 95.0859668 56.89306641 94.37475586 C56.89754619 89.64858821 56.20977315 86.3190013 53.53173828 82.40405273 C49.52160007 79.92362856 45.18751619 80.07022832 40.59423828 80.09155273 C39.90394531 80.07543945 39.21365234 80.05932617 38.50244141 80.04272461 C33.77627375 80.03824483 30.44668685 80.72601787 26.53173828 83.40405273 Z M90.53173828 83.40405273 C88.05131411 87.41419095 88.19791387 91.74827483 88.21923828 96.34155273 C88.203125 97.0318457 88.18701172 97.72213867 88.17041016 98.43334961 C88.16593038 103.15951726 88.85370342 106.48910416 91.53173828 110.40405273 C95.5418765 112.88447691 99.87596038 112.73787714 104.46923828 112.71655273 C105.50467773 112.74072266 105.50467773 112.74072266 106.56103516 112.76538086 C111.28720281 112.76986064 114.61678971 112.0820876 118.53173828 109.40405273 C121.01216245 105.39391452 120.86556269 101.05983064 120.84423828 96.46655273 C120.86035156 95.77625977 120.87646484 95.0859668 120.89306641 94.37475586 C120.89754619 89.64858821 120.20977315 86.3190013 117.53173828 82.40405273 C113.52160007 79.92362856 109.18751619 80.07022832 104.59423828 80.09155273 C103.90394531 80.07543945 103.21365234 80.05932617 102.50244141 80.04272461 C97.77627375 80.03824483 94.44668685 80.72601787 90.53173828 83.40405273 Z M26.53173828 163.40405273 C24.05131411 167.41419095 24.19791387 171.74827483 24.21923828 176.34155273 C24.203125 177.0318457 24.18701172 177.72213867 24.17041016 178.43334961 C24.16593038 183.15951726 24.85370342 186.48910416 27.53173828 190.40405273 C31.5418765 192.88447691 35.87596038 192.73787714 40.46923828 192.71655273 C41.50467773 192.74072266 41.50467773 192.74072266 42.56103516 192.76538086 C47.28720281 192.76986064 50.61678971 192.0820876 54.53173828 189.40405273 C57.01216245 185.39391452 56.86556269 181.05983064 56.84423828 176.46655273 C56.86035156 175.77625977 56.87646484 175.0859668 56.89306641 174.37475586 C56.89754619 169.64858821 56.20977315 166.3190013 53.53173828 162.40405273 C49.52160007 159.92362856 45.18751619 160.07022832 40.59423828 160.09155273 C39.90394531 160.07543945 39.21365234 160.05932617 38.50244141 160.04272461 C33.77627375 160.03824483 30.44668685 160.72601787 26.53173828 163.40405273 Z M90.53173828 163.40405273 C88.05131411 167.41419095 88.19791387 171.74827483 88.21923828 176.34155273 C88.203125 177.0318457 88.18701172 177.72213867 88.17041016 178.43334961 C88.16593038 183.15951726 88.85370342 186.48910416 91.53173828 190.40405273 C95.5418765 192.88447691 99.87596038 192.73787714 104.46923828 192.71655273 C105.50467773 192.74072266 105.50467773 192.74072266 106.56103516 192.76538086 C111.28720281 192.76986064 114.61678971 192.0820876 118.53173828 189.40405273 C121.01216245 185.39391452 120.86556269 181.05983064 120.84423828 176.46655273 C120.86035156 175.77625977 120.87646484 175.0859668 120.89306641 174.37475586 C120.89754619 169.64858821 120.20977315 166.3190013 117.53173828 162.40405273 C113.52160007 159.92362856 109.18751619 160.07022832 104.59423828 160.09155273 C103.90394531 160.07543945 103.21365234 160.05932617 102.50244141 160.04272461 C97.77627375 160.03824483 94.44668685 160.72601787 90.53173828 163.40405273 Z " fill="#000000" transform="translate(183.46826171875,95.595947265625)"/>
<path d="M0 0 C4.16530083 -0.06035608 8.33048762 -0.09670334 12.49609375 -0.12890625 C13.66861694 -0.14618774 14.84114014 -0.16346924 16.04919434 -0.18127441 C30.61469883 -0.26567505 40.70029116 3.8964661 51.1484375 14.09765625 C60.23382949 23.67278126 64.3151453 34.25388744 64.26742554 47.30531311 C64.27195665 48.22177642 64.27648776 49.13823973 64.28115618 50.08247465 C64.29378028 53.14235584 64.29218111 56.2020586 64.29052734 59.26196289 C64.29651365 61.4601311 64.30331943 63.65829722 64.31088257 65.85646057 C64.32853485 71.81907994 64.3332375 77.78164189 64.33451414 83.74428487 C64.33593621 87.46928901 64.34020678 91.19427858 64.34550858 94.9192791 C64.36304912 107.24314066 64.37234916 119.56697154 64.37084763 131.89084513 C64.37076772 132.55439797 64.3706878 133.21795082 64.37060547 133.90161133 C64.37052371 134.56597666 64.37044195 135.230342 64.37035771 135.91483962 C64.36954419 146.69010079 64.38870202 157.46522239 64.4168822 168.24044318 C64.4456099 179.31256131 64.45905638 190.38462182 64.45769465 201.45677942 C64.45718436 207.66981315 64.46290532 213.88268872 64.48405075 220.09568977 C64.50338529 225.93572096 64.50359026 231.77544225 64.48901749 237.61548424 C64.48692267 239.75928829 64.49167015 241.90311152 64.5037384 244.04688263 C64.51914071 246.9721783 64.50991581 249.89639855 64.49447632 252.82167053 C64.50476344 253.67099106 64.51505057 254.5203116 64.52564943 255.39536911 C64.46320781 260.74441866 63.5146977 263.73630772 60 268 C54.46534723 273.34479808 48.1766074 272.51341368 40.9453125 272.390625 C39.06028519 272.38213531 39.06028519 272.38213531 37.13717651 272.37347412 C33.8126345 272.35492046 30.48921038 272.31904929 27.16497803 272.2746582 C23.7663331 272.23357713 20.3675722 272.21543592 16.96875 272.1953125 C10.31218318 272.151266 3.65618459 272.08275407 -3 272 C-2.85932413 271.13870987 -2.71864826 270.27741974 -2.57370949 269.39002991 C-0.69769298 256.4907001 -0.69221659 243.69850635 -0.68115234 230.68359375 C-0.67183846 228.1590951 -0.66166766 225.63459948 -0.65071106 223.11010742 C-0.629163 217.70612486 -0.61348757 212.30217791 -0.60334396 206.89816284 C-0.58866815 199.08517764 -0.56310736 191.2722568 -0.53501268 183.4593097 C-0.48970503 170.77887987 -0.45302454 158.09844069 -0.421875 145.41796875 C-0.39162342 133.11066042 -0.35724315 120.80337487 -0.31738281 108.49609375 C-0.31492126 107.73562646 -0.31245972 106.97515917 -0.30992357 106.19164741 C-0.29754769 102.3760551 -0.28509141 98.56046306 -0.27259517 94.74487114 C-0.16926775 63.16327841 -0.08013136 31.58166051 0 0 Z " fill="#000000" transform="translate(416,176)"/>
<path d="M0 0 C1.81274414 0.01353516 1.81274414 0.01353516 3.66210938 0.02734375 C6.62911278 0.05079832 9.59570143 0.08362206 12.5625 0.125 C12.56746522 2.08191017 12.56746522 2.08191017 12.57253075 4.07835388 C12.65168103 35.10114566 12.74095075 66.12389017 12.84255161 97.14661592 C12.85506932 100.97144163 12.86750227 104.7962676 12.87988281 108.62109375 C12.88234881 109.38249416 12.8848148 110.14389458 12.88735552 110.92836773 C12.92699522 123.22981325 12.95978129 135.53126786 12.98999982 147.83273971 C13.0211993 160.4709028 13.05984447 173.1090276 13.10529006 185.74714756 C13.13306325 193.53501876 13.15514421 201.32286221 13.16976251 209.11076939 C13.18162821 215.0993907 13.20389205 221.08792909 13.22988319 227.07650757 C13.2389014 229.52086383 13.24463563 231.96523492 13.24671364 234.40960693 C13.25946589 247.13935596 13.50699647 259.54014864 15.5625 272.125 C8.23433409 272.21610858 0.90636388 272.28885809 -6.42225838 272.33224869 C-9.82566318 272.35307946 -13.22866375 272.38131258 -16.63183594 272.42675781 C-20.54877806 272.4787335 -24.46555935 272.49798269 -28.3828125 272.515625 C-29.59865021 272.53627014 -30.81448792 272.55691528 -32.06716919 272.57818604 C-42.82318064 272.58103478 -42.82318064 272.58103478 -47.4375 268.125 C-51.63713904 263.02153881 -52.01389961 259.32070972 -51.9521637 252.99377441 C-51.95910922 252.08381006 -51.96605475 251.1738457 -51.97321075 250.23630667 C-51.99148415 247.19179253 -51.98121509 244.14805734 -51.97094727 241.10351562 C-51.97800589 238.91847145 -51.98675067 236.73343216 -51.99705505 234.54840088 C-52.0195742 228.61404114 -52.0166019 222.67994782 -52.00773358 216.7455616 C-52.00262295 211.78584659 -52.00991755 206.82618162 -52.01720566 201.86647177 C-52.03518795 189.48750171 -52.0287864 177.10866134 -52.01103585 164.72969836 C-51.99727872 154.67126832 -52.00733975 144.61308721 -52.03442383 134.5546875 C-52.06580455 122.85695014 -52.08018325 111.15937864 -52.07062382 99.46159887 C-52.06570688 93.27622278 -52.06784241 87.09106449 -52.08841133 80.90571594 C-52.10685171 75.08118573 -52.10070748 69.25717347 -52.07621193 63.43267059 C-52.07122907 61.30352279 -52.07462755 59.17433498 -52.08736038 57.04521942 C-52.18414902 39.45882836 -50.10482968 26.05057044 -37.33984375 12.9765625 C-26.18434865 2.39163065 -14.949712 -0.21205265 0 0 Z " fill="#000000" transform="translate(83.4375,175.875)"/>
</svg>
