<?xml version="1.0" encoding="UTF-8"?>
<svg version="1.1" xmlns="http://www.w3.org/2000/svg" width="512" height="512">
<path d="M0 0 C3.90266239 0.69199278 6.15955789 1.60548141 9.375 3.9375 C85.5631644 53.74103834 207.43315777 46.53113385 349.7265625 30.40625 C376.68571346 24.52547541 403.76607736 16.12040433 427.08203125 1.03125 C429 0 429 0 432 0 C432.04644327 12.21373822 432.08193004 24.42745525 432.10362434 36.64126396 C432.11403914 42.31328334 432.12815617 47.98524208 432.15087891 53.65722656 C432.17268955 59.13613604 432.18458594 64.61498736 432.18975449 70.09393692 C432.19343551 72.17899617 432.20062348 74.26405242 432.21146011 76.34908676 C432.22608434 79.28080754 432.22797339 82.21229129 432.22705078 85.14404297 C432.23424133 85.99641037 432.24143188 86.84877777 432.24884033 87.72697449 C432.20404328 100.97533469 428.84314402 110.74107508 419.7265625 120.421875 C406.33574139 133.08368293 389.40550056 140.51716764 372 146 C371.15614746 146.2666748 370.31229492 146.53334961 369.44287109 146.80810547 C343.81284945 154.8043868 317.80464925 159.45327784 291.20361328 162.72857666 C289.78631452 162.90314811 288.36929428 163.08000396 286.95263672 163.25970459 C240.27259706 169.15526557 189.66214815 168.88246569 143 163 C141.52672923 162.82098826 140.05342074 162.64228666 138.58007812 162.46386719 C35.07199646 149.75294555 35.07199646 149.75294555 7.125 114.64453125 C0.75878112 105.50839502 -0.15884157 96.36411894 -0.11352539 85.48461914 C-0.11367142 84.55700775 -0.11381744 83.62939636 -0.1139679 82.67367554 C-0.11327485 79.62747811 -0.10551105 76.58134291 -0.09765625 73.53515625 C-0.09578991 71.41523777 -0.09436703 69.29531885 -0.09336853 67.17539978 C-0.08956038 61.6105733 -0.07974467 56.04577315 -0.06866455 50.48095703 C-0.05841379 44.7965531 -0.05386307 39.11214489 -0.04882812 33.42773438 C-0.03812083 22.28514472 -0.02106491 11.14257455 0 0 Z " fill="#000000" transform="translate(40,346)"/>
<path d="M0 0 C4.16644557 0.89979841 7.43299792 2.9073439 11.0625 5.0625 C85.44800702 47.92566638 186.66060351 44.85917141 370.69799805 25.45703125 C390.46636582 19.93224724 409.80905102 12.20963308 427.08203125 1.03125 C429 0 429 0 432 0 C432.20877817 12.37835216 432.36857036 24.75628374 432.46630955 37.13603973 C432.51322688 42.88494675 432.57683415 48.63264694 432.67895508 54.38085938 C432.77694048 59.93119614 432.83059867 65.48037431 432.85389519 71.0315094 C432.87049054 73.14630877 432.90289969 75.26104659 432.95157051 77.37535095 C433.31747247 93.9330629 433.31747247 93.9330629 430.06942749 99.02880859 C427.79799441 101.08767309 425.68827919 102.54732397 423 104 C421.73269503 104.88606187 420.47084698 105.78007469 419.21875 106.6875 C417.98685768 107.47056588 416.74702478 108.24126417 415.5 109 C414.81550781 109.41878418 414.13101562 109.83756836 413.42578125 110.26904297 C384.24586697 127.762375 350.31400091 135.10890149 317 140 C316.05979004 140.14034668 315.11958008 140.28069336 314.15087891 140.42529297 C298.49485032 142.72772988 282.79408011 144.07675736 267 145 C266.2854364 145.04343536 265.5708728 145.08687073 264.83465576 145.13162231 C248.85103456 146.08282322 232.88353182 146.19991098 216.875 146.1875 C216.21723949 146.18738041 215.55947899 146.18726082 214.88178635 146.1871376 C193.52328571 146.18223518 172.28654263 145.83196994 151 144 C149.10846191 143.83927002 149.10846191 143.83927002 147.17871094 143.67529297 C106.98789758 140.13813069 65.49018373 134.14721047 29 116 C27.9584375 115.48695313 26.916875 114.97390625 25.84375 114.4453125 C19.10187448 110.94180977 12.96856667 106.69205241 7 102 C6.12519186 101.41280213 6.12519186 101.41280213 5.23271084 100.81374168 C2.50427971 98.82014674 0.37555988 97.22924184 -0.63512993 93.92116165 C-0.86073949 91.42411593 -0.86667459 89.01266804 -0.79467773 86.50634766 C-0.79569992 85.56912872 -0.79672211 84.63190979 -0.79777527 83.66629028 C-0.79291413 80.5810437 -0.73854245 77.49878929 -0.68359375 74.4140625 C-0.67053232 72.27031063 -0.66057073 70.12653782 -0.65357971 67.98275757 C-0.62689739 62.34993443 -0.55817186 56.71838189 -0.48065186 51.08605957 C-0.40894735 45.33489164 -0.37705271 39.58351768 -0.34179688 33.83203125 C-0.26680242 22.55413032 -0.14738498 11.27717096 0 0 Z " fill="#000000" transform="translate(40,223)"/>
<path d="M0 0 C2.90700145 0.68229794 5.15411798 1.51723199 7.73046875 3.0390625 C8.44178955 3.45115967 9.15311035 3.86325684 9.88598633 4.2878418 C10.64548584 4.729104 11.40498535 5.17036621 12.1875 5.625 C89.67818583 49.49340339 195.893845 46.03088562 370.25 25.5625 C389.94210638 19.89478774 409.9408864 13.01003544 426.8984375 1.25 C429 0 429 0 432 0 C432.20877817 12.37835216 432.36857036 24.75628374 432.46630955 37.13603973 C432.51322688 42.88494675 432.57683415 48.63264694 432.67895508 54.38085938 C432.77694048 59.93119614 432.83059867 65.48037431 432.85389519 71.0315094 C432.87049054 73.14630877 432.90289969 75.26104659 432.95157051 77.37535095 C433.31778589 93.94724551 433.31778589 93.94724551 430.04910278 99.03897095 C427.78497729 101.08516045 425.67461781 102.55199744 423 104 C421.92504551 104.78970936 420.85638607 105.58812626 419.796875 106.3984375 C362.24841609 143.73115571 285.73016094 146.48104901 219.06361389 146.31805801 C216.70659313 146.31239572 214.34957964 146.30958869 211.99255371 146.30697632 C158.56640689 146.22104777 104.05568323 143.07199455 53 126 C52.32146973 125.77908691 51.64293945 125.55817383 50.94384766 125.33056641 C33.56496779 119.6030958 16.82194617 111.06606376 3 99 C2.46297297 98.54442561 1.92594595 98.08885122 1.37264538 97.61947155 C-0.34077673 95.59794552 -0.37104633 94.61681351 -0.36076355 91.9947052 C-0.36488754 91.18282242 -0.36901154 90.37093964 -0.3732605 89.53445435 C-0.36247467 88.64756927 -0.35168884 87.7606842 -0.34057617 86.84692383 C-0.34101425 85.91014297 -0.34145233 84.97336212 -0.34190369 84.00819397 C-0.33981139 80.90759538 -0.31645931 77.80753554 -0.29296875 74.70703125 C-0.28737437 72.55897823 -0.28310353 70.41092138 -0.28010559 68.26286316 C-0.26864441 62.60581924 -0.23916613 56.94900594 -0.20599365 51.29205322 C-0.17532029 45.52090576 -0.1616061 39.74972108 -0.14648438 33.97851562 C-0.11429777 22.65224236 -0.06308592 11.32614035 0 0 Z " fill="#000000" transform="translate(40,100)"/>
<path d="M0 0 C1.47327077 0.17901174 2.94657926 0.35771334 4.41992188 0.53613281 C107.92800354 13.24705445 107.92800354 13.24705445 135.875 48.35546875 C138.67366599 52.37182355 140.8972434 56.1879712 142 61 C142.22558594 61.67675781 142.45117188 62.35351562 142.68359375 63.05078125 C143.33548877 65.65386552 143.51651422 67.35614756 143 70 C119.77841559 101.17418182 62.00511001 109.37262863 26.89624023 114.54516602 C20.96176176 115.37296931 15.01736068 116.09213328 9.06378174 116.76568604 C7.05346862 116.99392938 5.04405047 117.23001254 3.03466797 117.46630859 C-47.6212146 123.25058983 -102.39287673 123.21855346 -153 117 C-153.84685364 116.8981842 -154.69370728 116.79636841 -155.56622314 116.69146729 C-176.44723716 114.16850037 -197.21766604 111.30433643 -217.5234375 105.68505859 C-219.82181988 105.0492876 -222.12670544 104.45196872 -224.4375 103.86328125 C-246.65780017 97.99998746 -268.67656043 88.31392058 -286 73 C-286.59425781 72.54753906 -287.18851562 72.09507813 -287.80078125 71.62890625 C-289 70 -289 70 -288.99609375 67.36328125 C-286.19029826 52.03932127 -278.37782377 42.52761308 -265.71728516 33.62084961 C-254.53848027 26.1322651 -241.78278064 21.02664911 -229 17 C-227.73422119 16.59998779 -227.73422119 16.59998779 -226.44287109 16.19189453 C-200.81284945 8.1956132 -174.80464925 3.54672216 -148.20361328 0.27142334 C-146.78631452 0.09685189 -145.36929428 -0.08000396 -143.95263672 -0.25970459 C-97.27259706 -6.15526557 -46.66214815 -5.88246569 0 0 Z " fill="#000000" transform="translate(329,3)"/>
</svg>
