<?xml version="1.0" encoding="UTF-8"?>
<svg version="1.1" xmlns="http://www.w3.org/2000/svg" width="512" height="512">
<path d="M0 0 C1.65267883 0.00273422 1.65267883 0.00273422 3.33874512 0.00552368 C35.24642539 0.09440382 81.32030927 0.75950284 106.0625 24.375 C112.04861111 30.55716278 112.87694815 36.29969352 112.82518005 44.55381775 C112.83325836 46.09768192 112.83325836 46.09768192 112.84149987 47.67273527 C112.85580353 51.12040554 112.84866959 54.56769317 112.84155273 58.01538086 C112.84725501 60.48763844 112.85421872 62.95989338 112.86235046 65.43214417 C112.87844685 71.44958554 112.88037937 77.46687667 112.87513756 83.48432487 C112.87109391 88.37591385 112.87254172 93.26747201 112.87788582 98.15905952 C112.87863424 98.85561656 112.87938266 99.55217359 112.88015376 100.26983841 C112.88168526 101.6849531 112.88322361 103.10006777 112.88476873 104.51518244 C112.89849226 117.78165076 112.8930571 131.04806008 112.88158352 144.31452704 C112.87165093 156.44714547 112.88459246 168.57961139 112.90851771 180.7122063 C112.93290931 193.17535269 112.94251646 205.63842806 112.93586498 218.10159785 C112.93237293 225.09657988 112.93460384 232.09144464 112.95211601 239.08640862 C112.96837794 245.66346512 112.96365541 252.24027762 112.94481087 258.81734276 C112.94111854 261.23163039 112.94425208 263.64593951 112.95469666 266.06020737 C112.96786349 269.35520893 112.95639614 272.64923903 112.93870544 275.94419861 C112.95311295 277.37825315 112.95311295 277.37825315 112.96781152 278.84127849 C112.88608285 286.23655362 110.78145845 291.24108426 105.6875 296.75 C93.3020261 308.52678608 73.85912956 312.808695 57.6875 316 C56.15440186 316.30393677 56.15440186 316.30393677 54.59033203 316.61401367 C36.72003603 319.94748445 19.019537 320.68880752 0.875 320.625 C-0.22811523 320.62284485 -1.33123047 320.6206897 -2.46777344 320.61846924 C-18.66324392 320.56769698 -34.59764051 320.31045657 -50.5625 317.3125 C-51.63741699 317.11382324 -52.71233398 316.91514648 -53.81982422 316.71044922 C-72.66538873 313.09203578 -94.471464 308.48334479 -107.5 293.125 C-108.06589844 292.47144531 -108.63179687 291.81789063 -109.21484375 291.14453125 C-111.40092669 288.17272575 -111.68832478 285.59782378 -111.69672108 282.02733231 C-111.70340784 280.7081244 -111.70340784 280.7081244 -111.71022969 279.36226583 C-111.71004533 278.39526022 -111.70986097 277.42825461 -111.70967102 276.4319458 C-111.71518605 274.89192654 -111.71518605 274.89192654 -111.7208125 273.32079577 C-111.73186811 269.86392396 -111.73569635 266.40708218 -111.73950195 262.95019531 C-111.74576513 260.47838241 -111.7524118 258.00657044 -111.75941467 255.53475952 C-111.77865464 248.10543512 -111.78924439 240.6761187 -111.79814246 233.2467767 C-111.80252601 229.74804096 -111.80789263 226.24930674 -111.81313133 222.7505722 C-111.8301427 211.11992838 -111.84463704 199.48928549 -111.85188007 187.85863113 C-111.85378996 184.84064991 -111.85571029 181.82266869 -111.85766602 178.8046875 C-111.85814976 178.05458526 -111.8586335 177.30448301 -111.8591319 176.53165039 C-111.86743289 164.37945321 -111.89277134 152.22735444 -111.92524669 140.07520023 C-111.95831725 127.59860255 -111.97632881 115.1220549 -111.97952431 102.64541316 C-111.98168936 95.64030908 -111.99043721 88.63534853 -112.01598549 81.63028717 C-112.039962 75.04098354 -112.04351819 68.45189186 -112.03322411 61.86253738 C-112.03272751 59.44340532 -112.03908417 57.02426073 -112.05278015 54.60516739 C-112.07042798 51.30346291 -112.06342712 48.00269333 -112.05024719 44.70098877 C-112.06121644 43.74290605 -112.07218568 42.78482333 -112.08348733 41.7977078 C-112.0120764 34.39185893 -109.91372355 29.39177266 -104.8125 23.875 C-92.4270261 12.09821392 -72.98412956 7.816305 -56.8125 4.625 C-55.79043457 4.42237549 -54.76836914 4.21975098 -53.71533203 4.01098633 C-35.84464554 0.67744271 -18.14482089 -0.0622941 0 0 Z M-95.5625 63.3125 C-95.67860551 70.64057436 -95.76732122 77.96844881 -95.82156086 85.29725838 C-95.84760024 88.70078256 -95.88289092 92.10367519 -95.93969727 95.50683594 C-96.0046664 99.42374989 -96.02872753 103.34041258 -96.05078125 107.2578125 C-96.07658768 108.47365021 -96.1023941 109.68948792 -96.12898254 110.94216919 C-96.2738134 117.96357734 -96.2738134 117.96357734 -93.19140625 124.02075195 C-66.73416518 147.08484203 -12.64105175 145.73757051 19.76953125 143.74609375 C60.66278608 141.20664053 60.66278608 141.20664053 95.4375 122.3125 C96.74510893 119.69728215 96.55747548 117.78136599 96.55102539 114.85302734 C96.55094986 113.71199554 96.55087433 112.57096375 96.55079651 111.39535522 C96.54563522 110.15887238 96.54047394 108.92238953 96.53515625 107.6484375 C96.5337413 106.38609283 96.53232635 105.12374817 96.53086853 103.82315063 C96.52621078 100.46611701 96.51722408 97.109151 96.50616455 93.75213623 C96.4959377 90.32695094 96.49136818 86.90175866 96.48632812 83.4765625 C96.47528238 76.75518957 96.45853194 70.03384869 96.4375 63.3125 C92.50198258 64.60556465 88.69660276 66.02876592 84.875 67.625 C62.82574312 76.11897509 37.86820322 79.40726001 14.33984375 79.515625 C13.31542679 79.52263931 12.29100983 79.52965363 11.23554993 79.53688049 C7.94865472 79.55428382 4.66193958 79.56073231 1.375 79.5625 C0.25323364 79.56317474 -0.86853271 79.56384949 -2.02429199 79.56454468 C-18.37417442 79.54889844 -34.43891786 79.31264107 -50.5625 76.3125 C-51.99650146 76.04711426 -51.99650146 76.04711426 -53.45947266 75.77636719 C-65.92213415 73.37547515 -77.70487713 69.78534226 -89.5625 65.3125 C-91.5606902 64.6404283 -93.56041702 63.97288489 -95.5625 63.3125 Z M-4.9375 186.9375 C-7.04956506 190.02436432 -7.17445145 191.6407913 -6.5625 195.3125 C-5.0625 197.8125 -5.0625 197.8125 -2.5625 199.3125 C1.1092087 199.92445145 2.72563568 199.79956506 5.8125 197.6875 C7.92456506 194.60063568 8.04945145 192.9842087 7.4375 189.3125 C5.9375 186.8125 5.9375 186.8125 3.4375 185.3125 C-0.2342087 184.70054855 -1.85063568 184.82543494 -4.9375 186.9375 Z M-95.5625 223.3125 C-95.67860551 230.64057436 -95.76732122 237.96844881 -95.82156086 245.29725838 C-95.84760024 248.70078256 -95.88289092 252.10367519 -95.93969727 255.50683594 C-96.0046664 259.42374989 -96.02872753 263.34041258 -96.05078125 267.2578125 C-96.07658768 268.47365021 -96.1023941 269.68948792 -96.12898254 270.94216919 C-96.2738134 277.96357734 -96.2738134 277.96357734 -93.19140625 284.02075195 C-66.73416518 307.08484203 -12.64105175 305.73757051 19.76953125 303.74609375 C60.66278608 301.20664053 60.66278608 301.20664053 95.4375 282.3125 C96.74510893 279.69728215 96.55747548 277.78136599 96.55102539 274.85302734 C96.55094986 273.71199554 96.55087433 272.57096375 96.55079651 271.39535522 C96.54563522 270.15887238 96.54047394 268.92238953 96.53515625 267.6484375 C96.5337413 266.38609283 96.53232635 265.12374817 96.53086853 263.82315063 C96.52621078 260.46611701 96.51722408 257.109151 96.50616455 253.75213623 C96.4959377 250.32695094 96.49136818 246.90175866 96.48632812 243.4765625 C96.47528238 236.75518957 96.45853194 230.03384869 96.4375 223.3125 C92.50198258 224.60556465 88.69660276 226.02876592 84.875 227.625 C62.82574312 236.11897509 37.86820322 239.40726001 14.33984375 239.515625 C13.31542679 239.52263931 12.29100983 239.52965363 11.23554993 239.53688049 C7.94865472 239.55428382 4.66193958 239.56073231 1.375 239.5625 C0.25323364 239.56317474 -0.86853271 239.56384949 -2.02429199 239.56454468 C-18.37417442 239.54889844 -34.43891786 239.31264107 -50.5625 236.3125 C-51.99650146 236.04711426 -51.99650146 236.04711426 -53.45947266 235.77636719 C-65.92213415 233.37547515 -77.70487713 229.78534226 -89.5625 225.3125 C-91.5606902 224.6404283 -93.56041702 223.97288489 -95.5625 223.3125 Z " fill="#000000" transform="translate(127.5625,95.6875)"/>
<path d="M0 0 C2.44225447 1.66159248 4.74768159 3.38773224 7.0390625 5.25 C7.86148438 5.86875 8.68390625 6.4875 9.53125 7.125 C19.01135737 15.15798818 26.15442074 27.99599421 27.23193359 40.4855957 C27.80176157 57.74447646 26.33180617 71.35512524 15.0390625 85.25 C14.41644531 86.08144531 13.79382813 86.91289062 13.15234375 87.76953125 C5.06558632 97.26138146 -8.2378086 104.14149419 -20.63989258 105.55541992 C-23.37919435 105.68602872 -26.09374992 105.71781637 -28.8359375 105.6875 C-29.80120361 105.67992676 -30.76646973 105.67235352 -31.76098633 105.66455078 C-39.0908864 105.49542298 -45.31274169 104.48425742 -51.9609375 101.25 C-52.92257812 100.79109375 -53.88421875 100.3321875 -54.875 99.859375 C-68.84357128 92.70565925 -77.83604015 81.93720914 -83.0859375 67.0625 C-87.46207351 52.99634854 -86.39562354 36.47327982 -79.9609375 23.25 C-77.85984497 19.69502648 -75.56306644 16.45172464 -72.9609375 13.25 C-72.3421875 12.42757812 -71.7234375 11.60515625 -71.0859375 10.7578125 C-54.25015514 -9.11088653 -22.01325939 -13.01047521 0 0 Z " fill="#000000" transform="translate(468.9609375,206.75)"/>
<path d="M0 0 C1.9500293 -0.02320313 1.9500293 -0.02320313 3.93945312 -0.046875 C5.18533203 -0.04171875 6.43121094 -0.0365625 7.71484375 -0.03125 C9.40081665 -0.02448242 9.40081665 -0.02448242 11.12084961 -0.01757812 C14.68429309 0.60940338 15.86130618 1.68636004 18.0625 4.5 C18.59375 6.5 18.59375 6.5 18.5625 8.5 C18.57796875 9.49 18.57796875 9.49 18.59375 10.5 C17.76494596 13.62020346 16.72914906 14.64669914 14.0625 16.5 C10.83924303 17.08882749 7.64540449 17.10583279 4.375 17.125 C-5.54479259 17.27361113 -14.94084364 17.4533715 -22.34375 24.91796875 C-28.08934837 31.41517155 -29.04415315 38.24635935 -29.09571838 46.68832397 C-29.1055072 47.90821014 -29.11529602 49.12809631 -29.12538147 50.38494873 C-29.13128439 51.72326621 -29.13709491 53.0615841 -29.14282227 54.39990234 C-29.15240999 55.81949137 -29.16242059 57.23907759 -29.17282104 58.65866089 C-29.19977932 62.50114027 -29.22083783 66.34363181 -29.24082303 70.18615294 C-29.26273879 74.20604368 -29.29010006 78.2258973 -29.31687927 82.24575806 C-29.36673073 89.85288767 -29.41169746 97.46003798 -29.45490164 105.06720793 C-29.50433863 113.72984279 -29.55923274 122.39244038 -29.61458123 131.05503917 C-29.72828538 148.86999149 -29.83514947 166.68497901 -29.9375 184.5 C-28.62555664 184.47905273 -27.31361328 184.45810547 -25.96191406 184.43652344 C-21.09418656 184.3641203 -16.22650665 184.31819887 -11.35839844 184.28027344 C-9.25154618 184.26015874 -7.14474975 184.23286333 -5.03808594 184.19824219 C-2.00962553 184.14971832 1.01809678 184.12702984 4.046875 184.109375 C5.45957672 184.07840729 5.45957672 184.07840729 6.90081787 184.04681396 C13.44082075 184.04457019 13.44082075 184.04457019 16.65527344 186.39941406 C18.1720314 188.66349899 18.60469507 189.79951563 18.5625 192.5 C18.57796875 193.49 18.57796875 193.49 18.59375 194.5 C17.76985266 197.60173118 16.67110113 198.58899088 14.0625 200.5 C10.72321699 201.06596343 7.42516243 200.96468015 4.046875 200.890625 C3.07590881 200.88496521 2.10494263 200.87930542 1.10455322 200.87347412 C-1.99330169 200.85110311 -5.08999533 200.80090473 -8.1875 200.75 C-10.28904578 200.72993597 -12.39060972 200.71168503 -14.4921875 200.6953125 C-19.6410717 200.6512358 -24.78908903 200.58220258 -29.9375 200.5 C-29.85352409 220.16297028 -29.75836275 239.82585631 -29.64997292 259.48870754 C-29.59990225 268.61900097 -29.55345877 277.74928566 -29.515625 286.87963867 C-29.48263062 294.83987223 -29.44275846 302.80003692 -29.39470994 310.76019436 C-29.36951885 314.97300945 -29.34771594 319.1857793 -29.33415604 323.39864922 C-29.32126836 327.36885062 -29.29914253 331.33889627 -29.27011681 335.30901146 C-29.26109321 336.76135314 -29.25536308 338.21371987 -29.25328636 339.6660881 C-29.41236941 354.52699304 -29.41236941 354.52699304 -22.9375 367.5 C-16.52358593 373.86090652 -9.94248054 375.44191952 -1.1171875 375.67578125 C-0.25222656 375.69962891 0.61273438 375.72347656 1.50390625 375.74804688 C3.30053486 375.79119734 5.09748977 375.82234837 6.89453125 375.84179688 C13.41544605 376.0513629 13.41544605 376.0513629 16.6484375 378.29296875 C18.13469573 380.61268118 18.60510087 381.77354437 18.5625 384.5 C18.5728125 385.16 18.583125 385.82 18.59375 386.5 C17.81077938 389.4476541 16.42133279 390.59558547 14.0625 392.5 C11.12084961 393.01757812 11.12084961 393.01757812 7.71484375 393.03125 C6.46896484 393.03640625 5.22308594 393.0415625 3.93945312 393.046875 C2.63943359 393.03140625 1.33941406 393.0159375 0 393 C-1.27294922 393.01546875 -2.54589844 393.0309375 -3.85742188 393.046875 C-16.24722815 392.99596671 -25.87795243 390.14852839 -34.9375 381.5 C-45.05856682 370.89793198 -46.53367765 359.60037212 -46.39160156 345.47192383 C-46.39047107 343.88411488 -46.39111088 342.29630384 -46.39337158 340.70849609 C-46.3945118 336.43017151 -46.37111576 332.15230226 -46.34307575 327.8740828 C-46.31794568 323.39115137 -46.315711 318.90820768 -46.31097412 314.42521667 C-46.29857827 305.95044217 -46.26580291 297.47587588 -46.22557616 289.00119275 C-46.18075248 279.34697911 -46.15884485 269.69275515 -46.13879442 260.03846323 C-46.097067 240.19219294 -46.02678138 220.34610963 -45.9375 200.5 C-47.24944336 200.52094727 -48.56138672 200.54189453 -49.91308594 200.56347656 C-54.78081344 200.6358797 -59.64849335 200.68180113 -64.51660156 200.71972656 C-66.62345382 200.73984126 -68.73025025 200.76713667 -70.83691406 200.80175781 C-73.86537447 200.85028168 -76.89309678 200.87297016 -79.921875 200.890625 C-81.33457672 200.92159271 -81.33457672 200.92159271 -82.77581787 200.95318604 C-89.31582075 200.95542981 -89.31582075 200.95542981 -92.53027344 198.60058594 C-94.0470314 196.33650101 -94.47969507 195.20048437 -94.4375 192.5 C-94.45296875 191.51 -94.45296875 191.51 -94.46875 190.5 C-93.64485266 187.39826882 -92.54610113 186.41100912 -89.9375 184.5 C-86.59821699 183.93403657 -83.30016243 184.03531985 -79.921875 184.109375 C-78.95090881 184.11503479 -77.97994263 184.12069458 -76.97955322 184.12652588 C-73.88169831 184.14889689 -70.78500467 184.19909527 -67.6875 184.25 C-65.58595422 184.27006403 -63.48439028 184.28831497 -61.3828125 184.3046875 C-56.2339283 184.3487642 -51.08591097 184.41779742 -45.9375 184.5 C-45.94118717 183.72161868 -45.94487434 182.94323736 -45.94867325 182.14126873 C-46.03715461 163.16880801 -46.1032729 144.19638867 -46.14474869 125.22376537 C-46.16534112 116.0485968 -46.193398 106.87356627 -46.23925781 97.69848633 C-46.27922749 89.6979951 -46.30495692 81.69760389 -46.31385398 73.69701558 C-46.31905164 69.46388664 -46.33119816 65.23104375 -46.36042023 60.99800682 C-46.38774983 57.00643407 -46.39590995 53.01526278 -46.38993073 49.02360535 C-46.39102318 47.56561406 -46.3988722 46.1076081 -46.4143219 44.64969826 C-46.5472104 31.45245805 -44.21975617 21.22339309 -34.9375 11.5 C-24.67460137 1.70271492 -13.83703278 -0.16814622 0 0 Z " fill="#000000" transform="translate(349.9375,63.5)"/>
<path d="M0 0 C2.44225447 1.66159248 4.74768159 3.38773224 7.0390625 5.25 C7.87179687 5.87648438 8.70453125 6.50296875 9.5625 7.1484375 C18.76036546 14.95356624 26.15845232 28.59050337 27.26025391 40.67626953 C27.73579386 51.65011278 27.93683722 62.18235196 23.0390625 72.25 C22.58015625 73.21164062 22.12125 74.17328125 21.6484375 75.1640625 C13.91897924 90.25684678 1.74462952 98.78970206 -14.12109375 104.359375 C-26.20509403 107.16217466 -40.75813646 106.70001132 -51.9609375 101.25 C-52.92257812 100.79109375 -53.88421875 100.3321875 -54.875 99.859375 C-69.95673947 92.13557311 -78.53387692 79.95237876 -84.06640625 64.078125 C-87.48632329 49.44267215 -85.88294958 33.26983294 -78.2109375 20.2890625 C-76.54934502 17.84680803 -74.82320526 15.54138091 -72.9609375 13.25 C-72.33445312 12.41726563 -71.70796875 11.58453125 -71.0625 10.7265625 C-54.23488249 -9.10375256 -21.90682862 -12.94757154 0 0 Z M-61.421875 26.09765625 C-68.14505217 35.49986595 -68.94584911 46.05282056 -67.9609375 57.25 C-65.7647162 68.01942251 -59.1843623 76.38422662 -50.38671875 82.7421875 C-40.41077851 88.94301348 -29.1889132 89.97308289 -17.80859375 87.58984375 C-6.62384645 83.96617387 1.84161302 76.06122995 7.359375 65.79296875 C11.41050101 56.34506299 11.6392523 45.07439536 8.4765625 35.3125 C3.89997856 24.63913815 -4.35007565 16.38908394 -15.0234375 11.8125 C-32.85669213 6.03482564 -49.64786292 12.09249576 -61.421875 26.09765625 Z " fill="#000000" transform="translate(468.9609375,390.75)"/>
<path d="M0 0 C2.44225447 1.66159248 4.74768159 3.38773224 7.0390625 5.25 C7.87179687 5.87648438 8.70453125 6.50296875 9.5625 7.1484375 C18.76036546 14.95356624 26.15845232 28.59050337 27.26025391 40.67626953 C27.73579386 51.65011278 27.93683722 62.18235196 23.0390625 72.25 C22.58015625 73.21164063 22.12125 74.17328125 21.6484375 75.1640625 C13.91897924 90.25684678 1.74462952 98.78970206 -14.12109375 104.359375 C-26.20509403 107.16217466 -40.75813646 106.70001132 -51.9609375 101.25 C-52.92257812 100.79109375 -53.88421875 100.3321875 -54.875 99.859375 C-69.95673947 92.13557311 -78.53387692 79.95237876 -84.06640625 64.078125 C-87.48632329 49.44267215 -85.88294958 33.26983294 -78.2109375 20.2890625 C-76.54934502 17.84680803 -74.82320526 15.54138091 -72.9609375 13.25 C-72.33445312 12.41726562 -71.70796875 11.58453125 -71.0625 10.7265625 C-54.23488249 -9.10375256 -21.90682862 -12.94757154 0 0 Z M-61.421875 26.09765625 C-68.14505217 35.49986595 -68.94584911 46.05282056 -67.9609375 57.25 C-65.7647162 68.01942251 -59.1843623 76.38422662 -50.38671875 82.7421875 C-40.41077851 88.94301348 -29.1889132 89.97308289 -17.80859375 87.58984375 C-6.62384645 83.96617387 1.84161302 76.06122995 7.359375 65.79296875 C11.41050101 56.34506299 11.6392523 45.07439536 8.4765625 35.3125 C3.89997856 24.63913815 -4.35007565 16.38908394 -15.0234375 11.8125 C-32.85669213 6.03482564 -49.64786292 12.09249576 -61.421875 26.09765625 Z " fill="#000000" transform="translate(468.9609375,22.75)"/>
<path d="M0 0 C2.5 1.5 2.5 1.5 4 4 C4.791013 8.02098277 4.62153384 10.96411027 2.5 14.5 C-1.03588973 16.62153384 -3.97901723 16.791013 -8 16 C-10.5 14.5 -10.5 14.5 -12 12 C-12.791013 7.97901723 -12.62153384 5.03588973 -10.5 1.5 C-6.96411027 -0.62153384 -4.02098277 -0.791013 0 0 Z " fill="#000000" transform="translate(132,360)"/>
<path d="M0 0 C2.5 1.5 2.5 1.5 4 4 C4.791013 8.02098277 4.62153384 10.96411027 2.5 14.5 C-1.03588973 16.62153384 -3.97901723 16.791013 -8 16 C-10.5 14.5 -10.5 14.5 -12 12 C-12.791013 7.97901723 -12.62153384 5.03588973 -10.5 1.5 C-6.96411027 -0.62153384 -4.02098277 -0.791013 0 0 Z " fill="#000000" transform="translate(132,200)"/>
</svg>
