<?xml version="1.0" encoding="UTF-8"?>
<svg version="1.1" xmlns="http://www.w3.org/2000/svg" width="512" height="512">
<path d="M0 0 C1.83133232 0.00033989 1.83133232 0.00033989 3.69966125 0.00068665 C5.66240242 0.02391243 5.66240242 0.02391243 7.66479492 0.04760742 C9.02527905 0.05320733 10.38576925 0.05747557 11.7462616 0.06047058 C15.31546934 0.07188841 18.88430696 0.10132853 22.45336914 0.13458252 C26.09996535 0.16534991 29.74662176 0.17899011 33.39331055 0.1940918 C40.53994572 0.22620169 47.68633045 0.27736046 54.83276367 0.34057617 C54.85945633 0.90977783 54.88614899 1.47897949 54.91365051 2.06542969 C55.03720827 4.67806839 55.16348268 7.29056925 55.28979492 9.90307617 C55.33172974 10.79833008 55.37366455 11.69358398 55.41687012 12.6159668 C56.17031794 28.06695316 58.59687934 40.76756065 69.63354492 52.37182617 C82.9090765 64.25613863 98.44064948 64.49235729 115.33569336 64.48583984 C116.89226359 64.48883656 118.44883308 64.49224026 120.00540161 64.49601746 C124.21222294 64.50480988 128.4190239 64.50719357 132.62585354 64.50783324 C135.26043087 64.50854649 137.8950031 64.510686 140.52957916 64.51333046 C149.7387169 64.52256839 158.94784021 64.52666732 168.15698242 64.52587891 C176.71214667 64.52527865 185.26724776 64.53582427 193.82239604 64.55162257 C201.19172482 64.5647413 208.56103307 64.57006098 215.93037343 64.5694235 C220.32094247 64.56916977 224.71145533 64.5719514 229.10201263 64.58260155 C233.23563451 64.5923557 237.36914733 64.59231212 241.50277328 64.58508492 C243.00990078 64.58404808 244.51703533 64.58634762 246.02415085 64.59244537 C263.50369988 64.6585219 278.67960474 63.07931429 291.86401367 50.53979492 C302.52695321 38.62861445 303.71299524 25.02286103 304.39526367 9.77807617 C304.43844727 8.86477539 304.48163086 7.95147461 304.52612305 7.01049805 C304.63088125 4.78729626 304.73305385 2.5640091 304.83276367 0.34057617 C312.68245759 0.24772025 320.53202182 0.17673261 328.38212776 0.13332748 C332.02765487 0.11249046 335.67280504 0.08424534 339.31811523 0.03881836 C342.83891354 -0.00478026 346.35935028 -0.02859014 349.8803978 -0.0389328 C351.87124314 -0.04987388 353.86194389 -0.08107782 355.85256958 -0.11260986 C367.3206351 -0.11544795 367.3206351 -0.11544795 371.83276367 4.34057617 C381.6002725 18.10277439 382.00614327 41.04320608 383.45776367 57.21557617 C383.5681258 58.4249371 383.67848793 59.63429802 383.79219437 60.88030624 C386.46154806 94.22498022 379.33993036 118.94328868 357.75925446 144.36730194 C342.1823405 162.33551056 325.11885748 178.91648368 307.77026367 195.15307617 C306.97068521 195.90161204 306.17110674 196.65014791 305.34729862 197.42136669 C290.84578944 210.97273505 276.20570929 224.37265743 261.20661926 237.37254333 C260.50681214 237.98120939 259.80700502 238.58987545 259.08599162 239.21698594 C255.83043541 242.04752474 252.56505386 244.86375975 249.27111244 247.64954948 C240.17477567 255.44347695 234.13164599 263.89292642 229.21166992 274.80541992 C228.90968689 275.46937271 228.60770386 276.1333255 228.29656982 276.81739807 C227.32130744 278.96737722 226.35811052 281.12251215 225.39526367 283.27807617 C224.70668001 284.80309826 224.01745774 286.32783214 223.32763672 287.85229492 C221.14924184 292.67574269 218.98919404 297.50727617 216.83276367 302.34057617 C216.28446899 303.56855927 216.28446899 303.56855927 215.72509766 304.8213501 C212.52372054 311.99273786 209.3275206 319.16640959 206.14941406 326.34814453 C205.83288879 327.06335266 205.51636353 327.77856079 205.19024658 328.51544189 C204.57810634 329.89936406 203.96647757 331.28351259 203.35540771 332.66790771 C201.22920399 337.47613392 199.04006804 342.25249354 196.79760742 347.0078125 C191.93373732 358.76749843 193.49824059 370.3831318 197.82885742 382.01635742 C203.32388621 394.24232113 212.89394709 400.34500659 224.83276367 405.34057617 C228.94576932 406.52966851 233.01387131 406.63682038 237.27026367 406.71557617 C238.00180664 406.75295898 238.73334961 406.7903418 239.48706055 406.82885742 C246.93560711 406.94374503 253.10426877 404.28209408 259.83276367 401.34057617 C260.50222015 401.04997314 261.17167664 400.75937012 261.86141968 400.45996094 C267.33290467 398.07432099 272.77256673 395.62005394 278.20776367 393.15307617 C279.49037079 392.57156296 279.49037079 392.57156296 280.79888916 391.978302 C284.3884273 390.35047469 287.97762105 388.72190987 291.56503296 387.08940125 C297.05419136 384.59309076 302.5544152 382.12368387 308.06576538 379.67677307 C311.60482785 378.10204382 315.13681088 376.51185765 318.6675415 374.91854858 C320.34007026 374.16764068 322.01543803 373.4230195 323.69378662 372.68521118 C333.48059938 368.37688734 341.32970668 364.15374544 348.83276367 356.34057617 C349.85809328 355.32006912 350.88626927 354.30241669 351.91674805 353.28710938 C355.26792046 349.97528409 358.58398763 346.62972777 361.89526367 343.27807617 C364.1333009 341.01351219 366.37461251 338.75226177 368.61791992 336.49291992 C369.12823257 335.97430893 369.63854523 335.45569794 370.1643219 334.92137146 C371.36836127 333.7088368 372.59796672 332.52177369 373.83276367 331.34057617 C374.16276367 331.34057617 374.49276367 331.34057617 374.83276367 331.34057617 C374.92544483 344.92719297 374.99651944 358.51373456 375.04001236 372.1006031 C375.06088682 378.40954886 375.08920257 384.71827833 375.13452148 391.02709961 C375.17798323 397.1154887 375.20190184 403.20366975 375.21227264 409.292202 C375.21966334 411.61504262 375.23409555 413.93787187 375.2556839 416.26062393 C375.28472136 419.51425023 375.28871941 422.76701692 375.28686523 426.02075195 C375.30124634 426.98100784 375.31562744 427.94126373 375.33044434 428.93061829 C375.29578495 434.55143724 374.74635432 437.98425816 370.83276367 442.34057617 C366.93812012 445.18070564 364.2095754 445.71651532 359.42462254 445.72089291 C357.47150523 445.73355282 357.47150523 445.73355282 355.47893101 445.74646848 C354.03572196 445.74067334 352.59251403 445.73459232 351.14930725 445.72825623 C349.61483842 445.73242866 348.08037268 445.73790568 346.54591268 445.74457604 C342.32734633 445.75906125 338.10897483 445.75477636 333.89039767 445.74740922 C329.34157058 445.74268745 324.79278625 445.7551786 320.24397278 445.76542664 C311.33178946 445.78263936 302.41967656 445.78344954 293.50748093 445.77821373 C286.26508068 445.77417546 279.02270129 445.77561151 271.78030205 445.78096199 C270.75027745 445.78171041 269.72025286 445.78245883 268.6590154 445.78322994 C266.56665345 445.78476138 264.47429151 445.78629973 262.38192957 445.7878449 C242.75184226 445.80157885 223.12179479 445.79612593 203.49170839 445.78465969 C185.52556302 445.77472597 167.55952062 445.7876688 149.59339113 445.81159388 C131.15365078 445.835965 112.71395842 445.84559767 94.27420229 445.83894116 C83.91850474 445.83544456 73.5628864 445.83771001 63.207201 445.85519218 C54.3917693 445.86988931 45.5764726 445.87058225 36.76104362 445.85312127 C32.26206399 445.8445884 27.76332577 445.84251731 23.26435852 445.85777283 C19.14689446 445.87156204 15.02987993 445.86693162 10.91244226 445.84753359 C9.42191743 445.84375547 7.93135709 445.84674749 6.44086374 445.85714524 C4.4161933 445.8702665 2.39140162 445.85637757 0.36674595 445.84114742 C-0.75831307 445.84104009 -1.88337209 445.84093275 -3.0425238 445.84082216 C-7.92705091 445.0588414 -10.9410227 442.86126721 -14.01846653 439.0447697 C-15.49363316 435.57224104 -15.54454697 432.8473363 -15.54755306 429.07347965 C-15.55221298 428.34857245 -15.5568729 427.62366524 -15.56167403 426.87679115 C-15.57365235 424.44071316 -15.5642179 422.00518999 -15.55491638 419.56910706 C-15.55908806 417.80777472 -15.56456466 416.04644507 -15.57123619 414.28512043 C-15.58573127 409.43947551 -15.58143342 404.59400009 -15.57406938 399.74834573 C-15.56935005 394.52466811 -15.58183658 389.30102782 -15.59208679 384.07736206 C-15.60930429 373.84169051 -15.6101087 363.60608027 -15.60487389 353.37039799 C-15.60083652 345.05296038 -15.60227059 336.73554092 -15.60762215 328.41810417 C-15.60837057 327.23543471 -15.60911899 326.05276525 -15.60989009 324.83425732 C-15.61142153 322.43186037 -15.61295988 320.02946342 -15.61450506 317.62706649 C-15.62824073 295.08554915 -15.62278487 272.54406649 -15.61131985 250.00254994 C-15.60138587 229.36896753 -15.61432912 208.73547477 -15.63825404 188.10190619 C-15.66262151 166.92753722 -15.67225873 145.75321004 -15.66560131 124.57882732 C-15.66210392 112.68612145 -15.66437544 100.79348456 -15.68185234 88.90078926 C-15.6965449 78.77699207 -15.69724838 68.65331241 -15.67978143 58.5295176 C-15.67124483 53.36221097 -15.66918661 48.19511457 -15.68443298 43.02781868 C-15.69821098 38.29973545 -15.69360612 33.57204393 -15.67419375 28.84398376 C-15.67041218 27.13138756 -15.67341734 25.41876048 -15.6838054 23.70619161 C-15.69690643 21.38149057 -15.68545509 19.05815537 -15.66780758 16.73351383 C-15.66770024 15.44137787 -15.66759291 14.14924191 -15.66748232 12.81795031 C-14.94189743 7.77417151 -12.78369623 4.60781823 -8.8026886 1.48686218 C-5.67113341 0.12479695 -3.41108291 -0.02118685 0 0 Z M149.93432617 117.04370117 C149.09936615 117.88149109 148.26440613 118.71928101 147.40414429 119.5824585 C144.75060084 122.24715533 142.10411452 124.91873803 139.45776367 127.59057617 C137.6548402 129.40353567 135.85145976 131.21604087 134.04760742 133.02807617 C129.63735255 137.4603272 125.23286406 141.89824539 120.83276367 146.34057617 C117.96349143 144.96222738 115.94382129 143.67931565 113.73901367 141.37182617 C113.18342773 140.80077148 112.6278418 140.2297168 112.05541992 139.64135742 C110.90698242 138.44083659 109.75854492 137.24031576 108.61010742 136.03979492 C107.77672852 135.18321289 107.77672852 135.18321289 106.92651367 134.30932617 C106.42829102 133.78790039 105.93006836 133.26647461 105.41674805 132.72924805 C101.3477466 129.16197304 97.53694692 128.90859863 92.30541992 129.02416992 C87.61231962 129.62470882 84.98855947 132.03067427 81.95776367 135.46557617 C80.30074295 139.70018469 79.97844938 143.86719819 80.83276367 148.34057617 C83.63333586 153.02192679 86.93030693 156.73277374 90.77026367 160.54370117 C91.33221436 161.10756531 91.89416504 161.67142944 92.47314453 162.25238037 C93.65403864 163.4346274 94.83742981 164.61438501 96.02319336 165.79174805 C97.83448098 167.59228329 99.63479653 169.40329781 101.43432617 171.21557617 C102.58733095 172.36725998 103.74095564 173.51832358 104.89526367 174.66870117 C105.43078857 175.20827454 105.96631348 175.7478479 106.51806641 176.30377197 C110.7685681 180.50145459 113.70644566 182.6220977 119.70776367 182.71557617 C120.53018555 182.74393555 121.35260742 182.77229492 122.19995117 182.80151367 C127.97237083 181.79091201 132.14999131 177.27493439 136.16381836 173.26831055 C136.65891403 172.77671951 137.1540097 172.28512848 137.66410828 171.77864075 C139.28265102 170.16882813 140.89385265 168.55189734 142.50463867 166.93432617 C143.63441277 165.80590079 144.7644835 164.67777233 145.89483643 163.54992676 C148.2548508 161.19285146 150.61123368 158.83222072 152.96508789 156.46899414 C155.98007207 153.44258995 159.00398206 150.42528879 162.03065109 147.41057587 C164.36255066 145.08590541 166.68966325 142.75648998 169.01535797 140.4256134 C170.12864715 139.310992 171.24341858 138.19784903 172.35970306 137.08622742 C173.91779207 135.53322372 175.46931611 133.97394215 177.01928711 132.4128418 C178.34449371 131.08524841 178.34449371 131.08524841 179.69647217 129.73083496 C183.73895584 125.20777146 184.28026365 121.74740846 184.14916992 115.81323242 C183.54863102 111.12013212 181.14266558 108.49637197 177.70776367 105.46557617 C165.22831054 100.5823119 158.13160147 108.74068586 149.93432617 117.04370117 Z M31.95776367 155.46557617 C30.26792116 159.7840626 30.17315384 163.76728137 30.83276367 168.34057617 C32.99575205 172.7466636 35.22956846 175.53932587 39.83276367 177.34057617 C44.87601751 178.02483674 48.66353252 177.91456238 53.27026367 175.65307617 C56.62932379 172.62172924 58.52631998 170.59917969 59.14916992 166.00854492 C59.41490019 160.29105808 58.80123519 156.73807164 54.83276367 152.34057617 C50.99563171 148.9548715 47.19874905 148.82766445 42.27026367 148.98901367 C37.60750222 149.66152734 34.98086075 152.03939949 31.95776367 155.46557617 Z M151.49682617 213.38354492 C150.61747406 214.26714188 149.73812195 215.15073883 148.8321228 216.06111145 C146.50871169 218.39843003 144.19195589 220.74208656 141.8782959 223.08905029 C139.51055957 225.48761175 137.13418471 227.87758135 134.75854492 230.26831055 C130.10865366 234.95122477 125.4674393 239.64260517 120.83276367 244.34057617 C117.8552898 242.91567836 115.83254508 241.55634547 113.55541992 239.15307617 C112.95922852 238.5369043 112.36303711 237.92073242 111.7487793 237.28588867 C110.51495946 235.9909629 109.28317936 234.69409051 108.0534668 233.39526367 C104.2349589 229.45729868 101.30259637 226.57592135 95.58666992 226.18823242 C89.76091996 226.75938438 86.89318411 228.08208645 82.83276367 232.34057617 C81.12280542 235.1905066 80.51594345 237.3993286 80.45776367 240.71557617 C80.4294043 241.44518555 80.40104492 242.17479492 80.37182617 242.92651367 C81.52858808 248.98480908 86.74440918 253.55992479 90.95385742 257.76245117 C91.53563248 258.34851135 92.11740753 258.93457153 92.71681213 259.53839111 C93.94050302 260.76779323 95.1667799 261.99462628 96.39550781 263.21899414 C98.27000275 265.09031569 100.13074059 266.97461374 101.9909668 268.86010742 C103.18611935 270.057532 104.38205652 271.25417408 105.57885742 272.44995117 C106.13109482 273.01139832 106.68333221 273.57284546 107.25230408 274.15130615 C110.86218991 277.71854753 113.89604944 280.04005066 119.00854492 280.56323242 C123.37443132 280.23599048 126.16754542 279.44857914 129.42504883 276.46435547 C130.11745667 275.83056976 130.8098645 275.19678406 131.52325439 274.54379272 C136.08971671 270.18749702 140.57976684 265.75832291 145.04370117 261.29760742 C146.10357721 260.24095187 147.16352522 259.1843685 148.22354126 258.12785339 C150.42887104 255.92846905 152.63216776 253.72707115 154.83422852 251.52441406 C157.65357466 248.70496562 160.47978058 245.89250098 163.30772972 243.08168507 C165.49186982 240.90865778 167.67145563 238.73110651 169.84978104 236.55225182 C170.8903635 235.51284711 171.93256265 234.47505825 172.97642136 233.43894386 C174.43121607 231.99395048 175.87953402 230.54275429 177.32641602 229.08984375 C178.15056 228.26712479 178.97470398 227.44440582 179.82382202 226.59675598 C183.56998342 222.38955877 184.27995074 219.10055736 184.15307617 213.59057617 C183.53616808 209.25717298 181.02685956 206.62312361 178.14526367 203.52807617 C166.48840745 197.54212298 159.31933279 205.41752534 151.49682617 213.38354492 Z M35.83276367 249.34057617 C31.63177874 253.99572163 30.47840277 256.87093576 30.54760742 263.02026367 C31.08647875 267.40505229 33.61640622 270.03411816 36.52026367 273.15307617 C40.16529216 275.02484756 43.75614817 275.45401243 47.83276367 275.34057617 C53.20562234 273.51583172 56.30677403 270.39255546 58.83276367 265.34057617 C59.40701452 260.633602 59.28830919 257.21912825 57.08276367 252.96557617 C53.0284059 248.2354921 50.28404429 246.76715494 44.07885742 246.27807617 C40.6628758 246.37312957 38.61235238 247.40132824 35.83276367 249.34057617 Z M149.93432617 312.04370117 C149.09936615 312.88149109 148.26440613 313.71928101 147.40414429 314.5824585 C144.75060084 317.24715533 142.10411452 319.91873803 139.45776367 322.59057617 C137.6548402 324.40353567 135.85145976 326.21604087 134.04760742 328.02807617 C129.63735255 332.4603272 125.23286406 336.89824539 120.83276367 341.34057617 C117.96349143 339.96222738 115.94382129 338.67931565 113.73901367 336.37182617 C113.18342773 335.80077148 112.6278418 335.2297168 112.05541992 334.64135742 C110.90698242 333.44083659 109.75854492 332.24031576 108.61010742 331.03979492 C107.77672852 330.18321289 107.77672852 330.18321289 106.92651367 329.30932617 C106.42829102 328.78790039 105.93006836 328.26647461 105.41674805 327.72924805 C101.3477466 324.16197304 97.53694692 323.90859863 92.30541992 324.02416992 C87.61231962 324.62470882 84.98855947 327.03067427 81.95776367 330.46557617 C80.30074295 334.70018469 79.97844938 338.86719819 80.83276367 343.34057617 C83.63333586 348.02192679 86.93030693 351.73277374 90.77026367 355.54370117 C91.33221436 356.10756531 91.89416504 356.67142944 92.47314453 357.25238037 C93.65403864 358.4346274 94.83742981 359.61438501 96.02319336 360.79174805 C97.83448098 362.59228329 99.63479653 364.40329781 101.43432617 366.21557617 C102.58733095 367.36725998 103.74095564 368.51832358 104.89526367 369.66870117 C105.43078857 370.20827454 105.96631348 370.7478479 106.51806641 371.30377197 C110.7685681 375.50145459 113.70644566 377.6220977 119.70776367 377.71557617 C120.53018555 377.74393555 121.35260742 377.77229492 122.19995117 377.80151367 C127.97237083 376.79091201 132.14999131 372.27493439 136.16381836 368.26831055 C136.65891403 367.77671951 137.1540097 367.28512848 137.66410828 366.77864075 C139.28265102 365.16882813 140.89385265 363.55189734 142.50463867 361.93432617 C143.63441277 360.80590079 144.7644835 359.67777233 145.89483643 358.54992676 C148.2548508 356.19285146 150.61123368 353.83222072 152.96508789 351.46899414 C155.98007207 348.44258995 159.00398206 345.42528879 162.03065109 342.41057587 C164.36255066 340.08590541 166.68966325 337.75648998 169.01535797 335.4256134 C170.12864715 334.310992 171.24341858 333.19784903 172.35970306 332.08622742 C173.91779207 330.53322372 175.46931611 328.97394215 177.01928711 327.4128418 C178.34449371 326.08524841 178.34449371 326.08524841 179.69647217 324.73083496 C183.73895584 320.20777146 184.28026365 316.74740846 184.14916992 310.81323242 C183.54863102 306.12013212 181.14266558 303.49637197 177.70776367 300.46557617 C165.22831054 295.5823119 158.13160147 303.74068586 149.93432617 312.04370117 Z M31.95776367 350.46557617 C30.26792116 354.7840626 30.17315384 358.76728137 30.83276367 363.34057617 C32.99575205 367.7466636 35.22956846 370.53932587 39.83276367 372.34057617 C44.87601751 373.02483674 48.66353252 372.91456238 53.27026367 370.65307617 C56.62932379 367.62172924 58.52631998 365.59917969 59.14916992 361.00854492 C59.41490019 355.29105808 58.80123519 351.73807164 54.83276367 347.34057617 C50.99563171 343.9548715 47.19874905 343.82766445 42.27026367 343.98901367 C37.60750222 344.66152734 34.98086075 347.03939949 31.95776367 350.46557617 Z " fill="#000000" transform="translate(24.167236328125,66.659423828125)"/>
<path d="M0 0 C1.85243225 1.29045105 1.85243225 1.29045105 3.66821289 2.95385742 C4.70693039 3.90378067 4.70693039 3.90378067 5.76663208 4.87289429 C9.88086168 8.7913715 13.92077085 12.77866732 17.93359375 16.80078125 C18.85213638 17.71836716 19.77067902 18.63595306 20.71705627 19.5813446 C22.64396949 21.50679608 24.56909375 23.43401307 26.49291992 25.36254883 C28.95982339 27.83519715 31.43125536 30.30326319 33.904006 32.77006245 C36.27046121 35.13204714 38.63311268 37.49782089 40.99609375 39.86328125 C41.88453476 40.74969803 42.77297577 41.63611481 43.68833923 42.5493927 C44.91080101 43.77658272 44.91080101 43.77658272 46.15795898 45.02856445 C46.87773422 45.74913528 47.59750946 46.46970612 48.33909607 47.21211243 C51.22015206 50.31343822 51.21440644 52.5990935 51.3125 56.75 C51.36857422 58.28914063 51.36857422 58.28914063 51.42578125 59.859375 C50.5622146 66.22916938 45.72830459 70.56148141 41.31793213 74.9225769 C40.75506776 75.48715013 40.19220338 76.05172335 39.61228251 76.63340485 C37.73614307 78.51282305 35.85297424 80.38503086 33.96972656 82.25732422 C32.61897031 83.60751601 31.26865494 84.95814897 29.91874695 86.30918884 C26.26034188 89.96816705 22.595809 93.62095169 18.93013859 97.27264929 C15.09753047 101.09274375 11.27059604 104.91851347 7.4430542 108.74368286 C0.1975417 115.98298247 -7.05305338 123.21716927 -14.30549169 130.44952977 C-22.56330583 138.684979 -30.81543275 146.9261169 -39.0670886 155.16773582 C-56.03840842 172.11815795 -73.01685213 189.06142936 -90 206 C-94.10444852 204.11051595 -96.9114135 201.35627449 -100.05371094 198.17333984 C-100.64926285 197.57807999 -101.24481476 196.98282013 -101.8584137 196.36952209 C-103.82184643 194.40469823 -105.77810373 192.43288961 -107.734375 190.4609375 C-109.0958564 189.09572521 -110.45778061 187.73095439 -111.82012939 186.36660767 C-115.40183824 182.77726841 -118.9774999 179.1819632 -122.55194092 175.58538818 C-126.20157121 171.91528681 -129.85688092 168.25085171 -133.51171875 164.5859375 C-140.68005329 157.39616348 -147.842013 150.20007484 -155 143 C-153.38903112 138.98915961 -150.57082955 136.28571532 -147.56085205 133.29342651 C-146.99984637 132.72788972 -146.43884069 132.16235293 -145.86083484 131.57967865 C-143.97870523 129.68488322 -142.0894928 127.79731442 -140.20019531 125.90966797 C-138.84964523 124.55313405 -137.49950668 123.1961903 -136.14974976 121.83886719 C-132.48092602 118.15236263 -128.80562284 114.47238404 -125.12858677 110.79407263 C-122.06037957 107.72396705 -118.99490698 104.65113771 -115.92929721 101.57843888 C-108.6972987 94.33015128 -101.45960776 87.08758099 -94.21875 79.84814453 C-86.74674217 72.37733864 -79.28596305 64.89544837 -71.83036351 57.40827072 C-65.43062091 50.98238884 -59.02320313 44.56422936 -52.60973811 38.15204346 C-48.77858085 34.32139647 -44.95060268 30.48769866 -41.13028717 26.64623642 C-37.53748087 23.03408725 -33.93522407 19.43163975 -30.32545853 15.83644104 C-29.00217774 14.51525425 -27.68230706 13.19064178 -26.3661232 11.8623848 C-24.56887861 10.04972655 -22.75973979 8.24983274 -20.94708252 6.4526062 C-20.42897294 5.9242095 -19.91086337 5.3958128 -19.3770535 4.85140407 C-13.64060449 -0.77767984 -7.59893917 -2.22524246 0 0 Z " fill="#000000" transform="translate(452,189)"/>
<path d="M0 0 C0.88842087 -0.00686325 1.77684174 -0.0137265 2.69218445 -0.02079773 C5.6231595 -0.0390693 8.55359946 -0.03522767 11.48461914 -0.02954102 C13.52576369 -0.03410267 15.56690671 -0.0394082 17.60804749 -0.04542542 C21.88426964 -0.05435725 26.16030504 -0.05193254 30.43652344 -0.04199219 C35.91213103 -0.03050312 41.38709367 -0.0507129 46.86261654 -0.07990932 C51.07743921 -0.09826965 55.29210729 -0.09797916 59.50695992 -0.0922718 C61.52554796 -0.09211857 63.54414648 -0.09816495 65.56269646 -0.11056328 C68.38725935 -0.12546793 71.21063024 -0.11479996 74.03515625 -0.09765625 C74.86599731 -0.10732422 75.69683838 -0.11699219 76.55285645 -0.12695312 C81.8584313 -0.05964038 84.86464242 0.90017459 89.08227539 4.40405273 C91.8268673 7.95921051 92.4498142 10.47423732 92.37524414 14.92358398 C92.36557617 15.94516602 92.3559082 16.96674805 92.34594727 18.01928711 C92.32081055 19.07438477 92.29567383 20.12948242 92.26977539 21.21655273 C92.25624023 22.29098633 92.24270508 23.36541992 92.22875977 24.47241211 C92.19350116 27.11680729 92.14421905 29.76017021 92.08227539 32.40405273 C92.98993652 32.38310547 93.89759766 32.3621582 94.83276367 32.34057617 C98.22105181 32.27214341 101.6085989 32.22212978 104.99731445 32.18432617 C106.45999791 32.16428941 107.92260205 32.1370517 109.38500977 32.10229492 C111.49523549 32.05342048 113.60439675 32.03100614 115.71508789 32.01342773 C116.98239746 31.99248047 118.24970703 31.9715332 119.55541992 31.94995117 C124.64956361 32.6058495 127.50921535 34.68301823 130.93017578 38.42578125 C132.78141391 43.21138285 132.52953147 47.97051697 132.51586914 53.05639648 C132.52111099 54.18928604 132.52635284 55.3221756 132.53175354 56.48939514 C132.53816967 58.88240744 132.53684207 61.2754513 132.52832031 63.66845703 C132.51981382 67.32503569 132.54857435 70.98005034 132.58032227 74.63647461 C132.5819345 76.9639481 132.58135633 79.29142435 132.57836914 81.61889648 C132.58960312 82.70968002 132.6008371 83.80046356 132.6124115 84.92430115 C132.55787676 90.88000401 132.33071943 94.84010092 128.08227539 99.40405273 C124.00117789 102.42662173 121.02277954 102.78199919 115.99159241 102.79173279 C115.28918267 102.79711833 114.58677294 102.80250386 113.86307806 102.8080526 C111.51547274 102.82233075 109.16843141 102.81522909 106.82080078 102.80810547 C105.13523404 102.81380913 103.44967116 102.82077338 101.76411438 102.8289032 C97.18971765 102.84685026 92.61551258 102.84566332 88.0410912 102.83996081 C84.22144229 102.83687118 80.4018303 102.8429589 76.58218664 102.84899956 C67.57087315 102.86304827 58.55965445 102.86148063 49.54833984 102.85009766 C40.25345283 102.8386159 30.95885433 102.85269228 21.66400534 102.87949413 C13.68169054 102.90164904 5.69946633 102.90828899 -2.28287703 102.90241772 C-7.04947891 102.89904646 -11.81589583 102.90147444 -16.58247185 102.91866875 C-21.06496175 102.93413248 -25.54702417 102.9301888 -30.02949715 102.9113636 C-31.67340132 102.90767612 -33.31733712 102.91079086 -34.96121216 102.92124939 C-37.20798665 102.93445095 -39.45334413 102.92292116 -41.70005798 102.90525818 C-42.95642028 102.90504889 -44.21278257 102.90483961 -45.50721645 102.90462399 C-50.3808413 102.18930639 -53.47831133 99.97886861 -56.765625 96.38232422 C-58.61686313 91.59672262 -58.36498069 86.8375885 -58.35131836 81.75170898 C-58.35656021 80.61881943 -58.36180206 79.48592987 -58.36720276 78.31871033 C-58.37361889 75.92569803 -58.37229129 73.53265417 -58.36376953 71.13964844 C-58.35526303 67.48306978 -58.38402357 63.82805513 -58.41577148 60.17163086 C-58.41738372 57.84415737 -58.41680554 55.51668112 -58.41381836 53.18920898 C-58.42505234 52.09842545 -58.43628632 51.00764191 -58.44786072 49.88380432 C-58.39332598 43.92810146 -58.16616865 39.96800455 -53.91772461 35.40405273 C-49.91140531 32.16380406 -46.71632052 32.04851451 -41.64819336 32.11108398 C-40.62668938 32.11745125 -40.62668938 32.11745125 -39.58454895 32.12394714 C-37.42436002 32.14064664 -35.26512819 32.17827962 -33.10522461 32.21655273 C-31.63453503 32.23161099 -30.16383072 32.2452974 -28.69311523 32.25756836 C-25.10101104 32.2905206 -21.50946135 32.34224101 -17.91772461 32.40405273 C-17.93867188 31.73873535 -17.95961914 31.07341797 -17.98120117 30.38793945 C-18.0647307 27.35179972 -18.11650064 24.3159023 -18.16772461 21.27905273 C-18.20124023 20.23233398 -18.23475586 19.18561523 -18.26928711 18.10717773 C-18.34589058 12.0555036 -18.26753519 8.03497352 -13.91772461 3.40405273 C-9.40897472 -0.11351814 -5.47878623 -0.02961291 0 0 Z " fill="#000000" transform="translate(166.917724609375,-0.404052734375)"/>
<path d="M0 0 C3.93467549 1.59247554 6.57577776 4.30662369 9.50292969 7.27587891 C10.03996017 7.81261734 10.57699066 8.34935577 11.1302948 8.90235901 C12.89893859 10.67239283 14.66039824 12.44939857 16.421875 14.2265625 C17.64883466 15.45725344 18.87623749 16.6875027 20.10406494 17.91732788 C23.33067488 21.15156516 26.55123291 24.39176408 29.77056885 27.63323975 C33.05825672 30.94140534 36.35163068 34.24389946 39.64453125 37.546875 C46.10193298 44.02571079 52.55295568 50.51085869 59 57 C56.05158662 60.17492689 52.74491917 61.64953833 48.81640625 63.3359375 C47.73678116 63.80997765 47.73678116 63.80997765 46.63534546 64.29359436 C45.08598202 64.97325768 43.5352715 65.64985681 41.98336792 66.32369995 C37.90194173 68.0961236 33.8301615 69.89043522 29.7578125 71.68359375 C28.93661423 72.04459671 28.11541595 72.40559967 27.26933289 72.77754211 C18.2489799 76.75272147 9.31702976 80.91140836 0.39477539 85.10107422 C-0.67522705 85.60268066 -1.74522949 86.10428711 -2.84765625 86.62109375 C-3.77586182 87.0586499 -4.70406738 87.49620605 -5.66040039 87.94702148 C-11.11152488 90.40039725 -16.09764877 90.58347025 -22 90 C-26.85547296 87.88124816 -28.97844533 84.98457266 -31.43359375 80.48828125 C-33.68583476 70.5939535 -27.88982629 61.21962903 -23.875 52.5 C-23.15838111 50.9194545 -22.44290214 49.3383917 -21.72851562 47.75683594 C-19.87333249 43.65732463 -18.00337858 39.56472448 -16.13024902 35.47338867 C-14.27753909 31.41899742 -12.43991505 27.35779115 -10.6015625 23.296875 C-7.08107123 15.52512645 -3.54563272 7.76031092 0 0 Z " fill="#000000" transform="translate(278,355)"/>
</svg>
