<?xml version="1.0" encoding="UTF-8"?>
<svg version="1.1" xmlns="http://www.w3.org/2000/svg" width="512" height="512">
<path d="M0 0 C1.54882812 1.79321289 1.54882812 1.79321289 3.03125 3.97265625 C3.588125 4.78089844 4.145 5.58914062 4.71875 6.421875 C5.60046875 7.72898438 5.60046875 7.72898438 6.5 9.0625 C7.76002175 10.89740667 9.0204447 12.73203789 10.28125 14.56640625 C11.22291016 15.94530029 11.22291016 15.94530029 12.18359375 17.35205078 C14.25147917 20.36660526 16.34998363 23.35754987 18.47000313 26.33561325 C19.43619644 27.70242389 20.3940516 29.07520215 21.34004021 30.45607376 C23.92198999 34.20145634 26.58652789 37.7270436 29.60037231 41.13665771 C41.33772432 55.01369432 41.93181782 67.6527908 41.41951513 85.27866077 C41.33057552 88.86829933 41.32366462 92.45819672 41.30715942 96.04876709 C41.26404915 102.81410957 41.1497467 109.57619516 41.00826657 116.34011817 C40.85048903 124.05460204 40.77448972 131.76926128 40.70453048 139.48496294 C40.55911258 155.32550322 40.3029208 171.16156959 40 187 C49.57 187 59.14 187 69 187 C68.94239502 183.14570313 68.88479004 179.29140625 68.82543945 175.3203125 C68.64261209 162.54029169 68.52088471 149.76028873 68.43006611 136.97930908 C68.37356481 129.23519794 68.29666889 121.49233365 68.17016602 113.74902344 C68.05983902 106.99257308 67.98940056 100.23702631 67.96502656 93.47970009 C67.95079728 89.90771081 67.91785243 86.33830418 67.83696938 82.76715088 C67.49319506 66.98317392 67.44969974 54.48248108 78.69152832 42.43967342 C80.57313506 40.36939612 82.09697578 38.09084389 83.64453125 35.765625 C84.69982867 34.25993131 85.75581156 32.7547178 86.8125 31.25 C87.9908941 29.56901651 89.16927923 27.88802672 90.34765625 26.20703125 C90.9420752 25.35963379 91.53649414 24.51223633 92.14892578 23.63916016 C95.35131813 19.07336468 98.55079903 14.50553192 101.75 9.9375 C102.64489136 8.66084473 102.64489136 8.66084473 103.55786133 7.35839844 C104.11111084 6.56852539 104.66436035 5.77865234 105.234375 4.96484375 C105.96479004 3.92251587 105.96479004 3.92251587 106.70996094 2.85913086 C107.82509166 1.25206794 108.91497356 -0.37246033 110 -2 C131.20145271 0.07359518 150.14017882 10.24948164 166 24 C167.03125 24.78375 168.0625 25.5675 169.125 26.375 C173.62191031 30.48087463 177.27270505 35.19840563 181 40 C181.89912109 41.12341797 181.89912109 41.12341797 182.81640625 42.26953125 C186.93440751 47.72516633 189.92839489 53.60929363 192.875 59.75 C193.26880859 60.56662109 193.66261719 61.38324219 194.06835938 62.22460938 C196.0541459 66.48584899 197.52640653 70.26406531 198 75 C197.319375 75.27972656 196.63875 75.55945313 195.9375 75.84765625 C193.84635373 76.71247871 191.7581076 77.58432803 189.671875 78.4609375 C187.18714813 79.50240812 184.69972826 80.52744191 182.203125 81.5390625 C167.63424687 87.54933774 154.85971594 95.59512499 143 106 C142.14921875 106.71800781 141.2984375 107.43601562 140.421875 108.17578125 C134.17671779 113.56845534 128.990458 119.43989367 124 126 C123.59249512 126.53254395 123.18499023 127.06508789 122.76513672 127.61376953 C99.58718482 158.1401756 89.22587083 196.48989862 94.02001953 234.58300781 C97.07551193 256.43350464 104.22693736 279.57232811 117.76171875 297.30859375 C119 299 119 299 119 301 C48.71 301 -21.58 301 -94 301 C-94.061875 266.989375 -94.12375 232.97875 -94.1875 197.9375 C-94.22846802 181.85374634 -94.22846802 181.85374634 -94.27026367 165.44506836 C-94.28381348 152.30969238 -94.28381348 152.30969238 -94.28633118 146.15235901 C-94.28911602 141.86963702 -94.30031813 137.58702761 -94.31672668 133.30433655 C-94.33743048 127.82731779 -94.3434502 122.35046078 -94.33921683 116.87340653 C-94.34010098 114.87220036 -94.34597453 112.87098804 -94.35764539 110.86981571 C-94.4208213 99.50143337 -93.80091783 89.05420661 -91 78 C-90.81327319 77.24882873 -90.62654638 76.49765745 -90.43416119 75.72372341 C-86.49337818 61.0990163 -79.07766832 47.26671623 -69 36 C-68.30261719 35.17242187 -67.60523437 34.34484375 -66.88671875 33.4921875 C-52.33942423 16.59355408 -32.72877282 5.09019805 -11.25 -0.5625 C-10.58250732 -0.74329102 -9.91501465 -0.92408203 -9.22729492 -1.11035156 C-5.33500001 -2.04502272 -3.35926913 -2.16225012 0 0 Z M-28 98 C-28 108.89 -28 119.78 -28 131 C-17.44 131 -6.88 131 4 131 C4 120.11 4 109.22 4 98 C-6.56 98 -17.12 98 -28 98 Z " fill="#000000" transform="translate(125,179)"/>
<path d="M0 0 C1.01555969 0.00747757 1.01555969 0.00747757 2.05163574 0.0151062 C30.42632236 0.25954267 56.23008618 9.46594839 77.5625 28.375 C78.31660156 28.98601562 79.07070313 29.59703125 79.84765625 30.2265625 C101.08467401 47.83043966 114.78590324 76.1926192 117.5625 103.375 C119.69817345 134.90071796 113.52898646 165.47299745 93.1015625 190.375 C91.6500205 191.99532595 90.17622018 193.59638652 88.66796875 195.1640625 C86.44752752 197.4337319 86.44752752 197.4337319 84.19921875 200.31640625 C81.52076888 203.55860556 78.50636078 206.12102105 75.1875 208.6875 C74.580271 209.15824951 73.97304199 209.62899902 73.34741211 210.11401367 C46.28140732 230.68306791 14.32834072 237.80274098 -19.37109375 233.9140625 C-48.61651772 228.90729304 -77.41497098 211.95163144 -94.68847656 187.61230469 C-114.36879171 158.56183191 -121.30747269 126.70123162 -114.97216797 91.97949219 C-108.99697892 62.87295487 -90.798023 36.35043282 -66.23828125 19.79296875 C-45.92553074 6.61813685 -24.27771487 -0.2653385 0 0 Z M31.61361694 81.08337402 C30.818638 81.88279419 30.02365906 82.68221436 29.20458984 83.50585938 C28.30380707 84.40679321 27.40302429 85.30772705 26.47494507 86.23596191 C25.49100249 87.230119 24.50716922 88.22438428 23.5234375 89.21875 C22.51782079 90.22809565 21.51176247 91.2370015 20.50527954 92.2454834 C17.85404275 94.90436607 15.20886584 97.56919966 12.56488037 100.23529053 C9.86718038 102.95342841 7.1638284 105.66593185 4.4609375 108.37890625 C-0.8441092 113.7054197 -6.14277065 119.03822856 -11.4375 124.375 C-14.86232707 122.75723883 -17.09440522 120.95156756 -19.765625 118.2421875 C-20.56484375 117.43652344 -21.3640625 116.63085938 -22.1875 115.80078125 C-23.0125 114.95902344 -23.8375 114.11726563 -24.6875 113.25 C-25.52796875 112.40050781 -26.3684375 111.55101562 -27.234375 110.67578125 C-29.30665683 108.57995077 -31.37412393 106.47959287 -33.4375 104.375 C-38.3286484 108.44338173 -42.91100753 112.71938078 -47.375 117.25 C-47.96345703 117.84296875 -48.55191406 118.4359375 -49.15820312 119.046875 C-50.58697674 120.48726466 -52.01258132 121.9307967 -53.4375 123.375 C-51.99169034 126.69113882 -50.18920208 128.86685728 -47.63037109 131.40917969 C-46.84971283 132.18968689 -46.06905457 132.97019409 -45.26473999 133.77435303 C-44.42198517 134.60678528 -43.57923035 135.43921753 -42.7109375 136.296875 C-41.84812164 137.15686096 -40.98530579 138.01684692 -40.09634399 138.90289307 C-37.33971971 141.6483231 -34.57622201 144.3867169 -31.8125 147.125 C-29.94225143 148.98521783 -28.07245411 150.84588946 -26.203125 152.70703125 C-21.6198064 157.26829945 -17.03082522 161.82381011 -12.4375 166.375 C-7.79895443 162.49707556 -3.39503022 158.47463668 0.86499023 154.18603516 C1.45122665 153.59994476 2.03746307 153.01385437 2.64146423 152.41000366 C4.55372444 150.49705396 6.46243086 148.58060087 8.37109375 146.6640625 C9.70608459 145.32720405 11.04129827 143.99056808 12.37672424 142.65414429 C15.87233017 139.15474021 19.36492114 135.6523423 22.85687256 132.14929199 C26.4281407 128.56775135 30.00228002 124.98907844 33.57617188 121.41015625 C40.57441241 114.4012261 47.56946815 107.38912676 54.5625 100.375 C52.99727364 97.08004076 51.30450447 94.85984546 48.71875 92.265625 C47.96722656 91.51152344 47.21570313 90.75742187 46.44140625 89.98046875 C45.65636719 89.20316406 44.87132812 88.42585938 44.0625 87.625 C43.27746094 86.83222656 42.49242187 86.03945313 41.68359375 85.22265625 C40.55630859 84.09923828 40.55630859 84.09923828 39.40625 82.953125 C38.71724609 82.26637695 38.02824219 81.57962891 37.31835938 80.87207031 C34.76965087 78.69900572 34.11793795 78.8881079 31.61361694 81.08337402 Z " fill="#000000" transform="translate(363.4375,277.625)"/>
<path d="M0 0 C1.05832031 0.36222656 2.11664063 0.72445313 3.20703125 1.09765625 C15.10641912 5.60384293 24.98413307 13.14778742 34 22 C34.76054687 22.73605469 35.52109375 23.47210937 36.3046875 24.23046875 C52.48908521 40.94687953 59.39129605 63.69586286 59.37304688 86.57348633 C58.82741958 110.362366 48.62899152 131.34791266 32 148 C31.195625 148.81597656 30.39125 149.63195312 29.5625 150.47265625 C13.80662656 165.58067305 -8.0765495 172.8918489 -29.6875 173.3125 C-55.57193532 172.54079013 -77.94825899 162.75729137 -95.75 144.12109375 C-113.20756706 124.13537293 -119.17788896 101.16123442 -118.19970703 74.94677734 C-116.75193139 53.58412211 -105.91755513 33.14959072 -90.4375 18.58984375 C-65.3996931 -2.62678622 -31.61940084 -11.20083305 0 0 Z " fill="#000000" transform="translate(209,4)"/>
</svg>
