<?xml version="1.0" encoding="UTF-8"?>
<svg version="1.1" xmlns="http://www.w3.org/2000/svg" width="512" height="512">
<path d="M0 0 C0.8012297 -0.00367669 1.60245941 -0.00735338 2.4279688 -0.01114148 C5.12787364 -0.02220393 7.82774004 -0.0260265 10.52766418 -0.02983093 C12.45746484 -0.0360937 14.38726427 -0.04274033 16.31706238 -0.04974365 C21.57137441 -0.06717191 26.82567734 -0.07771061 32.08001113 -0.08594918 C35.36159343 -0.09109598 38.64317289 -0.09717188 41.92475319 -0.10346031 C52.18860968 -0.12251837 62.45245896 -0.13674761 72.71632975 -0.14507228 C84.57034027 -0.15484484 96.42416406 -0.18116236 108.27810878 -0.22157317 C117.43572149 -0.25172216 126.59328066 -0.26654005 135.75094205 -0.26985329 C141.22242432 -0.27220537 146.69370724 -0.28118622 152.16513634 -0.30631447 C157.31400874 -0.32957849 162.46255033 -0.33383506 167.61146164 -0.32355309 C169.50006395 -0.32305719 171.38868246 -0.32939334 173.27723503 -0.34310913 C175.85872227 -0.36080643 178.43901957 -0.35373287 181.02050781 -0.34057617 C182.13765184 -0.35703004 182.13765184 -0.35703004 183.27736443 -0.37381631 C188.82032913 -0.30576459 191.87233937 1.07603553 196.32771301 4.14717102 C200.41836699 9.31431289 201.45632579 13.10090305 201.4412384 19.55830383 C201.44116287 20.63912231 201.44108734 21.7199408 201.44100952 22.83351135 C201.43584824 23.99405029 201.43068695 25.15458923 201.42536926 26.35029602 C201.42324684 28.13968597 201.42324684 28.13968597 201.42108154 29.96522522 C201.41548339 33.77589931 201.4029312 37.58651468 201.39021301 41.39717102 C201.38519778 43.98050351 201.38063491 46.56383691 201.37654114 49.14717102 C201.36551456 55.48052439 201.34877825 61.81384351 201.32771301 68.14717102 C201.99841072 68.14440564 202.66910843 68.14164026 203.36013031 68.13879108 C219.74735273 68.07227895 236.1345319 68.02276851 252.52185822 67.9917345 C260.44693884 67.97632435 268.37192886 67.95534811 276.29695129 67.92085266 C283.21160623 67.89076964 290.12619549 67.8715536 297.04091406 67.86490554 C300.69568364 67.86102496 304.35026549 67.85203039 308.00497437 67.82998085 C338.55113094 67.65283556 365.41771806 71.35756693 389.32771301 92.14717102 C390.14884583 92.82392883 390.96997864 93.50068665 391.81599426 94.19795227 C408.03587074 107.99619867 418.14246534 126.68940816 423.32771301 147.14717102 C423.69509583 148.5451593 423.69509583 148.5451593 424.06990051 149.97138977 C427.34443765 165.33480032 426.56674276 183.07887905 422.32771301 198.14717102 C421.99900208 199.3614679 421.67029114 200.57576477 421.33161926 201.82685852 C417.11204381 215.87264254 409.93277246 228.09744816 400.32771301 239.14717102 C399.5581427 240.11654602 398.78857239 241.08592102 397.99568176 242.08467102 C395.28304935 245.33797969 392.2308857 247.93370278 388.89021301 250.52217102 C387.97550232 251.23216248 387.97550232 251.23216248 387.04231262 251.95649719 C368.27321833 266.21098711 344.11893929 276.23703725 320.19221497 273.57148743 C309.66193742 272.65210111 300.79862674 273.05126792 292.46199036 279.95869446 C285.89123906 285.7138854 280.01231058 292.1937565 274.18183899 298.68263245 C270.84208508 302.36888613 267.40711934 305.96625468 263.98524189 309.5760746 C261.32881705 312.38146089 258.68843513 315.1972547 256.09069824 318.05717468 C255.61217911 318.57851486 255.13365997 319.09985504 254.64064026 319.63699341 C253.35592159 321.03841291 252.07948036 322.44740814 250.80371094 323.85697937 C246.82609331 327.5361047 242.83567674 329.57584531 237.39021301 329.58467102 C236.20105286 329.61367493 236.20105286 329.61367493 234.98786926 329.64326477 C226.57753697 328.07481807 221.7386749 321.55596928 216.36702538 315.46445465 C213.29009646 312.00883561 210.11237441 308.6447439 206.95683575 305.26107407 C204.21422265 302.30902812 201.50946397 299.33497786 198.87043762 296.28974915 C185.39492607 280.40229106 185.39492607 280.40229106 166.49812317 273.4967804 C145.28774989 272.28781212 123.96734647 277.07527036 107.56990051 291.05342102 C94.38725592 303.36334698 86.24801378 318.69392297 85.08943176 336.88935852 C84.57519627 355.84720081 89.63611273 372.66396661 102.20271301 387.14717102 C114.84942445 400.1403677 131.62037478 407.919756 149.82632446 408.54589844 C152.12980939 408.57187771 154.43350715 408.5823724 156.73713684 408.57954407 C158.00699936 408.58973572 159.27686188 408.59992737 160.58520508 408.61042786 C164.02236591 408.63768977 167.45936142 408.6472397 170.89661622 408.65328193 C174.50544255 408.66274709 178.1141492 408.6889561 181.72290039 408.71328735 C188.53647548 408.75673438 195.35002705 408.78541447 202.1636979 408.80861074 C209.92933853 408.83578024 217.69485746 408.8796838 225.46041071 408.92489946 C241.41611531 409.01743301 257.37184289 409.0892559 273.32771301 409.14717102 C273.31772026 408.1778363 273.31772026 408.1778363 273.30752563 407.18891907 C273.24096143 400.44019057 273.19582494 393.69155593 273.16291809 386.94258118 C273.14786682 384.4265921 273.1274212 381.9106291 273.10139465 379.39472961 C273.06485119 375.77047777 273.04794949 372.14657402 273.03474426 368.52217102 C273.01926041 367.404151 273.00377655 366.28613098 272.98782349 365.13423157 C272.9863145 358.07192389 273.32383708 351.74499515 278.04646301 346.08857727 C278.63427551 345.63353821 279.22208801 345.17849915 279.82771301 344.70967102 C280.41552551 344.23658508 281.00333801 343.76349915 281.60896301 343.27607727 C285.52744264 340.70234861 289.53810352 340.99627898 294.03759766 340.99327087 C294.83080911 340.98888862 295.62402057 340.98450637 296.44126874 340.97999132 C299.10809044 340.96660117 301.77487909 340.96042396 304.44172668 340.95429993 C306.3503484 340.94639911 308.25896863 340.93813017 310.16758728 340.92951965 C316.44360425 340.90329646 322.71962791 340.88799138 328.99568176 340.87373352 C331.15589718 340.8683739 333.31611256 340.86299639 335.4763279 340.85760117 C344.46225881 340.83597172 353.44818793 340.81723503 362.4341383 340.80597878 C375.3132063 340.7897399 388.19197259 340.75656418 401.07092685 340.69957793 C410.12581455 340.66087802 419.18062156 340.64134599 428.2355898 340.63605821 C433.64398476 340.63240476 439.05205794 340.62038383 444.46036339 340.58795547 C449.55020785 340.5578743 454.63953583 340.55156333 459.72945023 340.56333923 C461.59506595 340.56355996 463.46070563 340.55525529 465.32623863 340.53768539 C482.72154934 340.38280384 482.72154934 340.38280384 487.94242573 344.71168327 C488.62814293 345.42224971 488.62814293 345.42224971 489.32771301 346.14717102 C490.54920044 347.34557617 490.54920044 347.34557617 491.79536438 348.56819153 C494.27020591 354.34847345 493.8839126 360.20787813 493.84529114 366.4108429 C493.85071537 367.86996152 493.85783972 369.32907467 493.86653137 370.78817749 C493.8847322 374.74071552 493.87771082 378.69283488 493.86501503 382.64538002 C493.85487046 386.7865726 493.86428475 390.92772993 493.87055969 395.06892395 C493.87783187 402.02264322 493.86825974 408.97619243 493.84919739 415.92988586 C493.82742938 423.96321286 493.83448106 431.99613374 493.85650301 440.02945089 C493.87466931 446.93325314 493.87720934 453.83693331 493.86674833 460.74075174 C493.86052013 464.8612321 493.85965912 468.98152173 493.87289429 473.10198975 C493.88447019 476.97634274 493.87639586 480.85017342 493.85331726 484.72447014 C493.84803938 486.14422171 493.84952824 487.56401743 493.85836792 488.9837513 C493.93350172 502.27921923 493.93350172 502.27921923 489.32771301 507.14717102 C484.26269326 511.60921223 481.26310274 512.29672064 474.66215515 512.30107117 C473.86163101 512.30545342 473.06110687 512.30983567 472.23632443 512.31435072 C469.53875763 512.32776525 466.84122351 512.33392358 464.14363098 512.34004211 C462.21545259 512.34794111 460.28727568 512.35620994 458.35910034 512.36482239 C452.01271482 512.39107011 445.66632261 512.40635469 439.31990051 512.42060852 C437.13647075 512.42596743 434.95304103 512.43134494 432.76961136 512.43674088 C423.68678548 512.45837534 414.60396139 512.47711177 405.52111626 512.48836327 C392.49932918 512.50459924 379.47784066 512.53776217 366.45616615 512.59476411 C357.30363486 512.63346382 348.15118343 512.65299612 338.99857247 512.65828383 C333.53091931 512.66193777 328.06358439 512.67396357 322.59601974 512.70638657 C317.44955664 512.73646678 312.30360433 512.74277903 307.15707207 512.73100281 C305.27049417 512.73078206 303.38389258 512.7390883 301.49739647 512.75665665 C298.91604326 512.77938269 296.33653683 512.77103825 293.75517273 512.75517273 C293.01332289 512.76905482 292.27147304 512.7829369 291.5071429 512.79723966 C285.75744712 512.71051777 281.79168402 510.74082946 277.32771301 507.14717102 C273.83946845 502.53368627 273.20092279 498.4133852 273.21418762 492.73603821 C273.21426315 491.65521973 273.21433868 490.57440125 273.2144165 489.46083069 C273.21957779 488.30029175 273.22473907 487.13975281 273.23005676 485.94404602 C273.23217918 484.15465607 273.23217918 484.15465607 273.23434448 482.32911682 C273.23994264 478.51844273 273.25249483 474.70782736 273.26521301 470.89717102 C273.27022825 468.31383854 273.27479112 465.73050513 273.27888489 463.14717102 C273.28991146 456.81381765 273.30664778 450.48049853 273.32771301 444.14717102 C272.65093978 444.1499364 271.97416655 444.15270178 271.27688503 444.15555096 C254.74814479 444.22203681 238.21944734 444.27156092 221.69060421 444.30260754 C213.69711416 444.3180236 205.70371381 444.33901144 197.71028137 444.37348938 C190.73667239 444.40355399 183.76312843 444.42278416 176.78945643 444.4294365 C173.10286148 444.43332013 169.41645242 444.44233488 165.72991753 444.46436119 C161.59698906 444.48885034 157.46437607 444.4891302 153.33137512 444.48774719 C151.53277039 444.50392593 151.53277039 444.50392593 149.6978302 444.52043152 C138.12193164 444.47885131 126.73818211 442.46525776 115.82771301 438.52217102 C115.12759094 438.27056213 114.42746887 438.01895325 113.70613098 437.75971985 C101.52994983 433.15559278 90.98257731 425.80217882 81.32771301 417.14717102 C80.63419739 416.5361554 79.94068176 415.92513977 79.22615051 415.29560852 C61.00373124 398.23477773 49.95893267 372.6907227 49.08943176 347.88154602 C48.53944152 318.4040421 56.51913005 293.48377244 76.32771301 271.14717102 C76.94130676 270.44978821 77.55490051 269.7524054 78.18708801 269.03388977 C93.46925107 252.73944668 116.16028109 241.55787584 138.32771301 239.14717102 C140.85766263 239.28919343 143.38470358 239.49096471 145.90632629 239.74043274 C159.87108352 240.74071548 172.66679547 241.15283874 183.83949661 231.73257065 C189.8502713 226.29475734 195.24854983 220.2622595 200.55513 214.14814758 C203.33042222 210.98813494 206.20383057 207.92023405 209.07380676 204.84638977 C212.29852401 201.39061074 215.51302528 197.9316711 218.64311218 194.38963318 C219.11730591 193.85802582 219.59149963 193.32641846 220.08006287 192.77870178 C221.35128755 191.34997797 222.61318088 189.91296655 223.87431335 188.47532654 C227.77409348 184.77462715 231.80116825 182.71801095 237.20271301 182.64717102 C238.37447083 182.60076477 238.37447083 182.60076477 239.56990051 182.55342102 C248.28093065 184.4288836 253.948143 191.64136777 259.66921806 197.93561745 C262.27059358 200.77831431 264.93171002 203.56455358 267.58357239 206.36006165 C270.9325738 209.89404061 274.26122302 213.44093416 277.51887512 217.05952454 C290.11965113 232.00673793 290.11965113 232.00673793 307.25886536 239.71186829 C313.4269765 239.98139507 319.27100228 239.22120879 325.32771301 238.14717102 C326.78770215 237.99264339 328.24959292 237.85440331 329.71321106 237.73921204 C347.35764478 236.27321707 362.57103101 226.81190066 374.30036926 213.99092102 C385.87296974 199.95119472 390.87111161 182.25368616 389.55085754 164.25849915 C387.71956526 146.93134851 379.60749258 131.27353913 366.54255676 119.67451477 C351.95565275 108.16258394 336.31112177 103.69221579 317.91828918 103.71479797 C316.64842667 103.70460632 315.37856415 103.69441467 314.07022095 103.68391418 C310.63306012 103.65665227 307.1960646 103.64710234 303.7588098 103.64106011 C300.14998348 103.63159495 296.54127683 103.60538595 292.93252563 103.58105469 C286.11895055 103.53760766 279.30539898 103.50892757 272.49172813 103.4857313 C264.72608749 103.4585618 256.96056856 103.41465824 249.19501531 103.36944258 C233.23931072 103.27690904 217.28358313 103.20508614 201.32771301 103.14717102 C201.33770576 104.11650574 201.33770576 104.11650574 201.34790039 105.10542297 C201.41446459 111.85415147 201.45960109 118.60278611 201.49250793 125.35176086 C201.5075592 127.86774994 201.52800483 130.38371294 201.55403137 132.89961243 C201.59057484 136.52386427 201.60747654 140.14776803 201.62068176 143.77217102 C201.64390755 145.44920105 201.64390755 145.44920105 201.66760254 147.16011047 C201.66911152 154.22241815 201.33158895 160.54934689 196.60896301 166.20576477 C196.02115051 166.66080383 195.43333801 167.1158429 194.82771301 167.58467102 C194.23990051 168.05775696 193.65208801 168.5308429 193.04646301 169.01826477 C189.13644073 171.5864385 185.14508933 171.29545952 180.65579224 171.29434204 C179.47210038 171.29985707 179.47210038 171.29985707 178.26449555 171.30548352 C175.61148924 171.31652564 172.95852208 171.3203651 170.30549622 171.32417297 C168.40672684 171.33043725 166.50795869 171.33708402 164.60919189 171.34408569 C159.44371214 171.36149922 154.27824164 171.37204856 149.1127398 171.38029122 C145.88558494 171.38544096 142.65843296 171.39151672 139.43128014 171.39780235 C129.334547 171.41685598 119.23782119 171.43108639 109.14107352 171.43941432 C97.4857434 171.44918641 85.8306032 171.47550457 74.17534 171.51591522 C65.16715945 171.54607621 56.15903333 171.56088321 47.15080327 171.56419533 C41.77040541 171.56654594 36.39021041 171.5755078 31.00986671 171.60065651 C25.94633703 171.62394167 20.88314371 171.62816858 15.81957436 171.61789513 C13.96364218 171.61739976 12.10769343 171.6237205 10.25181198 171.63745117 C7.71232412 171.6551844 5.17404156 171.64805741 2.634552 171.63491821 C1.54030968 171.65137208 1.54030968 171.65137208 0.42396146 171.66815835 C-4.97802253 171.60096494 -9.14876678 170.11893289 -13.67228699 167.14717102 C-17.76757417 162.73686175 -18.79617488 160.22436456 -18.81945801 154.29042053 C-18.83019096 152.41873955 -18.83019096 152.41873955 -18.84114075 150.50924683 C-18.84398115 149.11869837 -18.84669286 147.72814964 -18.84928894 146.33760071 C-18.85555265 144.87907753 -18.86219937 143.42055595 -18.86920166 141.96203613 C-18.88662101 137.99287558 -18.89716618 134.02372709 -18.90540719 130.05453777 C-18.91055588 127.57499927 -18.9166317 125.09546451 -18.92291832 122.61592865 C-18.9419739 114.85890439 -18.95620367 107.10188966 -18.96453029 99.34484649 C-18.97430197 90.38921473 -19.00061802 81.43383019 -19.04103118 72.47828555 C-19.07119031 65.55761211 -19.085999 58.63700953 -19.0893113 51.71627164 C-19.09166223 47.58227405 -19.10062777 43.44854046 -19.12577248 39.31461334 C-19.14905455 35.42396199 -19.15328612 31.53374839 -19.14301109 27.64304543 C-19.14251563 26.21682339 -19.14883924 24.7905798 -19.16256714 23.36442375 C-19.28393424 10.00595028 -19.28393424 10.00595028 -14.67228699 5.14717102 C-9.60359727 0.68189674 -6.60561089 -0.00161106 0 0 Z " fill="#000000" transform="translate(18.672286987304688,-0.1471710205078125)"/>
</svg>
