<?xml version="1.0" encoding="UTF-8"?>
<svg version="1.1" xmlns="http://www.w3.org/2000/svg" width="512" height="512">
<path d="M0 0 C0.7917282 -0.00199105 1.5834564 -0.0039821 2.39917636 -0.00603348 C3.26298836 -0.00312064 4.12680036 -0.0002078 5.01678848 0.00279331 C5.93900546 0.00193889 6.86122244 0.00108446 7.81138539 0.00020415 C10.90837613 -0.00144586 14.00531297 0.00406293 17.10229874 0.00952244 C19.31960931 0.00980444 21.53691998 0.00964632 23.7542305 0.00907993 C29.78066909 0.00879246 35.80708787 0.01468111 41.83352184 0.02165389 C48.12894402 0.02789576 54.42436662 0.02849189 60.71979141 0.0296793 C71.28854077 0.03243648 81.85728363 0.03868707 92.42602921 0.04760838 C103.31177102 0.05678771 114.19751086 0.063866 125.08325577 0.06811619 C125.75427888 0.06837891 126.42530199 0.06864164 127.11665913 0.06891232 C130.48299262 0.07021736 133.84932611 0.07148107 137.21565962 0.07272422 C165.14174492 0.08318303 193.0678221 0.10077773 220.9939003 0.12304783 C220.99886552 1.00238782 220.99886552 1.00238782 221.00393105 1.89949226 C221.08524264 16.18066965 221.1773617 30.4617473 221.28142738 44.74277687 C221.33149421 51.64905247 221.37793766 58.55531655 221.4157753 65.46167088 C221.45230375 72.12718916 221.49902988 78.79256484 221.55196381 85.45797634 C221.57049037 88.0004303 221.58560473 90.54291149 221.59724426 93.0854063 C221.61413607 96.64764636 221.64317913 100.20959631 221.67505264 103.77172947 C221.67721283 104.82189747 221.67937302 105.87206547 221.68159866 106.95405674 C221.75868225 113.70194807 221.89724642 119.42734999 226.1814003 124.93554783 C232.50291628 129.85228248 239.66664423 129.42610072 247.34521866 129.44189548 C248.46790146 129.45194111 249.59058426 129.46198673 250.74728775 129.47233677 C254.44276818 129.50312494 258.13817629 129.52019204 261.83374405 129.53711033 C264.40207413 129.55582545 266.97039808 129.57539912 269.53871536 129.59579563 C275.59812801 129.64184929 281.65753713 129.67927053 287.71703202 129.7124685 C294.61917592 129.75076788 301.52122675 129.8001574 308.42329204 129.85045266 C322.61342451 129.95360886 336.80362003 130.04292199 350.9939003 130.12304783 C351.10840507 174.10747936 351.19647934 218.09189508 351.24922695 262.07644634 C351.2554803 267.27207481 351.26195193 272.46770299 351.2685585 277.66333103 C351.26987005 278.69766432 351.27118161 279.73199761 351.2725329 280.79767434 C351.2942751 297.53400795 351.3336901 314.27025547 351.37966428 331.00653806 C351.4264619 348.18617398 351.45420269 365.3657649 351.46434277 382.54546195 C351.47119506 393.1418313 351.49281845 403.73795731 351.53348263 414.33425174 C351.5599618 421.60567721 351.56788959 428.87697732 351.56140719 436.14844748 C351.55821234 440.34050137 351.56302576 444.53213075 351.58992767 448.7241087 C351.61442441 452.56957512 351.61538302 456.41433528 351.59839477 460.25983558 C351.59531233 462.29424042 351.61672978 464.32863809 351.63930684 466.36291999 C351.52713872 480.27370411 346.887964 490.78067927 337.41186905 500.79492283 C330.65550206 507.17319629 321.06678415 512.25088535 311.65983582 512.24609566 C310.36251656 512.24908223 310.36251656 512.24908223 309.03898883 512.25212914 C308.09346691 512.2492163 307.147945 512.24630345 306.1737709 512.24330235 C305.16579932 512.24415677 304.15782774 512.24501119 303.11931157 512.24589151 C299.73211229 512.24754238 296.34496222 512.24203131 292.95776749 512.23657322 C290.53356299 512.23629124 288.10935841 512.2364493 285.68515396 512.23701572 C280.46102546 512.23724365 275.23690814 512.23440195 270.01278305 512.22877789 C262.45957022 512.22065172 254.90636343 512.21804652 247.3531467 512.21678989 C235.09862885 512.21460113 222.84411766 512.20794581 210.58960342 512.19848728 C198.68530689 512.18930862 186.78101216 512.18223 174.8767128 512.17797947 C174.14296278 512.17771675 173.40921276 512.17745402 172.6532279 512.17718334 C168.97222892 512.1758783 165.29122992 512.17461459 161.61023092 512.17337143 C131.07144928 512.1630043 100.53267571 512.14531643 69.9939003 512.12304783 C72.7046976 509.37570444 75.43756134 506.91902272 78.4939003 504.56054783 C88.4951868 496.60665282 97.26018173 488.32935849 104.9939003 478.12304783 C105.77120499 477.13433689 106.54850967 476.14562595 107.34936905 475.12695408 C123.64085655 453.87165399 133.60245711 428.41155018 137.9939003 402.12304783 C138.33407965 400.38426213 138.67962324 398.64652026 139.02954483 396.90966892 C139.21002365 396.0123505 139.39050247 395.11503208 139.57645035 394.19052219 C139.71420883 393.50825565 139.85196732 392.82598911 139.9939003 392.12304783 C140.63681802 392.11973768 141.27973574 392.11642754 141.94213581 392.11301708 C157.6002699 392.03172559 173.25829753 391.93961308 188.91629505 391.83552074 C196.48844835 391.78544182 204.06059108 391.73899844 211.63281631 391.70117283 C218.23431207 391.66818702 224.83572465 391.62831959 231.43712848 391.58025777 C234.93111637 391.55505812 238.42504954 391.53325775 241.91910362 391.51970387 C245.82377447 391.50442801 249.72824411 391.47378553 253.63281631 391.44189548 C255.3623555 391.4386552 255.3623555 391.4386552 257.12683487 391.43534946 C267.26165023 391.42110772 267.26165023 391.42110772 275.8689003 386.62304783 C279.32862375 382.55278494 279.27623771 379.80412126 279.20874405 374.59961033 C278.92705521 371.35250624 278.14533012 369.57122659 275.9939003 367.12304783 C271.15024378 363.55403776 266.50110582 363.00594956 260.60918045 362.96482944 C259.54212372 362.95504063 258.47506699 362.94525181 257.3756752 362.93516636 C255.63535019 362.92653316 255.63535019 362.92653316 253.8598671 362.91772556 C252.63018707 362.90782597 251.40050705 362.89792637 250.133564 362.88772678 C246.77033622 362.86158812 243.40713155 362.83970592 240.04386497 362.8197248 C236.52578575 362.79781458 233.00774903 362.77045059 229.48970413 362.74366856 C222.83169208 362.69380963 216.17365635 362.64884566 209.51559812 362.60564619 C201.93397808 362.5562156 194.35240069 362.50131911 186.77082193 362.4459666 C171.17855416 362.33225098 155.58624712 362.22538937 139.9939003 362.12304783 C139.67735802 360.54874271 139.36128904 358.97434242 139.04541397 357.3999033 C138.8693512 356.52316959 138.69328842 355.64643589 138.51189041 354.7431345 C138.04785142 352.39594223 137.60318779 350.04634763 137.16968155 347.69336033 C135.52048312 339.05144499 133.40515313 330.74431158 130.4939003 322.43554783 C130.20942032 321.62295506 129.92494034 320.81036228 129.63183975 319.97314548 C127.97397839 315.4025696 126.07210414 311.10985426 123.74585342 306.838624 C122.9939003 305.12304783 122.9939003 305.12304783 122.9939003 302.12304783 C123.72443147 302.11973768 124.45496264 302.11642754 125.20763111 302.11301708 C142.99377884 302.03175058 160.77984033 301.93964613 178.56586933 301.83552074 C187.16710576 301.78542681 195.7683328 301.73898353 204.36963272 301.70117283 C211.86766276 301.66820272 219.36561935 301.62834381 226.86356825 301.58025777 C230.83263314 301.55504264 234.80164962 301.53324671 238.77077293 301.51970387 C242.50951481 301.50683816 246.24809022 301.48473549 249.98674011 301.45566463 C252.00712496 301.44232558 254.02756657 301.43867609 256.04799271 301.43534946 C266.75793587 301.54824133 266.75793587 301.54824133 275.8689003 296.62304783 C279.32862375 292.55278494 279.27623771 289.80412126 279.20874405 284.59961033 C278.92705521 281.35250624 278.14533012 279.57122659 275.9939003 277.12304783 C270.69338137 273.2174023 265.68926023 272.99517676 259.26076126 273.06576633 C258.59666447 273.07141184 257.93256768 273.07705735 257.24834675 273.08287394 C255.79778291 273.09576564 254.34723857 273.11101733 252.89672089 273.12834072 C249.70696549 273.16632186 246.51713978 273.19274249 243.32727802 273.22005963 C241.6097039 273.23489009 239.89213488 273.25032107 238.17457116 273.26631045 C227.13679143 273.36734958 216.09871496 273.39137242 205.06054986 273.41943336 C194.32090238 273.44725365 183.58271926 273.49897508 172.84375381 273.62695408 C164.30524938 273.72856697 155.76831636 273.77664762 147.2291922 273.76273787 C142.71580031 273.75732955 138.20608534 273.7780365 133.69342613 273.86362934 C104.06377189 274.39961142 104.06377189 274.39961142 96.78635025 268.84185886 C93.67897962 265.84454213 91.34314802 262.59684529 89.15243721 258.89168262 C86.1947508 254.37644702 81.26164019 251.31789222 76.9939003 248.12304783 C76.00905655 247.34961033 75.0242128 246.57617283 74.0095253 245.77929783 C43.16661897 222.1160763 5.93303898 213.09031244 -32.3029747 213.11816502 C-33.55948837 213.11886997 -34.81600204 213.11957493 -36.11059189 213.12030125 C-37.06610947 213.12120762 -38.02162704 213.12211399 -39.0060997 213.12304783 C-39.12310152 190.13931197 -39.21117033 167.1556255 -39.26516056 144.17165184 C-39.29089981 133.49885485 -39.32596831 122.82624333 -39.38329697 112.15356541 C-39.43326317 102.84706371 -39.46542179 93.54069639 -39.47654217 84.23406428 C-39.48303859 79.31001115 -39.4982172 74.38634233 -39.53474998 69.46241283 C-39.56891864 64.81910161 -39.57911091 60.17632964 -39.57163811 55.53290462 C-39.57300339 53.83708729 -39.58281085 52.1412502 -39.60212708 50.44554234 C-39.77115015 34.82954106 -36.40365627 23.05429279 -25.42406845 11.45117283 C-18.80811135 5.20545177 -9.24299081 -0.00514643 0 0 Z M33.9939003 188.12304783 C31.27313985 192.59082289 31.34295515 197.03603204 31.9939003 202.12304783 C34.1873384 206.59116248 36.48095167 209.03168139 40.9939003 211.12304783 C45.60814271 212.36431301 50.15944831 212.26553516 54.90011978 212.2567606 C55.79783446 212.25902615 56.69554915 212.26129171 57.62046731 212.26362592 C60.62890987 212.26995663 63.63730728 212.26913715 66.64575577 212.2683115 C68.80259637 212.27130356 70.95943643 212.27470619 73.11627579 212.27848911 C78.97576984 212.28732825 84.83524928 212.28966718 90.69474936 212.2903049 C95.585468 212.29125425 100.47618323 212.29493281 105.36690056 212.29847699 C116.90484103 212.30662111 128.44277369 212.30906126 139.98071671 212.30835056 C151.88505694 212.30774966 163.78935187 212.31830402 175.69368064 212.33409423 C185.91291673 212.34716655 196.13213799 212.35253459 206.35138237 212.35189515 C212.45544217 212.35164009 218.55946171 212.35449597 224.66351318 212.3650732 C230.40413275 212.37474904 236.14467353 212.37483685 241.88529587 212.36755657 C243.99158595 212.36651012 246.09788092 212.36887721 248.2041626 212.37491703 C251.08077237 212.3826312 253.95710965 212.37799586 256.83371353 212.37028599 C257.66592167 212.37542955 258.4981298 212.38057311 259.35555637 212.38587254 C265.56219566 212.34914707 270.94366057 211.89992226 275.8064003 207.68554783 C279.74468893 203.072124 280.4393591 200.5328637 280.31030655 194.63086033 C279.84348013 190.9308287 278.4682645 188.86491086 275.9939003 186.12304783 C270.14424757 181.77330606 264.07616687 181.97639999 257.08768082 181.98933506 C256.18996613 181.9870695 255.29225145 181.98480395 254.36733329 181.98246974 C251.35889073 181.97613903 248.35049332 181.97695851 245.34204483 181.97778416 C243.18520423 181.9747921 241.02836417 181.97138946 238.87152481 181.96760654 C233.01203076 181.95876741 227.15255131 181.95642847 221.29305124 181.95579076 C216.4023326 181.95484141 211.51161737 181.95116284 206.62090003 181.94761866 C195.08295957 181.93947454 183.5450269 181.9370344 172.00708389 181.93774509 C160.10274366 181.93834599 148.19844872 181.92779164 136.29411995 181.91200143 C126.07488387 181.89892911 115.8556626 181.89356106 105.63641822 181.8942005 C99.53235843 181.89445557 93.42833889 181.89159968 87.32428741 181.88102245 C81.58366784 181.87134662 75.84312707 181.87125881 70.10250473 181.87853909 C67.99621465 181.87958554 65.88991968 181.87721844 63.783638 181.87117863 C60.90702823 181.86346446 58.03069095 181.8680998 55.15408707 181.87580967 C54.32187893 181.87066611 53.48967079 181.86552254 52.63224423 181.86022311 C45.40392898 181.90299397 39.36502669 182.90538219 33.9939003 188.12304783 Z " fill="#000000" transform="translate(160.00609970092773,-0.1230478286743164)"/>
<path d="M0 0 C0.79841309 0.22042969 1.59682617 0.44085938 2.41943359 0.66796875 C25.58400493 7.2652247 44.51441228 18.49870033 62 35 C62.73734375 35.67289062 63.4746875 36.34578125 64.234375 37.0390625 C81.86358538 53.73054892 92.61255006 75.86417074 99 99 C99.28810547 100.0216626 99.28810547 100.0216626 99.58203125 101.06396484 C104.71348695 120.28244158 104.38713665 145.89645419 99 165 C98.77957031 165.79841309 98.55914062 166.59682617 98.33203125 167.41943359 C91.7347753 190.58400493 80.50129967 209.51441228 64 227 C63.32710937 227.73734375 62.65421875 228.4746875 61.9609375 229.234375 C45.26945108 246.86358538 23.13582926 257.61255006 0 264 C-1.0216626 264.28810547 -1.0216626 264.28810547 -2.06396484 264.58203125 C-21.28244158 269.71348695 -46.89645419 269.38713665 -66 264 C-66.79841309 263.77957031 -67.59682617 263.55914062 -68.41943359 263.33203125 C-91.58400493 256.7347753 -110.51441228 245.50129967 -128 229 C-128.73734375 228.32710937 -129.4746875 227.65421875 -130.234375 226.9609375 C-147.86358538 210.26945108 -158.61255006 188.13582926 -165 165 C-165.19207031 164.3188916 -165.38414062 163.6377832 -165.58203125 162.93603516 C-170.71348695 143.71755842 -170.38713665 118.10354581 -165 99 C-164.66935547 97.80238037 -164.66935547 97.80238037 -164.33203125 96.58056641 C-157.7347753 73.41599507 -146.50129967 54.48558772 -130 37 C-129.32710937 36.26265625 -128.65421875 35.5253125 -127.9609375 34.765625 C-111.26945108 17.13641462 -89.13582926 6.38744994 -66 0 C-64.9783374 -0.28810547 -64.9783374 -0.28810547 -63.93603516 -0.58203125 C-44.71755842 -5.71348695 -19.10354581 -5.38713665 0 0 Z M-45 63 C-48.76053528 70.1182974 -48.4212946 77.92160153 -48.36328125 85.7578125 C-48.36377975 87.06023895 -48.36427826 88.36266541 -48.36479187 89.70455933 C-48.36470272 92.44622574 -48.35438806 95.18759462 -48.33618164 97.92919922 C-48.31345126 101.42702691 -48.31296462 104.92442283 -48.31969929 108.42230415 C-48.32385966 111.78418871 -48.31185844 115.14594274 -48.30078125 118.5078125 C-48.30169266 119.75587677 -48.30260406 121.00394104 -48.30354309 122.28982544 C-48.40516784 132.83056552 -48.40516784 132.83056552 -43.5625 141.8125 C-37.27084821 147.18342226 -31.912208 147.15733486 -24.0078125 147.16796875 C-23.14364716 147.17129715 -22.27948181 147.17462555 -21.38912964 147.17805481 C-19.56525197 147.18310542 -17.74136512 147.18546371 -15.91748047 147.18530273 C-13.1414451 147.18748706 -10.36580879 147.20565661 -7.58984375 147.22460938 C-5.81250135 147.2275442 -4.03515707 147.2295284 -2.2578125 147.23046875 C-1.02310715 147.24124702 -1.02310715 147.24124702 0.23654175 147.25224304 C6.48948327 147.22770989 11.91047789 146.81091916 16.8125 142.5625 C20.75078863 137.94907617 21.4454588 135.40981587 21.31640625 129.5078125 C20.84957983 125.80778087 19.4743642 123.74186303 17 121 C11.98115018 117.26803475 7.15905526 116.8709792 1.04296875 116.90234375 C-0.06884766 116.90556641 -1.18066406 116.90878906 -2.32617188 116.91210938 C-3.47666016 116.92048828 -4.62714844 116.92886719 -5.8125 116.9375 C-7.56723633 116.94426758 -7.56723633 116.94426758 -9.35742188 116.95117188 C-12.23833358 116.9629307 -15.11914044 116.97936574 -18 117 C-17.99333817 116.17767128 -17.99333817 116.17767128 -17.98654175 115.33872986 C-17.94215564 109.61199561 -17.91207032 103.88531058 -17.89013672 98.15844727 C-17.88010437 96.02366143 -17.86647536 93.88888926 -17.84912109 91.75415039 C-17.8247511 88.67851381 -17.813489 85.60305957 -17.8046875 82.52734375 C-17.79436493 81.57915268 -17.78404236 80.63096161 -17.77340698 79.65403748 C-17.77229022 72.99760146 -17.90342739 67.41912224 -22.4375 62.1875 C-27.00088631 58.29192632 -29.56801676 57.47888584 -35.42578125 57.6328125 C-39.68796554 58.24077202 -42.15986485 59.825857 -45 63 Z " fill="#000000" transform="translate(169,245)"/>
<path d="M0 0 C7.87530001 6.75025715 7.87530001 6.75025715 11.06871033 9.94172668 C11.79353607 10.6637326 12.51836182 11.38573853 13.26515198 12.12962341 C14.03479782 12.90129349 14.80444366 13.67296356 15.59741211 14.46801758 C16.42748779 15.29634094 17.25756348 16.12466431 18.11279297 16.97808838 C20.83681925 19.6977375 23.55720032 22.42099898 26.27734375 25.14453125 C28.17291403 27.03942769 30.06863148 28.93417597 31.9644928 30.82878113 C35.92612497 34.78860031 39.88565749 38.75050977 43.84399414 42.71362305 C48.42460024 47.29969268 53.0088281 51.88211839 57.59490961 56.46271211 C61.53740877 60.40068214 65.47796713 64.34058628 69.41689116 68.28213233 C71.76766083 70.63446299 74.11930031 72.98591109 76.47230339 75.33600807 C79.08673806 77.94792007 81.69797453 80.56298675 84.30834961 83.17895508 C85.09216507 83.96074631 85.87598053 84.74253754 86.68354797 85.54801941 C87.38863495 86.25592621 88.09372192 86.96383301 88.82017517 87.69319153 C89.43790267 88.31129605 90.05563017 88.92940058 90.69207668 89.56623554 C92 91 92 91 92 92 C61.64 92 31.28 92 0 92 C0 61.64 0 31.28 0 0 Z " fill="#000000" transform="translate(411,8)"/>
</svg>
