<?xml version="1.0" encoding="UTF-8"?>
<svg version="1.1" xmlns="http://www.w3.org/2000/svg" width="512" height="512">
<path d="M0 0 C18.48 0 36.96 0 56 0 C56.99 5.61 57.98 11.22 59 17 C60.32 18.98 61.64 20.96 63 23 C63 23.66 63 24.32 63 25 C64.32258472 25.68774405 65.65986503 26.34711373 67 27 C67.99 27.53625 68.98 28.0725 70 28.625 C75.73056843 31.0281416 82.40086452 31.00944033 88.33984375 29.34375 C95.37944845 26.20903159 99.1982414 21.0043965 102 14 C102.66 9.38 103.32 4.76 104 0 C122.48 0 140.96 0 160 0 C160.11302583 18.21141771 160.20506453 36.42254984 160.25906086 54.63422966 C160.28480272 63.09091659 160.31987591 71.54736954 160.37719727 80.00390625 C160.42715585 87.37776195 160.45932021 94.75144812 160.47044247 102.12546837 C160.4769403 106.02721728 160.49212685 109.92848136 160.52865028 113.83007431 C160.56280747 117.50900175 160.57301384 121.18724869 160.56553841 124.86631966 C160.56755124 126.84688666 160.59434262 128.82738102 160.62210083 130.80775452 C160.57294249 139.39123303 159.20884365 146.42603209 153.24440479 152.90789604 C145.42566765 160.29306085 137.57360167 160.42657374 127.26196289 160.34057617 C125.87178567 160.33972899 124.48160711 160.34020681 123.09143066 160.34190369 C119.33358173 160.34276153 115.57602229 160.32517025 111.8182404 160.30418181 C107.8851439 160.28537965 103.95204016 160.28366179 100.01890564 160.28010559 C92.57818029 160.27079549 85.13758777 160.24619581 77.69692081 160.21605712 C69.22293606 160.1824808 60.74894484 160.16601899 52.27491009 160.15097082 C34.84984954 160.11964524 17.42497099 160.06464621 0 160 C0 141.52 0 123.04 0 104 C-4.95 104 -9.9 104 -15 104 C-22.36796688 101.54401104 -27.65263534 96.66343112 -31.171875 89.671875 C-33.17844404 83.19785035 -33.2761327 74.82722423 -30.5 68.5625 C-26.79531671 62.43197427 -21.54412575 58.6176503 -15 56 C-10.05 56 -5.1 56 0 56 C0 37.52 0 19.04 0 0 Z " fill="#000000" transform="translate(296,296)"/>
<path d="M0 0 C18.21141771 -0.11302583 36.42254984 -0.20506453 54.63422966 -0.25906086 C63.09091659 -0.28480272 71.54736954 -0.31987591 80.00390625 -0.37719727 C87.37776195 -0.42715585 94.75144812 -0.45932021 102.12546837 -0.47044247 C106.02721728 -0.4769403 109.92848136 -0.49212685 113.83007431 -0.52865028 C117.50900175 -0.56280747 121.18724869 -0.57301384 124.86631966 -0.56553841 C126.84688666 -0.56755124 128.82738102 -0.59434262 130.80775452 -0.62210083 C139.39123303 -0.57294249 146.42603209 0.79115635 152.90789604 6.75559521 C160.29306085 14.57433235 160.42657374 22.42639833 160.34057617 32.73803711 C160.33972899 34.12821433 160.34020681 35.51839289 160.34190369 36.90856934 C160.34276153 40.66641827 160.32517025 44.42397771 160.30418181 48.1817596 C160.28537965 52.1148561 160.28366179 56.04795984 160.28010559 59.98109436 C160.27079549 67.42181971 160.24619581 74.86241223 160.21605712 82.30307919 C160.1824808 90.77706394 160.16601899 99.25105516 160.15097082 107.72508991 C160.11964524 125.15015046 160.06464621 142.57502901 160 160 C141.52 160 123.04 160 104 160 C104 164.95 104 169.9 104 175 C101.54401104 182.36796688 96.66343112 187.65263534 89.671875 191.171875 C83.19785035 193.17844404 74.82722423 193.2761327 68.5625 190.5 C62.43197427 186.79531671 58.6176503 181.54412575 56 175 C56 170.05 56 165.1 56 160 C37.52 160 19.04 160 0 160 C0 141.52 0 123.04 0 104 C8.415 102.515 8.415 102.515 17 101 C23.40283756 96.73144162 27.54210242 93.43894665 30 86 C30.80359508 79.22550656 30.51808171 73.53013618 26.97265625 67.62109375 C26 66 26 66 25 63 C23.25132517 61.91568906 23.25132517 61.91568906 21 61 C19.02 60.01 17.04 59.02 15 58 C10.05 57.34 5.1 56.68 0 56 C0 37.52 0 19.04 0 0 Z " fill="#000000" transform="translate(296,56)"/>
<path d="M0 0 C6.13052573 3.70468329 9.9448497 8.95587425 12.5625 15.5 C12.5625 20.45 12.5625 25.4 12.5625 30.5 C31.0425 30.5 49.5225 30.5 68.5625 30.5 C68.5625 48.98 68.5625 67.46 68.5625 86.5 C61.1375 87.49 61.1375 87.49 53.5625 88.5 C48.90102611 90.89635635 48.90102611 90.89635635 45.5625 93.5 C44.9025 93.5 44.2425 93.5 43.5625 93.5 C42.87475595 94.82258472 42.21538627 96.15986503 41.5625 97.5 C40.758125 98.985 40.758125 98.985 39.9375 100.5 C37.54414057 106.20724172 37.36467625 113.12235286 39.4296875 118.9453125 C40.45585309 121.03852743 40.45585309 121.03852743 41.58984375 122.87890625 C42.5625 124.5 42.5625 124.5 43.5625 127.5 C45.26019234 128.60168984 45.26019234 128.60168984 47.5625 129.5 C48.51125 129.995 49.46 130.49 50.4375 131 C56.05342298 133.20204022 56.05342298 133.20204022 68.5625 134.5 C68.5625 152.98 68.5625 171.46 68.5625 190.5 C50.35108229 190.61302583 32.13995016 190.70506453 13.92827034 190.75906086 C5.47158341 190.78480272 -2.98486954 190.81987591 -11.44140625 190.87719727 C-18.81526195 190.92715585 -26.18894812 190.95932021 -33.56296837 190.97044247 C-37.46471728 190.9769403 -41.36598136 190.99212685 -45.26757431 191.02865028 C-48.94650175 191.06280747 -52.62474869 191.07301384 -56.30381966 191.06553841 C-58.28438666 191.06755124 -60.26488102 191.09434262 -62.24525452 191.12210083 C-70.82873303 191.07294249 -77.86353209 189.70884365 -84.34539604 183.74440479 C-91.73056085 175.92566765 -91.86407374 168.07360167 -91.77807617 157.76196289 C-91.77722899 156.37178567 -91.77770681 154.98160711 -91.77940369 153.59143066 C-91.78026153 149.83358173 -91.76267025 146.07602229 -91.74168181 142.3182404 C-91.72287965 138.3851439 -91.72116179 134.45204016 -91.71760559 130.51890564 C-91.70829549 123.07818029 -91.68369581 115.63758777 -91.65355712 108.19692081 C-91.6199808 99.72293606 -91.60351899 91.24894484 -91.58847082 82.77491009 C-91.55714524 65.34984954 -91.50214621 47.92497099 -91.4375 30.5 C-72.9575 30.5 -54.4775 30.5 -35.4375 30.5 C-35.4375 25.55 -35.4375 20.6 -35.4375 15.5 C-32.98151104 8.13203312 -28.10093112 2.84736466 -21.109375 -0.671875 C-14.63535035 -2.67844404 -6.26472423 -2.7761327 0 0 Z " fill="#000000" transform="translate(147.4375,265.5)"/>
<path d="M0 0 C1.39017722 0.00084718 2.78035578 0.00036936 4.17053223 -0.00132751 C7.92838117 -0.00218536 11.6859406 0.01540593 15.44372249 0.03639436 C19.37681899 0.05519652 23.30992274 0.05691438 27.24305725 0.06047058 C34.6837826 0.06978068 42.12437512 0.09438036 49.56504208 0.12451905 C58.03902683 0.15809537 66.51301805 0.17455718 74.9870528 0.18960536 C92.41211335 0.22093093 109.8369919 0.27592996 127.26196289 0.34057617 C127.26196289 18.82057617 127.26196289 37.30057617 127.26196289 56.34057617 C132.21196289 56.34057617 137.16196289 56.34057617 142.26196289 56.34057617 C149.62992977 58.79656513 154.91459823 63.67714505 158.43383789 70.66870117 C160.44040694 77.14272582 160.53809559 85.51335194 157.76196289 91.77807617 C154.0572796 97.90860191 148.80608864 101.72292587 142.26196289 104.34057617 C137.31196289 104.34057617 132.36196289 104.34057617 127.26196289 104.34057617 C127.26196289 122.82057617 127.26196289 141.30057617 127.26196289 160.34057617 C108.78196289 160.34057617 90.30196289 160.34057617 71.26196289 160.34057617 C70.27196289 154.73057617 69.28196289 149.12057617 68.26196289 143.34057617 C66.94196289 141.36057617 65.62196289 139.38057617 64.26196289 137.34057617 C64.26196289 136.68057617 64.26196289 136.02057617 64.26196289 135.34057617 C63.45758789 134.93838867 63.45758789 134.93838867 62.63696289 134.52807617 C60.91387139 133.66653042 59.21866888 132.74847684 57.54321289 131.79760742 C51.93471717 129.30716825 46.27846707 129.573095 40.26196289 130.34057617 C37.76179269 131.4152762 35.85038552 132.57572368 33.71508789 134.24682617 C32.26196289 135.34057617 32.26196289 135.34057617 30.26196289 135.34057617 C29.57421884 136.66316089 28.91484916 138.0004412 28.26196289 139.34057617 C27.76696289 140.28932617 27.27196289 141.23807617 26.76196289 142.21557617 C24.55992267 147.83149915 24.55992267 147.83149915 23.26196289 160.34057617 C4.78196289 160.34057617 -13.69803711 160.34057617 -32.73803711 160.34057617 C-32.85106294 142.12915847 -32.94310164 123.91802633 -32.99709797 105.70634651 C-33.02283983 97.24965958 -33.05791302 88.79320663 -33.11523438 80.33666992 C-33.16519296 72.96281422 -33.19735732 65.58912805 -33.20847958 58.2151078 C-33.21497741 54.3133589 -33.23016396 50.41209482 -33.26668739 46.51050186 C-33.30084458 42.83157442 -33.31105095 39.15332748 -33.30357552 35.47425652 C-33.30558835 33.49368951 -33.33237973 31.51319516 -33.36013794 29.53282166 C-33.3109796 20.94934314 -31.94688076 13.91454408 -25.9824419 7.43268013 C-18.16370476 0.04751532 -10.31163878 -0.08599757 0 0 Z " fill="#000000" transform="translate(88.738037109375,55.659423828125)"/>
</svg>
