<?xml version="1.0" standalone="no"?>
<!DOCTYPE svg PUBLIC "-//W3C//DTD SVG 20010904//EN"
 "http://www.w3.org/TR/2001/REC-SVG-20010904/DTD/svg10.dtd">
<svg version="1.0" xmlns="http://www.w3.org/2000/svg"
 width="512.000000pt" height="512.000000pt" viewBox="0 0 512.000000 512.000000"
 preserveAspectRatio="xMidYMid meet">
<metadata>
Created by potrace 1.16, written by Peter Selinger 2001-2019
</metadata>
<g transform="translate(0.000000,512.000000) scale(0.100000,-0.100000)"
fill="#000000" stroke="none">
<path d="M1345 5101 c-206 -60 -366 -224 -419 -428 -9 -34 -16 -102 -16 -153
0 -109 18 -188 67 -284 47 -93 152 -199 248 -248 130 -67 136 -68 689 -68
l496 0 0 -160 0 -160 -755 0 -755 0 0 -300 0 -300 -300 0 -300 0 0 -600 0
-600 300 0 300 0 0 -150 0 -150 -300 0 -300 0 0 -310 0 -309 -57 -28 c-80 -39
-162 -123 -204 -208 -33 -68 -34 -73 -34 -195 0 -120 1 -127 32 -191 58 -118
146 -197 269 -240 49 -17 77 -20 164 -17 95 3 112 7 175 38 92 44 171 123 216
215 33 68 34 73 34 195 0 121 -1 127 -33 193 -42 84 -126 171 -205 211 l-57
28 0 159 0 159 450 0 450 0 0 -160 0 -159 -57 -28 c-80 -39 -162 -123 -204
-208 -33 -68 -34 -73 -34 -195 0 -120 1 -127 32 -191 58 -118 146 -197 269
-240 49 -17 77 -20 164 -17 95 3 112 7 175 38 92 44 171 123 216 215 33 68 34
73 34 195 0 121 -1 127 -33 193 -42 84 -126 171 -205 211 l-57 28 0 309 0 309
-300 0 -300 0 0 150 0 150 300 0 300 0 0 600 0 600 -300 0 -300 0 0 150 0 150
1360 0 1360 0 0 -150 0 -150 -300 0 -300 0 0 -600 0 -600 300 0 300 0 0 -150
0 -150 -300 0 -300 0 0 -310 0 -309 -57 -28 c-80 -39 -162 -123 -204 -208 -33
-68 -34 -73 -34 -195 0 -120 1 -127 32 -191 58 -118 146 -197 269 -240 49 -17
77 -20 164 -17 95 3 112 7 175 38 92 44 171 123 216 215 33 68 34 73 34 195 0
121 -1 127 -33 193 -42 84 -126 171 -205 211 l-57 28 0 159 0 159 450 0 450 0
0 -160 0 -159 -57 -28 c-80 -39 -162 -123 -204 -208 -33 -68 -34 -73 -34 -195
0 -120 1 -127 32 -191 58 -118 146 -197 269 -240 49 -17 77 -20 164 -17 95 3
112 7 175 38 92 44 171 123 216 215 33 68 34 73 34 195 0 121 -1 127 -33 193
-42 84 -126 171 -205 211 l-57 28 0 309 0 309 -300 0 -300 0 0 150 0 150 300
0 300 0 0 600 0 600 -300 0 -300 0 0 300 0 300 -755 0 -755 0 0 160 0 160 496
0 c418 0 506 2 557 16 208 54 377 223 431 431 9 34 16 102 16 153 0 51 -7 119
-16 153 -54 208 -223 377 -431 431 -54 14 -197 16 -1209 15 -1064 0 -1153 -2
-1209 -18z"/>
</g>
</svg>
