<?xml version="1.0" encoding="UTF-8"?>
<svg version="1.1" xmlns="http://www.w3.org/2000/svg" width="512" height="512">
<path d="M0 0 C28.05 0 56.1 0 85 0 C87.97 6.93 90.94 13.86 94 21 C101.76890733 36.66113065 111.42138301 49.96052946 123 63 C123.58007812 63.65355469 124.16015625 64.30710937 124.7578125 64.98046875 C152.01109528 93.80868998 193.51654072 109.35192911 232.5078125 110.92578125 C268.87690546 111.80048095 306.79460736 100.39456914 335 77 C335.54382324 76.55479004 336.08764648 76.10958008 336.64794922 75.65087891 C361.88097053 54.96537858 376.96550207 30.08624481 389 0 C417.05 0 445.1 0 474 0 C471.74840382 10.13218281 471.74840382 10.13218281 470.64306641 13.61425781 C470.39585846 14.39826965 470.14865051 15.18228149 469.89395142 15.99005127 C469.63246307 16.8028656 469.37097473 17.61567993 469.1015625 18.453125 C468.82533051 19.3163739 468.54909851 20.1796228 468.26449585 21.06903076 C467.6834727 22.87812789 467.10016112 24.68649153 466.51464844 26.49414062 C465.62397303 29.25318123 464.74936443 32.01700371 463.875 34.78125 C463.30566758 36.54719127 462.73538774 38.31282744 462.1640625 40.078125 C461.90662262 40.89903625 461.64918274 41.71994751 461.38394165 42.56573486 C459.89785476 47.08769425 458.36697188 50.49739383 455 54 C450.48907833 56.25546084 444.84636966 54.28002899 440.31640625 52.78125 C437.74376187 51.87806384 435.1985908 50.92860573 432.6484375 49.9609375 C428.42296064 48.84801747 426.15118037 48.57770243 422 50 C419.78997315 52.42480411 418.34849415 55.17815909 416.8125 58.0625 C415.86997923 59.71347726 414.92057888 61.36054333 413.96484375 63.00390625 C413.47999512 63.83937988 412.99514648 64.67485352 412.49560547 65.53564453 C406.68036066 75.11760358 399.40483542 83.92818795 391.7421875 92.08203125 C389.54726232 94.49841749 388.12919066 96.36829566 387.46875 99.59765625 C388.41811746 105.67779639 392.73869238 110.10678836 396.37890625 114.92382812 C399.08355242 118.64791786 400.86035748 121.19456192 401.65625 125.78515625 C400.246295 132.69225724 394.92755235 135.72249324 389.4375 139.4375 C387.92185809 140.48376895 386.40759005 141.53203022 384.89453125 142.58203125 C384.10127441 143.13197754 383.30801758 143.68192383 382.49072266 144.24853516 C377.31175556 147.89036126 372.24278679 151.68335606 367.15795898 155.45483398 C366.39684814 156.01887939 365.6357373 156.5829248 364.8515625 157.1640625 C364.17947754 157.66373535 363.50739258 158.1634082 362.81494141 158.67822266 C359.08128411 161.39735375 356.77730616 162.27628139 352.1328125 162.55859375 C346.32449615 161.03736804 342.6300164 153.93514561 339.3125 149.25 C338.35409938 147.89831148 337.39203239 146.54921279 336.42578125 145.203125 C336.00723877 144.61176758 335.58869629 144.02041016 335.1574707 143.41113281 C333.40356177 141.27285109 332.15146657 141.01693131 329.4140625 140.7109375 C324.89157747 141.09384813 321.46468129 142.7436111 317.375 144.625 C304.19135473 150.42977785 290.50737901 154.43729839 276.43359375 157.45703125 C273.87984748 157.98335417 273.87984748 157.98335417 271 159 C270.18724337 162.84572651 269.91090327 166.5605399 269.82421875 170.4765625 C269.80037109 171.476875 269.77652344 172.4771875 269.75195312 173.5078125 C269.70882722 175.59353827 269.67766283 177.67954419 269.65820312 179.765625 C269.61663086 181.26222656 269.61663086 181.26222656 269.57421875 182.7890625 C269.55963623 183.69350098 269.54505371 184.59793945 269.5300293 185.52978516 C268.82455472 188.81766715 267.5930173 189.89430372 265 192 C262.41992188 192.50793457 262.41992188 192.50793457 259.46875 192.51757812 C258.36080078 192.53018677 257.25285156 192.54279541 256.11132812 192.55578613 C254.3237207 192.54364075 254.3237207 192.54364075 252.5 192.53125 C250.65825195 192.53699036 250.65825195 192.53699036 248.77929688 192.54284668 C246.18358541 192.54556842 243.58784664 192.53818911 240.9921875 192.52148438 C237.01500401 192.50008075 233.03962718 192.52127963 229.0625 192.546875 C226.54166267 192.54423177 224.02082647 192.53910691 221.5 192.53125 C220.30826172 192.53934692 219.11652344 192.54744385 217.88867188 192.55578613 C216.22674805 192.53687317 216.22674805 192.53687317 214.53125 192.51757812 C213.55736328 192.51439575 212.58347656 192.51121338 211.58007812 192.50793457 C208.26874837 191.85604002 207.07463416 190.60898092 205 188 C204.4699707 185.52978516 204.4699707 185.52978516 204.42578125 182.7890625 C204.39806641 181.79132813 204.37035156 180.79359375 204.34179688 179.765625 C204.32729492 178.21101563 204.32729492 178.21101563 204.3125 176.625 C204.27012213 174.57545228 204.22463945 172.52596598 204.17578125 170.4765625 C204.15467285 169.52297852 204.13356445 168.56939453 204.11181641 167.58691406 C203.98554742 164.6656341 203.60456658 161.86063213 203 159 C202.11183594 158.79246094 201.22367188 158.58492187 200.30859375 158.37109375 C184.25118143 154.49851903 167.92740311 150.44506474 153.046875 143.13354492 C149.19045265 141.28461174 146.26293606 140.25384159 142 141 C137.21420888 144.8418048 134.00732896 150.06584724 130.57421875 155.09179688 C128.53750769 158.02152739 127.00334942 159.99776705 124 162 C117.83661894 162.80078007 114.7913678 161.77182874 109.86010742 158.08764648 C109.14314697 157.52247314 108.42618652 156.9572998 107.6875 156.375 C106.92348877 155.79758057 106.15947754 155.22016113 105.37231445 154.62524414 C103.74809579 153.39763509 102.12931158 152.16280763 100.515625 150.92138672 C96.28893929 147.69312424 91.98139698 144.57542801 87.6875 141.4375 C73.28895965 130.86619777 73.28895965 130.86619777 72.53125 125.97265625 C72.61058171 120.50018504 76.33524847 116.62536767 79.5 112.4375 C84.06621911 106.59732661 84.06621911 106.59732661 86.73828125 99.8125 C85.70313311 95.8690785 83.42019022 93.45021584 80.6875 90.5625 C79.57401517 89.32268922 78.46474495 88.07908238 77.359375 86.83203125 C76.79541016 86.1973291 76.23144531 85.56262695 75.65039062 84.90869141 C73.10104564 81.9603513 70.7463255 78.88877624 68.4375 75.75 C67.99140381 75.14599365 67.54530762 74.5419873 67.08569336 73.91967773 C64.55806574 70.41214476 62.27503777 66.83065532 60.11328125 63.0859375 C59.63383057 62.26125977 59.15437988 61.43658203 58.66040039 60.58691406 C57.73948295 58.97941338 56.84035936 57.35917382 55.96655273 55.72558594 C53.84816824 52.00705362 52.85919703 50.31383844 48.73828125 48.80859375 C44.05659469 49.04830393 40.2906921 50.27827665 35.9375 51.9375 C25.72954836 55.75806945 25.72954836 55.75806945 21 55 C16.12514962 51.98576857 14.64904743 48.43215184 13.02734375 43.15625 C12.77755264 42.39131226 12.52776154 41.62637451 12.270401 40.83825684 C11.47704681 38.39691876 10.70690947 35.94897699 9.9375 33.5 C9.4175569 31.88491967 8.89608607 30.27033032 8.37304688 28.65625 C7.36402996 25.53679668 6.36530414 22.41434885 5.37451172 19.2890625 C3.87936052 14.58968065 2.28839705 9.92458904 0.66625977 5.26757812 C0 3 0 3 0 0 Z " fill="#000000" transform="translate(19,304)"/>
<path d="M0 0 C31.68 0 63.36 0 96 0 C96 79.2 96 158.4 96 240 C64.32 240 32.64 240 0 240 C0 160.8 0 81.6 0 0 Z M24 32 C24 37.28 24 42.56 24 48 C29.28 48 34.56 48 40 48 C40 42.72 40 37.44 40 32 C34.72 32 29.44 32 24 32 Z M56 32 C56 37.28 56 42.56 56 48 C61.28 48 66.56 48 72 48 C72 42.72 72 37.44 72 32 C66.72 32 61.44 32 56 32 Z M24 72 C24 77.28 24 82.56 24 88 C29.28 88 34.56 88 40 88 C40 82.72 40 77.44 40 72 C34.72 72 29.44 72 24 72 Z M56 72 C56 77.28 56 82.56 56 88 C61.28 88 66.56 88 72 88 C72 82.72 72 77.44 72 72 C66.72 72 61.44 72 56 72 Z M24 112 C24 117.28 24 122.56 24 128 C29.28 128 34.56 128 40 128 C40 122.72 40 117.44 40 112 C34.72 112 29.44 112 24 112 Z M56 112 C56 117.28 56 122.56 56 128 C61.28 128 66.56 128 72 128 C72 122.72 72 117.44 72 112 C66.72 112 61.44 112 56 112 Z " fill="#000000" transform="translate(312,16)"/>
<path d="M0 0 C5.36203744 0.15828893 8.38156579 3.57784137 12.125 7 C13.46768588 8.19650769 14.81144195 9.3918155 16.15625 10.5859375 C16.81238281 11.17213867 17.46851563 11.75833984 18.14453125 12.36230469 C20.58531521 14.51661769 23.09396981 16.57784323 25.625 18.625 C30.79947506 22.81717561 35.88245357 27.11000618 40.95703125 31.421875 C43.93810222 34.03442622 43.93810222 34.03442622 47.1450901 36.16561413 C49.82399071 38.41637878 49.98710031 38.9365856 50.73828697 42.62939167 C50.76337478 44.06215203 50.75552709 45.49572238 50.7215271 46.92829895 C50.72665365 47.72069668 50.7317802 48.51309441 50.7370621 49.32950419 C50.74693739 51.981975 50.71396261 54.63216328 50.68115234 57.28442383 C50.67945974 59.18661444 50.68041021 61.08880898 50.68380737 62.99099731 C50.68552997 68.15410284 50.6502369 73.31637322 50.60836363 78.47928452 C50.5708738 83.87511866 50.56733264 89.27097162 50.56021118 94.66691589 C50.54155724 104.88444074 50.49231258 115.10158073 50.43211424 125.31893605 C50.35253129 139.12591118 50.32012697 152.93299144 50.28510094 166.74013805 C50.22867079 188.49371369 50.10914153 210.24647713 50 232 C18.32 232 -13.36 232 -46 232 C-46.40303034 183.96326133 -46.40303034 183.96326133 -46.48828125 163.83398438 C-46.54761946 149.93476469 -46.61737637 136.03615118 -46.75439453 122.13745117 C-46.85413733 112.01501507 -46.91859865 101.89307067 -46.94088495 91.7701568 C-46.95391081 86.41094645 -46.98447065 81.05314264 -47.05730057 75.69438362 C-47.12534237 70.64688293 -47.14608427 65.60136348 -47.13107681 60.55344772 C-47.1338208 58.70429007 -47.15362041 56.85506401 -47.19205475 55.00630379 C-47.46795594 41.04646028 -47.46795594 41.04646028 -43.80028915 35.93340874 C-41.3072411 33.6607186 -38.83998256 31.80939738 -36 30 C-35.03449219 29.18789063 -34.06898437 28.37578125 -33.07421875 27.5390625 C-31.89279297 26.59160156 -31.89279297 26.59160156 -30.6875 25.625 C-26.58026677 22.29982106 -22.52510096 18.92344429 -18.5 15.5 C-13.39874232 11.16336036 -8.24442322 6.90081771 -3.046875 2.6796875 C-1.12984433 1.16253021 -1.12984433 1.16253021 0 0 Z M-22 56 C-22 61.28 -22 66.56 -22 72 C-6.16 72 9.68 72 26 72 C26 66.72 26 61.44 26 56 C10.16 56 -5.68 56 -22 56 Z M-22 96 C-22 101.28 -22 106.56 -22 112 C-6.16 112 9.68 112 26 112 C26 106.72 26 101.44 26 96 C10.16 96 -5.68 96 -22 96 Z " fill="#000000" transform="translate(150,24)"/>
<path d="M0 0 C26.4 0 52.8 0 80 0 C80 50.16 80 100.32 80 152 C53.6 152 27.2 152 0 152 C0 101.84 0 51.68 0 0 Z " fill="#000000" transform="translate(216,104)"/>
<path d="M0 0 C163.68 0 327.36 0 496 0 C496 5.28 496 10.56 496 16 C332.32 16 168.64 16 0 16 C0 10.72 0 5.44 0 0 Z " fill="#000000" transform="translate(8,272)"/>
<path d="M0 0 C21.12 0 42.24 0 64 0 C64 39.6 64 79.2 64 120 C42.88 120 21.76 120 0 120 C0 80.4 0 40.8 0 0 Z " fill="#000000" transform="translate(24,136)"/>
<path d="M0 0 C21.12 0 42.24 0 64 0 C64 36.96 64 73.92 64 112 C42.88 112 21.76 112 0 112 C0 75.04 0 38.08 0 0 Z " fill="#000000" transform="translate(424,144)"/>
</svg>
