<?xml version="1.0" standalone="no"?>
<!DOCTYPE svg PUBLIC "-//W3C//DTD SVG 20010904//EN"
 "http://www.w3.org/TR/2001/REC-SVG-20010904/DTD/svg10.dtd">
<svg version="1.0" xmlns="http://www.w3.org/2000/svg"
 width="512.000000pt" height="512.000000pt" viewBox="0 0 512.000000 512.000000"
 preserveAspectRatio="xMidYMid meet">

<g transform="translate(0.000000,512.000000) scale(0.100000,-0.100000)"
fill="#000000" stroke="none">
<path d="M415 4786 c-41 -18 -83 -69 -90 -109 -3 -18 -4 -982 -3 -2144 l3
-2112 21 -27 c11 -15 33 -37 48 -48 27 -21 28 -21 1526 -21 1498 0 1499 0
1526 21 64 47 69 63 69 207 l0 132 -170 86 c-185 93 -234 131 -275 214 l-25
50 0 485 0 485 25 50 c42 86 91 124 275 216 l170 84 0 205 0 205 -170 84
c-185 93 -233 130 -275 216 l-25 50 0 485 0 485 25 50 c41 83 90 121 275 214
l170 86 0 132 c0 144 -5 160 -69 207 -27 21 -30 21 -1514 23 -1221 2 -1492 0
-1517 -11z m840 -811 c16 -16 25 -35 25 -57 0 -29 -20 -53 -183 -215 -229
-230 -209 -225 -354 -80 -88 88 -103 108 -103 135 0 43 38 82 80 82 25 0 45
-13 96 -62 l64 -62 144 142 c124 124 147 142 175 142 21 0 41 -9 56 -25z
m1600 -320 c33 -32 33 -78 0 -110 l-24 -25 -671 0 -671 0 -24 25 c-16 15 -25
36 -25 55 0 19 9 40 25 55 l24 25 671 0 671 0 24 -25z m-1600 -480 c16 -16 25
-35 25 -57 0 -29 -20 -53 -183 -215 -229 -230 -209 -225 -354 -80 -88 88 -103
108 -103 135 0 43 38 82 80 82 25 0 45 -13 96 -62 l64 -62 144 142 c124 124
147 142 175 142 21 0 41 -9 56 -25z m1600 -320 c33 -32 33 -78 0 -110 l-24
-25 -671 0 -671 0 -24 25 c-16 15 -25 36 -25 55 0 19 9 40 25 55 l24 25 671 0
671 0 24 -25z m-1600 -480 c16 -16 25 -35 25 -57 0 -29 -20 -53 -183 -215
-229 -230 -209 -225 -354 -80 -88 88 -103 108 -103 135 0 43 38 82 80 82 25 0
45 -13 96 -62 l64 -62 144 142 c124 124 147 142 175 142 21 0 41 -9 56 -25z
m1600 -320 c33 -32 33 -78 0 -110 l-24 -25 -671 0 -671 0 -24 25 c-16 15 -25
36 -25 55 0 19 9 40 25 55 l24 25 671 0 671 0 24 -25z m-1600 -480 c16 -16 25
-35 25 -57 0 -29 -20 -53 -183 -215 -229 -230 -209 -225 -354 -80 -88 88 -103
108 -103 135 0 43 38 82 80 82 25 0 45 -13 96 -62 l64 -62 144 142 c124 124
147 142 175 142 21 0 41 -9 56 -25z m1600 -320 c33 -32 33 -78 0 -110 l-24
-25 -671 0 -671 0 -24 25 c-16 15 -25 36 -25 55 0 19 9 40 25 55 l24 25 671 0
671 0 24 -25z"/>
<path d="M3621 4310 c-188 -93 -341 -172 -341 -175 0 -3 162 -86 360 -185
l360 -180 360 180 c198 99 360 182 360 185 0 3 -153 82 -341 175 -265 133
-349 170 -379 170 -30 0 -114 -37 -379 -170z"/>
<path d="M3200 3580 c0 -440 1 -452 51 -496 13 -11 146 -85 294 -164 149 -78
294 -156 323 -172 l52 -29 0 455 0 456 -360 180 -360 180 0 -410z"/>
<path d="M4438 3809 l-358 -179 0 -456 0 -456 63 35 c34 19 182 98 329 177
276 146 312 172 323 233 3 18 4 210 3 428 l-3 397 -357 -179z"/>
<path d="M3621 2230 c-188 -93 -341 -172 -341 -175 0 -3 162 -86 360 -185
l360 -180 360 180 c198 99 360 182 360 185 0 3 -153 82 -341 175 -265 133
-349 170 -379 170 -30 0 -114 -37 -379 -170z"/>
<path d="M3200 1500 c0 -440 1 -452 51 -496 13 -11 146 -85 294 -164 149 -78
294 -156 323 -172 l52 -29 0 455 0 456 -360 180 -360 180 0 -410z"/>
<path d="M4438 1729 l-358 -179 0 -456 0 -456 63 35 c34 19 182 98 329 177
276 146 312 172 323 233 3 18 4 210 3 428 l-3 397 -357 -179z"/>
</g>
</svg>
