<?xml version="1.0" standalone="no"?>
<!DOCTYPE svg PUBLIC "-//W3C//DTD SVG 20010904//EN"
 "http://www.w3.org/TR/2001/REC-SVG-20010904/DTD/svg10.dtd">
<svg version="1.0" xmlns="http://www.w3.org/2000/svg"
 width="512.000000pt" height="512.000000pt" viewBox="0 0 512.000000 512.000000"
 preserveAspectRatio="xMidYMid meet">

<g transform="translate(0.000000,512.000000) scale(0.100000,-0.100000)"
fill="#000000" stroke="none">
<path d="M303 4795 c-126 -39 -237 -153 -272 -280 -8 -28 -11 -601 -11 -1987
l0 -1946 21 -59 c30 -79 113 -162 192 -191 l58 -22 2287 2 2287 3 53 30 c70
38 136 112 162 181 20 56 20 57 20 2004 0 2106 3 1987 -53 2083 -36 60 -118
134 -185 165 -54 26 -66 27 -237 30 -175 3 -181 3 -200 -18 -19 -20 -20 -39
-23 -256 l-3 -234 -1839 0 -1839 0 -3 234 c-3 214 -5 236 -22 255 -18 20 -29
21 -185 20 -108 0 -181 -5 -208 -14z m272 -1960 l0 -1840 -155 -5 c-144 -5
-159 -7 -208 -33 l-52 -27 2 1782 c3 1683 4 1785 21 1815 23 42 79 98 119 119
43 22 109 32 198 31 l75 -2 0 -1840z m4228 1817 c49 -22 108 -76 134 -125 17
-30 18 -132 21 -1815 l2 -1782 -52 27 c-49 26 -64 28 -208 33 l-155 5 -2 1830
c-2 1007 -1 1836 2 1844 8 21 200 8 258 -17z m-403 -2122 l0 -1631 25 -24 c24
-25 27 -25 200 -25 187 0 224 -7 273 -53 55 -51 78 -152 51 -224 -14 -38 -67
-92 -106 -109 -48 -21 -4518 -21 -4566 0 -39 17 -92 71 -106 109 -27 72 -4
173 51 224 49 46 86 53 273 53 173 0 176 0 200 25 l25 24 0 1631 0 1630 1840
0 1840 0 0 -1630z"/>
<path d="M2341 3664 c-19 -24 -21 -40 -21 -148 l0 -122 -82 -24 c-46 -13 -129
-47 -185 -76 l-101 -51 -88 88 c-123 123 -114 125 -287 -49 -112 -112 -137
-142 -137 -166 0 -23 19 -48 89 -120 l90 -91 -39 -70 c-22 -39 -56 -121 -76
-182 l-37 -113 -124 0 c-118 0 -125 -1 -148 -25 -25 -24 -25 -26 -25 -215 0
-243 -10 -230 168 -230 l128 0 27 -90 c15 -49 50 -134 77 -187 l50 -98 -90
-90 c-72 -72 -90 -96 -90 -119 0 -24 24 -53 132 -163 73 -74 143 -136 155
-139 32 -8 60 10 149 98 l81 80 74 -40 c41 -23 121 -57 179 -76 l105 -35 5
-130 c4 -107 8 -133 23 -148 16 -16 39 -18 217 -18 178 0 201 2 217 18 15 15
19 41 23 148 l5 130 105 35 c58 19 138 53 179 75 l73 41 93 -91 c73 -72 98
-91 121 -91 23 0 54 25 166 138 115 115 138 143 138 167 0 24 -18 47 -90 120
l-91 91 45 85 c44 83 75 165 96 247 l11 42 129 0 c180 0 170 -14 170 230 0
189 0 191 -25 215 -23 24 -30 25 -149 25 l-124 0 -22 73 c-28 92 -70 192 -105
247 l-27 42 91 93 c72 73 91 98 91 121 0 24 -24 53 -138 167 -173 172 -164
171 -286 48 l-88 -88 -101 51 c-56 29 -139 63 -185 76 l-82 24 0 122 c0 108
-2 124 -21 148 l-20 26 -199 0 -199 0 -20 -26z m319 -237 c0 -149 -1 -147 123
-176 107 -25 209 -68 303 -127 40 -24 80 -44 89 -44 10 0 57 38 104 85 48 47
92 85 97 85 5 0 38 -29 74 -65 l64 -65 -87 -89 c-99 -101 -103 -112 -55 -187
56 -89 108 -207 133 -309 34 -134 35 -135 186 -135 l119 0 0 -95 0 -95 -105 0
c-67 0 -118 -5 -138 -14 -31 -13 -35 -19 -55 -104 -29 -116 -71 -217 -127
-308 -25 -39 -45 -82 -45 -95 0 -16 27 -51 87 -111 l88 -88 -70 -70 -70 -70
-85 85 c-102 102 -111 103 -214 41 -97 -59 -181 -93 -296 -122 -56 -14 -100
-30 -107 -41 -9 -11 -13 -57 -13 -140 l0 -123 -100 0 -100 0 0 123 c0 83 -4
129 -13 140 -7 11 -51 27 -107 41 -115 29 -199 63 -296 122 -103 62 -112 61
-214 -41 l-85 -85 -70 70 -70 70 88 88 c59 59 87 95 87 111 0 12 -23 59 -50
104 -59 95 -101 200 -125 311 -16 73 -20 79 -51 92 -21 9 -71 14 -139 14
l-105 0 0 95 0 95 120 0 c113 0 122 2 144 23 14 14 26 42 30 70 14 95 74 241
146 353 46 73 42 84 -57 185 l-87 89 64 65 c36 36 69 65 74 65 5 0 49 -38 97
-85 47 -47 94 -85 104 -85 9 0 50 20 89 45 91 56 198 101 306 127 121 28 120
27 120 175 l0 123 100 0 100 0 0 -123z"/>
<path d="M2456 3079 c-258 -35 -495 -210 -604 -447 -56 -122 -75 -218 -69
-356 6 -140 22 -210 77 -321 78 -156 195 -272 355 -351 112 -55 183 -74 305
-81 254 -15 507 101 660 304 68 89 115 188 141 298 28 117 23 292 -11 400 -68
215 -234 406 -428 492 -126 55 -293 80 -426 62z m272 -155 c195 -51 365 -209
440 -412 30 -82 41 -239 22 -334 -57 -295 -329 -518 -630 -518 -270 0 -527
186 -611 441 -21 64 -24 93 -24 209 1 120 4 142 27 202 108 283 361 451 647
431 41 -3 99 -11 129 -19z"/>
<path d="M2474 2661 c-107 -28 -198 -104 -247 -209 -82 -174 -5 -389 170 -477
53 -28 66 -30 163 -30 95 0 111 3 162 28 73 36 149 119 179 195 16 41 23 79
23 137 1 70 -3 89 -31 147 -62 131 -173 207 -312 214 -42 2 -90 0 -107 -5z
m157 -142 c150 -45 205 -239 102 -358 -49 -58 -99 -81 -173 -81 -103 0 -189
63 -217 159 -51 176 110 333 288 280z"/>
</g>
</svg>
