<?xml version="1.0" encoding="UTF-8"?>
<svg version="1.1" xmlns="http://www.w3.org/2000/svg" width="512" height="512">
<path d="M0 0 C0.66 0 1.32 0 2 0 C3.3327188 1.46690559 4.58913869 3.00322501 5.8125 4.5625 C9.55104116 9.23567645 13.37930425 13.80206162 17.3125 18.3125 C18.43237439 19.59888632 19.55216557 20.88534509 20.671875 22.171875 C21.50428711 23.12803711 21.50428711 23.12803711 22.35351562 24.10351562 C26.42902525 28.79784521 30.46183847 33.52898741 34.50292969 38.25292969 C36.03286759 40.03835624 37.56670801 41.82036145 39.1015625 43.6015625 C43.69377135 48.93550064 48.25644957 54.28042213 52.6875 59.75 C55.53458501 63.2588399 58.45812552 66.65866637 61.5 70 C64.54187448 73.34133363 67.46541499 76.7411601 70.3125 80.25 C75.75830454 86.9301869 81.39103593 93.45620858 87 100 C87 130.03 87 160.06 87 191 C-26.85 191 -140.7 191 -258 191 C-258 162.62 -258 134.24 -258 105 C-250.92715576 104.98018066 -243.85431152 104.96036133 -236.56713867 104.93994141 C-213.9522438 104.87517191 -191.33738773 104.80064205 -168.72254474 104.71994839 C-165.21143309 104.7074291 -161.70032113 104.69499639 -158.18920898 104.68261719 C-157.49019206 104.68015119 -156.79117513 104.6776852 -156.07097588 104.67514448 C-144.74366128 104.63539055 -133.41633667 104.60265489 -122.08899292 104.57250018 C-110.47129036 104.54141676 -98.85363223 104.50267198 -87.23597699 104.45720994 C-80.70833194 104.43191031 -74.18071717 104.41013931 -67.65303612 104.39665604 C-61.51439081 104.38386708 -55.37584919 104.36184708 -49.23726082 104.33261681 C-46.97933953 104.32351619 -44.72140152 104.31784505 -42.46346283 104.31578636 C-39.3902923 104.31248133 -36.31741893 104.29705178 -33.24430847 104.2784729 C-32.34256509 104.28040763 -31.44082172 104.28234237 -30.51175278 104.28433573 C-29.69066507 104.27687024 -28.86957736 104.26940475 -28.02360821 104.26171303 C-26.95906226 104.25829554 -26.95906226 104.25829554 -25.87301034 104.25480902 C-23.66669196 104.0937497 -23.66669196 104.0937497 -21 102 C-20.34520153 99.69184764 -20.34520153 99.69184764 -21 97 C-22.52917181 94.68405894 -24.03542788 92.66972716 -25.8125 90.5625 C-26.82454583 89.32057897 -27.8362549 88.07838345 -28.84765625 86.8359375 C-29.3698877 86.20268555 -29.89211914 85.56943359 -30.43017578 84.91699219 C-32.91850081 81.87837195 -35.33220641 78.78230964 -37.75 75.6875 C-38.6572618 74.53102221 -39.56480594 73.37476586 -40.47265625 72.21875 C-40.89949707 71.67476563 -41.32633789 71.13078125 -41.76611328 70.5703125 C-42.92371921 69.09707915 -44.08478577 67.62656689 -45.24609375 66.15625 C-45.88675781 65.3415625 -46.52742187 64.526875 -47.1875 63.6875 C-47.73792969 62.99011719 -48.28835938 62.29273438 -48.85546875 61.57421875 C-50 60 -50 60 -50 59 C-49.1455555 58.99120064 -49.1455555 58.99120064 -48.27384949 58.98222351 C-42.35272804 58.91836036 -36.43215371 58.83395962 -30.51147461 58.73754883 C-28.30093594 58.70426492 -26.09031157 58.67624388 -23.87963867 58.65356445 C-20.70454334 58.62008241 -17.53023583 58.56776948 -14.35546875 58.51171875 C-13.36475876 58.50532883 -12.37404877 58.4989389 -11.35331726 58.49235535 C-10.43258926 58.47256119 -9.51186127 58.45276703 -8.56323242 58.43237305 C-7.7527092 58.42126999 -6.94218597 58.41016693 -6.10710144 58.39872742 C-3.41374461 57.88906272 -2.54885206 57.25727717 -1 55 C-0.52723322 52.48093524 -0.52723322 52.48093524 -0.56762695 49.6105957 C-0.53793571 47.95922356 -0.53793571 47.95922356 -0.50764465 46.27449036 C-0.50125473 45.08691635 -0.49486481 43.89934235 -0.48828125 42.67578125 C-0.47033005 41.45924362 -0.45237885 40.24270599 -0.43388367 38.98930359 C-0.37962603 35.09707117 -0.3458345 31.20496246 -0.3125 27.3125 C-0.27934068 24.67641502 -0.24485234 22.04034639 -0.20898438 19.40429688 C-0.12389054 12.93630884 -0.05560613 6.46830509 0 0 Z M8 72 C7.37425021 74.25479405 7.37425021 74.25479405 8 77 C9.82801334 79.7306599 12.02240103 82.0911403 14.25 84.5 C15.42258673 85.80144242 16.5944772 87.10351256 17.765625 88.40625 C18.32507813 89.01992432 18.88453125 89.63359863 19.4609375 90.26586914 C20.78800816 91.76113927 22.03542404 93.3264139 23.265625 94.90234375 C24.87099663 97.17148233 24.87099663 97.17148233 27.5 98.0625 C30.13548407 98.22337174 30.13548407 98.22337174 32.375 96.375 C34.21693777 94.17484296 34.21693777 94.17484296 33.9609375 91.78515625 C32.57881755 87.77925574 30.06408057 85.1747391 27.25 82.0625 C26.19236939 80.86618498 25.1350745 79.66957307 24.078125 78.47265625 C23.5610498 77.89588135 23.04397461 77.31910645 22.51123047 76.72485352 C21.04546204 75.05188841 19.65910074 73.33317219 18.2734375 71.59375 C16.26716133 68.78397104 16.26716133 68.78397104 13.375 68.4375 C10.57617923 69.1003786 9.57707777 69.5928813 8 72 Z M32.36206055 120.72949219 C30.79258874 123.3457474 30.64890236 124.74292254 30.70703125 127.765625 C30.71669922 128.65507812 30.72636719 129.54453125 30.73632812 130.4609375 C30.76146484 131.38132812 30.78660156 132.30171875 30.8125 133.25 C30.82603516 134.18585938 30.83957031 135.12171875 30.85351562 136.0859375 C30.88880046 138.39121327 30.93809719 140.6953106 31 143 C30.37955811 142.97905273 29.75911621 142.95810547 29.11987305 142.93652344 C26.30924682 142.85338594 23.49887904 142.80134939 20.6875 142.75 C19.71103516 142.71648437 18.73457031 142.68296875 17.72851562 142.6484375 C16.79072266 142.63554687 15.85292969 142.62265625 14.88671875 142.609375 C14.02264404 142.58842773 13.15856934 142.56748047 12.26831055 142.54589844 C9.84456038 142.80889051 9.84456038 142.80889051 8.18676758 144.86035156 C6.76815742 146.97569583 6.76815742 146.97569583 7.125 149.625 C7.8567486 152.32987773 7.8567486 152.32987773 11 154 C15.65290386 154.44632647 20.3280679 154.32411017 25 154.3125 C26.94519531 154.33666992 26.94519531 154.33666992 28.9296875 154.36132812 C30.16976563 154.36197266 31.40984375 154.36261719 32.6875 154.36328125 C33.82574219 154.36626221 34.96398437 154.36924316 36.13671875 154.37231445 C38.94637956 154.19963034 38.94637956 154.19963034 40.86962891 152.88549805 C42.5563895 150.07192308 42.38908702 147.72984261 42.3984375 144.46875 C42.40230469 143.18355469 42.40617187 141.89835937 42.41015625 140.57421875 C42.40387207 139.90567871 42.39758789 139.23713867 42.39111328 138.54833984 C42.37505354 136.5068067 42.39096671 134.46725292 42.41015625 132.42578125 C42.40435547 130.49798828 42.40435547 130.49798828 42.3984375 128.53125 C42.39505371 127.35111328 42.39166992 126.17097656 42.38818359 124.95507812 C42.24178292 122.01727364 42.24178292 122.01727364 40.63134766 120.11914062 C37.56929444 118.0185043 34.93385916 118.01394272 32.36206055 120.72949219 Z M-229 145 C-230.0953531 146.79649965 -230.0953531 146.79649965 -230 149 C-228.55506002 151.74852166 -228.55506002 151.74852166 -226 154 C-223.22742213 154.48574084 -221.07705368 154.65754257 -218.3125 154.59375 C-217.20322144 154.59381042 -217.20322144 154.59381042 -216.0715332 154.59387207 C-214.51146931 154.58852206 -212.95140565 154.5709609 -211.39160156 154.54199219 C-209.00762322 154.50013385 -206.6264714 154.50092435 -204.2421875 154.5078125 C-202.72393876 154.49731917 -201.20570454 154.48438028 -199.6875 154.46875 C-198.97698486 154.46854858 -198.26646973 154.46834717 -197.53442383 154.46813965 C-194.43234083 154.39419138 -192.27625953 154.15462615 -189.546875 152.62695312 C-187.77303165 151.0620029 -187.77303165 151.0620029 -187.5625 148.5 C-187.82887035 146.03944158 -187.82887035 146.03944158 -189.03710938 144.36645508 C-192.0814454 142.24715797 -195.26695924 142.59224473 -198.84375 142.63671875 C-199.99200256 142.63597099 -199.99200256 142.63597099 -201.16345215 142.63520813 C-202.78070677 142.63754693 -204.39796514 142.64726413 -206.01513672 142.66381836 C-208.49089092 142.68741319 -210.96556817 142.68437795 -213.44140625 142.67773438 C-215.01302725 142.68331126 -216.58464372 142.69042121 -218.15625 142.69921875 C-218.89693726 142.69830734 -219.63762451 142.69739594 -220.40075684 142.69645691 C-224.13735806 142.74801521 -225.81171136 142.87447424 -229 145 Z M-150 147 C-149.39816251 149.02045442 -148.72693904 151.02111039 -148 153 C-144.97385766 154.51307117 -141.82860086 154.18354647 -138.5078125 154.203125 C-137.76546356 154.20882507 -137.02311462 154.21452515 -136.25827026 154.22039795 C-134.68635484 154.22984905 -133.11441959 154.23638237 -131.54248047 154.24023438 C-129.14124848 154.24993436 -126.74087457 154.28095289 -124.33984375 154.3125 C-122.81250508 154.31903077 -121.28516029 154.32428095 -119.7578125 154.328125 C-118.68262863 154.3466452 -118.68262863 154.3466452 -117.58572388 154.36553955 C-114.45355195 154.35159195 -112.30532262 154.16949561 -109.54248047 152.63574219 C-107.77439064 151.06135923 -107.77439064 151.06135923 -107.5625 148.5 C-107.8280202 146.03936172 -107.8280202 146.03936172 -109.03930664 144.37084961 C-112.06908121 142.25253505 -115.2408139 142.55220557 -118.80859375 142.56640625 C-119.57172379 142.5611644 -120.33485382 142.55592255 -121.12110901 142.55052185 C-122.73412866 142.54410246 -124.34719514 142.54543764 -125.96020508 142.55395508 C-128.4254926 142.56245858 -130.88845749 142.53371743 -133.35351562 142.50195312 C-134.92187431 142.50034079 -136.49023708 142.50091926 -138.05859375 142.50390625 C-138.79411972 142.49267227 -139.52964569 142.48143829 -140.28746033 142.46986389 C-144.96177339 142.53334571 -147.13843817 143.25288259 -150 147 Z M-68.50244141 144.86474609 C-70.26163173 146.92373434 -70.26163173 146.92373434 -69.9375 149.625 C-69.13344454 152.32289761 -69.13344454 152.32289761 -66 154 C-63.43356253 154.21941667 -60.9780716 154.32795167 -58.41015625 154.3359375 C-57.29875526 154.3459227 -57.29875526 154.3459227 -56.16490173 154.35610962 C-54.59897339 154.36622694 -53.03300201 154.37092692 -51.46704102 154.37060547 C-49.07430851 154.37497842 -46.68342173 154.41130267 -44.29101562 154.44921875 C-42.76823546 154.45508727 -41.24544656 154.45905643 -39.72265625 154.4609375 C-39.00900406 154.47530853 -38.29535187 154.48967957 -37.56007385 154.50448608 C-34.12072524 154.47293314 -32.29606871 154.22168149 -29.50952148 152.13525391 C-27.72642992 150.07768356 -27.72642992 150.07768356 -28.125 147.375 C-28.86467913 144.85594875 -28.86467913 144.85594875 -31 143 C-33.60587499 142.77577793 -36.10247588 142.67187915 -38.7109375 142.6640625 C-39.85775497 142.6540773 -39.85775497 142.6540773 -41.02774048 142.64389038 C-42.64672436 142.63375767 -44.26575006 142.62907355 -45.88476562 142.62939453 C-48.3587767 142.62502863 -50.83099317 142.58873949 -53.3046875 142.55078125 C-54.87759807 142.54491166 -56.45051711 142.54094322 -58.0234375 142.5390625 C-58.76210052 142.52469147 -59.50076355 142.51032043 -60.2618103 142.49551392 C-63.7553778 142.52649056 -65.66580871 142.75097043 -68.50244141 144.86474609 Z " fill="#000000" transform="translate(311,282)"/>
<path d="M0 0 C19.7706169 0 38.54765284 0.68343282 57.9375 3.75 C59.2378418 3.94867676 59.2378418 3.94867676 60.56445312 4.15136719 C71.60885424 6.0159547 82.06976893 9.14863537 93 12 C93 64.47 93 116.94 93 171 C81.93582453 168.78716491 81.93582453 168.78716491 77.6171875 167.81640625 C51.75237482 162.12043123 26.72065613 160.52689464 0 159 C0 106.53 0 54.06 0 0 Z M25 24.125 C23.45702926 27.01807013 24.08743912 28.93640275 25 32 C27.84634296 33.89756197 29.15336526 34.39466625 32.39208984 34.99316406 C33.27665863 35.1596344 34.16122742 35.32610474 35.07260132 35.49761963 C36.02575226 35.6685614 36.9789032 35.83950317 37.9609375 36.015625 C38.94365631 36.19510681 39.92637512 36.37458862 40.93887329 36.55950928 C43.01781694 36.93632928 45.09746165 37.3092987 47.17773438 37.67871094 C50.35847007 38.24704642 53.53452261 38.83774166 56.7109375 39.4296875 C58.7315232 39.79304643 60.75234957 40.15507007 62.7734375 40.515625 C64.19709122 40.78418304 64.19709122 40.78418304 65.64950562 41.0581665 C72.03731746 42.22693286 72.03731746 42.22693286 78 40 C78.66 39.34 79.32 38.68 80 38 C79.67028521 34.70285207 79.3773161 33.3773161 77 31 C74.74944489 30.43841786 72.47385747 29.97576653 70.19140625 29.5625 C69.16937355 29.37409546 69.16937355 29.37409546 68.12669373 29.18188477 C65.9399014 28.78054178 63.75131777 28.39012925 61.5625 28 C60.1229157 27.73769806 58.68346084 27.47468471 57.24414062 27.2109375 C54.45028094 26.70018959 51.6555626 26.19467014 48.85986328 25.6940918 C44.64125089 24.9354887 40.42724224 24.15357625 36.21459961 23.36254883 C30.44393468 22.40206752 30.44393468 22.40206752 25 24.125 Z M14 58 C14.33 60.31 14.66 62.62 15 65 C18.36907809 66.44293674 21.53461774 67.41559895 25.13818359 68.0690918 C26.13627045 68.25235519 27.1343573 68.43561859 28.16268921 68.62443542 C29.23048615 68.81411392 30.29828308 69.00379242 31.3984375 69.19921875 C32.50675934 69.39852493 33.61508118 69.59783112 34.75698853 69.80317688 C37.0982247 70.22198655 39.43998622 70.6378686 41.78222656 71.05102539 C45.35704793 71.68431972 48.9284493 72.33487452 52.5 72.98632812 C54.77845693 73.39168824 57.05709723 73.79601928 59.3359375 74.19921875 C60.93156021 74.49284554 60.93156021 74.49284554 62.55941772 74.79240417 C67.97846917 75.73015496 72.64534764 76.47927801 78 75 C80.28138945 72.24301816 80.28138945 72.24301816 79.8125 69.4375 C79.16627558 66.66744883 79.16627558 66.66744883 76 65 C74.19958108 64.54856514 72.37848084 64.17735204 70.55053711 63.85498047 C69.43605698 63.65492401 68.32157684 63.45486755 67.17332458 63.24874878 C65.97015091 63.04033356 64.76697723 62.83191833 63.52734375 62.6171875 C62.29335342 62.39805695 61.0593631 62.17892639 59.78797913 61.95315552 C57.17842512 61.49102046 54.56858006 61.03151166 51.95776367 60.57666016 C48.60852145 59.99313795 45.26068688 59.40198886 41.91330624 58.80788994 C38.72258738 58.24184967 35.53123917 57.679399 32.33984375 57.1171875 C30.53204689 56.79849197 30.53204689 56.79849197 28.68772888 56.47335815 C27.57640091 56.27960602 26.46507294 56.08585388 25.32006836 55.88623047 C24.33872421 55.71461395 23.35738007 55.54299744 22.34629822 55.36618042 C18.30248459 54.73507336 17.17467686 55.46025851 14 58 Z M25 91.125 C23.45702926 94.01807013 24.08743912 95.93640275 25 99 C27.84634296 100.89756197 29.15336526 101.39466625 32.39208984 101.99316406 C33.27665863 102.1596344 34.16122742 102.32610474 35.07260132 102.49761963 C36.02575226 102.6685614 36.9789032 102.83950317 37.9609375 103.015625 C38.94365631 103.19510681 39.92637512 103.37458862 40.93887329 103.55950928 C43.01781694 103.93632928 45.09746165 104.3092987 47.17773438 104.67871094 C50.35847007 105.24704642 53.53452261 105.83774166 56.7109375 106.4296875 C58.7315232 106.79304643 60.75234957 107.15507007 62.7734375 107.515625 C64.19709122 107.78418304 64.19709122 107.78418304 65.64950562 108.0581665 C72.03731746 109.22693286 72.03731746 109.22693286 78 107 C78.66 106.34 79.32 105.68 80 105 C79.67028521 101.70285207 79.3773161 100.3773161 77 98 C74.74944489 97.43841786 72.47385747 96.97576653 70.19140625 96.5625 C69.16937355 96.37409546 69.16937355 96.37409546 68.12669373 96.18188477 C65.9399014 95.78054178 63.75131777 95.39012925 61.5625 95 C60.1229157 94.73769806 58.68346084 94.47468471 57.24414062 94.2109375 C54.45028094 93.70018959 51.6555626 93.19467014 48.85986328 92.6940918 C44.64125089 91.9354887 40.42724224 91.15357625 36.21459961 90.36254883 C30.44393468 89.40206752 30.44393468 89.40206752 25 91.125 Z M14 125 C14.33 127.31 14.66 129.62 15 132 C18.36907809 133.44293674 21.53461774 134.41559895 25.13818359 135.0690918 C26.13627045 135.25235519 27.1343573 135.43561859 28.16268921 135.62443542 C29.23048615 135.81411392 30.29828308 136.00379242 31.3984375 136.19921875 C32.50675934 136.39852493 33.61508118 136.59783112 34.75698853 136.80317688 C37.0982247 137.22198655 39.43998622 137.6378686 41.78222656 138.05102539 C45.35704793 138.68431972 48.9284493 139.33487452 52.5 139.98632812 C54.77845693 140.39168824 57.05709723 140.79601928 59.3359375 141.19921875 C60.93156021 141.49284554 60.93156021 141.49284554 62.55941772 141.79240417 C67.97846917 142.73015496 72.64534764 143.47927801 78 142 C80.28138945 139.24301816 80.28138945 139.24301816 79.8125 136.4375 C79.16627558 133.66744883 79.16627558 133.66744883 76 132 C74.19958108 131.54856514 72.37848084 131.17735204 70.55053711 130.85498047 C69.43605698 130.65492401 68.32157684 130.45486755 67.17332458 130.24874878 C65.97015091 130.04033356 64.76697723 129.83191833 63.52734375 129.6171875 C62.29335342 129.39805695 61.0593631 129.17892639 59.78797913 128.95315552 C57.17842512 128.49102046 54.56858006 128.03151166 51.95776367 127.57666016 C48.60852145 126.99313795 45.26068688 126.40198886 41.91330624 125.80788994 C38.72258738 125.24184967 35.53123917 124.679399 32.33984375 124.1171875 C30.53204689 123.79849197 30.53204689 123.79849197 28.68772888 123.47335815 C27.57640091 123.27960602 26.46507294 123.08585388 25.32006836 122.88623047 C24.33872421 122.71461395 23.35738007 122.54299744 22.34629822 122.36618042 C18.30248459 121.73507336 17.17467686 122.46025851 14 125 Z " fill="#000000" transform="translate(78,136)"/>
<path d="M0 0 C0 52.8 0 105.6 0 160 C-4.95 160 -9.9 160 -15 160 C-38.79066601 161.05798164 -62.14032714 163.79136079 -85.1484375 170.046875 C-89 171 -89 171 -93 171 C-93 118.86 -93 66.72 -93 13 C-74.73294334 6.14985375 -55.36298224 2.93206462 -36 1 C-35.30406738 0.92942383 -34.60813477 0.85884766 -33.89111328 0.78613281 C-22.58775808 -0.30133684 -11.3819905 0 0 0 Z M-42.2578125 24.42578125 C-43.1238913 24.57403854 -43.98997009 24.72229584 -44.8822937 24.87504578 C-46.70314757 25.18894045 -48.52346612 25.50595481 -50.34326172 25.82592773 C-53.12146691 26.311882 -55.90225605 26.78039919 -58.68359375 27.24804688 C-60.45851739 27.55623352 -62.2332637 27.86544356 -64.0078125 28.17578125 C-64.83499786 28.31341385 -65.66218323 28.45104645 -66.51443481 28.59284973 C-70.89505058 29.38082064 -74.38596567 30.22630569 -78 33 C-79.24401278 35.38608611 -79.24401278 35.38608611 -79 38 C-77.44728694 40.32172869 -77.44728694 40.32172869 -75 42 C-72.06856791 42.15239766 -72.06856791 42.15239766 -68.8515625 41.4296875 C-67.60793945 41.21022461 -66.36431641 40.99076172 -65.08300781 40.76464844 C-64.41950317 40.63876343 -63.75599854 40.51287842 -63.0723877 40.38317871 C-60.23957202 39.85939898 -57.39525479 39.4235129 -54.54876709 38.98126221 C-51.57416786 38.51285821 -48.60578257 38.01037164 -45.63720703 37.50537109 C-44.11222966 37.24895897 -42.58613864 36.99909487 -41.05908203 36.75537109 C-38.81517328 36.3965168 -36.57563658 36.01696168 -34.3359375 35.6328125 C-33.65679291 35.52848907 -32.97764832 35.42416565 -32.27792358 35.31668091 C-28.02432797 34.55754138 -25.60306466 33.4997587 -23 30 C-23.16150205 26.60845705 -23.58296757 25.41703243 -26 23 C-31.55619343 22.60949017 -36.80856009 23.47443718 -42.2578125 24.42578125 Z M-24.53125 55.75683594 C-25.63919922 55.94743591 -26.74714844 56.13803589 -27.88867188 56.33441162 C-29.08041016 56.54889954 -30.27214844 56.76338745 -31.5 56.984375 C-32.72783203 57.20063538 -33.95566406 57.41689575 -35.22070312 57.63970947 C-37.81725472 58.09970799 -40.41291038 58.56316708 -43.0078125 59.03222656 C-46.32769321 59.63162688 -49.65038227 60.21341567 -52.97424316 60.79027939 C-56.15135115 61.34459539 -59.32549882 61.91534983 -62.5 62.484375 C-64.28760742 62.79396149 -64.28760742 62.79396149 -66.11132812 63.10980225 C-67.21927734 63.31301086 -68.32722656 63.51621948 -69.46875 63.72558594 C-70.92958008 63.98659088 -70.92958008 63.98659088 -72.41992188 64.25286865 C-75.22094651 65.06398103 -76.87859773 66.01110837 -79 68 C-79.58333333 70.5 -79.58333333 70.5 -79 73 C-77.82424163 74.75001659 -77.82424163 74.75001659 -76 76 C-65.85282139 77.01131552 -54.09476266 73.44453427 -44.14331055 71.67138672 C-41.04730086 71.12230441 -37.94867175 70.59014102 -34.84960938 70.05859375 C-32.86961084 69.709357 -30.88978633 69.35913183 -28.91015625 69.0078125 C-27.98928726 68.85144318 -27.06841827 68.69507385 -26.11964417 68.53396606 C-21.55178493 67.70335886 -17.73582779 66.94896641 -14 64 C-12.92727438 61.55460214 -12.92727438 61.55460214 -13 59 C-14.62254555 55.96241913 -14.62254555 55.96241913 -16.77929688 55.26519775 C-19.53306541 54.936341 -21.79760609 55.27735145 -24.53125 55.75683594 Z M-42.2578125 91.42578125 C-43.1238913 91.57403854 -43.98997009 91.72229584 -44.8822937 91.87504578 C-46.70314757 92.18894045 -48.52346612 92.50595481 -50.34326172 92.82592773 C-53.12146691 93.311882 -55.90225605 93.78039919 -58.68359375 94.24804688 C-60.45851739 94.55623352 -62.2332637 94.86544356 -64.0078125 95.17578125 C-64.83499786 95.31341385 -65.66218323 95.45104645 -66.51443481 95.59284973 C-70.89505058 96.38082064 -74.38596567 97.22630569 -78 100 C-79.24401278 102.38608611 -79.24401278 102.38608611 -79 105 C-77.44728694 107.32172869 -77.44728694 107.32172869 -75 109 C-72.06856791 109.15239766 -72.06856791 109.15239766 -68.8515625 108.4296875 C-67.60793945 108.21022461 -66.36431641 107.99076172 -65.08300781 107.76464844 C-64.41950317 107.63876343 -63.75599854 107.51287842 -63.0723877 107.38317871 C-60.23957202 106.85939898 -57.39525479 106.4235129 -54.54876709 105.98126221 C-51.57416786 105.51285821 -48.60578257 105.01037164 -45.63720703 104.50537109 C-44.11222966 104.24895897 -42.58613864 103.99909487 -41.05908203 103.75537109 C-38.81517328 103.3965168 -36.57563658 103.01696168 -34.3359375 102.6328125 C-33.65679291 102.52848907 -32.97764832 102.42416565 -32.27792358 102.31668091 C-28.02432797 101.55754138 -25.60306466 100.4997587 -23 97 C-23.16150205 93.60845705 -23.58296757 92.41703243 -26 90 C-31.55619343 89.60949017 -36.80856009 90.47443718 -42.2578125 91.42578125 Z M-35.796875 124.86328125 C-37.46366302 125.15225533 -37.46366302 125.15225533 -39.16412354 125.44706726 C-41.50114386 125.85467491 -43.83754298 126.26585871 -46.17333984 126.68041992 C-49.75011535 127.31252039 -53.32985412 127.92534151 -56.91015625 128.53710938 C-59.18510101 128.93633258 -61.45984809 129.33668425 -63.734375 129.73828125 C-65.33910675 130.01035149 -65.33910675 130.01035149 -66.97625732 130.28791809 C-68.46865936 130.55785835 -68.46865936 130.55785835 -69.99121094 130.83325195 C-70.86420837 130.98647415 -71.73720581 131.13969635 -72.63665771 131.29756165 C-75.31993677 132.09509239 -76.94854839 133.10527222 -79 135 C-79.49852135 137.84869344 -79.40319823 139.31219126 -77.9375 141.8125 C-72.40971157 145.20049936 -63.30377865 142.20592338 -57.3359375 141.171875 C-56.22570221 140.98159729 -55.11546692 140.79131958 -53.97158813 140.59527588 C-51.63283709 140.19161687 -49.29465871 139.78462745 -46.95703125 139.37451172 C-43.38264404 138.7513327 -39.80490458 138.15077516 -36.2265625 137.55078125 C-33.95027923 137.15503299 -31.67422874 136.75794297 -29.3984375 136.359375 C-28.33064056 136.18315613 -27.26284363 136.00693726 -26.16268921 135.82537842 C-20.78444564 134.85606054 -16.94338716 134.08664597 -13 130 C-13.34227572 127.02934491 -13.34227572 127.02934491 -14 124 C-20.18994132 120.90502934 -29.32670677 123.72093993 -35.796875 124.86328125 Z " fill="#000000" transform="translate(275,136)"/>
<path d="M0 0 C14.09056822 11.29373942 24.6213377 26.66696171 27.32714844 44.75244141 C29.69554316 76.17384724 19.86631499 99.25033087 -0.37744141 122.81005859 C-1.324453 123.9027391 -2.27287492 124.99419879 -3.22265625 126.08447266 C-5.198041 128.35649767 -7.15300594 130.64572088 -9.10913086 132.93432617 C-10.61651886 134.6971538 -12.12664488 136.45759626 -13.63769531 138.21728516 C-16.15251129 141.14598277 -18.66556394 144.07618273 -21.17724609 147.00756836 C-22.16857203 148.16411528 -23.16042798 149.32020813 -24.15283203 150.47583008 C-26.7766143 153.53230778 -29.38976188 156.59714505 -31.98925781 159.67431641 C-32.53259766 160.31498047 -33.0759375 160.95564453 -33.63574219 161.61572266 C-34.67787106 162.8449003 -35.71708674 164.07655565 -36.75292969 165.31103516 C-38.94424502 167.89011411 -40.83684855 169.86177273 -43.67285156 171.75244141 C-44.89152688 170.33065353 -46.11019896 168.90886288 -47.32885742 167.48706055 C-48.40774281 166.22838846 -49.4866832 164.96976351 -50.56567383 163.71118164 C-53.27322553 160.55282786 -55.98012044 157.39392059 -58.68457031 154.23291016 C-63.30071047 148.83933102 -67.92508755 143.45357544 -72.58154297 138.09472656 C-74.22949253 136.19668959 -75.87327922 134.29510996 -77.51660156 132.39306641 C-79.50090169 130.09736152 -81.50030836 127.81694027 -83.51660156 125.54931641 C-102.36866071 104.13415656 -114.88729424 81.05258748 -113.80908203 51.8203125 C-112.59235034 33.35128483 -103.73938723 16.89616823 -90.56347656 4.26025391 C-65.31298373 -17.64625474 -27.01131487 -20.14416506 0 0 Z M-75.99707031 26.33056641 C-83.17551019 35.6187511 -87.77079988 46.85146587 -86.67285156 58.75244141 C-84.07136624 72.96496785 -78.20891874 83.75443523 -66.11035156 92.18994141 C-55.45308381 98.76254208 -43.90183118 100.26210247 -31.73535156 97.68994141 C-22.52637431 95.16871756 -13.37848889 89.53285594 -7.67285156 81.75244141 C-0.4638273 69.10045907 2.62077335 56.98465026 -0.35644531 42.40478516 C-3.17709197 34.08329232 -8.26533619 27.66707099 -14.67285156 21.75244141 C-15.37410156 21.09244141 -16.07535156 20.43244141 -16.79785156 19.75244141 C-35.7223383 6.58758107 -60.45133138 9.08655348 -75.99707031 26.33056641 Z " fill="#000000" transform="translate(443.6728515625,47.24755859375)"/>
<path d="M0 0 C4.62 0 9.24 0 14 0 C14.00586624 1.84749344 14.01173248 3.69498688 14.01777649 5.59846497 C14.07489598 22.97738649 14.14742213 40.35618282 14.23571491 57.73497486 C14.28071366 66.67039118 14.32011883 75.60576728 14.34643555 84.54125977 C14.36938269 92.32786803 14.40274369 100.11434943 14.44870156 107.90085715 C14.4726783 112.02519512 14.4913778 116.14940712 14.49761391 120.27381325 C14.50364477 124.15377717 14.52357145 128.03341859 14.55427551 131.91326332 C14.56308798 133.33909367 14.56677171 134.76496611 14.56500816 136.1908226 C14.56336315 138.13411334 14.58177228 140.07739052 14.60127258 142.02058411 C14.60588155 143.10922162 14.61049051 144.19785913 14.61523914 145.31948566 C14.78388253 148.02171874 14.78388253 148.02171874 16.39271832 149.85441113 C18.57096745 151.40695664 19.93514001 151.31510004 22.59375 151.22265625 C23.52759521 151.20235352 24.46144043 151.18205078 25.42358398 151.16113281 C26.43880127 151.12858398 27.45401855 151.09603516 28.5 151.0625 C56.76529519 150.64232572 93.74830574 151.23323351 119.578125 164.3046875 C123.56499577 165.44930524 127.09097716 164.11078741 131 163 C132.01779541 162.71431152 132.01779541 162.71431152 133.05615234 162.42285156 C134.39653277 162.03743866 135.7352221 161.64610184 137.07226562 161.24926758 C154.00586758 156.25166598 171.43200309 153.52494202 189 152 C190.89492188 151.83177734 190.89492188 151.83177734 192.828125 151.66015625 C202.23560092 150.95362771 211.58655801 150.94198565 221.01611328 151.12451172 C222.00724121 151.13627441 222.99836914 151.14803711 224.01953125 151.16015625 C224.90745361 151.17699463 225.79537598 151.19383301 226.71020508 151.21118164 C229.27950067 151.15740251 229.27950067 151.15740251 232 149 C233.06915197 145.79254409 233.13795213 143.46939602 233.15821838 140.09651184 C233.1680072 138.86392136 233.17779602 137.63133087 233.18788147 136.36138916 C233.19378563 134.99328652 233.19959608 133.62518347 233.20532227 132.25708008 C233.21490117 130.81822936 233.22491126 129.37938145 233.23532104 127.9405365 C233.26237488 124.03176589 233.28338185 120.1229832 233.30332303 116.21417069 C233.32517962 112.13020004 233.35256991 108.04626665 233.37937927 103.96232605 C233.42931058 96.22759908 233.47424779 88.49285143 233.51740164 80.758084 C233.56677027 71.95283696 233.62168979 63.1476273 233.67708123 54.34241641 C233.790908 36.22831209 233.89754864 18.11417198 234 0 C238.29 0 242.58 0 247 0 C247 57.75 247 115.5 247 175 C191.065 175.495 191.065 175.495 134 176 C133.67 180.62 133.34 185.24 133 190 C128.78158202 193.16381349 127.9151253 193.41200837 122.9375 193.375 C121.89464844 193.38273438 120.85179687 193.39046875 119.77734375 193.3984375 C117 193 117 193 114 190 C113.67 185.38 113.34 180.76 113 176 C75.71 175.67 38.42 175.34 0 175 C0 117.25 0 59.5 0 0 Z " fill="#000000" transform="translate(53,155)"/>
<path d="M0 0 C13.0865625 -0.309375 13.0865625 -0.309375 26.4375 -0.625 C29.17474365 -0.71604004 31.9119873 -0.80708008 34.73217773 -0.90087891 C36.92426668 -0.93010992 39.11641027 -0.95558627 41.30859375 -0.9765625 C42.98846375 -1.053302 42.98846375 -1.053302 44.70227051 -1.1315918 C49.66641717 -1.13706917 52.75750754 -1.00620245 56.69961548 2.18621826 C58.97749237 4.69789701 61.01532815 7.25339336 63 10 C63.8353125 11.0003125 64.670625 12.000625 65.53125 13.03125 C66.50578125 14.25328125 66.50578125 14.25328125 67.5 15.5 C71.17108837 20.03600447 74.98977224 24.39551341 78.9296875 28.69921875 C80.79501161 30.77219215 82.55705818 32.896867 84.3125 35.0625 C87.15759183 38.25597282 87.15759183 38.25597282 91 39 C96.20634975 35.60981877 99.70837176 30.80595469 103.5546875 25.98828125 C106.83225159 21.98295133 110.31554889 18.20435287 113.8359375 14.41015625 C116.00261458 12.0847452 116.00261458 12.0847452 117.6640625 9.68359375 C118.32535156 8.85021484 118.32535156 8.85021484 119 8 C119.66 8 120.32 8 121 8 C121 29.45 121 50.9 121 73 C81.07 73 41.14 73 0 73 C0 48.91 0 24.82 0 0 Z M15 32 C14.49989476 35.04230823 14.49989476 35.04230823 15 38 C17.81538681 40.81538681 20.53593942 40.34227793 24.30859375 40.37109375 C25.03111832 40.38012222 25.75364288 40.3891507 26.49806213 40.39845276 C28.02706755 40.41296677 29.55613524 40.42184487 31.08520508 40.42553711 C33.4257047 40.43744001 35.76357247 40.48661055 38.10351562 40.53710938 C39.58852878 40.54657291 41.07355815 40.55380828 42.55859375 40.55859375 C43.2586705 40.57812607 43.95874725 40.59765839 44.68003845 40.61778259 C46.90197393 40.65248803 46.90197393 40.65248803 50 40 C52.03115887 37.60581506 52.03115887 37.60581506 53 35 C51.13433512 31.37206002 51.13433512 31.37206002 48 29 C43.89550788 28.76594394 39.78936266 28.77161758 35.67871094 28.75976562 C33.63955754 28.75006922 31.60141639 28.71904996 29.5625 28.6875 C28.27601563 28.68234375 26.98953125 28.6771875 25.6640625 28.671875 C24.48279785 28.6625293 23.3015332 28.65318359 22.08447266 28.64355469 C18.72731562 29.03151173 17.3275883 29.57976081 15 32 Z " fill="#000000" transform="translate(311,193)"/>
<path d="M0 0 C7.21801962 5.32131374 12.61458865 11.2430294 15 20 C16.02062303 31.34553041 15.12997765 40.97579925 8 50.25 C1.58821002 57.09201831 -7.75263211 60.97167632 -17.0625 61.3125 C-26.91827732 61.11603932 -34.85756937 57.39225568 -41.8671875 50.57421875 C-47.60498323 43.64893049 -50.37947378 35.2005051 -50.2109375 26.234375 C-49.37410383 17.37013685 -45.58059362 9.34350285 -39.11328125 3.2109375 C-28.45720578 -5.2888005 -11.81006178 -8.03084201 0 0 Z " fill="#000000" transform="translate(418,74)"/>
</svg>
