<?xml version="1.0" encoding="UTF-8"?>
<svg version="1.1" xmlns="http://www.w3.org/2000/svg" width="512" height="512">
<path d="M0 0 C0.84856221 -0.00367669 1.69712442 -0.00735338 2.57140064 -0.01114148 C5.41381753 -0.02215125 8.25619782 -0.0260176 11.09863281 -0.02983093 C13.13736588 -0.03609773 15.17609781 -0.04274473 17.21482849 -0.04974365 C23.91046354 -0.07076448 30.60609876 -0.08114569 37.30175781 -0.09111023 C39.60983288 -0.09515883 41.91790784 -0.09927578 44.22598267 -0.10346031 C55.07289948 -0.12250935 65.91980952 -0.13673977 76.76673985 -0.14507228 C89.27097177 -0.15483739 101.77502633 -0.18113929 114.27919579 -0.22157317 C123.95415582 -0.25178023 133.62906516 -0.2665456 143.30407143 -0.26985329 C149.07750955 -0.27219894 154.85075814 -0.28109604 160.62414551 -0.30631447 C166.06116336 -0.32967981 171.49786803 -0.3337944 176.93492317 -0.32355309 C178.92259834 -0.32305964 180.91028937 -0.32932327 182.89791679 -0.34310913 C193.87309431 -0.4149274 203.24774552 -0.02182933 213.55175781 4.14717102 C214.31751633 4.44796412 215.08327484 4.74875723 215.87223816 5.05866528 C227.00021415 9.68388349 236.03464522 20.63243423 241.37597656 31.13154602 C245.08899974 40.65464865 245.98755068 49.34769662 245.93994141 59.53193665 C245.9440162 60.94426883 245.94936314 62.35659783 245.95587158 63.7689209 C245.96944322 67.57268669 245.964289 71.37620591 245.95473433 75.17997551 C245.94708463 79.17999257 245.95419797 83.17998995 245.95889282 87.18000793 C245.96433503 93.89452362 245.95719926 100.60893998 245.94287109 107.32344055 C245.92654751 115.0619034 245.93183711 122.80012903 245.94835031 130.53858614 C245.96200913 137.20900885 245.96386345 143.87936058 245.9560343 150.54979277 C245.95138185 154.52221782 245.95066547 158.49453176 245.96064377 162.46694946 C245.96937552 166.20341283 245.96317968 169.9395734 245.945961 173.67600441 C245.94016872 175.68361634 245.94895839 177.69125419 245.95834351 179.69885254 C245.84893546 195.4680038 241.07102395 209.35847084 230.03613281 220.89326477 C221.35491397 228.76915042 209.53729942 235.31781457 197.56738281 235.24482727 C196.6328125 235.24160461 195.69824219 235.23838196 194.73535156 235.23506165 C193.76726562 235.22668274 192.79917969 235.21830383 191.80175781 235.20967102 C190.81820312 235.2051593 189.83464844 235.20064758 188.82128906 235.19599915 C186.3980499 235.18423585 183.97493508 235.16779786 181.55175781 235.14717102 C181.57270508 236.32223206 181.59365234 237.49729309 181.61523438 238.70796204 C181.68792059 243.08934731 181.73366121 247.47067982 181.77148438 251.85249329 C181.79153484 253.74483722 181.81878259 255.6371197 181.85351562 257.5292511 C181.90232434 260.25751453 181.92479223 262.98495517 181.94238281 265.71357727 C181.97335052 266.97181053 181.97335052 266.97181053 182.00494385 268.25546265 C182.00713547 274.06089519 180.90107805 277.3764078 177.55175781 282.14717102 C173.30781134 285.81239752 169.1283206 287.44119015 163.55175781 287.14717102 C152.52429078 284.70028378 145.7981988 275.88162947 139.12425804 267.32967949 C126.66162818 251.44314683 113.76493597 235.65551627 92.6875 233.02510071 C78.61915376 231.74744788 64.47872036 232.47206093 50.4052124 233.30751038 C42.41066679 233.73886237 34.40721551 233.89685687 26.40413094 234.09736061 C20.18924046 234.25804207 13.98392281 234.45593042 7.77511597 234.77812195 C6.06963341 234.85647026 6.06963341 234.85647026 4.32969666 234.93640137 C2.2347378 235.03457986 0.14045342 235.14952313 -1.9523468 235.28619385 C-15.03981088 235.85343316 -26.77544025 230.34092328 -36.57324219 221.95967102 C-44.53281665 214.48212048 -49.34273077 206.59905353 -52.44824219 196.14717102 C-52.71366711 195.26890404 -52.71366711 195.26890404 -52.98445415 194.37289429 C-53.56770747 191.57385598 -53.58408976 188.95064959 -53.59541321 186.09028625 C-53.60256851 184.84842056 -53.60972382 183.60655487 -53.61709595 182.32705688 C-53.61993607 180.9532931 -53.62264782 179.57952904 -53.62524414 178.20576477 C-53.63151193 176.7566817 -53.63815901 175.30760023 -53.64515686 173.85852051 C-53.66617091 169.100582 -53.67656018 164.34264329 -53.68652344 159.58467102 C-53.69057268 157.94304895 -53.69468966 156.30142704 -53.69887352 154.6598053 C-53.71792329 146.94228678 -53.73215197 139.22477779 -53.74048549 131.5072403 C-53.75024241 122.61960807 -53.77652225 113.73222593 -53.81698638 104.84468174 C-53.84723472 97.96293975 -53.86196279 91.08126907 -53.8652665 84.19946194 C-53.86760803 80.09548269 -53.87644992 75.99177065 -53.90172768 71.88786316 C-53.92516514 68.02014793 -53.92917949 64.15287283 -53.91896629 60.28510475 C-53.91847452 58.87430156 -53.92468779 57.46347554 -53.93852234 56.0527401 C-54.08976384 39.70015848 -48.99248508 26.36164036 -37.84667969 14.31904602 C-30.94650812 8.07068219 -22.53265391 3.29407301 -13.44824219 1.14717102 C-12.75623718 0.97545789 -12.06423218 0.80374475 -11.35125732 0.62682819 C-7.56276575 0.00086619 -3.82804931 -0.00089361 0 0 Z M86.55175781 54.14717102 C85.51228031 57.26560352 85.43680943 59.42192688 85.45410156 62.69013977 C85.45732422 63.7632843 85.46054687 64.83642883 85.46386719 65.9420929 C85.47224609 67.06164368 85.480625 68.18119446 85.48925781 69.33467102 C85.49376953 70.46582336 85.49828125 71.59697571 85.50292969 72.7624054 C85.51472283 75.55738029 85.53118131 78.35224922 85.55175781 81.14717102 C84.70397514 81.13717827 84.70397514 81.13717827 83.83906555 81.12698364 C77.95046687 81.06055378 72.06197485 81.0153387 66.1730957 80.9823761 C63.97611161 80.9673005 61.77915755 80.94683676 59.58227539 80.92085266 C56.42228781 80.884416 53.26269857 80.86743218 50.10253906 80.85420227 C49.12215164 80.83871841 48.14176422 80.82323456 47.13166809 80.80728149 C42.13573685 80.80605178 38.57258949 80.81154012 34.55175781 84.14717102 C32.22349406 87.3623924 32.154646 90.25547527 32.55175781 94.14717102 C33.76900306 96.82511057 34.73710341 98.57535136 37.15655518 100.27360535 C40.61700359 101.53568184 43.99081252 101.40852767 47.625 101.3742218 C48.43513046 101.37451385 49.24526093 101.37480591 50.0799408 101.37510681 C52.75294776 101.37371545 55.42567465 101.3581634 58.09863281 101.34248352 C59.95379484 101.3387527 61.80895883 101.33590605 63.66412354 101.33390808 C68.54349216 101.32627706 73.42274146 101.30663309 78.30206299 101.28450012 C83.28241359 101.26403029 88.2627835 101.25490393 93.24316406 101.24482727 C103.0127477 101.22338673 112.78224283 101.18925714 122.55175781 101.14717102 C121.79406348 103.82758807 121.02863977 106.50539999 120.25878906 109.18232727 C119.94270691 110.30508057 119.94270691 110.30508057 119.62023926 111.45051575 C115.35295644 126.20403618 107.63796323 138.57892507 95.55175781 148.14717102 C87.59351991 142.43356432 82.13277865 134.05165314 77.30175781 125.64717102 C75.16037038 121.98798701 73.36308635 119.24340172 69.55175781 117.14717102 C66.44341922 116.55195725 64.59125245 116.49204766 61.87207031 118.20576477 C59.66202835 119.98754501 57.83221206 121.58626252 56.55175781 124.14717102 C56.42005105 130.83735449 58.39662118 135.61624926 62.05175781 141.08467102 C62.49374512 141.76980774 62.93573242 142.45494446 63.39111328 143.1608429 C67.25099529 149.00356924 71.60779946 154.17932881 76.55175781 159.14717102 C73.20132405 161.38079353 70.02498511 162.25675515 66.17675781 163.20967102 C65.46865967 163.38812561 64.76056152 163.5665802 64.03100586 163.7504425 C58.46490039 165.08348827 53.05231747 165.6510099 47.32128906 165.77607727 C44.07682486 166.21080802 42.19851728 167.25529718 39.55175781 169.14717102 C37.22108204 172.36572327 37.08434644 175.25207628 37.55175781 179.14717102 C39.44152241 183.07788138 40.57301027 184.76960174 44.68066406 186.35420227 C49.05158808 187.24955805 52.54046451 187.14144658 56.92675781 186.58467102 C57.70623779 186.49024719 58.48571777 186.39582336 59.28881836 186.29853821 C70.31638366 184.80967801 80.52181112 181.96143822 90.17675781 176.39717102 C94.2488247 174.39917058 95.7804065 173.92725736 100.19628906 175.18623352 C103.45518713 176.65663485 106.53828316 178.42746602 109.65234375 180.17842102 C118.89612852 184.89298888 129.86235874 186.3251913 140.11425781 186.52217102 C140.85611328 186.55955383 141.59796875 186.59693665 142.36230469 186.63545227 C146.54734828 186.70253222 148.09151386 186.50601558 151.51269531 183.83857727 C154.09117089 180.43518709 154.62657877 178.41196564 154.55175781 174.14717102 C152.49056294 170.10112182 150.8002134 167.72815367 146.55175781 166.14717102 C143.73008001 165.78841078 140.94576327 165.5028688 138.11425781 165.27217102 C130.15171391 164.52391492 123.09205101 162.89151801 115.55175781 160.14717102 C117.34768318 156.99623609 119.15373925 154.36832055 121.67675781 151.77217102 C133.31034249 138.68438826 143.17111413 118.88032036 142.55175781 101.14717102 C143.53015625 101.23418274 143.53015625 101.23418274 144.52832031 101.32295227 C150.69618276 101.67271858 150.69618276 101.67271858 156.11425781 99.08467102 C159.02861163 95.57250103 159.63289484 93.69084467 159.55175781 89.14717102 C157.93380959 85.40034355 155.97099886 83.31365927 152.55175781 81.14717102 C150.29745732 80.71803518 150.29745732 80.71803518 147.875 80.80659485 C146.95434753 80.80682144 146.03369507 80.80704803 145.08514404 80.80728149 C143.60682098 80.83050728 143.60682098 80.83050728 142.09863281 80.85420227 C140.5755954 80.86056953 140.5755954 80.86056953 139.02178955 80.86706543 C135.78150827 80.88384678 132.54185085 80.92149861 129.30175781 80.95967102 C127.10385013 80.97471853 124.9059327 80.98840682 122.70800781 81.00068665 C117.3223786 81.03374847 111.93711278 81.08394266 106.55175781 81.14717102 C106.56746826 80.51738342 106.58317871 79.88759583 106.59936523 79.23872375 C106.66216013 76.35413277 106.70088839 73.46968616 106.73925781 70.58467102 C106.76439453 69.59402649 106.78953125 68.60338196 106.81542969 67.5827179 C106.88273822 60.82942894 106.52209399 55.4357575 101.80175781 50.20967102 C95.20489531 47.09448595 91.17588718 49.41294334 86.55175781 54.14717102 Z " fill="#000000" transform="translate(245.4482421875,180.8528289794922)"/>
<path d="M0 0 C1.29923804 -0.00445668 1.29923804 -0.00445668 2.62472332 -0.0090034 C5.53252996 -0.01768786 8.44029542 -0.01919845 11.34811401 -0.02069092 C13.43097522 -0.02531934 15.51383558 -0.03034403 17.59669495 -0.03573608 C23.26017172 -0.04886144 28.92363664 -0.05530554 34.58712626 -0.05974674 C38.12637269 -0.0626778 41.66561588 -0.06678271 45.20486069 -0.07125092 C56.28083536 -0.08492741 67.35680262 -0.09459281 78.43278515 -0.09845281 C91.21322625 -0.10293134 103.99356027 -0.12046916 116.77396882 -0.1494534 C126.65523024 -0.17108374 136.53646158 -0.18115784 146.41774642 -0.18249393 C152.31793894 -0.18354116 158.21803083 -0.1894315 164.11819839 -0.20731354 C169.67170524 -0.22381706 175.22503607 -0.22593856 180.77855873 -0.21717453 C182.81263895 -0.21640533 184.84672872 -0.22073138 186.88078499 -0.23063278 C206.42367366 -0.32015492 206.42367366 -0.32015492 214.49996948 3.14044189 C215.40489136 3.47044189 216.30981323 3.80044189 217.24215698 4.14044189 C229.95484409 10.10096918 239.90795605 20.8684626 244.81246948 33.95294189 C246.51569335 38.93325472 247.62608283 43.17283657 247.61349487 48.45977783 C247.61341934 49.52057556 247.61334381 50.58137329 247.61326599 51.67431641 C247.60810471 52.81298157 247.60294342 53.95164673 247.59762573 55.12481689 C247.59550331 56.88091278 247.59550331 56.88091278 247.59333801 58.67248535 C247.58774038 62.41183019 247.57518828 66.15111515 247.56246948 69.89044189 C247.55745418 72.42559728 247.55289132 74.9607536 247.54879761 77.49591064 C247.53777172 83.71077482 247.52103592 89.92560408 247.49996948 96.14044189 C246.14385559 96.15257217 246.14385559 96.15257217 244.76034546 96.16494751 C236.17098764 96.24342574 227.58177537 96.3308688 218.99260712 96.42796898 C214.57858823 96.47756416 210.16458914 96.52389194 205.75045776 96.56231689 C201.47741 96.59964122 197.20454454 96.64611683 192.93165588 96.6985054 C191.31491854 96.71680264 189.69814251 96.73199771 188.0813446 96.74378586 C168.84561936 96.88883264 149.87041232 98.02140369 133.35543823 109.00372314 C131.49996948 110.14044189 131.49996948 110.14044189 129.49996948 110.14044189 C127.34771787 105.44968672 125.19735044 100.75807358 123.04855347 96.06573486 C122.32085163 94.47729494 121.59267924 92.88907048 120.86398315 91.30108643 C119.8025307 88.98772076 118.74303106 86.67346702 117.68356323 84.35919189 C117.33159882 83.5938916 116.9796344 82.82859131 116.61700439 82.0401001 C114.8759101 78.23587504 113.18437001 74.42124455 111.58639526 70.55450439 C111.28193985 69.82654663 110.97748444 69.09858887 110.6638031 68.34857178 C110.09673261 66.9840181 109.54095342 65.61469109 108.99909973 64.2399292 C107.23632613 60.01767216 105.371855 57.59257337 101.49996948 55.14044189 C97.99996948 54.39044189 97.99996948 54.39044189 94.49996948 55.14044189 C90.33662359 58.62191312 88.07733736 62.42669339 85.92575073 67.31622314 C85.60475403 68.02094254 85.28375732 68.72566193 84.95303345 69.45173645 C83.89540584 71.78076442 82.85401443 74.11668291 81.81246948 76.45294189 C81.06338691 78.11045745 80.31328497 79.76751266 79.56222534 81.4241333 C77.58874356 85.78471628 75.62903416 90.151339 73.67355347 94.52001953 C71.42268096 99.54585213 69.16126097 104.56694594 66.90161133 109.58883667 C65.04461224 113.71676174 63.19019234 117.84580267 61.34127808 121.97735596 C57.42692209 130.71337748 53.45605674 139.41917831 49.39840698 148.08966064 C48.98064499 148.98461243 48.562883 149.87956421 48.13246155 150.80163574 C46.12372868 155.10409803 44.10636553 159.40205881 42.07247925 163.69268799 C41.34869145 165.23888794 40.6252823 166.78526521 39.90231323 168.33184814 C39.57093353 169.0217131 39.23955383 169.71157806 38.89813232 170.42234802 C36.93731742 174.64779038 35.80932337 178.42721698 35.49996948 183.14044189 C37.08835883 186.71431792 38.21631306 187.95133761 41.49996948 190.14044189 C44.91535092 190.72413633 44.91535092 190.72413633 48.49996948 190.14044189 C53.07282804 186.41407547 55.15595132 182.30200089 57.45309448 177.03106689 C57.79878479 176.26365173 58.1444751 175.49623657 58.50064087 174.70556641 C59.59452875 172.27184713 60.6727318 169.83157039 61.74996948 167.39044189 C62.84463989 164.93655574 63.94247059 162.48411823 65.04214478 160.0324707 C65.72353077 158.51052263 66.40140914 156.98699847 67.07546997 155.46179199 C69.39144726 150.24896412 69.39144726 150.24896412 70.49996948 149.14044189 C72.79148365 149.05253214 75.08569473 149.03350151 77.37887573 149.04278564 C78.4088694 149.04490807 78.4088694 149.04490807 79.45967102 149.04707336 C81.66064749 149.0526871 83.86152357 149.06524183 86.06246948 149.07794189 C87.55140031 149.08295513 89.04033272 149.08751834 90.52926636 149.09161377 C94.18620023 149.10266097 97.84307507 149.11993477 101.49996948 149.14044189 C100.57760057 156.65116019 100.57760057 156.65116019 99.99302673 160.33552551 C99.50781629 164.07988819 99.3417353 167.67892385 99.29464722 171.45269775 C99.28474762 172.14622345 99.27484802 172.83974915 99.26464844 173.55429077 C99.23334175 175.82125567 99.20839956 178.08824144 99.18356323 180.35528564 C99.16296699 181.93712372 99.14196986 183.51895662 99.12059021 185.1007843 C99.06564511 189.24514553 99.0161154 193.38955413 98.96774292 197.53399658 C98.91732542 201.77069264 98.86174552 206.0073207 98.80661011 210.24395752 C98.69936615 218.54272799 98.59784758 226.8415557 98.49996948 235.14044189 C97.40126526 235.06552269 97.40126526 235.06552269 96.28036499 234.98908997 C88.72771302 234.97278088 84.73854952 236.73012407 79.36972809 242.03727055 C77.88328456 243.563266 76.4265218 245.11444982 74.96871948 246.66778564 C73.92187812 247.74027817 72.87238771 248.81019073 71.82040405 249.87763977 C69.07475834 252.676271 66.36295225 255.5054301 63.65817261 258.34350586 C60.3613501 261.79189386 57.02947701 265.20635671 53.69864655 268.62185764 C51.10886481 271.27759359 48.526177 273.93900905 45.9637146 276.62113953 C45.03244598 277.58843535 44.10117187 278.55572588 43.16989136 279.52301025 C42.36225342 280.36826767 41.55461548 281.21352509 40.72250366 282.08439636 C36.12316727 286.33919934 32.28842052 286.57862667 26.19137573 286.45684814 C21.0924189 285.85740619 18.46321737 283.23385841 15.18746948 279.51544189 C12.05875395 275.11206448 12.37097928 271.44425364 12.40231323 266.19512939 C12.40372818 265.31011749 12.40514313 264.42510559 12.40660095 263.51327515 C12.41220808 260.68062999 12.42476177 257.84806325 12.43746948 255.01544189 C12.44248357 253.09747428 12.44704663 251.17950544 12.45114136 249.26153564 C12.46217982 244.55447408 12.47944923 239.84747129 12.49996948 235.14044189 C11.20961792 235.15929443 9.91926636 235.17814697 8.58981323 235.1975708 C6.87236916 235.21282133 5.15492093 235.22760792 3.43746948 235.24200439 C2.58991089 235.25562012 1.74235229 235.26923584 0.86911011 235.28326416 C-6.48923568 235.32943139 -12.70617908 234.04558748 -19.50003052 231.14044189 C-20.44104614 230.73954346 -21.38206177 230.33864502 -22.35159302 229.92559814 C-35.81964496 223.38126305 -44.53896763 212.02618446 -49.50003052 198.14044189 C-51.82720355 190.78944615 -51.78919453 183.76549021 -51.77468872 176.09625244 C-51.77904229 174.68436414 -51.78422758 173.27247819 -51.79017639 171.8605957 C-51.80350993 168.04430999 -51.80415127 164.22812367 -51.80161309 160.41181922 C-51.8005393 157.21631451 -51.80543729 154.02082957 -51.81021851 150.82532912 C-51.8212947 143.28036779 -51.8217621 135.73545624 -51.81570435 128.19049072 C-51.80966887 120.42994719 -51.82196902 112.66958516 -51.84327441 104.90907258 C-51.86094127 98.22598043 -51.86688369 91.54294577 -51.86363667 84.85983115 C-51.86183138 80.87729026 -51.86438394 76.89487879 -51.87835121 72.91235924 C-51.89100766 69.16364077 -51.88891242 65.41520324 -51.87594032 61.66648865 C-51.8724804 59.65168004 -51.88369532 57.63686253 -51.89550781 55.62208557 C-51.80502095 39.83709725 -47.03068097 25.94104212 -35.98440552 14.39434814 C-25.77483526 5.13189211 -13.69588531 -0.0146455 0 0 Z " fill="#000000" transform="translate(72.50003051757813,63.85955810546875)"/>
<path d="M0 0 C3.24155833 2.68430029 4.6957714 6.18469861 6.390625 9.93359375 C6.85393219 10.94511253 6.85393219 10.94511253 7.32659912 11.97706604 C7.97549087 13.40018164 8.62078215 14.82494373 9.26269531 16.2512207 C10.24766975 18.43233992 11.25202548 20.603805 12.2578125 22.77539062 C12.88661901 24.16091329 13.51426312 25.54696421 14.140625 26.93359375 C14.44260803 27.5816246 14.74459106 28.22965546 15.0557251 28.89732361 C16.22569474 31.53676345 17.05765214 33.46998104 16.74121094 36.37915039 C16 38 16 38 15 39 C12.6243148 39.0883967 10.27791326 39.11530305 7.90234375 39.09765625 C6.83905602 39.09553383 6.83905602 39.09553383 5.75428772 39.09336853 C3.48198288 39.08775443 1.20977525 39.07519963 -1.0625 39.0625 C-2.59960796 39.05748681 -4.13671745 39.05292359 -5.67382812 39.04882812 C-9.44925642 39.03778042 -13.22461171 39.02050641 -17 39 C-14.44545125 30.42469321 -10.63495559 22.49866165 -6.8125 14.4375 C-6.15123199 13.03342001 -5.49042094 11.62912472 -4.83007812 10.22460938 C-3.22530953 6.81390118 -1.61438573 3.40616599 0 0 Z " fill="#000000" transform="translate(170,153)"/>
</svg>
