<?xml version="1.0" encoding="UTF-8"?>
<svg version="1.1" xmlns="http://www.w3.org/2000/svg" width="512" height="512">
<path d="M0 0 C1.15876028 -0.00445784 2.31752057 -0.00891569 3.5113948 -0.01350862 C4.79035839 -0.01332426 6.06932198 -0.01313989 7.38704205 -0.01294994 C8.75478984 -0.01624876 10.12253666 -0.01997436 11.49028224 -0.02409142 C15.25724449 -0.03411733 19.02419081 -0.03782915 22.79116452 -0.04048073 C26.85057607 -0.04438196 30.90997498 -0.05396033 34.96937847 -0.0626936 C44.77617264 -0.08246173 54.58296786 -0.09252403 64.38977697 -0.10142139 C69.00587741 -0.10580316 73.62197669 -0.1111702 78.23807621 -0.11641026 C93.57886327 -0.13342184 108.9196496 -0.14791709 124.26044464 -0.155159 C128.2419901 -0.15706894 132.22353555 -0.15898927 136.20508099 -0.16094494 C137.68950159 -0.16167055 137.68950159 -0.16167055 139.20391049 -0.16241082 C155.24315419 -0.17071518 171.2823234 -0.19605924 187.32153455 -0.22852562 C203.78142063 -0.26157248 220.24126883 -0.27960555 236.70118827 -0.28280324 C245.94581196 -0.28497039 255.190327 -0.29374911 264.4349184 -0.31926441 C272.30616559 -0.34093891 280.17727772 -0.34903785 288.04855136 -0.33929763 C292.06552467 -0.33474364 296.08221915 -0.33670266 300.09915447 -0.35605907 C303.77629869 -0.37362538 307.45295931 -0.37274678 311.1301082 -0.35716178 C313.09098504 -0.35364506 315.05186656 -0.3698606 317.01267368 -0.38676625 C323.43048588 -0.33955956 327.63796453 -0.30292539 332.46264935 4.13422108 C336.38041679 8.59237024 336.58880835 12.32588801 336.59687042 18.13681126 C336.59922265 18.8574228 336.60157488 19.57803435 336.60399839 20.32048261 C336.61069629 22.75383275 336.61022993 25.18712958 336.60982037 27.62048817 C336.61311849 29.37525427 336.61684395 31.13001961 336.62096184 32.88478398 C336.63099566 37.72156323 336.63470085 42.55833006 336.63735116 47.39511824 C336.64125007 52.60588739 336.65082864 57.81664668 336.65956402 63.02740955 C336.67933928 75.61806847 336.68939562 88.20872821 336.69829181 100.79939878 C336.70267264 106.72487241 336.70803995 112.65034514 336.71328068 118.57581806 C336.7302934 138.26668964 336.74478863 157.95756065 336.75202942 177.64843845 C336.75393939 182.75991027 336.75585971 187.87138209 336.75781536 192.98285389 C336.7582991 194.2533231 336.75878284 195.52379232 336.75928124 196.8327606 C336.76758549 217.42375547 336.79292889 238.01469232 336.82539604 258.60566184 C336.85843906 279.73363364 336.87647565 300.86157593 336.87967366 321.98957372 C336.88184123 333.85720018 336.89062599 345.72474201 336.91613483 357.59234333 C336.9378041 367.69711778 336.94591084 377.80178704 336.93616805 387.90658209 C336.93161251 393.06388097 336.93358234 398.22096268 336.9529295 403.378232 C336.97048436 408.09841504 336.9696261 412.81822122 336.95403221 417.53840783 C336.95164443 419.24704968 336.95603992 420.9557171 336.96786086 422.66431972 C336.98293052 424.98609435 336.97334281 427.30652509 336.95763397 429.62826633 C336.95861078 430.91806896 336.95958759 432.20787158 336.960594 433.53675914 C336.25032166 438.66820838 334.29766539 442.46602467 330.40014935 446.00922108 C326.84736125 448.07213029 323.96349837 448.26125544 319.94091606 448.26844215 C318.20800073 448.27512892 318.20800073 448.27512892 316.44007701 448.28195077 C315.16500436 448.28176641 313.88993172 448.28158205 312.57622051 448.2813921 C311.21259751 448.28469092 309.84897549 448.28841653 308.48535472 448.29253358 C304.72979404 448.30255938 300.97424934 448.30627129 297.21867716 448.30892289 C293.17153564 448.31282414 289.1244068 448.32240251 285.07727337 448.33113575 C275.30014206 448.35090379 265.52300971 448.36096618 255.74586341 448.36986354 C251.14370975 448.37424533 246.54155724 448.37961237 241.93940449 448.38485241 C226.64494058 448.40186398 211.35047739 448.41635923 196.05600548 448.42360115 C192.08649158 448.4255111 188.11697768 448.42743142 184.1474638 448.42938709 C183.16084068 448.42987083 182.17421755 448.43035457 181.15769676 448.43085297 C165.16695191 448.43915732 149.17628176 448.46450136 133.18556955 448.49696777 C116.77540401 448.53001476 100.36527647 448.54804772 83.95507747 448.55124539 C74.73839931 448.55341253 65.52183014 448.56219107 56.30518436 448.58770657 C48.45772564 448.60938124 40.61040238 448.61747992 32.76291712 448.60773978 C28.75809509 448.60318584 24.75355273 448.60514451 20.74876881 448.62450123 C17.08272664 448.64206791 13.41716954 448.64118863 9.75112269 448.62560394 C7.79621068 448.62208732 5.84129397 448.63830249 3.8864519 448.65520841 C-6.95184629 448.57524773 -6.95184629 448.57524773 -11.53735065 444.13422108 C-15.16604254 439.54037257 -16.03779337 436.55332177 -16.04071522 430.72845936 C-16.04652898 430.00070993 -16.05234274 429.27296051 -16.05833268 428.52315807 C-16.0729368 426.08327904 -16.05904621 423.64440536 -16.04528522 421.20453358 C-16.04989399 419.43821161 -16.05624674 417.67189348 -16.0641942 415.90558338 C-16.08091401 411.05074536 -16.07262909 406.19622128 -16.06024933 401.34138203 C-16.05121202 396.1061282 -16.06516201 390.87092896 -16.07616901 385.63568592 C-16.09397291 375.37940953 -16.0901059 365.12325011 -16.07851845 354.86696911 C-16.06949177 346.53286623 -16.06825682 338.19879618 -16.07261372 329.86468983 C-16.07322665 328.67938049 -16.07383958 327.49407116 -16.07447109 326.27284336 C-16.07574996 323.86505094 -16.07704682 321.45725853 -16.07836145 319.04946613 C-16.08977273 296.4616724 -16.07664493 273.87394356 -16.05515999 251.28616047 C-16.03728852 231.89693983 -16.04039248 212.50781498 -16.05883503 193.11859608 C-16.08023205 170.61265962 -16.08867404 148.10678006 -16.07638597 125.60083485 C-16.07511175 123.20180735 -16.07385427 120.80277984 -16.07261372 118.40375233 C-16.07168806 116.63311483 -16.07168806 116.63311483 -16.07074371 114.82670689 C-16.06728731 106.50081233 -16.07312541 98.17495381 -16.08253193 89.84906483 C-16.0937403 79.70515704 -16.0907363 69.56137308 -16.06940895 59.41747952 C-16.05888293 54.24004391 -16.05480319 49.06281491 -16.06800556 43.88538074 C-16.07990307 39.14807859 -16.07341054 34.41117505 -16.05209535 29.67390919 C-16.04761808 27.957981 -16.04992072 26.2420193 -16.05959851 24.52611256 C-16.07173003 22.19692114 -16.05932183 19.86910214 -16.04071522 17.5399828 C-16.04006581 16.24535114 -16.0394164 14.95071949 -16.03874731 13.61685658 C-15.29928958 8.48068002 -12.53108875 4.43339603 -8.53735065 1.13422108 C-5.42220236 0.09583831 -3.26741831 0.00581988 0 0 Z M89.46264935 73.00922108 C88.59253216 73.8883617 87.72241497 74.76750233 86.8259306 75.67328358 C84.70016743 77.82240678 82.57925046 79.97608039 80.46264935 82.13422108 C79.98489056 81.72284901 79.50713177 81.31147694 79.01489544 80.88763905 C78.07251019 80.07770496 78.07251019 80.07770496 77.11108685 79.25140858 C76.48895306 78.71628651 75.86681927 78.18116444 75.22583294 77.62982655 C70.73895161 73.82386766 67.53536203 72.55677904 61.67358685 72.79047108 C57.47247804 73.443647 54.82008187 75.42580133 52.2087431 78.71234608 C49.53648371 82.84643376 48.60779555 86.17606908 49.46264935 91.13422108 C52.32891771 97.7904841 57.91103833 102.90334493 62.90014935 108.00922108 C63.53251507 108.66406483 64.16488079 109.31890858 64.81640911 109.99359608 C69.20855518 114.36364258 73.28182334 117.73009906 79.6853056 118.34906483 C80.59602825 118.21177967 80.59602825 118.21177967 81.52514935 118.07172108 C82.13487591 117.99824451 82.74460247 117.92476795 83.3728056 117.84906483 C89.70904033 115.68171725 94.3264936 110.57753731 98.9431181 105.95453358 C99.98512119 104.91895817 99.98512119 104.91895817 101.04817486 103.86246204 C102.50877786 102.40757884 103.96679868 100.95009921 105.42236614 99.49017811 C107.64482456 97.26455345 109.88029453 95.05260198 112.11694622 92.84125233 C113.53898057 91.42149064 114.96023147 90.00094372 116.3806181 88.57953358 C117.04627285 87.92308857 117.7119276 87.26664356 118.39775372 86.59030628 C122.73823974 82.20628906 126.88654761 77.66305375 126.90014935 71.13422108 C126.71292604 66.86878567 125.27271418 64.38798036 122.46264935 61.13422108 C119.13856939 58.19666205 116.46466026 56.84069867 112.08764935 56.50922108 C102.64789346 57.14716838 95.66278475 66.68527344 89.46264935 73.00922108 Z M163.52514935 87.25922108 C161.59813962 92.47348269 161.52202346 97.85691631 163.65014935 103.00922108 C166.53987897 106.39717994 169.21625863 108.7187575 173.46264935 110.13422108 C176.18421471 110.24082967 178.88054752 110.29147252 181.60254192 110.29535389 C182.84695301 110.30280125 182.84695301 110.30280125 184.11650372 110.31039906 C186.86340443 110.32501411 189.61024738 110.33182178 192.3571806 110.33734608 C194.26666039 110.34309831 196.17614017 110.34885604 198.08561993 110.35461903 C202.09126333 110.36512731 206.09688667 110.37097103 210.10254192 110.37445545 C215.23056923 110.37993813 220.35833074 110.40396207 225.48627472 110.43242741 C229.43170726 110.45106904 233.377076 110.45626021 237.32254887 110.45779133 C239.21275249 110.46081521 241.10295506 110.46883483 242.99311543 110.48197651 C245.6404725 110.49906798 248.28718302 110.49714918 250.93457317 110.49066639 C251.7124519 110.49988117 252.49033062 110.50909595 253.29178143 110.51858997 C259.74290217 110.46920742 263.63933749 108.87649685 268.27514935 104.44672108 C270.85290851 100.5432572 271.89059364 97.79794052 271.46264935 93.13422108 C270.14277857 88.38958757 268.51924544 85.85564944 264.41064739 83.05035877 C260.16982329 80.69986343 256.47166816 80.56754131 251.7009306 80.61664295 C250.85283825 80.60963367 250.0047459 80.6026244 249.13095379 80.59540272 C246.34534626 80.57788931 243.56076606 80.58942158 240.77514935 80.60297108 C238.82893969 80.60027425 236.88273136 80.59639023 234.9365263 80.5913744 C230.86469938 80.58548836 226.79322431 80.59401348 222.72143841 80.6127367 C217.51274386 80.63552563 212.30487385 80.62239776 207.09620953 80.59844685 C203.07948928 80.5839647 199.06296321 80.58860595 195.04623699 80.59895802 C193.1261717 80.60161862 191.20608854 80.59837908 189.28604412 80.5890398 C186.59834651 80.57883432 183.91196793 80.59443059 181.2243681 80.61664295 C180.43766735 80.60854603 179.65096661 80.6004491 178.84042645 80.59210682 C172.49136259 80.68888738 167.92410914 82.4345555 163.52514935 87.25922108 Z M89.40014935 161.00922108 C88.53454388 161.8883617 87.66893841 162.76750233 86.77710247 163.67328358 C84.66520581 165.82018404 82.56069631 167.97379888 80.46264935 170.13422108 C79.91487835 169.72284901 79.36710735 169.31147694 78.80273724 168.88763905 C78.08335979 168.34768299 77.36398235 167.80772694 76.6228056 167.25140858 C75.9100346 166.71628651 75.1972636 166.18116444 74.46289349 165.62982655 C69.59584724 161.99068028 66.71351795 160.36657055 60.46264935 161.13422108 C55.52346527 163.74908324 51.97530056 167.10891864 49.46264935 172.13422108 C48.89595991 177.91445327 50.15280297 181.50920395 53.46264935 186.13422108 C56.30047995 189.38579013 59.32726688 192.41826583 62.40014935 195.44672108 C63.19872356 196.25689686 63.99729778 197.06707264 64.82007122 197.9017992 C65.59802044 198.67588123 66.37596966 199.44996326 67.1774931 200.24750233 C67.87995159 200.94657703 68.58241009 201.64565174 69.3061552 202.36591053 C73.36434641 205.69359975 77.11330656 206.36073947 82.3024931 206.59515858 C88.87725377 205.19222592 93.87537884 199.01313567 98.41577435 194.44672108 C99.15720684 193.70720203 99.89863934 192.96768299 100.66253948 192.20575428 C102.22141531 190.64823432 103.77778886 189.08820633 105.33178997 187.52582264 C107.71173906 185.13513547 110.10220513 182.75533923 112.49389935 180.37640858 C114.01016629 178.85882053 115.52581299 177.34061246 117.04077435 175.82172108 C117.75533794 175.11120594 118.46990154 174.4006908 119.20611858 173.66864491 C119.86730694 173.00115223 120.52849529 172.33365955 121.20971966 171.64593983 C121.79118755 171.06288074 122.37265545 170.47982166 122.97174358 169.87909412 C126.09577736 166.22289903 126.92489711 163.07772413 126.7712431 158.22406483 C126.13018483 153.8827209 124.24062722 150.62613816 120.88452435 147.81000233 C108.03603145 139.56265891 97.91122013 152.24063923 89.40014935 161.00922108 Z M163.46264935 176.13422108 C161.59113928 181.74875127 161.55076114 187.20522679 164.08764935 192.57172108 C167.65400106 196.41962687 171.24118094 198.24679045 176.47789288 198.52190113 C178.02208028 198.54260933 179.5665415 198.54707039 181.1108427 198.53827381 C181.95878902 198.54513706 182.80673534 198.55200031 183.68037701 198.55907154 C186.4712548 198.57730783 189.26156875 198.57350659 192.0524931 198.56781483 C194.00013187 198.57237816 195.94776903 198.57768419 197.89540386 198.58369923 C201.97314282 198.59262411 206.05068586 198.59021427 210.12842083 198.580266 C215.34496153 198.56877739 220.56082521 198.58898943 225.77727699 198.61818314 C229.79826916 198.63656002 233.81909954 198.63624969 237.84012318 198.63054562 C239.76298821 198.63039258 241.68586434 198.63642202 243.60868931 198.64883709 C246.30124106 198.66377339 248.99254772 198.65305097 251.68506145 198.63593006 C252.47333324 198.64559803 253.26160503 198.655266 254.07376385 198.66522694 C259.63101922 198.59151367 262.86343221 197.27701524 267.46264935 194.13422108 C270.44071806 190.65980758 271.81854013 186.64513474 271.58764935 182.07172108 C270.69679343 177.46290529 268.05229284 174.07264606 264.46264935 171.13422108 C260.11168327 168.90452612 255.98782409 168.84408562 251.203372 168.85956287 C250.38483242 168.85445194 249.56629284 168.84934101 248.72294903 168.8440752 C246.02412837 168.8302052 243.32556386 168.83113415 240.62671185 168.83343983 C238.74490547 168.8295512 236.86309996 168.82521618 234.98129559 168.8204546 C231.0388533 168.81299776 227.09650058 168.81327959 223.1540556 168.81854725 C218.11135409 168.8243382 213.06902032 168.8074173 208.02637959 168.78420258 C204.14008739 168.76944248 200.25388327 168.76859669 196.36756802 168.7717123 C194.50890023 168.77120014 192.65022739 168.76598214 190.79158688 168.75590038 C188.18772298 168.74351044 185.58456899 168.75034302 182.98071575 168.76190662 C182.21892513 168.75426289 181.45713451 168.74661915 180.67225933 168.73874378 C173.75255102 168.80638174 168.00013672 170.54962123 163.46264935 176.13422108 Z M99.91260052 239.44916248 C96.65189792 242.73447975 93.46187604 246.08013509 90.297122 249.45721912 C88.93061635 250.90779921 87.54841516 252.34354339 86.16577435 253.77875233 C85.35785442 254.63831532 84.5499345 255.4978783 83.71753216 256.38348866 C81.46264935 258.13422108 81.46264935 258.13422108 79.27344036 257.99017811 C77.16870253 256.99527305 75.81447429 255.82132466 74.15014935 254.19672108 C70.73796716 251.19109677 68.08390698 249.70174394 63.46264935 249.13422108 C58.8516606 249.91888264 55.56286187 251.63375566 52.52514935 255.19672108 C49.81773612 259.05273385 49.30616792 261.15120601 49.0368681 265.86859608 C50.40796814 273.1643578 57.74911336 278.85950129 62.71264935 283.88422108 C63.94434856 285.1777953 63.94434856 285.1777953 65.2009306 286.49750233 C70.07522734 291.43359681 73.41932578 294.58800415 80.46264935 295.13422108 C87.61656533 294.07701366 91.24726135 290.03356847 96.1696806 284.98578358 C96.97628628 284.1768465 97.78289196 283.36790943 98.61394024 282.53445911 C100.31152828 280.82715211 102.00309613 279.11384063 103.6889677 277.39496326 C106.27132001 274.7631238 108.87194363 272.15049914 111.47632122 269.54047108 C113.12520899 267.87749984 114.77303265 266.21347269 116.4196806 264.54828358 C117.19672848 263.76587299 117.97377636 262.98346241 118.77437115 262.17734241 C119.49239407 261.4433321 120.21041698 260.70932178 120.95019817 259.95306873 C121.89781773 258.98948948 121.89781773 258.98948948 122.86458111 258.00644398 C126.06642737 254.25530886 126.91819809 251.14823605 126.7790556 246.15765858 C126.0808939 241.69287145 123.23164165 238.90321338 120.15014935 235.82172108 C112.49126564 231.01265457 106.10045325 233.83181259 99.91260052 239.44916248 Z M163.58764935 264.25922108 C161.89780683 268.5777075 161.80303952 272.56092627 162.46264935 277.13422108 C164.66209607 281.61457552 166.96396753 283.99734721 171.46264935 286.13422108 C175.33232657 287.44510349 179.2793683 287.28925279 183.31714153 287.29535389 C184.10466808 287.30031879 184.89219463 287.3052837 185.70358562 287.31039906 C188.30557414 287.32498763 190.90750167 287.33181772 193.50952435 287.33734608 C195.32310264 287.34310093 197.13668093 287.34885862 198.95025921 287.35461903 C202.75322025 287.36512009 206.55616022 287.37096838 210.35913372 287.37445545 C215.21902213 287.37993355 220.07862944 287.40395072 224.93842983 287.43242741 C228.68578166 287.45110383 232.4330665 287.45626208 236.18046093 287.45779133 C237.97132431 287.46080787 239.7621868 287.46880252 241.55300426 287.48197651 C244.06574301 287.49913949 246.57780455 287.49713186 249.09057903 287.49066639 C250.18815029 287.50448856 250.18815029 287.50448856 251.30789471 287.51858997 C257.98506098 287.46509835 263.41900301 286.00394006 268.40014935 281.44672108 C270.8272219 277.54869546 271.76345144 274.70818232 271.46264935 270.13422108 C269.8936705 264.9042916 267.99764553 262.15755187 263.46264935 259.13422108 C260.21391662 257.50985471 256.6398403 257.96885788 253.06909466 257.95721912 C251.76638119 257.94736233 251.76638119 257.94736233 250.43735027 257.9373064 C247.55515747 257.91755078 244.67301685 257.90590521 241.79077435 257.89593983 C240.80716679 257.8918643 239.82355923 257.88778877 238.81014538 257.88358974 C233.60316966 257.86271842 228.39622037 257.84842183 223.18921185 257.83905506 C217.81110169 257.827994 212.43340566 257.79360053 207.05544186 257.75388336 C202.92042555 257.72773348 198.7855081 257.71936462 194.65041637 257.71577358 C192.66809323 257.71090269 190.68577465 257.69927442 188.70353222 257.68073559 C185.92661571 257.65638101 183.15077283 257.65730255 180.37378216 257.66425037 C179.55692944 257.65144032 178.74007671 257.63863026 177.89847088 257.62543201 C171.65789974 257.68225288 167.81656765 259.466447 163.58764935 264.25922108 Z M90.52514935 336.88422108 C89.54603742 337.87840624 88.56622518 338.87190221 87.58569622 339.86468983 C85.20438565 342.28119218 82.8303888 344.70443227 80.46264935 347.13422108 C79.99214153 346.72284901 79.52163372 346.31147694 79.0368681 345.88763905 C78.41425091 345.34768299 77.79163372 344.80772694 77.15014935 344.25140858 C76.22782513 343.44872547 76.22782513 343.44872547 75.2868681 342.62982655 C71.69573976 339.68560115 68.62541108 338.28220893 64.02514935 337.69672108 C59.03272102 338.30982631 55.42038591 339.80796939 52.13452435 343.71234608 C49.50169805 347.82845479 48.75960296 351.21289641 49.46264935 356.13422108 C52.48784433 362.49810276 56.84976521 366.97346917 61.83764935 371.88422108 C62.58014935 372.63832264 63.32264935 373.3924242 64.08764935 374.16937733 C68.89462542 378.95087473 72.9417493 382.68610653 79.90014935 383.57172108 C87.82337113 382.59869384 92.87705894 377.16658008 98.25952435 371.73578358 C98.97497417 371.02320393 99.690424 370.31062428 100.42755413 369.5764513 C101.93040838 368.07562921 103.42951824 366.57104924 104.92505169 365.06293201 C107.20906936 362.76282628 109.50868155 360.47919357 111.8103056 358.19672108 C113.27350821 356.73153634 114.73578011 355.26542143 116.19702435 353.79828358 C116.88141582 353.11996479 117.5658073 352.441646 118.27093792 351.7427721 C122.64433257 347.30454089 126.88639676 342.73546105 126.90014935 336.13422108 C126.71292604 331.86878567 125.27271418 329.38798036 122.46264935 326.13422108 C118.63080915 322.82490455 115.7820427 321.68953986 110.6853056 321.60297108 C102.08631951 323.65826476 96.44802279 330.80137874 90.52514935 336.88422108 Z M164.08764935 352.25922108 C161.68467736 356.51063304 161.8165832 360.35963472 162.46264935 365.13422108 C164.18977117 369.31567391 166.78372546 371.55897435 170.46264935 374.13422108 C174.20767428 375.38256272 177.70103302 375.28979062 181.60254192 375.29535389 C182.84695301 375.30280125 182.84695301 375.30280125 184.11650372 375.31039906 C186.86340443 375.32501411 189.61024738 375.33182178 192.3571806 375.33734608 C194.26666039 375.34309831 196.17614017 375.34885604 198.08561993 375.35461903 C202.09126333 375.36512731 206.09688667 375.37097103 210.10254192 375.37445545 C215.23056923 375.37993813 220.35833074 375.40396207 225.48627472 375.43242741 C229.43170726 375.45106904 233.377076 375.45626021 237.32254887 375.45779133 C239.21275249 375.46081521 241.10295506 375.46883483 242.99311543 375.48197651 C245.6404725 375.49906798 248.28718302 375.49714918 250.93457317 375.49066639 C251.7124519 375.49988117 252.49033062 375.50909595 253.29178143 375.51858997 C259.74290217 375.46920742 263.63933749 373.87649685 268.27514935 369.44672108 C270.85290851 365.5432572 271.89059364 362.79794052 271.46264935 358.13422108 C270.14292667 353.39011995 268.51930442 350.85592425 264.41163921 348.05035877 C260.16625951 345.69735495 256.46075954 345.56758822 251.68506145 345.61664295 C250.83536282 345.60963367 249.98566418 345.6026244 249.11021709 345.59540272 C246.31980359 345.57789098 243.53041573 345.58941992 240.7399931 345.60297108 C238.79138781 345.60027445 236.84278385 345.5963906 234.89418316 345.5913744 C230.8181602 345.58548881 226.74248875 345.59401298 222.66650677 345.6127367 C217.44874641 345.6355408 212.23180845 345.62238789 207.01407814 345.59844685 C202.99310923 345.58397645 198.97233458 345.58860031 194.95135975 345.59895802 C193.02767686 345.60162108 191.10397617 345.59837037 189.18031406 345.5890398 C186.49001647 345.57885205 183.80104203 345.59440528 181.1108427 345.61664295 C180.32054668 345.60854603 179.53025066 345.6004491 178.71600628 345.59210682 C172.3220702 345.68975278 168.85173041 347.99662223 164.08764935 352.25922108 Z " fill="#000000" transform="translate(63.53735065460205,-0.13422107696533203)"/>
<path d="M0 0 C4.04142215 -0.11662261 8.08240865 -0.1873935 12.125 -0.25 C13.26710938 -0.28351562 14.40921875 -0.31703125 15.5859375 -0.3515625 C26.36009279 -0.47684338 26.36009279 -0.47684338 31 4 C34.62955243 8.59320696 35.50044278 11.58103474 35.50336456 17.40576172 C35.50917833 18.13351114 35.51499209 18.86126057 35.52098203 19.611063 C35.53558615 22.05094204 35.52169555 24.48981571 35.50793457 26.9296875 C35.51254334 28.69600946 35.51889609 30.4623276 35.52684355 32.2286377 C35.54356335 37.08347572 35.53527844 41.9379998 35.52289867 46.79283905 C35.51386137 52.02809288 35.52781136 57.26329211 35.53881836 62.49853516 C35.55662226 72.75481154 35.55275525 83.01097096 35.5411678 93.26725197 C35.53214111 101.60135484 35.53090616 109.93542489 35.53526306 118.26953125 C35.53587599 119.45484058 35.53648893 120.64014992 35.53712043 121.86137772 C35.53839931 124.26917013 35.53969616 126.67696254 35.5410108 129.08475494 C35.55242208 151.67254868 35.53929428 174.26027752 35.51780933 196.84806061 C35.49993787 216.23728124 35.50304182 235.62640609 35.52148438 255.015625 C35.54288139 277.52156146 35.55132339 300.02744102 35.53903532 322.53338623 C35.5377611 324.93241373 35.53650362 327.33144123 35.53526306 329.73046875 C35.53433741 331.50110624 35.53433741 331.50110624 35.53339306 333.30751419 C35.52993665 341.63340875 35.53577476 349.95926727 35.54518127 358.28515625 C35.55638964 368.42906404 35.55338565 378.57284799 35.5320583 388.71674156 C35.52153228 393.89417717 35.51745253 399.07140616 35.53065491 404.24884033 C35.54255242 408.98614249 35.53605989 413.72304602 35.5147447 418.46031189 C35.51026742 420.17624008 35.51257006 421.89220178 35.52224785 423.60810852 C35.53437938 425.93729994 35.52197117 428.26511893 35.50336456 430.59423828 C35.50271515 431.88886993 35.50206574 433.18350159 35.50139666 434.5173645 C34.76193892 439.65354106 31.9937381 443.70082505 28 447 C24.88485171 448.03838276 22.73006766 448.1284012 19.46264935 448.13422108 C18.30388906 448.13867892 17.14512878 448.14313676 15.95125455 448.14772969 C14.67229096 448.14754533 13.39332736 448.14736097 12.0756073 448.14717102 C10.70785951 448.15046983 9.34011268 448.15419544 7.97236711 448.1583125 C4.20540485 448.16833841 0.43845854 448.17205023 -3.32851517 448.17470181 C-7.38792672 448.17860304 -11.44732564 448.18818141 -15.50672913 448.19691467 C-25.3135233 448.2166828 -35.12031851 448.22674511 -44.92712763 448.23564246 C-49.54322806 448.24002424 -54.15932734 448.24539128 -58.77542686 448.25063133 C-74.11621392 448.26764291 -89.45700026 448.28213816 -104.7977953 448.28938007 C-108.77934075 448.29129002 -112.76088621 448.29321035 -116.74243164 448.29516602 C-118.22685225 448.29589163 -118.22685225 448.29589163 -119.74126115 448.2966319 C-135.78050484 448.30493625 -151.81967405 448.33028032 -167.85888521 448.36274669 C-184.31877129 448.39579355 -200.77861948 448.41382663 -217.23853892 448.41702431 C-226.48316262 448.41919147 -235.72767765 448.42797019 -244.97226906 448.45348549 C-252.84351624 448.47515998 -260.71462837 448.48325893 -268.58590201 448.47351871 C-272.60287533 448.46896471 -276.61956981 448.47092373 -280.63650513 448.49028015 C-284.31364935 448.50784646 -287.99030997 448.50696786 -291.66745885 448.49138286 C-293.62833569 448.48786613 -295.58921722 448.50408168 -297.55002433 448.52098733 C-303.96783653 448.47378063 -308.17531519 448.43714647 -313 444 C-316.52175919 439.99248092 -317.12540026 436.70064871 -317.09765625 431.45703125 C-317.09443359 430.38388672 -317.09121094 429.31074219 -317.08789062 428.20507812 C-317.07951172 427.08552734 -317.07113281 425.96597656 -317.0625 424.8125 C-317.05798828 423.68134766 -317.05347656 422.55019531 -317.04882812 421.38476562 C-317.03703498 418.58979073 -317.0205765 415.7949218 -317 413 C-316.41208514 412.99940291 -315.82417028 412.99880582 -315.21843982 412.99819064 C-280.34615121 412.96226883 -245.47395618 412.90558711 -210.60174827 412.82207905 C-206.41125701 412.81206202 -202.22076536 412.80221782 -198.03027344 412.79248047 C-196.77893682 412.78956841 -196.77893682 412.78956841 -195.50232068 412.78659752 C-182.00832418 412.75560664 -168.51434468 412.73860501 -155.02031931 412.72680578 C-141.16626097 412.71437911 -127.31229156 412.68684356 -113.45828938 412.64538693 C-104.91491424 412.62029485 -96.37168667 412.60687958 -87.82827416 412.60857043 C-81.96360497 412.60860026 -76.09908571 412.5939069 -70.23447499 412.56783572 C-66.85467658 412.55323936 -63.47544271 412.54713179 -60.09558105 412.55419731 C-56.42104054 412.56085422 -52.74738818 412.54287396 -49.07293701 412.51898193 C-48.01842559 412.52674235 -46.96391416 412.53450277 -45.87744784 412.54249835 C-32.72185811 412.39178452 -22.01833816 407.5848242 -12.3125 398.875 C-1.80471192 387.85404088 -0.70048305 374.16021979 -0.7215271 359.80151367 C-0.71652037 358.24780614 -0.71064348 356.69410122 -0.70397437 355.14039993 C-0.68820595 350.88287112 -0.68474543 346.62540836 -0.68332577 342.36785388 C-0.67962621 337.77215882 -0.66446794 333.17649977 -0.65071106 328.58082581 C-0.6284519 320.62245054 -0.61343053 312.66408812 -0.60334396 304.70568848 C-0.58875005 293.19922411 -0.5632112 281.69280444 -0.53501268 270.18636632 C-0.48955765 251.51732246 -0.4529375 232.84827216 -0.421875 214.17919922 C-0.39168418 196.04539865 -0.35733146 177.91161384 -0.31738281 159.77783203 C-0.31492126 158.65981048 -0.31245972 157.54178892 -0.30992357 156.38988793 C-0.29754887 150.78102613 -0.28509236 145.17216452 -0.27259517 139.56330299 C-0.16904667 93.04222396 -0.07983704 46.52112536 0 0 Z " fill="#000000" transform="translate(429,64)"/>
</svg>
