<?xml version="1.0" encoding="UTF-8"?>
<svg version="1.1" xmlns="http://www.w3.org/2000/svg" width="512" height="512">
<path d="M0 0 C0.87698547 0.31902283 1.75397095 0.63804565 2.65753174 0.96673584 C5.29216499 1.92876975 7.91988328 2.90794773 10.546875 3.890625 C11.94961084 4.4076042 13.35258628 4.92393401 14.75585938 5.43945312 C18.18446679 6.70480828 21.60528728 7.99003184 25.02398682 9.28189087 C27.45117081 10.19892047 29.87952231 11.11280554 32.30810547 12.02612305 C36.15266971 13.47211745 39.99685125 14.9191234 43.84082031 16.36669922 C56.67999016 21.20028894 69.52445371 26.01979661 82.36901855 30.8390274 C84.67234046 31.70329965 86.97558171 32.56778658 89.27880859 33.43231201 C106.95289073 40.0657541 124.63536667 46.67581854 142.3359375 53.23828125 C143.54125563 53.68526713 143.54125563 53.68526713 144.77092361 54.14128304 C152.53449829 57.0203017 160.29873138 59.89750959 168.06582451 62.76702404 C170.9089169 63.81786899 173.75130217 64.87061725 176.59354782 65.92374992 C177.89727142 66.40628263 179.20131577 66.88794989 180.50572586 67.36862373 C186.76212002 69.6742512 193.00058022 72.02416877 199.19238281 74.49853516 C200.138172 74.87483063 201.08396118 75.2511261 202.05841064 75.63882446 C206.66484892 77.95605352 209.26282239 81.42358957 211.59757996 85.90933228 C212.93449378 90.1079547 212.83363692 94.05388349 212.8215332 98.43505859 C212.8291996 99.86769295 212.8291996 99.86769295 212.83702087 101.32926941 C212.85090655 104.48259775 212.84996075 107.63570724 212.84765625 110.7890625 C212.85154394 112.98475221 212.85587877 115.18044117 212.86064148 117.37612915 C212.86810164 121.97766559 212.86781401 126.5791253 212.86254883 131.18066406 C212.85675673 137.07082321 212.87368012 142.96066764 212.8968935 148.85077477 C212.91164238 153.38558787 212.91250091 157.9203254 212.90938377 162.45515823 C212.90989648 164.62642668 212.9151246 166.7976994 212.92519569 168.96894455 C212.93756391 172.00863699 212.93076564 175.0477193 212.91918945 178.08740234 C212.92683319 178.9801033 212.93447693 179.87280426 212.94235229 180.79255676 C212.88545842 187.56856369 211.68875302 192.27277408 207.296875 197.640625 C202.53130125 201.53973079 197.84212398 203.51679404 191.59375 203.23828125 C186.42121679 202.3597403 182.16298299 199.90600927 178.671875 196.015625 C175.14990413 190.83625607 174.2960522 186.35537623 174.31982422 180.15087891 C174.31953217 179.50626709 174.31924011 178.86165527 174.31893921 178.19750977 C174.32032185 176.08726077 174.33583189 173.97737408 174.3515625 171.8671875 C174.35529644 170.39602857 174.35814161 168.92486715 174.36013794 167.45370483 C174.36774444 163.59691402 174.387367 159.74027579 174.4095459 155.88354492 C174.43006887 151.94191552 174.43915341 148.00026127 174.44921875 144.05859375 C174.47061597 136.33586823 174.50471551 128.61326806 174.546875 120.890625 C170.31282421 122.47839091 170.31282421 122.47839091 166.07878113 124.06617737 C161.98135365 125.60273885 157.88388774 127.13919779 153.78637695 128.67553711 C144.00120127 132.34456122 134.2163443 136.01443213 124.43220901 139.68622971 C93.2464415 151.38963931 62.05894083 163.08835649 30.8512001 174.73307419 C28.93367985 175.44871927 27.01630423 176.16475059 25.09896851 176.88088989 C21.56899422 178.19904209 18.0384951 179.51577767 14.5078125 180.83203125 C13.47689987 181.21717896 12.44598724 181.60232666 11.38383484 181.99914551 C-5.25271205 188.19442052 -14.33982476 186.74530954 -30.765625 180.515625 C-32.67872199 179.80389169 -34.59231493 179.09349037 -36.50634766 178.38427734 C-41.95371726 176.35967984 -47.39217244 174.3120443 -52.82879639 172.25878906 C-56.59716535 170.83625056 -60.36695569 169.41753932 -64.13720703 168 C-75.46876967 163.7387334 -86.79861698 159.47297537 -98.12280273 155.19213867 C-113.6133678 149.33763067 -129.11446375 143.51343472 -144.640625 137.75390625 C-145.42876713 137.46150307 -146.21690926 137.16909988 -147.02893448 136.867836 C-154.65429183 134.03931218 -162.28107402 131.21466529 -169.90992165 128.39556885 C-178.43143233 125.2461209 -186.94663434 122.08045113 -195.453125 118.890625 C-196.61863892 118.45421692 -197.78415283 118.01780884 -198.98498535 117.56817627 C-202.21050205 116.35474113 -205.43039909 115.12764115 -208.6484375 113.89453125 C-209.58050018 113.54454575 -210.51256287 113.19456024 -211.47286987 112.83396912 C-216.81297551 110.76472773 -221.55832862 108.77896791 -224.81640625 103.8125 C-227.38594325 97.93323016 -228.85913159 93.14024043 -226.7578125 86.7890625 C-222.59472865 77.44836176 -214.9369286 74.52355604 -205.8671875 71.0390625 C-204.71932266 70.58748779 -203.57145782 70.13591309 -202.3888092 69.6706543 C-199.91473309 68.6991291 -197.43948397 67.7318451 -194.96102905 66.77166748 C-191.02407159 65.24644772 -187.09331377 63.70568159 -183.16333008 62.16259766 C-177.80753146 60.06108651 -172.44929889 57.96591516 -167.08935547 55.875 C-157.38542624 52.08816603 -147.70204074 48.24979039 -138.01989746 44.40765381 C-133.1720453 42.48481153 -128.32221773 40.56696363 -123.47265625 38.6484375 C-112.7025204 34.38643284 -101.93454972 30.11897187 -91.16674805 25.85107422 C-73.72081272 18.93628153 -56.27472759 12.02184631 -38.8213501 5.12585449 C-37.17553248 4.4754888 -35.52981904 3.82485941 -33.88421631 3.1739502 C-31.65489367 2.29225798 -29.42516839 1.41159255 -27.1953125 0.53125 C-26.54804199 0.27504883 -25.90077148 0.01884766 -25.23388672 -0.24511719 C-15.67592441 -4.01416115 -9.42952839 -3.55273054 0 0 Z " fill="#000000" transform="translate(263.453125,39.109375)"/>
<path d="M0 0 C3.9816694 0.67910443 7.57656829 1.85242747 11.35864258 3.26220703 C11.9786272 3.49213474 12.59861181 3.72206245 13.23738384 3.95895767 C15.29112299 4.72164966 17.34281469 5.48969789 19.39453125 6.2578125 C20.84863693 6.79911458 22.30286308 7.34009312 23.75720215 7.88076782 C27.64179262 9.32600973 31.52462719 10.77591474 35.40713882 12.22673035 C39.41451652 13.72326476 43.42355478 15.21533768 47.43237305 16.70800781 C60.9402267 21.73943861 74.44272775 26.78514372 87.9375 31.8515625 C88.85875168 32.19740387 89.78000336 32.54324524 90.72917175 32.89956665 C94.76519154 34.41539368 98.80024034 35.93370658 102.83325195 37.45751953 C106.8835697 38.98604029 110.93900391 40.50008344 115 42 C115.74038513 42.27400635 116.48077026 42.5480127 117.24359131 42.83032227 C119.52794484 43.67125666 121.81598651 44.50126767 124.10546875 45.328125 C124.7936116 45.5819696 125.48175446 45.83581421 126.19075012 46.09735107 C145.02484093 52.82596412 162.88973625 46.12584136 180.625 39.3359375 C182.08663836 38.78400033 183.5485815 38.23286969 185.01080322 37.68247986 C188.09091006 36.5212601 191.16890211 35.35467171 194.24523926 34.1835022 C199.04764506 32.35534228 203.85498073 30.54040229 208.66308594 28.72729492 C217.38434008 25.43668746 226.10105602 22.13419048 234.8164978 18.82822418 C243.93230926 15.37050589 253.04950051 11.91651044 262.171875 8.47613525 C265.19488954 7.33333362 268.21471198 6.18238445 271.234375 5.03076172 C273.03632424 4.34958008 274.83839904 3.66873043 276.640625 2.98828125 C277.84165863 2.52626564 277.84165863 2.52626564 279.06695557 2.05491638 C282.6208512 0.72170369 285.15655987 0 289 0 C289.06969267 10.14483987 289.12290883 20.28962223 289.15543652 30.43465328 C289.17105285 35.14605642 289.19221703 39.85729504 289.22631836 44.56860352 C289.25905618 49.12032742 289.2768833 53.67189366 289.28463173 58.22372627 C289.29014945 59.95515993 289.30092392 61.68658554 289.31719017 63.41795158 C289.48465444 81.9913728 289.48465444 81.9913728 284.44140625 90.6875 C280.71195463 94.22003658 276.41489851 96.52407717 271.9375 99 C271.04611328 99.50789063 270.15472656 100.01578125 269.23632812 100.5390625 C252.41284054 110 252.41284054 110 248 110 C252.13051275 125.17059292 257.61839054 138.45083817 271.72021484 147.04882812 C280.37953081 152.02049009 280.37953081 152.02049009 290 154 C291.84747938 152.59349425 291.84747938 152.59349425 293.1875 150.4375 C297.73158108 144.65596826 304.63771491 140.21603273 312 139 C324.77690644 138.18982194 334.87432512 138.97853704 345.1875 147.31640625 C352.23595484 153.86357012 356.3128838 161.84399979 357.3828125 171.4296875 C357.76237049 182.99355439 354.83364608 192.4113037 347 201 C339.66360001 208.76901326 330.84599113 211.59768865 320.3046875 212.09375 C309.83145582 211.79663704 301.30662541 208.27714416 293.890625 200.90234375 C289 195.512875 289 195.512875 289 193 C288.319375 192.92523438 287.63875 192.85046875 286.9375 192.7734375 C266.6436452 190.02081358 249.26590148 180.4282446 235 166 C234.18660156 165.19691406 233.37320312 164.39382813 232.53515625 163.56640625 C221.67027704 152.2557884 216.25681546 138.48909762 211 124 C210.14341797 124.20363159 210.14341797 124.20363159 209.26953125 124.41137695 C206.51587231 125.05792863 203.75806365 125.68501355 201 126.3125 C200.10410156 126.52583984 199.20820313 126.73917969 198.28515625 126.95898438 C186.99232242 129.49797722 175.48441304 130.66142138 164 132 C163.81419654 140.22343561 163.67227586 148.44598693 163.58550262 156.6710062 C163.54384308 160.49081903 163.48739549 164.30919056 163.39648438 168.12817383 C163.30921098 171.81766221 163.26165645 175.50576957 163.24098206 179.19621086 C163.22626061 180.60014522 163.19750958 182.0040084 163.15415955 183.40735054 C162.72491921 191.34533244 162.72491921 191.34533244 165.76309204 198.3772583 C167.75993346 200.12109027 169.78611579 201.55083634 172 203 C174.0234375 205.4765625 174.0234375 205.4765625 175.375 207.625 C176.06722656 208.69621094 176.06722656 208.69621094 176.7734375 209.7890625 C181.61872125 218.52291793 182.10350191 228.1221401 179.7578125 237.703125 C176.75288208 246.81085224 170.5603716 255.46982104 162 260 C150.54750765 264.59596752 140.53553275 265.73881951 129 261 C123.90060867 258.40118586 119.84285796 255.26984218 116 251 C115.319375 250.278125 114.63875 249.55625 113.9375 248.8125 C108.01845608 240.22033947 106.12625246 230.74624517 107.625 220.5 C109.73974039 210.63584912 114.31609691 203.496545 122 197 C122.66 196.67 123.32 196.34 124 196 C124.33 174.88 124.66 153.76 125 132 C118.73 131.34 112.46 130.68 106 130 C101.48445865 129.211806 97.03704789 128.3949112 92.5625 127.4375 C91.48935547 127.21642578 90.41621094 126.99535156 89.31054688 126.76757812 C85.18787118 125.91309744 81.07868279 125.04656279 77 124 C76.38125 125.83111328 76.38125 125.83111328 75.75 127.69921875 C66.87045108 153.30457097 51.54108801 173.35640958 26.95776367 185.37329102 C20.03608105 188.5982892 12.85619507 190.82116792 5.44140625 192.62109375 C-0.16402136 194.14297207 -2.59926215 196.4463641 -6.20703125 200.9375 C-12.18367341 207.81259164 -20.11716021 210.86648425 -29 212 C-40.81973226 212.33178196 -50.2808086 209.00178958 -59 201 C-66.64922384 192.50278528 -69.41290739 183.61066191 -69.2734375 172.2578125 C-68.47826929 162.78395125 -64.73956034 154.68649294 -58 148 C-48.08406206 139.86750414 -38.51466312 137.99741354 -25.97802734 138.78857422 C-17.00962503 139.74718153 -9.28946814 145.21711164 -3.5 151.875 C-3.005 152.57625 -2.51 153.2775 -2 154 C11.99877339 150.21344654 24.22521379 143.78863982 32 131 C35.9010516 124.14502712 38.70124553 117.79252683 40 110 C38.11861328 109.43925781 38.11861328 109.43925781 36.19921875 108.8671875 C30.38152938 106.92454157 25.16400759 104.09036908 19.8125 101.125 C18.85408203 100.60808594 17.89566406 100.09117187 16.90820312 99.55859375 C3.27037566 92.07522471 3.27037566 92.07522471 0 84 C-0.26527764 81.12452633 -0.38107781 78.47637902 -0.34057617 75.60791016 C-0.34123329 74.37764603 -0.34123329 74.37764603 -0.34190369 73.12252808 C-0.33982369 70.42779231 -0.31653024 67.73368877 -0.29296875 65.0390625 C-0.28736998 63.16434062 -0.28310121 61.28961433 -0.28010559 59.41488647 C-0.26867892 54.49273452 -0.23923049 49.57085027 -0.20599365 44.64880371 C-0.17524578 39.62137472 -0.16159018 34.59390227 -0.14648438 29.56640625 C-0.1143587 19.71082021 -0.06318871 9.85543241 0 0 Z " fill="#000000" transform="translate(112,212)"/>
</svg>
