<?xml version="1.0" encoding="UTF-8"?>
<svg version="1.1" xmlns="http://www.w3.org/2000/svg" width="512" height="512">
<path d="M0 0 C2.78713778 1.97074184 5.07297511 4.34920965 7.4296875 6.80859375 C8.10548859 7.49051285 8.78128967 8.17243195 9.47756958 8.87501526 C11.62450539 11.04881613 13.74939723 13.24285604 15.875 15.4375 C17.32679055 16.91082135 18.77990227 18.38284208 20.234375 19.85351562 C22.88130205 22.54253515 25.52647512 25.23304021 28.15185547 27.94311523 C28.67923309 28.48636948 29.20661072 29.02962372 29.74996948 29.58934021 C31.6882762 31.77671989 31.99791419 32.97549174 32.25 35.9375 C32 39 32 39 30.8125 40.8125 C28.43637488 42.36927163 26.84940381 42.8643141 24 43 C19 40 19 40 4 25 C3.67 141.82 3.34 258.64 3 379 C148.86 378.67 294.72 378.34 445 378 C439.39 372.39 433.78 366.78 428 361 C427 356 427 356 428 353.25 C430 351 430 351 433.1875 349.75 C437.24932214 350.01634899 437.63476421 350.167909 440.4296875 352.734375 C441.12634521 353.3727832 441.82300293 354.01119141 442.54077148 354.66894531 C443.35231689 355.43819336 444.1638623 356.20744141 445 357 C445.47438507 357.44742554 445.94877014 357.89485107 446.43753052 358.35583496 C449.73754121 361.47618854 452.99526194 364.63652627 456.22973633 367.82470703 C457.37464914 368.94785095 458.52579305 370.06467575 459.68286133 371.17529297 C461.37494185 372.8003958 463.04641359 374.44441662 464.71484375 376.09375 C465.48972389 376.82688416 465.48972389 376.82688416 466.28025818 377.5748291 C469.85271082 381.1681653 470.99447972 383.93863861 471 389 C470.00585938 390.97875977 470.00585938 390.97875977 468.34375 392.62890625 C467.6940625 393.29680176 467.044375 393.96469727 466.375 394.65283203 C465.59125 395.42739746 464.8075 396.20196289 464 397 C463.05925565 397.98372402 462.12196767 398.97076086 461.1875 399.96044922 C458.54770433 402.74802551 455.87030996 405.49558665 453.17529297 408.22973633 C452.05214905 409.37464914 450.93532425 410.52579305 449.82470703 411.68286133 C448.1996042 413.37494185 446.55558338 415.04641359 444.90625 416.71484375 C444.17311584 417.48972389 444.17311584 417.48972389 443.4251709 418.28025818 C439.8219424 421.86254563 437.04628247 422.84108268 432 423 C428.87007544 421.59977059 428.19393473 420.43890492 426.8125 417.3125 C427.22033542 410.10740758 434.91492088 405.07597854 439.765625 400.23046875 C440.52383545 399.47268127 440.52383545 399.47268127 441.29736328 398.69958496 C442.53143162 397.46624597 443.76569557 396.23310271 445 395 C444.04971226 394.99864347 443.09942451 394.99728694 442.12034017 394.99588931 C385.83797382 394.915371 329.55563234 394.82436655 273.27330502 394.71994839 C266.5201755 394.7074223 259.76704581 394.69499404 253.01391602 394.68261719 C252.3418906 394.68138386 251.66986518 394.68015054 250.97747536 394.67887984 C229.18661658 394.63893436 207.39575368 394.60545185 185.60487932 394.57531309 C162.58166154 394.54343485 139.558465 394.50420889 116.5352723 394.45720994 C102.739061 394.42928497 88.94286596 394.40726935 75.14663395 394.39273749 C65.69477121 394.38222097 56.24293992 394.36442584 46.79110084 394.34083296 C41.3323792 394.32742463 35.87370176 394.31729636 30.41496277 394.31578636 C25.42159692 394.31433449 20.42833764 394.30378318 15.4350045 394.28586559 C13.62470472 394.28099904 11.81439212 394.27952777 10.00408713 394.28172119 C7.55028298 394.2842071 5.09682087 394.27452154 2.64305592 394.26171303 C1.57982535 394.26718755 1.57982535 394.26718755 0.49511537 394.27277267 C-3.41141331 394.23748572 -6.6174781 394.0417331 -10 392 C-12.14472532 388.30472056 -12.25297264 384.94268089 -12.26171303 380.7312727 C-12.26917852 379.46032826 -12.27664401 378.18938382 -12.28433573 376.87992591 C-12.28255899 375.4718862 -12.28059811 374.06384672 -12.2784729 372.6558075 C-12.28347575 371.15831141 -12.28935151 369.66081803 -12.29602563 368.16332847 C-12.31184103 364.04724168 -12.31525716 359.93122312 -12.31667423 355.81510961 C-12.32036559 351.37682674 -12.33551974 346.93858141 -12.34928894 342.50032043 C-12.3715739 334.8103595 -12.38657975 327.1204119 -12.39665604 319.43042564 C-12.41123518 308.31197054 -12.43676987 297.19356189 -12.46498732 286.07513402 C-12.51046921 268.0366739 -12.54707824 249.99820711 -12.578125 231.9597168 C-12.60830482 214.43594184 -12.64265248 196.91218323 -12.68261719 179.38842773 C-12.68507874 178.30844895 -12.68754028 177.22847017 -12.69007643 176.11576476 C-12.70245092 170.69788398 -12.71490747 165.28000339 -12.72740483 159.86212289 C-12.83099354 114.90810473 -12.9201899 69.95406625 -13 25 C-13.48879639 25.50974365 -13.97759277 26.0194873 -14.48120117 26.54467773 C-16.70604471 28.85277178 -18.9464504 31.14514265 -21.1875 33.4375 C-21.95642578 34.23994141 -22.72535156 35.04238281 -23.51757812 35.86914062 C-24.26845703 36.63291016 -25.01933594 37.39667969 -25.79296875 38.18359375 C-26.4789917 38.89056396 -27.16501465 39.59753418 -27.87182617 40.32592773 C-30.3178276 42.25001076 -31.91792593 42.74542512 -35 43 C-37.75 42 -37.75 42 -40 40 C-41.25 36.8125 -41.25 36.8125 -41 33 C-36.26523237 25.85653569 -28.96472169 19.81164193 -22.90063477 13.77026367 C-21.17019863 12.04525287 -19.4452551 10.31487572 -17.72070312 8.58398438 C-16.62011271 7.48405367 -15.51921272 6.38443262 -14.41796875 5.28515625 C-13.90340622 4.76856949 -13.38884369 4.25198273 -12.85868835 3.71974182 C-8.29116507 -0.81764677 -6.4322255 -1.65529802 0 0 Z " fill="#000000" transform="translate(41,45)"/>
<path d="M0 0 C22.44 0 44.88 0 68 0 C68 22.44 68 44.88 68 68 C45.56 68 23.12 68 0 68 C0 45.56 0 23.12 0 0 Z " fill="#000000" transform="translate(282,278)"/>
<path d="M0 0 C22.44 0 44.88 0 68 0 C68 22.44 68 44.88 68 68 C45.56 68 23.12 68 0 68 C0 45.56 0 23.12 0 0 Z " fill="#000000" transform="translate(202,278)"/>
<path d="M0 0 C22.44 0 44.88 0 68 0 C68 22.44 68 44.88 68 68 C45.56 68 23.12 68 0 68 C0 45.56 0 23.12 0 0 Z " fill="#000000" transform="translate(202,198)"/>
<path d="M0 0 C22.44 0 44.88 0 68 0 C68 22.44 68 44.88 68 68 C56.965625 68.020625 45.93125 68.04125 34.5625 68.0625 C31.07373291 68.071604 27.58496582 68.08070801 23.99047852 68.09008789 C21.24495482 68.09300673 18.49943069 68.09555536 15.75390625 68.09765625 C15.0358934 68.10026962 14.31788055 68.102883 13.57810974 68.10557556 C11.47335481 68.11285571 9.36868158 68.11390733 7.26391602 68.11352539 C6.07588882 68.115746 4.88786163 68.11796661 3.66383362 68.12025452 C1 68 1 68 0 67 C-0.09417773 64.91380978 -0.11742878 62.82439523 -0.11352539 60.73608398 C-0.11364593 60.07184701 -0.11376646 59.40761003 -0.11389065 58.72324467 C-0.11314176 56.56416079 -0.10551468 54.40516227 -0.09765625 52.24609375 C-0.09664917 50.93000122 -0.09564209 49.61390869 -0.09460449 48.25793457 C-0.08935248 43.31778091 -0.07539139 38.37763963 -0.0625 33.4375 C-0.041875 22.403125 -0.02125 11.36875 0 0 Z " fill="#000000" transform="translate(122,278)"/>
<path d="M0 0 C22.44 0 44.88 0 68 0 C68 17.82 68 35.64 68 54 C45.56 54 23.12 54 0 54 C0 36.18 0 18.36 0 0 Z " fill="#000000" transform="translate(362,358)"/>
<path d="M0 0 C22.44 0 44.88 0 68 0 C68 17.82 68 35.64 68 54 C45.56 54 23.12 54 0 54 C0 36.18 0 18.36 0 0 Z " fill="#000000" transform="translate(282,358)"/>
<path d="M0 0 C22.44 0 44.88 0 68 0 C68 17.82 68 35.64 68 54 C45.56 54 23.12 54 0 54 C0 36.18 0 18.36 0 0 Z " fill="#000000" transform="translate(202,358)"/>
<path d="M0 0 C22.44 0 44.88 0 68 0 C68 17.82 68 35.64 68 54 C45.56 54 23.12 54 0 54 C0 36.18 0 18.36 0 0 Z " fill="#000000" transform="translate(122,358)"/>
<path d="M0 0 C17.82 0 35.64 0 54 0 C54 22.44 54 44.88 54 68 C36.18 68 18.36 68 0 68 C0 45.56 0 23.12 0 0 Z " fill="#000000" transform="translate(56,278)"/>
<path d="M0 0 C17.82 0 35.64 0 54 0 C54 22.44 54 44.88 54 68 C36.18 68 18.36 68 0 68 C0 45.56 0 23.12 0 0 Z " fill="#000000" transform="translate(56,198)"/>
<path d="M0 0 C17.82 0 35.64 0 54 0 C54 22.44 54 44.88 54 68 C36.18 68 18.36 68 0 68 C0 45.56 0 23.12 0 0 Z " fill="#000000" transform="translate(56,118)"/>
<path d="M0 0 C17.82 0 35.64 0 54 0 C54 17.82 54 35.64 54 54 C36.18 54 18.36 54 0 54 C0 36.18 0 18.36 0 0 Z " fill="#000000" transform="translate(56,358)"/>
</svg>
