<?xml version="1.0" standalone="no"?>
<!DOCTYPE svg PUBLIC "-//W3C//DTD SVG 20010904//EN"
 "http://www.w3.org/TR/2001/REC-SVG-20010904/DTD/svg10.dtd">
<svg version="1.0" xmlns="http://www.w3.org/2000/svg"
 width="512.000000pt" height="512.000000pt" viewBox="0 0 512.000000 512.000000"
 preserveAspectRatio="xMidYMid meet">

<g transform="translate(0.000000,512.000000) scale(0.100000,-0.100000)"
fill="#000000" stroke="none">
<path d="M3862 5012 c-67 -24 -120 -67 -152 -123 -23 -40 -25 -56 -28 -191
l-4 -148 261 0 261 0 0 131 c0 154 -10 195 -62 254 -71 81 -179 111 -276 77z"/>
<path d="M814 5009 c-59 -17 -126 -71 -158 -129 l-31 -55 -3 -1652 -2 -1653
820 0 820 0 0 43 c1 56 28 114 76 158 38 34 74 47 174 66 38 7 45 12 53 39 8
27 4 40 -32 100 -23 37 -41 61 -41 52 0 -8 -9 -27 -21 -42 l-20 -26 -263 0
c-261 0 -263 0 -284 23 -29 31 -29 77 1 105 23 21 30 22 284 22 224 0 264 -2
277 -16 15 -14 16 -11 16 29 0 78 39 131 220 305 127 121 175 160 206 170 82
24 147 10 237 -52 48 -33 56 -35 84 -26 28 10 32 17 38 63 19 145 121 247 245
247 l21 0 -1 1008 c-2 670 1 1026 8 1064 12 62 22 86 59 136 l24 32 -1388 -1
c-800 0 -1401 -5 -1419 -10z m781 -334 l25 -24 0 -302 c0 -297 0 -303 -22
-326 l-21 -23 -310 0 c-275 0 -313 2 -329 17 -17 15 -18 39 -18 330 0 300 1
314 20 333 19 19 33 20 325 20 l306 0 24 -25z m1649 -56 c32 -25 35 -75 7
-110 l-19 -24 -634 -3 c-348 -1 -643 0 -656 3 -61 15 -82 86 -37 130 l24 25
644 0 c637 0 645 0 671 -21z m-386 -436 c33 -28 33 -82 0 -113 -21 -20 -33
-20 -474 -20 -441 0 -452 0 -478 21 -33 26 -36 79 -6 109 19 19 33 20 479 20
422 0 460 -1 479 -17z m-1261 -585 l23 -21 0 -304 0 -304 -25 -24 -24 -25
-306 0 c-292 0 -306 1 -325 20 -19 19 -20 33 -20 334 0 314 0 315 22 330 19
14 68 16 327 16 299 0 305 0 328 -22z m1648 -53 c30 -29 32 -74 6 -106 l-19
-24 -644 -2 c-694 -3 -683 -4 -702 50 -13 36 2 78 34 94 19 10 171 13 663 13
l638 0 24 -25z m-400 -421 c26 -10 45 -63 34 -93 -20 -51 -12 -50 -495 -51
-442 0 -452 0 -478 21 -33 26 -35 73 -4 106 l21 23 453 0 c249 0 460 -3 469
-6z m-1246 -600 c20 -26 21 -38 21 -324 0 -286 -1 -298 -21 -324 l-20 -26
-310 0 c-296 0 -310 1 -329 20 -19 19 -20 33 -20 330 0 297 1 311 20 330 19
19 33 20 329 20 l310 0 20 -26z m866 -59 c31 -30 33 -77 5 -105 -19 -19 -33
-20 -285 -20 -252 0 -266 1 -285 20 -30 30 -27 83 6 109 25 20 39 21 281 21
l254 0 24 -25z"/>
<path d="M1067 4543 c-4 -3 -7 -93 -7 -200 l0 -193 200 0 200 0 0 200 0 200
-193 0 c-107 0 -197 -3 -200 -7z"/>
<path d="M1060 3270 l0 -200 200 0 200 0 0 200 0 200 -200 0 -200 0 0 -200z"/>
<path d="M1060 2200 l0 -200 200 0 200 0 0 200 0 200 -200 0 -200 0 0 -200z"/>
<path d="M3472 2600 c-28 -12 -45 -53 -62 -145 -7 -38 -16 -76 -20 -84 -4 -8
-34 -24 -66 -36 -33 -12 -79 -30 -104 -40 l-45 -17 -84 57 c-53 37 -94 58
-112 58 -34 0 -87 -44 -231 -191 -117 -118 -128 -143 -90 -193 10 -13 37 -51
60 -85 l42 -60 -34 -75 c-18 -41 -37 -88 -40 -105 l-7 -31 -106 -13 c-159 -19
-153 -8 -153 -267 0 -234 3 -245 68 -262 20 -5 69 -15 109 -21 71 -11 72 -12
84 -48 6 -20 25 -67 42 -105 l30 -67 -61 -91 c-34 -50 -62 -98 -62 -107 1 -30
23 -58 161 -201 166 -172 162 -171 288 -82 l84 60 31 -16 c17 -9 65 -28 106
-44 l75 -27 16 -98 c19 -114 25 -131 50 -144 10 -6 111 -10 227 -10 185 0 212
2 231 17 15 13 27 46 43 124 l22 107 40 12 c23 7 70 25 106 42 l65 29 87 -61
c54 -37 97 -60 114 -60 22 0 58 31 181 153 85 83 157 163 160 175 4 18 -9 46
-59 118 l-64 94 27 58 c16 31 34 77 41 101 15 50 23 55 128 71 94 14 116 25
130 63 5 17 10 114 10 222 0 178 -1 193 -20 210 -11 10 -64 27 -121 39 l-102
21 -27 70 c-14 39 -34 85 -44 103 l-18 34 43 61 c24 34 51 73 61 86 10 13 18
39 18 58 0 32 -14 50 -142 180 -79 80 -153 149 -165 154 -31 12 -59 0 -143
-62 -45 -32 -77 -49 -88 -46 -37 12 -192 74 -197 79 -3 3 -12 45 -21 94 -20
119 -21 122 -54 139 -23 12 -70 15 -222 14 -106 0 -203 -4 -216 -9z m313 -785
c208 -55 354 -242 355 -455 0 -131 -41 -230 -139 -333 -241 -253 -677 -146
-781 192 -108 348 213 687 565 596z"/>
<path d="M191 1233 c0 -79 6 -152 12 -170 24 -65 73 -119 133 -149 l59 -29
1083 -3 c595 -1 1082 1 1082 5 -1 42 -13 52 -77 63 -111 19 -164 56 -202 140
-17 37 -21 66 -21 163 l0 117 -1035 0 -1035 0 1 -137z"/>
</g>
</svg>
