<?xml version="1.0" encoding="UTF-8"?>
<svg version="1.1" xmlns="http://www.w3.org/2000/svg" width="512" height="512">
<path d="M0 0 C1.13385417 -0.00551503 1.13385417 -0.00551503 2.29061449 -0.01114148 C4.82529082 -0.0221605 7.35992612 -0.02601915 9.8946228 -0.02983093 C11.71147796 -0.03609699 13.52833184 -0.04274392 15.34518433 -0.04974365 C21.31396596 -0.07077164 27.28274781 -0.08114569 33.2515564 -0.09111023 C35.30802804 -0.09515842 37.36449955 -0.09927537 39.42097092 -0.10346031 C49.08414864 -0.12251015 58.74731873 -0.13674095 68.41051161 -0.14507228 C79.55586109 -0.15484068 90.70101175 -0.18115078 101.84629118 -0.22157317 C110.46641602 -0.2517615 119.08648396 -0.26654379 127.70666063 -0.26985329 C132.85236775 -0.2722009 137.99786243 -0.28112364 143.14351273 -0.30631447 C147.98791914 -0.32964733 152.83197401 -0.33380745 157.67642212 -0.32355309 C159.44927517 -0.32305886 161.22214583 -0.32934564 162.99494553 -0.34310913 C176.43243806 -0.44155185 186.90682154 1.07315383 197.1499939 10.58467102 C207.85434241 22.13409968 209.8302538 33.31237708 209.7996521 48.75410461 C209.80400754 50.10702799 209.80919344 51.4599489 209.81513977 52.81286621 C209.8284519 56.46381 209.82911717 60.11464978 209.82657647 63.76561308 C209.82550141 66.82447525 209.83040377 69.88331683 209.83518189 72.94217455 C209.84625024 80.16449395 209.84672963 87.38676132 209.84066772 94.60908508 C209.83463026 102.03507871 209.84693924 109.46088275 209.86823779 116.88684404 C209.88590822 123.28545816 209.89184659 129.68401223 209.88860005 136.08264983 C209.88679564 139.89415057 209.88933852 143.70551606 209.90331459 147.51699448 C209.91597731 151.10403759 209.91387006 154.69078721 209.9009037 158.27782631 C209.89744668 160.20436 209.90865346 162.13090302 209.92047119 164.05740356 C209.84196475 177.17124824 206.90365954 188.61814154 197.8374939 198.39717102 C186.07410193 209.47638822 171.65433194 209.44746223 156.42391968 209.42182922 C154.70794453 209.42618305 152.99197133 209.43136842 151.27600098 209.43731689 C146.63954953 209.45064594 142.0031799 209.45129239 137.36671305 209.4487536 C133.48525306 209.44767974 129.60380934 209.4525778 125.72235286 209.45735902 C116.55971157 209.46843311 107.39711129 209.46890342 98.23446655 209.46284485 C88.80615645 209.45680614 79.37799561 209.46911831 69.94971097 209.49041492 C61.83218189 209.50807139 53.71470015 209.51402591 45.59715259 209.51077718 C40.75892185 209.50897064 35.9207976 209.51153735 31.08258438 209.52549171 C26.53031342 209.5381315 21.97827401 209.5360682 17.42600632 209.52308083 C15.76365325 209.52072884 14.10128357 209.5233998 12.43894958 209.53170395 C-2.6205673 209.6014586 -16.24618184 208.08186661 -27.7250061 197.45967102 C-37.6823013 186.90731834 -38.77553939 174.3494115 -38.76553345 160.48017883 C-38.77152914 159.12064753 -38.77833706 157.76111962 -38.78588867 156.40159607 C-38.80345095 152.73193322 -38.80823992 149.06236382 -38.80952024 145.392663 C-38.81094807 143.09309752 -38.81522958 140.79355533 -38.82051468 138.49399567 C-38.8389833 130.45193999 -38.84718936 122.40995033 -38.84561157 114.36787415 C-38.84441134 106.90324679 -38.86549853 99.4389091 -38.8970989 91.97435498 C-38.9233585 85.53919039 -38.93397482 79.10411984 -38.93270075 72.66890216 C-38.93219392 68.83716541 -38.93772125 65.00568637 -38.95905685 61.1740036 C-38.97860343 57.56555315 -38.97845358 53.95760192 -38.96402359 50.34913254 C-38.96097837 48.41581006 -38.97749663 46.48248662 -38.99490356 44.54924011 C-38.9035867 31.67356284 -35.79767078 20.00958985 -26.88516235 10.44013977 C-19.16563945 3.26552437 -10.37504229 -0.00271221 0 0 Z M42.5249939 50.14717102 C42.02748927 55.04477521 42.02748927 55.04477521 44.07260132 59.34529114 C47.35303267 61.75556726 50.15746657 61.70951645 54.07577515 61.66474915 C54.83071259 61.67175842 55.58565002 61.6787677 56.36346436 61.68598938 C58.85518338 61.703573 61.34576363 61.69194613 63.8374939 61.67842102 C65.57097593 61.68111585 67.30445649 61.68499819 69.03793335 61.6900177 C72.6695089 61.69591322 76.3006907 61.68734828 79.93222046 61.6686554 C84.58643434 61.64586556 89.23972561 61.65898839 93.89390564 61.68294525 C97.47302193 61.69740193 101.0519196 61.69279789 104.63104248 61.68243408 C106.34704701 61.67976642 108.06307141 61.68303795 109.77905273 61.69235229 C112.17797386 61.7025161 114.57540264 61.68702109 116.97421265 61.66474915 C117.68290497 61.67284607 118.39159729 61.68094299 119.12176514 61.68928528 C122.45895252 61.63190744 124.25716017 61.34544501 126.96957397 59.33747864 C129.21924347 56.16954427 129.00689803 53.93356061 128.5249939 50.14717102 C126.69384183 47.53123949 125.61531023 47.17727647 122.5249939 46.14717102 C120.17533518 46.04195935 117.82277497 45.99845977 115.47079468 45.98603821 C114.39953842 45.97859085 114.39953842 45.97859085 113.30664062 45.97099304 C110.94451941 45.95639054 108.58246533 45.94957282 106.2203064 45.94404602 C104.57747394 45.93829323 102.9346415 45.93253551 101.29180908 45.92677307 C97.84691048 45.91626869 94.40203517 45.91042227 90.9571228 45.90693665 C86.54642006 45.90145145 82.13602595 45.87742069 77.72542 45.84896469 C74.33161523 45.83032688 70.93788467 45.82513212 67.54403305 45.82360077 C65.91815375 45.82057656 64.29227569 45.8125558 62.66644669 45.79941559 C60.3900539 45.78232992 58.11441336 45.78424106 55.83798218 45.79072571 C53.89630661 45.78525726 53.89630661 45.78525726 51.91540527 45.77967834 C47.99528349 46.20458727 45.33169569 47.34046923 42.5249939 50.14717102 Z M15.5249939 84.14717102 C14.3628917 86.54068597 14.3628917 86.54068597 14.5249939 89.14717102 C16.30162912 91.8427555 17.61783835 93.69359325 20.5249939 95.14717102 C22.23668065 95.25083396 23.95236662 95.29101637 25.66716003 95.30107117 C26.75652359 95.30967163 27.84588715 95.31827209 28.96826172 95.32713318 C30.16881195 95.33139313 31.36936218 95.33565308 32.60629272 95.34004211 C33.86651749 95.3482196 35.12674225 95.35639709 36.42515564 95.36482239 C40.61075704 95.39104473 44.79636846 95.40635002 48.98202515 95.42060852 C50.42258905 95.42596808 51.86315289 95.43134559 53.30371666 95.43674088 C59.29576278 95.45836974 65.2878062 95.47710672 71.27988148 95.48836327 C79.86904615 95.50460446 88.45775858 95.53778558 97.04675275 95.59476411 C103.0850379 95.63345664 109.12320205 95.65299509 115.16160792 95.65828383 C118.76861215 95.66193827 122.37513407 95.67396804 125.98200417 95.70638657 C130.00678045 95.74204263 134.03058414 95.73809823 138.05551147 95.73066711 C139.24998901 95.74707245 140.44446655 95.76347778 141.67514038 95.78038025 C148.2650601 95.914854 148.2650601 95.914854 153.8004303 92.83726501 C155.8419291 90.1709638 155.8419291 90.1709638 155.5874939 86.52217102 C154.40439801 82.76410174 153.83904618 82.06212696 150.5249939 80.14717102 C147.94596118 79.69598832 147.94596118 79.69598832 145.09762573 79.75949097 C143.99565353 79.74958633 142.89368134 79.7396817 141.75831604 79.72947693 C140.55403458 79.73397858 139.34975311 79.73848022 138.10897827 79.74311829 C136.83710159 79.73625504 135.56522491 79.72939178 134.25480652 79.72232056 C130.76927569 79.70437837 127.28399645 79.70555925 123.7984333 79.71126294 C120.88827179 79.71435286 117.97815875 79.70826464 115.06800413 79.7022242 C108.20320321 79.68817752 101.33852674 79.68974178 94.47372437 79.7011261 C87.39128951 79.71261176 80.30923312 79.69852477 73.22684813 79.67172962 C67.1451995 79.649582 61.06366976 79.64293297 54.98198366 79.64880604 C51.35000323 79.65217861 47.7182655 79.64974082 44.08631897 79.63255501 C40.03763807 79.61423318 35.98969525 79.62826305 31.94100952 79.64546204 C30.73672806 79.63579407 29.53244659 79.6261261 28.29167175 79.61616516 C26.63871346 79.63091637 26.63871346 79.63091637 24.95236206 79.64596558 C23.99520546 79.64617486 23.03804886 79.64638414 22.05188751 79.64659977 C18.77699674 80.29534737 17.60251374 81.59016718 15.5249939 84.14717102 Z M15.5249939 118.14717102 C14.3628917 120.54068597 14.3628917 120.54068597 14.5249939 123.14717102 C16.27612915 126.85978329 16.27612915 126.85978329 19.5249939 129.14717102 C21.26426392 129.25094363 23.00748282 129.29102454 24.74981689 129.30107117 C26.41127243 129.31397186 26.41127243 129.31397186 28.10629272 129.32713318 C29.32711548 129.33139313 30.54793823 129.33565308 31.80575562 129.34004211 C33.72776291 129.35230835 33.72776291 129.35230835 35.68859863 129.36482239 C39.94393815 129.39104339 44.19928752 129.40634836 48.4546814 129.42060852 C49.91879406 129.42596784 51.38290666 129.43134535 52.8470192 129.43674088 C58.93600296 129.45836818 65.02498406 129.47710606 71.11399651 129.48836327 C79.84529609 129.504611 88.57615126 129.53780977 97.30728328 129.59476411 C103.44406581 129.63343322 109.58072932 129.65299222 115.71763051 129.65828383 C119.38440301 129.66194105 123.05070155 129.67400054 126.71734238 129.70638657 C130.80697934 129.74199147 134.89565801 129.73810419 138.98544312 129.73066711 C140.20221741 129.74707245 141.4189917 129.76347778 142.67263794 129.78038025 C149.02696308 129.89317103 149.02696308 129.89317103 154.30480957 126.80210876 C155.90137186 123.32822913 155.82285712 121.7353811 154.5249939 118.14717102 C152.30210418 115.48426669 150.47419215 114.28703344 147.02131653 113.77825928 C143.73970593 113.62419837 140.48013625 113.60705827 137.19491577 113.6295929 C135.9440065 113.62258362 134.69309723 113.61557434 133.40428162 113.60835266 C129.98045645 113.59377655 126.55759976 113.59717445 123.13382912 113.609869 C119.54736677 113.62001128 115.96094521 113.61059993 112.3744812 113.60432434 C106.35214832 113.59705147 100.33001179 113.60662602 94.30770874 113.62568665 C87.34965577 113.64745491 80.39207166 113.64040327 73.43403006 113.61838102 C67.45509125 113.6002166 61.47629341 113.59767373 55.49733591 113.6081357 C51.92850976 113.61436498 48.35990384 113.61522208 44.79109192 113.60198975 C40.81223389 113.58826699 36.83389908 113.60729815 32.85507202 113.6295929 C31.67465836 113.62149597 30.49424469 113.61339905 29.27806091 113.60505676 C21.51714381 113.56811306 21.51714381 113.56811306 15.5249939 118.14717102 Z M42.5249939 152.14717102 C41.83171251 154.85478967 42.04398142 157.40425461 42.5249939 160.14717102 C44.33662657 162.82148591 45.40260467 163.10637461 48.5249939 164.14717102 C50.87465262 164.25238269 53.22721282 164.29588227 55.57919312 164.30830383 C56.65044937 164.31575119 56.65044937 164.31575119 57.74334717 164.323349 C60.10546839 164.3379515 62.46752246 164.34476922 64.8296814 164.35029602 C66.47251385 164.35604881 68.11534629 164.36180653 69.75817871 164.36756897 C73.20307732 164.37807335 76.64795262 164.38391978 80.09286499 164.3874054 C84.50356773 164.39289059 88.91396185 164.41692135 93.32456779 164.44537735 C96.71837256 164.46401516 100.11210312 164.46920992 103.50595474 164.47074127 C105.13183404 164.47376549 106.7577121 164.48178624 108.38354111 164.49492645 C110.6599339 164.51201212 112.93557444 164.51010098 115.21200562 164.50361633 C117.15368118 164.50908478 117.15368118 164.50908478 119.13458252 164.5146637 C123.0547043 164.08975477 125.7182921 162.95387281 128.5249939 160.14717102 C129.02228189 155.24922103 129.02228189 155.24922103 126.97738647 150.94805908 C123.69504994 148.53771062 120.8931469 148.592 116.97421265 148.64546204 C116.21927521 148.64005905 115.46433777 148.63465607 114.68652344 148.62908936 C112.1947796 148.61659727 109.70419018 148.63309527 107.2124939 148.65107727 C105.47901346 148.65092229 103.74553268 148.64943351 102.01205444 148.64666748 C98.38046943 148.64528328 94.74927926 148.65784486 91.11776733 148.68061829 C86.46366977 148.70900313 81.81022826 148.70626596 77.15608215 148.69352818 C73.57697958 148.68657186 69.99802854 148.69435971 66.41894531 148.7067852 C64.70294781 148.71130017 62.98693404 148.7116361 61.27093506 148.7077198 C58.87220946 148.704808 56.47438664 148.72131215 54.07577515 148.74311829 C53.36708282 148.73861664 52.6583905 148.73411499 51.92822266 148.72947693 C47.8715014 148.79072538 45.40908366 149.19508317 42.5249939 152.14717102 Z " fill="#000000" transform="translate(170.47500610351563,18.852828979492188)"/>
<path d="M0 0 C1.41570835 -0.00711957 2.83141388 -0.01482111 4.24711609 -0.02307129 C7.20315585 -0.03645236 10.15892884 -0.03811432 13.11499023 -0.03222656 C16.8705459 -0.02634202 20.62480362 -0.0568981 24.38010883 -0.09734344 C27.30157656 -0.12341774 30.22274008 -0.12608015 33.14430809 -0.12245178 C34.52717532 -0.12412527 35.91005939 -0.13359355 37.29281044 -0.15159607 C50.48496893 -0.30445595 60.54323059 2.75336753 70.12890625 12 C76.53225783 19.20092207 80.54671165 27.11894413 80.61474609 36.8503418 C80.6275058 38.09571213 80.6402655 39.34108246 80.65341187 40.62419128 C80.65647085 41.97211551 80.6586979 43.32004184 80.66015625 44.66796875 C80.66659394 46.06793856 80.67332301 47.46790706 80.68032837 48.86787415 C80.69227576 51.79891065 80.69601205 54.72982955 80.69482422 57.66088867 C80.69462169 61.38840437 80.72186594 65.11515203 80.75636864 68.84248638 C80.77878343 71.73471936 80.78265728 74.62677214 80.78160477 77.51908302 C80.7839411 78.8916061 80.79265165 80.26413568 80.8082695 81.63657188 C80.93571204 93.99710631 78.80002071 103.64402307 70.66796875 113.171875 C63.02977548 120.65730441 54.39143186 124.67328055 43.66137695 124.77514648 C41.73821404 124.79912758 41.73821404 124.79912758 39.77619934 124.82359314 C38.39247033 124.82997274 37.00873647 124.83536457 35.625 124.83984375 C34.18401506 124.84882831 32.74303097 124.85795043 31.30204773 124.86720276 C28.2870356 124.88364079 25.27213378 124.89138291 22.25708008 124.89428711 C18.42530126 124.89965502 14.59458456 124.93728973 10.76310444 124.98303127 C7.78676229 125.01302797 4.8106685 125.02001556 1.83418846 125.02101326 C0.42339418 125.02517363 -0.98740379 125.0374362 -2.39804649 125.05853081 C-15.11030453 125.23345412 -25.35518322 122.68954648 -34.703125 113.71484375 C-41.01069402 106.53295824 -44.90003828 98.62885059 -44.96630859 88.99536133 C-44.9790683 87.72997025 -44.991828 86.46457916 -45.00497437 85.1608429 C-45.00803331 83.79082392 -45.01026038 82.42080287 -45.01171875 81.05078125 C-45.01815614 79.62839121 -45.02488518 78.20600247 -45.03189087 76.78361511 C-45.04383915 73.80550066 -45.04757445 70.82750195 -45.04638672 67.84936523 C-45.04618417 64.06132048 -45.07342965 60.27403137 -45.10793114 56.48616505 C-45.13034184 53.54760944 -45.1342199 50.60923124 -45.13316727 47.67059898 C-45.13550416 46.27574764 -45.14421799 44.88088994 -45.159832 43.48612404 C-45.28054925 31.58452284 -43.52393729 21.8405899 -35.72265625 12.5390625 C-25.19533537 1.89119977 -14.49162915 -0.00893864 0 0 Z " fill="#000000" transform="translate(44.67578125,367.53125)"/>
<path d="M0 0 C1.41570835 -0.00711957 2.83141388 -0.01482111 4.24711609 -0.02307129 C7.20315585 -0.03645236 10.15892884 -0.03811432 13.11499023 -0.03222656 C16.8705459 -0.02634202 20.62480362 -0.0568981 24.38010883 -0.09734344 C27.30157656 -0.12341774 30.22274008 -0.12608015 33.14430809 -0.12245178 C34.52717532 -0.12412527 35.91005939 -0.13359355 37.29281044 -0.15159607 C50.22636473 -0.30145945 60.59808174 2.651429 70.05859375 11.73046875 C76.5902347 19.62474514 80.39810792 28.88879991 80.5012207 39.15429688 C80.52047356 40.83259583 80.52047356 40.83259583 80.54011536 42.5447998 C80.54750229 43.74689087 80.55488922 44.94898193 80.5625 46.1875 C80.57057175 47.43696411 80.57864349 48.68642822 80.58695984 49.97375488 C80.60078356 52.61991053 80.61180332 55.26594242 80.61938477 57.91210938 C80.62820687 60.60244661 80.64899577 63.29226096 80.6809082 65.98242188 C80.72385158 69.88427115 80.73979378 73.78544289 80.75 77.6875 C80.76750809 78.87339722 80.78501617 80.05929443 80.80305481 81.28112793 C80.77340017 92.87798103 78.49450202 103.86145158 70.32421875 112.46875 C69.46183594 113.39107422 69.46183594 113.39107422 68.58203125 114.33203125 C59.08266413 123.53577491 48.08579042 125.23578639 35.3203125 125.09765625 C33.90649737 125.09848781 32.49268237 125.10095797 31.07887268 125.10496521 C28.13634647 125.10780124 25.19459069 125.09333938 22.25219727 125.06567383 C18.51128314 125.03156184 14.77174103 125.03764013 11.03076077 125.0563364 C8.11787296 125.06698542 5.20529565 125.05789832 2.2924366 125.04295158 C0.91436756 125.03782909 -0.46373471 125.03817802 -1.84179878 125.04449654 C-12.78439262 125.07585754 -22.94253853 123.98153423 -31.11328125 116.03125 C-31.89574219 115.29003906 -32.67820313 114.54882812 -33.484375 113.78515625 C-36.95778565 110.11361879 -39.85287219 106.62961671 -41.86328125 101.96875 C-42.18683594 101.2365625 -42.51039063 100.504375 -42.84375 99.75 C-44.45289962 95.33805926 -44.80850659 91.15091475 -44.8527832 86.47607422 C-44.86561844 85.29069061 -44.87845367 84.10530701 -44.89167786 82.88400269 C-44.89906479 81.61001617 -44.90645172 80.33602966 -44.9140625 79.0234375 C-44.91813803 78.36876621 -44.92221355 77.71409492 -44.92641258 77.03958511 C-44.94722141 73.57098972 -44.96154269 70.10243322 -44.97094727 66.63378906 C-44.98197216 63.08003139 -45.01634036 59.52690666 -45.05611897 55.97337151 C-45.08247108 53.21584033 -45.0906556 50.45845544 -45.09422874 47.70080948 C-45.10137121 45.76284044 -45.12773033 43.82497219 -45.15461731 41.88717651 C-45.12621965 30.1974107 -42.34937072 20.7727383 -34.42578125 11.96875 C-23.50675199 2.04235977 -14.72873033 -0.00908489 0 0 Z " fill="#000000" transform="translate(238.67578125,367.53125)"/>
<path d="M0 0 C1.26539108 -0.0127597 2.53078217 -0.02551941 3.83451843 -0.03866577 C5.20453741 -0.04172472 6.57455846 -0.04395179 7.94458008 -0.04541016 C9.36697012 -0.05184755 10.78935886 -0.05857659 12.21174622 -0.06558228 C15.18986067 -0.07753055 18.16785938 -0.08126586 21.14599609 -0.08007812 C24.93404085 -0.07987558 28.72132996 -0.10712105 32.50919628 -0.14162254 C35.44775189 -0.16403325 38.38613009 -0.16791131 41.32476234 -0.16685867 C42.71961369 -0.16919557 44.11447138 -0.1779094 45.50923729 -0.19352341 C57.41083849 -0.31424066 67.15477143 1.4423713 76.45629883 9.24365234 C85.81628287 18.49767431 88.8318257 27.99141076 88.99475098 40.91267395 C88.99601874 42.26388492 88.99619477 43.61509729 88.99536133 44.96630859 C89.00248089 46.38201694 89.01018244 47.79772247 89.01843262 49.21342468 C89.03181368 52.16946445 89.03347565 55.12523743 89.02758789 58.08129883 C89.02170335 61.83685449 89.05225943 65.59111222 89.09270477 69.34641743 C89.11877907 72.26788516 89.12144148 75.18904867 89.11781311 78.11061668 C89.1194866 79.49348391 89.12895487 80.87636798 89.1469574 82.25911903 C89.2928684 94.85157392 86.66262586 105.07164714 77.76879883 114.31787109 C67.34400339 123.48951168 57.45103033 124.61752562 44.04614258 124.66162109 C42.62757788 124.67060612 41.20901404 124.67972825 39.79045105 124.6889801 C36.82251701 124.70541671 33.85469501 124.71315998 30.88671875 124.71606445 C27.11546674 124.72143199 23.34529409 124.7590656 19.57434559 124.80480862 C16.64432604 124.8348111 13.7145587 124.84179303 10.78439903 124.8427906 C9.39593265 124.84694991 8.00746244 124.85920799 6.61915016 124.88030815 C-6.01276855 125.05696732 -16.2177085 122.44899796 -25.50073242 113.53662109 C-31.83761973 106.32135337 -35.68815769 98.41191936 -35.77978516 88.74121094 C-35.79577255 87.45902679 -35.81175995 86.17684265 -35.82823181 84.85580444 C-35.83461188 83.466862 -35.84000356 82.07791472 -35.84448242 80.68896484 C-35.85346423 79.24655065 -35.86258633 77.80413732 -35.87184143 76.36172485 C-35.88829551 73.34073637 -35.89602428 70.31985818 -35.89892578 67.29882812 C-35.90428899 63.45917353 -35.941897 59.62058128 -35.98766994 55.7812252 C-36.01767036 52.80059191 -36.02465435 49.8202066 -36.02565193 46.83943558 C-36.0298132 45.42585031 -36.04207955 44.01226142 -36.06316948 42.59882736 C-36.23785255 29.87336608 -33.704393 19.62175775 -24.71948242 10.26318359 C-17.53759691 3.95561458 -9.63348926 0.06627032 0 0 Z " fill="#000000" transform="translate(423.473388671875,367.70947265625)"/>
<path d="M0 0 C0.66 -0.0103125 1.32 -0.020625 2 -0.03125 C5.09173055 0.78999093 6.09054609 1.90726593 8 4.5 C8.56430006 7.76683451 8.46482969 10.99038623 8.390625 14.296875 C8.38496521 15.24564514 8.37930542 16.19441528 8.37347412 17.17193604 C8.35110609 20.19847336 8.30090858 23.22382129 8.25 26.25 C8.22993557 28.3033683 8.2116847 30.35675519 8.1953125 32.41015625 C8.15123981 37.44056156 8.08220891 42.47007921 8 47.5 C8.86176283 47.49631283 9.72352566 47.49262566 10.61140251 47.48882675 C31.60305322 47.40039773 52.59467172 47.33425243 73.58646965 47.29275131 C83.73805312 47.272147 93.88951208 47.24406717 104.04101562 47.19824219 C112.8915265 47.15830915 121.74194717 47.1325517 130.59254563 47.12364602 C135.27667354 47.11844222 139.96054344 47.10625593 144.64458847 47.07707977 C149.05884759 47.0498084 153.47274388 47.04157856 157.88707924 47.04756927 C159.50190646 47.04647426 161.11674658 47.03859036 162.73150063 47.0231781 C174.62803081 46.91525704 184.2558547 48.09251848 193.24609375 56.57421875 C201.46821955 65.60207625 202.39623674 74.96650174 202.42553711 86.77709961 C202.43748774 89.06015705 202.48678013 91.34055427 202.53710938 93.62304688 C202.5465695 95.08332025 202.5538065 96.54361008 202.55859375 98.00390625 C202.57204834 99.32205322 202.58550293 100.6402002 202.59936523 101.99829102 C201.85132611 106.36860675 200.46991495 107.82299202 197 110.5 C193.5 111.125 193.5 111.125 190 110.5 C186.71862016 107.91514087 185.17598237 106.44804106 184.40405273 102.28955078 C184.41380127 101.10345215 184.4235498 99.91735352 184.43359375 98.6953125 C184.42263672 97.38949219 184.41167969 96.08367187 184.40039062 94.73828125 C184.41035939 93.36716794 184.42274859 91.99607019 184.4375 90.625 C185.00124577 78.73930918 185.00124577 78.73930918 180 68.5 C175.52654326 65.77989144 172.17802225 65.12094562 166.97647095 65.10127258 C166.29347471 65.09462576 165.61047847 65.08797893 164.90678537 65.08113068 C162.6312251 65.06256278 160.35619351 65.06510166 158.08056641 65.06762695 C156.4442267 65.05860597 154.80789375 65.04827792 153.17156982 65.03674316 C148.73816432 65.00918649 144.30488708 64.99989046 139.87140703 64.99388909 C135.23488828 64.98450197 130.5984652 64.95829829 125.96200562 64.93388367 C117.18614772 64.89022432 108.41030841 64.86167387 99.63437498 64.83856028 C89.64162602 64.81150561 79.64897335 64.76759424 69.65629315 64.72227156 C49.10424724 64.62943336 28.5521725 64.55774882 8 64.5 C8.02094727 65.75135742 8.04189453 67.00271484 8.06347656 68.29199219 C8.13589394 72.93608145 8.18180618 77.58012083 8.21972656 82.22460938 C8.23983805 84.23446038 8.26713115 86.24425291 8.30175781 88.25390625 C8.35029634 91.14337596 8.37297322 94.03207191 8.390625 96.921875 C8.41127014 97.81992859 8.43191528 98.71798218 8.45318604 99.64324951 C8.45542945 105.88487755 8.45542945 105.88487755 6.10058594 109.06542969 C3.83414948 110.61326565 2.71783422 111.04246616 0 111 C-0.99 111.01546875 -0.99 111.01546875 -2 111.03125 C-5.08184162 110.21263582 -6.09198896 109.07704113 -8 106.5 C-8.56257735 103.30558176 -8.46498776 100.15661868 -8.390625 96.921875 C-8.38496521 95.9953009 -8.37930542 95.06872681 -8.37347412 94.11407471 C-8.35110921 91.15885438 -8.30091262 88.20485295 -8.25 85.25 C-8.22993515 83.2448092 -8.21168435 81.23959936 -8.1953125 79.234375 C-8.151244 74.32244806 -8.08221555 69.41143058 -8 64.5 C-29.54017328 64.56052497 -51.080226 64.63801817 -72.62026405 64.73571491 C-82.62166923 64.7806815 -92.62303872 64.8200942 -102.62451172 64.84643555 C-111.3417414 64.86940861 -120.05885826 64.90279894 -128.77599847 64.94870156 C-133.39171484 64.97264308 -138.00731941 64.99136578 -142.62309647 64.99761391 C-146.96843308 65.00366054 -151.31348358 65.02364517 -155.65871429 65.05427551 C-157.25260558 65.06306248 -158.84653424 65.06677695 -160.44044876 65.06500816 C-162.6194528 65.06335371 -164.79758644 65.08006797 -166.97647095 65.10127258 C-168.19508127 65.10588155 -169.4136916 65.11049051 -170.66922951 65.11523914 C-175.80295122 65.70827165 -178.99627112 67.32759123 -182.34765625 71.2421875 C-185.61300052 77.6582434 -184.49085788 85.66564915 -184.4152832 92.68994141 C-184.40072938 94.69168817 -184.4167974 96.6935833 -184.43359375 98.6953125 C-184.42384521 99.88141113 -184.41409668 101.06750977 -184.40405273 102.28955078 C-185.17598237 106.44804106 -186.71862016 107.91514087 -190 110.5 C-193.5 111.125 -193.5 111.125 -197 110.5 C-200.4208356 107.8453069 -201.84046515 106.36914093 -202.63110352 102.06176758 C-202.63037842 100.76907959 -202.62965332 99.4763916 -202.62890625 98.14453125 C-202.63131821 97.44285324 -202.63373016 96.74117523 -202.63621521 96.01823425 C-202.63523879 94.53643129 -202.62189359 93.05459093 -202.59692383 91.57299805 C-202.56285442 89.33577332 -202.57620949 87.1025603 -202.59570312 84.86523438 C-202.5851674 73.58878266 -200.8617342 64.66567651 -192.92578125 56.25390625 C-186.14885723 50.08181926 -179.06308826 47.24582008 -169.86257935 47.25949097 C-168.819709 47.25692769 -168.819709 47.25692769 -167.75577056 47.25431263 C-165.43879896 47.25103266 -163.12212047 47.26199655 -160.80517578 47.27294922 C-159.13928738 47.27351366 -157.47339849 47.27319614 -155.80751038 47.27206421 C-151.29350308 47.27149097 -146.77960232 47.28324072 -142.26561975 47.29721212 C-137.54507648 47.30972418 -132.82453069 47.31089036 -128.10397339 47.31326294 C-119.16870113 47.3194763 -110.23347788 47.3358852 -101.29822719 47.35596192 C-91.12416516 47.37832536 -80.95010078 47.38931547 -70.77602029 47.39935279 C-49.85065285 47.42025154 -28.92532951 47.45542476 -8 47.5 C-8.02094727 46.21834961 -8.04189453 44.93669922 -8.06347656 43.61621094 C-8.13588666 38.86030249 -8.1818036 34.10444276 -8.21972656 29.34814453 C-8.23983969 27.28979295 -8.26713397 25.23149848 -8.30175781 23.17333984 C-8.35028883 20.21437487 -8.37297166 17.25616539 -8.390625 14.296875 C-8.41127014 13.37694763 -8.43191528 12.45702026 -8.45318604 11.50921631 C-8.45542963 5.11840085 -8.45542963 5.11840085 -6.10058594 1.92089844 C-3.83530989 0.38859874 -2.70915465 -0.04233054 0 0 Z " fill="#000000" transform="translate(256,242.5)"/>
</svg>
