<?xml version="1.0" encoding="UTF-8"?>
<svg version="1.1" xmlns="http://www.w3.org/2000/svg" width="512" height="512">
<path d="M0 0 C47.19 0 94.38 0 143 0 C143 46.86 143 93.72 143 142 C95.81 142 48.62 142 0 142 C0 95.14 0 48.28 0 0 Z " fill="#030104" transform="translate(181,369)"/>
<path d="M0 0 C47.19 0 94.38 0 143 0 C143 46.86 143 93.72 143 142 C95.81 142 48.62 142 0 142 C0 95.14 0 48.28 0 0 Z " fill="#030104" transform="translate(181,183)"/>
<path d="M0 0 C47.19 0 94.38 0 143 0 C143 46.86 143 93.72 143 142 C95.81 142 48.62 142 0 142 C0 95.14 0 48.28 0 0 Z " fill="#030104" transform="translate(181,1)"/>
<path d="M0 0 C46.86 0 93.72 0 142 0 C142 46.86 142 93.72 142 142 C95.14 142 48.28 142 0 142 C0 95.14 0 48.28 0 0 Z " fill="#030104" transform="translate(370,369)"/>
<path d="M0 0 C46.86 0 93.72 0 142 0 C142 46.86 142 93.72 142 142 C95.14 142 48.28 142 0 142 C0 95.14 0 48.28 0 0 Z " fill="#030104" transform="translate(0,369)"/>
<path d="M0 0 C46.86 0 93.72 0 142 0 C142 46.86 142 93.72 142 142 C95.14 142 48.28 142 0 142 C0 95.14 0 48.28 0 0 Z " fill="#030104" transform="translate(370,183)"/>
<path d="M0 0 C46.86 0 93.72 0 142 0 C142 46.86 142 93.72 142 142 C95.14 142 48.28 142 0 142 C0 95.14 0 48.28 0 0 Z " fill="#030104" transform="translate(0,183)"/>
<path d="M0 0 C46.86 0 93.72 0 142 0 C142 46.86 142 93.72 142 142 C95.14 142 48.28 142 0 142 C0 95.14 0 48.28 0 0 Z " fill="#030104" transform="translate(370,1)"/>
<path d="M0 0 C46.86 0 93.72 0 142 0 C142 46.86 142 93.72 142 142 C95.14 142 48.28 142 0 142 C0 95.14 0 48.28 0 0 Z " fill="#030104" transform="translate(0,1)"/>
</svg>
