<?xml version="1.0" encoding="UTF-8"?>
<svg version="1.1" xmlns="http://www.w3.org/2000/svg" width="512" height="512">
<path d="M0 0 C1.70288212 -0.00202665 3.40576339 -0.00494298 5.10864258 -0.00869751 C8.65877636 -0.01309308 12.20868203 -0.00677988 15.75878906 0.00732422 C20.27733019 0.02441447 24.79533646 0.01455831 29.31385803 -0.00339317 C32.82462491 -0.01430638 36.33526792 -0.01075039 39.84603882 -0.0030098 C41.51077337 -0.00102854 43.1755197 -0.00339285 44.84024048 -0.01044846 C59.50140638 -0.05897178 71.94202818 0.9309543 83.1875 11.3984375 C90.73076744 20.08133527 92.49721637 27.72666883 92.5234375 38.93359375 C92.5334227 40.42891884 92.5334227 40.42891884 92.54360962 41.95445251 C92.55369533 44.05303105 92.55842791 46.15164139 92.55810547 48.25024414 C92.56249115 51.45447441 92.59888894 54.65733995 92.63671875 57.86132812 C92.64258531 59.90624532 92.64655578 61.95116901 92.6484375 63.99609375 C92.66280853 64.9493605 92.67717957 65.90262726 92.69198608 66.88478088 C92.653057 72.56546505 92.04691475 75.92804751 88.1875 80.3984375 C70.40101086 94.25161402 43.29853805 98.02858613 21.375 97.8359375 C20.63459473 97.83289612 19.89418945 97.82985474 19.13134766 97.82672119 C7.41660512 97.75578962 -3.57361967 96.8517682 -14.8125 93.3984375 C-15.57933105 93.17349609 -16.34616211 92.94855469 -17.13623047 92.71679688 C-42.74077288 85.12484352 -42.74077288 85.12484352 -48.8125 76.3984375 C-49.72598826 73.65797273 -49.95725784 71.94788151 -50.00537109 69.11743164 C-50.02143402 68.2554567 -50.03749695 67.39348175 -50.05404663 66.50538635 C-50.09887694 62.5386759 -50.1396227 58.57213021 -50.16259766 54.60522461 C-50.17907251 52.52503201 -50.20624885 50.444894 -50.24462891 48.36499023 C-50.73634212 21.54951687 -50.73634212 21.54951687 -40.5234375 10.921875 C-28.57807859 0.28559652 -15.21538934 -0.06448755 0 0 Z " fill="#000000" transform="translate(419.8125,414.6015625)"/>
<path d="M0 0 C1.09893837 -0.00744736 1.09893837 -0.00744736 2.22007751 -0.01504517 C4.62963829 -0.0295774 7.03913317 -0.03645511 9.44873047 -0.04199219 C10.69227106 -0.04623325 10.69227106 -0.04623325 11.96093369 -0.05056 C16.3514004 -0.06551931 20.74183456 -0.07476833 25.13232422 -0.07910156 C29.63753423 -0.08456991 34.14243954 -0.10857257 38.6475544 -0.13707352 C42.13771394 -0.15582422 45.62780204 -0.16091214 49.11800766 -0.16243744 C50.77717624 -0.1654384 52.43634436 -0.17337897 54.0954628 -0.18662262 C68.42277663 -0.29279186 81.12452024 0.60077124 92.19091797 10.66113281 C92.93341797 11.48613281 93.67591797 12.31113281 94.44091797 13.16113281 C95.12154297 13.88300781 95.80216797 14.60488281 96.50341797 15.34863281 C101.55536902 22.68211014 103.05016453 29.96224235 102.97216797 38.73535156 C102.97599487 39.70342239 102.97982178 40.67149323 102.98376465 41.66889954 C102.98646677 43.69830374 102.97922586 45.72774381 102.96240234 47.75708008 C102.94089777 50.8515394 102.96229851 53.94369596 102.98779297 57.03808594 C102.98515076 59.02051289 102.980028 61.00293843 102.97216797 62.98535156 C102.98026489 63.90217209 102.98836182 64.81899261 102.9967041 65.76359558 C102.91002779 71.73141876 101.94010375 75.28209294 98.44091797 80.16113281 C96.04423856 81.88048978 94.09432641 82.96869197 91.44091797 84.16113281 C89.98878906 84.85335937 89.98878906 84.85335937 88.50732422 85.55957031 C81.87599907 88.58008142 75.26340115 90.95648987 68.25341797 92.91113281 C67.54209717 93.10956787 66.83077637 93.30800293 66.09790039 93.51245117 C63.88670849 94.10269166 61.67014204 94.64319173 59.44091797 95.16113281 C58.64210205 95.34949707 57.84328613 95.53786133 57.02026367 95.73193359 C48.71800893 97.4747763 40.44607703 97.55912057 32.00341797 97.53613281 C31.25246857 97.53558899 30.50151917 97.53504517 29.72781372 97.53448486 C17.59604877 97.49414515 6.12635686 96.66755421 -5.55908203 93.16113281 C-6.68419189 92.8237207 -6.68419189 92.8237207 -7.83203125 92.47949219 C-32.35684762 84.8721362 -32.35684762 84.8721362 -38.55908203 76.16113281 C-39.73221556 73.81486575 -39.70402818 72.37845062 -39.73608398 69.76245117 C-39.74891922 68.85067612 -39.76175446 67.93890106 -39.77497864 66.99949646 C-39.78236557 66.00998489 -39.7897525 65.02047333 -39.79736328 64.00097656 C-39.80543503 62.98193741 -39.81350677 61.96289825 -39.82182312 60.91297913 C-39.83567462 58.75002752 -39.84639199 56.58705396 -39.85424805 54.42407227 C-39.8713866 51.13612473 -39.91525487 47.84920214 -39.95947266 44.56152344 C-39.96960616 42.45801519 -39.9781202 40.35449841 -39.98486328 38.25097656 C-40.00237137 37.27563461 -40.01987946 36.30029266 -40.03791809 35.2953949 C-40.00674897 25.34622273 -36.24565159 17.46397606 -29.55908203 10.16113281 C-20.8711042 2.19414899 -11.60646808 0.06011096 0 0 Z " fill="#000000" transform="translate(39.55908203125,414.8388671875)"/>
<path d="M0 0 C0.80221481 -0.0065712 1.60442963 -0.0131424 2.43095398 -0.01991272 C5.08344628 -0.0396056 7.73588194 -0.0513021 10.38842773 -0.0612793 C11.29776503 -0.06535482 12.20710232 -0.06943035 13.14399529 -0.07362938 C17.9612289 -0.09447743 22.77843418 -0.10878215 27.59570312 -0.11816406 C32.54954114 -0.12919936 37.50292639 -0.16356952 42.45660496 -0.20333576 C46.28385703 -0.22960066 50.11100307 -0.23786484 53.93833733 -0.24144554 C55.76302063 -0.24628947 57.5876999 -0.25784017 59.41229439 -0.27648354 C74.27972898 -0.41890068 85.48911908 1.18673796 96.69311523 11.7668457 C103.82436926 19.32490795 105.62618978 28.12135692 105.54077148 38.22387695 C105.54459839 39.23871155 105.54842529 40.25354614 105.55236816 41.2991333 C105.55507133 43.42689008 105.547823 45.55468101 105.53100586 47.68237305 C105.50948418 50.93263591 105.53090859 54.18071103 105.55639648 57.4309082 C105.55375467 59.50773597 105.54863272 61.58456238 105.54077148 63.66137695 C105.54886841 64.62710632 105.55696533 65.59283569 105.56530762 66.58782959 C105.4864164 72.27064396 104.90564446 75.72855166 101.00952148 80.17700195 C98.62307681 81.75060911 96.50415413 82.97861079 93.94702148 84.17700195 C93.24730225 84.5123999 92.54758301 84.84779785 91.82666016 85.19335938 C58.43834356 100.66419918 19.91160357 101.14949714 -14.60961914 89.06567383 C-18.48469609 87.61927513 -22.25488441 86.01438453 -25.99047852 84.23950195 C-26.96936035 83.79054565 -26.96936035 83.79054565 -27.96801758 83.33251953 C-32.62114791 80.96695128 -35.14669063 77.97702667 -36.99047852 73.17700195 C-37.53298511 69.75171317 -37.52870957 66.3933258 -37.48657227 62.9309082 C-37.4880275 61.9609642 -37.48948273 60.9910202 -37.49098206 59.99168396 C-37.48932844 57.94852686 -37.47782772 55.90535661 -37.45703125 53.86230469 C-37.42809913 50.75246668 -37.43643012 47.64433846 -37.44946289 44.53442383 C-37.44322376 42.54157708 -37.43483146 40.54873567 -37.42407227 38.5559082 C-37.4270079 37.6348378 -37.42994354 36.7137674 -37.43296814 35.76478577 C-37.28371309 25.4364433 -33.37864447 17.00449079 -26.36157227 9.4152832 C-18.75764198 2.41119893 -10.10651742 0.0360513 0 0 Z " fill="#000000" transform="translate(221.990478515625,113.822998046875)"/>
<path d="M0 0 C10.17625273 8.82351823 18.43680987 19.26079411 20.3984375 32.9921875 C21.61138098 50.29371582 18.54837939 63.82382916 7.6484375 77.6796875 C-0.02149492 86.12456128 -12.17477503 93.19748739 -23.70117188 94.16918945 C-42.13475371 94.67254335 -55.29053859 91.32526501 -69.6015625 78.9921875 C-81.01747142 65.2060263 -84.70051316 51.55795436 -83.6015625 33.9921875 C-81.57641736 20.5309286 -73.87622325 8.63764043 -63.33984375 0.17578125 C-44.33174118 -13.06022734 -18.88367875 -14.5738902 0 0 Z " fill="#000000" transform="translate(472.6015625,311.0078125)"/>
<path d="M0 0 C9.93489511 8.50084031 17.52537602 19.78863942 19.4375 32.99609375 C20.2524372 47.4455571 18.14770503 58.49563757 10.4375 70.99609375 C10.01984375 71.70636719 9.6021875 72.41664063 9.171875 73.1484375 C2.32880122 83.55732985 -10.64976117 90.35682585 -22.5625 92.99609375 C-40.14434323 94.47828402 -54.37158079 91.34704182 -68.3125 80.12109375 C-77.64779787 71.64043583 -84.28885121 59.04832685 -84.8984375 46.359375 C-85.19039525 30.14854031 -82.12454616 17.62839568 -71.0625 5.18359375 C-70.2375 4.46171875 -69.4125 3.73984375 -68.5625 2.99609375 C-68.08683594 2.52945312 -67.61117187 2.0628125 -67.12109375 1.58203125 C-48.62632264 -15.79859702 -19.51220063 -15.25877884 0 0 Z " fill="#000000" transform="translate(103.5625,312.00390625)"/>
<path d="M0 0 C11.14767553 8.20191671 17.82638203 19.58935767 21 33 C22.65981239 49.0050715 19.90627586 63.03473098 10 76 C1.78975837 85.83180702 -10.24648581 93.02489825 -23 95 C-40.02959731 96.03330112 -53.71597663 92.5236289 -66.8125 81.25 C-76.06807718 72.44269864 -82.46923185 60.31906395 -83.203125 47.43359375 C-83.38794156 31.67798234 -79.80114675 20.82387864 -70.75 7.75 C-51.13257028 -11.86742972 -23.19942845 -14.81702627 0 0 Z " fill="#000000" transform="translate(287,9)"/>
<path d="M0 0 C4.01498891 3.71386475 5.68914847 6.95503565 6.5 12.3125 C6.48817823 14.38181659 6.41293013 16.45123371 6.29272461 18.51708984 C5.97326618 24.67176266 5.7590395 30.81817672 5.62616634 36.97966576 C5.53996526 40.69724682 5.40715732 44.4008029 5.16625977 48.11181641 C4.2084941 62.47947819 4.2084941 62.47947819 7.5 76.3125 C13.57486243 83.19908677 21.99903062 86.63663554 30.36141968 90.01464844 C34.29097818 91.63958173 37.854076 93.64611888 41.48046875 95.84765625 C44.62096125 97.63320135 47.76207777 99.41687377 50.91210938 101.18554688 C64.51812122 108.95192295 64.51812122 108.95192295 67.9375 114.75 C69.30884114 120.99722074 68.69489515 125.74719877 65.5 131.3125 C62.82927346 134.33323628 60.11492965 136.03042849 56.11401367 136.72924805 C47.91726666 137.02483853 42.70701863 134.38738056 35.8125 130.1875 C34.74467285 129.56311035 33.6768457 128.9387207 32.57666016 128.29541016 C30.33928859 126.98434519 28.10788851 125.66304081 25.88232422 124.33203125 C22.53098726 122.33100199 19.16226535 120.36342138 15.78515625 118.40625 C11.70186026 116.03948519 7.62417795 113.66386315 3.5546875 111.2734375 C2.24322754 110.51305176 2.24322754 110.51305176 0.90527344 109.73730469 C-0.60160153 108.84468163 -2.09165188 107.92228547 -3.55371094 106.95800781 C-5.52707646 105.62964042 -5.52707646 105.62964042 -8.5 104.3125 C-12.20562246 105.45216093 -15.48785678 107.32651069 -18.859375 109.21875 C-19.88466309 109.79302734 -20.90995117 110.36730469 -21.96630859 110.95898438 C-23.59173584 111.87647461 -23.59173584 111.87647461 -25.25 112.8125 C-26.36584473 113.43962891 -27.48168945 114.06675781 -28.63134766 114.71289062 C-35.08372764 118.35007503 -41.50079375 122.04017657 -47.875 125.8125 C-48.55473877 126.21194824 -49.23447754 126.61139648 -49.93481445 127.02294922 C-52.85333957 128.73879138 -55.75339648 130.47004238 -58.62890625 132.2578125 C-64.6379212 135.85152102 -69.47069088 137.67997652 -76.5 136.3125 C-80.98819302 134.91961251 -83.62736343 132.66816641 -86 128.625 C-87.941234 124.13171268 -88.03179517 119.95575412 -86.5 115.3125 C-83.80963535 110.46358697 -81.16833651 108.09418973 -76.375 105.375 C-75.74464844 105.01148438 -75.11429688 104.64796875 -74.46484375 104.2734375 C-73.00436425 103.43304986 -71.54019982 102.59904731 -70.07324219 101.77001953 C-66.00460144 99.46548582 -61.95955326 97.12022572 -57.91064453 94.78125 C-55.63954823 93.47028933 -53.36708802 92.16168859 -51.09326172 90.85546875 C-44.23406798 86.91245918 -37.4100143 82.92259508 -30.6875 78.75 C-26.71102941 76.3125 -26.71102941 76.3125 -24.5 76.3125 C-24.50666183 75.47169388 -24.51332367 74.63088776 -24.52018738 73.76460266 C-24.58034108 65.83418936 -24.62599605 57.90385289 -24.65543652 49.97326374 C-24.6710811 45.89622056 -24.69229708 41.81936617 -24.72631836 37.74243164 C-24.75895524 33.80668982 -24.7768621 29.8711294 -24.78463173 25.93526268 C-24.7901675 24.43497043 -24.80097761 22.93468791 -24.81719017 21.43447304 C-24.83902272 19.33020328 -24.8419646 17.22667956 -24.84057617 15.12231445 C-24.84723801 13.92540482 -24.85389984 12.72849518 -24.86076355 11.49531555 C-24.25537849 6.15434083 -21.46754421 2.78410119 -17.5 -0.6875 C-11.65323045 -2.63642318 -5.56047738 -2.68094445 0 0 Z " fill="#000000" transform="translate(265.5,242.6875)"/>
</svg>
