<?xml version="1.0" encoding="UTF-8"?>
<svg version="1.1" xmlns="http://www.w3.org/2000/svg" width="512" height="512">
<path d="M0 0 C1.51427582 0.00081573 1.51427582 0.00081573 3.05914307 0.00164795 C19.56873539 0.04241399 35.48532001 0.94970691 51.6875 4.375 C52.72938477 4.59462402 53.77126953 4.81424805 54.84472656 5.04052734 C76.16711797 9.69142871 95.98007366 17.0947666 115.6875 26.375 C115.227892 30.65694141 112.5143097 32.88295378 109.55078125 35.69921875 C109.03372116 36.20491898 108.51666107 36.7106192 107.9839325 37.23164368 C105.78015706 39.38667613 103.55937603 41.52384464 101.33911133 43.66186523 C89.40937729 54.76146772 89.40937729 54.76146772 83 69.375 C82.42578125 72.1875 82.42578125 72.1875 81.6875 74.375 C78.20785299 75.53488234 77.63270268 75.2187074 74.35546875 73.8984375 C73.48535156 73.5595752 72.61523438 73.22071289 71.71875 72.87158203 C70.7803125 72.50145996 69.841875 72.13133789 68.875 71.75 C57.66665888 67.50233563 46.44687214 64.62576036 34.6875 62.375 C33.48351562 62.14039063 32.27953125 61.90578125 31.0390625 61.6640625 C-18.32768166 53.41634979 -72.00750278 66.51969915 -112.66992188 95.45751953 C-121.45280819 101.87000475 -129.54738078 108.77347178 -137.3125 116.375 C-138.1065625 117.11878906 -138.900625 117.86257812 -139.71875 118.62890625 C-170.58121748 148.13299048 -189.39558129 191.40967056 -194.3125 233.375 C-194.42335937 234.25929687 -194.53421875 235.14359375 -194.6484375 236.0546875 C-198.68554783 274.57090231 -190.74387206 314.38445679 -172.3125 348.375 C-171.95397949 349.05046875 -171.59545898 349.7259375 -171.22607422 350.421875 C-166.29664348 359.6926029 -160.88762947 368.15318907 -154.3125 376.375 C-153.67441406 377.21675781 -153.03632813 378.05851562 -152.37890625 378.92578125 C-141.61724063 392.75022111 -128.68559204 405.35952022 -114.3125 415.375 C-113.73467773 415.7865332 -113.15685547 416.19806641 -112.56152344 416.62207031 C-103.26389939 423.22473087 -93.64789326 428.58020395 -83.3125 433.375 C-82.34425293 433.83302002 -82.34425293 433.83302002 -81.35644531 434.30029297 C-34.27796503 456.46670664 19.73530211 458.01107411 68.58203125 440.70703125 C95.80078908 430.59521701 118.77334409 415.27866229 139.6875 395.375 C140.74517578 394.39660156 140.74517578 394.39660156 141.82421875 393.3984375 C148.1765478 387.34246457 153.42028343 380.3681854 158.6875 373.375 C159.3165625 372.54097656 159.945625 371.70695312 160.59375 370.84765625 C178.14859736 346.62693525 189.41680289 318.7511284 194.6875 289.375 C194.95457764 287.89290039 194.95457764 287.89290039 195.22705078 286.38085938 C196.84450041 276.40730936 197.08665952 266.58525683 197.0625 256.5 C197.06195618 255.64327698 197.06141235 254.78655396 197.06085205 253.90386963 C196.98714446 228.57145364 192.50051535 204.14110917 182.47265625 180.7734375 C181.6875 178.375 181.6875 178.375 182.6875 175.375 C184.69140625 174.6015625 184.69140625 174.6015625 187.25 174 C204.1265831 169.27360191 216.76477974 152.44572958 228.6875 140.375 C246.00509219 155.93631963 251.19378607 195.47620463 254.6875 217.375 C254.87368896 218.53217529 255.05987793 219.68935059 255.25170898 220.8815918 C256.92784055 232.55936214 257.04467241 244.15509253 257 255.9375 C256.99784485 256.95790375 256.9956897 257.9783075 256.99346924 259.02963257 C256.94383352 273.65710524 256.69669712 288.00763838 253.6875 302.375 C253.38948486 303.83728027 253.38948486 303.83728027 253.08544922 305.32910156 C240.62536762 364.89482498 208.7351363 421.24866419 159.6875 458.375 C159.14867187 458.79023926 158.60984375 459.20547852 158.0546875 459.63330078 C126.18482453 484.13415115 89.63168759 500.62642134 50.25 508.6875 C49.53110596 508.83485596 48.81221191 508.98221191 48.0715332 509.1340332 C33.39589502 511.92340125 18.87081162 512.72392619 3.96020508 512.69067383 C1.02061513 512.6875221 -1.9179558 512.71104926 -4.85742188 512.73632812 C-18.23056192 512.78098737 -31.12666711 511.57551542 -44.3125 509.375 C-46.01805054 509.09281616 -46.01805054 509.09281616 -47.75805664 508.80493164 C-91.02552759 501.03294532 -132.07543216 481.04595309 -165.3125 452.375 C-166.05757813 451.74078125 -166.80265625 451.1065625 -167.5703125 450.453125 C-181.07529833 438.64198485 -193.74668743 425.89139772 -204.3125 411.375 C-205.16899066 410.22505169 -206.02576433 409.07531411 -206.8828125 407.92578125 C-212.92284209 399.73565742 -218.30617614 391.23120382 -223.3125 382.375 C-223.7146875 381.66778809 -224.116875 380.96057617 -224.53125 380.23193359 C-237.5566741 357.09654164 -246.30551461 331.92537591 -251.625 305.9375 C-251.77235596 305.21860596 -251.91971191 304.49971191 -252.0715332 303.7590332 C-255.04539088 288.11274391 -255.68550362 272.63931954 -255.625 256.75 C-255.62284485 255.73209381 -255.6206897 254.71418762 -255.61846924 253.66543579 C-255.56879854 239.05636477 -255.31790191 224.72424147 -252.3125 210.375 C-252.11382324 209.40014648 -251.91514648 208.42529297 -251.71044922 207.42089844 C-241.58982806 159.0390226 -219.6733123 115.05071731 -185.3125 79.375 C-184.68037598 78.71564453 -184.04825195 78.05628906 -183.39697266 77.37695312 C-174.25252521 67.88869695 -164.95515991 59.1487956 -154.3125 51.375 C-153.16144983 50.51693848 -152.01040823 49.65886549 -150.859375 48.80078125 C-142.66974019 42.76322604 -134.16711724 37.38042698 -125.3125 32.375 C-124.60528809 31.9728125 -123.89807617 31.570625 -123.16943359 31.15625 C-100.03404164 18.1308259 -74.86287591 9.38198539 -48.875 4.0625 C-48.15610596 3.91514404 -47.43721191 3.76778809 -46.6965332 3.6159668 C-31.16987908 0.66484793 -15.76936592 -0.03207988 0 0 Z " fill="#000000" transform="translate(255.3125,-0.375)"/>
<path d="M0 0 C0.71808838 -0.00067474 1.43617676 -0.00134949 2.17602539 -0.00204468 C12.95102913 0.01405583 23.15670688 0.46813769 33.625 3.25 C34.27742676 3.42160645 34.92985352 3.59321289 35.60205078 3.77001953 C47.42134708 6.95618975 58.73788476 11.6689788 69.625 17.25 C68.16246135 20.59175756 66.30256759 22.86494901 63.77709961 25.48364258 C62.98544907 26.30741898 62.19379852 27.13119537 61.37815857 27.97993469 C57.7443129 31.70289589 54.10738783 35.42253853 50.45141602 39.1237793 C48.52353582 41.07836549 46.61123081 43.0464308 44.71118164 45.02807617 C41.97000392 47.88693747 39.18828063 50.70423513 36.40234375 53.51953125 C35.55824448 54.40896927 34.7141452 55.29840729 33.84446716 56.21479797 C27.95842196 62.05961147 27.95842196 62.05961147 24.19119263 62.59750366 C21.88467583 62.36405103 19.84118011 61.91879671 17.625 61.25 C3.19277432 58.36226742 -12.57027692 59.13517312 -26.375 64.25 C-27.19484375 64.55035156 -28.0146875 64.85070312 -28.859375 65.16015625 C-31.10740205 66.08089074 -33.22543541 67.11865022 -35.375 68.25 C-36.29539062 68.71921875 -37.21578125 69.1884375 -38.1640625 69.671875 C-56.06198781 79.38392749 -69.5776106 95.629638 -75.6640625 115.171875 C-81.74039598 136.60390393 -79.79240576 158.24379974 -69.5625 178.0625 C-66.3641391 183.57578707 -62.56985812 188.46273825 -58.375 193.25 C-57.48554688 194.28253906 -57.48554688 194.28253906 -56.578125 195.3359375 C-42.22688387 210.85245035 -21.26327063 218.34832462 -0.5703125 219.21484375 C21.89348702 219.70815419 41.97436984 209.97010264 58.3125 195.0625 C74.6344061 177.86264296 80.32348075 155.64819596 79.9609375 132.59765625 C79.79469505 128.34017174 79.15513825 124.42901529 78.04931641 120.31811523 C77.53085521 117.79113894 77.36102502 115.83186421 77.625 113.25 C79.24398804 111.01628113 79.24398804 111.01628113 81.54052734 108.73510742 C82.39496429 107.87459274 83.24940125 107.01407806 84.12973022 106.12748718 C85.06402863 105.2127211 85.99832703 104.29795502 86.9609375 103.35546875 C87.92116318 102.39949388 88.88043 101.442555 89.83877563 100.48469543 C91.84721149 98.48242043 93.86362853 96.4886861 95.88671875 94.5012207 C98.48366749 91.94963574 101.06501526 89.3829551 103.64122581 86.81045055 C105.62038022 84.83571724 107.60491526 82.86647124 109.59141922 80.89913368 C111.01007857 79.49370311 112.42624028 78.08575284 113.84237671 76.67778015 C114.70311798 75.83302628 115.56385925 74.9882724 116.45068359 74.11791992 C117.58985733 72.99470589 117.58985733 72.99470589 118.75204468 71.84880066 C120.625 70.25 120.625 70.25 122.625 70.25 C140.82508949 107.14695561 145.70112033 147.14222145 132.4375 186.5 C127.52181476 200.20250612 120.7595552 212.88993499 111.625 224.25 C111.22055664 224.75982422 110.81611328 225.26964844 110.39941406 225.79492188 C87.99476625 253.88080844 55.72345743 273.38372731 19.78710938 277.95263672 C-17.37472227 281.44731792 -54.79067691 274.03856389 -84.375 250.25 C-85.13973633 249.64333496 -85.13973633 249.64333496 -85.91992188 249.02441406 C-115.47241691 225.44982469 -133.64447066 192.77389966 -138.375 155.25 C-138.61337252 150.12788019 -138.62068992 145.00210079 -138.625 139.875 C-138.62567474 139.15691162 -138.62634949 138.43882324 -138.62704468 137.69897461 C-138.61094417 126.92397087 -138.15686231 116.71829312 -135.375 106.25 C-135.20339355 105.59757324 -135.03178711 104.94514648 -134.85498047 104.27294922 C-129.40670699 84.06224036 -120.14252709 65.09463949 -106.375 49.25 C-105.67761719 48.43144531 -104.98023438 47.61289063 -104.26171875 46.76953125 C-77.60671429 16.23227037 -40.28600885 0.03386633 0 0 Z " fill="#000000" transform="translate(255.375,116.75)"/>
<path d="M0 0 C4.93780529 4.15224536 6.29179521 8.62690445 7.43359375 14.80859375 C7.72444176 16.2689136 8.01546273 17.72919902 8.30664062 19.18945312 C8.74952884 21.47063412 9.18798963 23.75257351 9.62231445 26.03540039 C10.04801355 28.25386937 10.49006256 30.46863165 10.93359375 32.68359375 C11.0566539 33.35877548 11.17971405 34.03395721 11.3065033 34.729599 C12.44371931 40.35707831 14.44469297 44.52475119 19.02929688 48.08007812 C22.37000446 49.59334911 25.69999997 50.35630661 29.28125 51.03125 C29.99478638 51.17526245 30.70832275 51.3192749 31.44348145 51.46765137 C33.71062694 51.9249981 35.97986626 52.3702411 38.25 52.8125 C41.24188085 53.39536695 44.23087752 53.99071019 47.21875 54.59375 C47.89909302 54.72197144 48.57943604 54.85019287 49.28039551 54.9822998 C54.83153163 56.10460755 58.40578402 57.71397289 62.0625 62.0625 C65.29660592 68.27887572 65.10031448 77.00044602 63.04296875 83.5703125 C61.80167055 85.7181768 60.38488556 87.44112156 58.75 89.3125 C57.88788633 90.35558515 57.02735936 91.3999827 56.16796875 92.4453125 C49.84066669 100.04552511 43.15926965 107.33189689 36.40087891 114.54833984 C34.60035573 116.47241267 32.80597675 118.40211542 31.01171875 120.33203125 C12.72482922 139.96659404 12.72482922 139.96659404 3.62109375 147.71484375 C2.36407587 148.78816382 1.12699548 149.88524088 -0.08984375 151.00390625 C-0.67894531 151.53886719 -1.26804687 152.07382813 -1.875 152.625 C-2.63683594 153.33076172 -2.63683594 153.33076172 -3.4140625 154.05078125 C-13.96423211 161.30121696 -31.63079117 155.27426017 -43.48779297 153.31835938 C-45.65739463 152.96254661 -47.82849584 152.61741852 -50 152.2734375 C-51.91039062 151.96092041 -51.91039062 151.96092041 -53.859375 151.64208984 C-58.46975928 151.19393181 -61.02712153 151.33015207 -64.70973969 154.28842831 C-65.57618355 155.1624558 -66.44262741 156.03648329 -67.33532715 156.93699646 C-67.82201417 157.42238248 -68.3087012 157.90776851 -68.81013632 158.4078632 C-70.43712624 160.03528917 -72.04938358 161.67656208 -73.66210938 163.31811523 C-74.82624995 164.48829592 -75.99129684 165.65757557 -77.15718079 166.82601929 C-79.66533786 169.34343143 -82.16709851 171.86697543 -84.66413879 174.39541435 C-88.61237062 178.39294201 -92.57525846 182.37572029 -96.54040527 186.35646057 C-104.23975819 194.09010898 -111.92426051 201.83841675 -119.60704803 209.58851624 C-129.38516177 219.45118905 -139.1691177 229.30801762 -148.96798754 239.15007168 C-152.90851778 243.10898002 -156.84123151 247.07544633 -160.76804352 251.04796016 C-163.21208515 253.51756098 -165.66228648 255.98098005 -168.11415672 258.44280624 C-169.2499773 259.58584216 -170.38319167 260.73147464 -171.51358986 261.87987328 C-173.05708486 263.44725922 -174.60960653 265.00512606 -176.16467285 266.5610199 C-177.03111671 267.43542441 -177.89756058 268.30982893 -178.79026031 269.21073055 C-183.90890522 273.58445008 -188.801621 273.75274425 -195.30859375 273.625 C-200.945346 273.02614186 -204.40888409 270.47142346 -208.125 266.25 C-211.04554179 262.21278047 -211.42643849 259.37344979 -211.5 254.5 C-211.53867188 252.97439453 -211.53867188 252.97439453 -211.578125 251.41796875 C-210.92660756 245.25182151 -207.69550382 241.38942634 -203.358078 237.18766785 C-202.86816087 236.70859319 -202.37824373 236.22951852 -201.87348062 235.73592645 C-200.24057914 234.14237341 -198.5972237 232.56004808 -196.95385742 230.97729492 C-195.77698788 229.83239827 -194.60092173 228.68667529 -193.42559814 227.54019165 C-190.8982348 225.07642658 -188.3670492 222.61667754 -185.83336449 220.15941429 C-181.82386442 216.26712381 -177.83456147 212.35457065 -173.84992981 208.43684387 C-172.83958208 207.44369078 -172.83958208 207.44369078 -171.80882329 206.43047398 C-170.43177697 205.07674222 -169.05478736 203.72295276 -167.67785323 202.36910689 C-158.40521777 193.25312781 -149.12104728 184.15009372 -139.77661133 175.10766602 C-133.46707077 169.00175103 -127.19215638 162.86249904 -120.95473367 156.68290406 C-117.65583204 153.41726373 -114.34201758 150.17095724 -110.98515892 146.96483421 C-107.8251346 143.94617398 -104.71293822 140.88529935 -101.63067627 137.78734207 C-100.49662882 136.66325587 -99.34636474 135.55524408 -98.17888832 134.46591759 C-91.95584768 128.8228712 -91.95584768 128.8228712 -88.99093843 121.21888185 C-89.02761253 116.79156513 -89.79347165 112.57221727 -90.80464518 108.27382243 C-91.48465598 105.27908572 -91.88999472 102.24991423 -92.3203125 99.2109375 C-92.84745764 95.91920893 -93.38457735 92.62928874 -93.92578125 89.33984375 C-96.58688993 72.67289994 -96.58688993 72.67289994 -92.25 65.3125 C-90.20907302 62.99048727 -88.0692193 60.87631921 -85.796875 58.78125 C-83.7229076 56.77090123 -81.86084138 54.75036812 -79.98046875 52.56640625 C-76.1148045 48.0965692 -72.00105667 43.91593621 -67.8125 39.75 C-67.10029297 39.03392578 -66.38808594 38.31785156 -65.65429688 37.58007812 C-61.61479135 33.54791049 -57.47760306 29.69767527 -53.15454102 25.97192383 C-50.17308044 23.37418155 -47.31393944 20.65018895 -44.4375 17.9375 C-38.5722087 12.45927843 -32.62370816 7.20076543 -26.25 2.3125 C-25.68667969 1.838125 -25.12335938 1.36375 -24.54296875 0.875 C-18.22832602 -3.72909394 -6.76409949 -3.54103499 0 0 Z " fill="#000000" transform="translate(448.25,1.6875)"/>
</svg>
