<?xml version="1.0" encoding="UTF-8"?>
<svg version="1.1" xmlns="http://www.w3.org/2000/svg" width="512" height="512">
<path d="M0 0 C0.76633544 -0.00453111 1.53267088 -0.00906223 2.32222861 -0.01373065 C4.88616055 -0.02637534 7.44988008 -0.02475424 10.01383972 -0.02310181 C11.85379306 -0.02908704 13.69374388 -0.03589257 15.53369141 -0.04345703 C20.52965434 -0.06112533 25.52554877 -0.06581278 30.52153993 -0.0670886 C33.6438501 -0.06851035 36.76614287 -0.07278042 39.88844872 -0.07808304 C50.78409811 -0.09658644 61.67969857 -0.10475331 72.57536316 -0.10317993 C82.7267905 -0.10197862 92.87800518 -0.12307811 103.02937871 -0.15466726 C111.74886315 -0.18083233 120.46827815 -0.19154712 129.18780154 -0.19026911 C134.39377898 -0.18975952 139.59956746 -0.19544099 144.80550575 -0.21662521 C149.70328499 -0.23601127 154.6006951 -0.23612948 159.49848747 -0.22159195 C161.29313827 -0.21950318 163.0878122 -0.22420883 164.8824234 -0.23631287 C167.33863199 -0.25180234 169.79357359 -0.24243373 172.24975586 -0.22705078 C173.30693328 -0.24248147 173.30693328 -0.24248147 174.38546783 -0.25822389 C179.77289127 -0.18401452 183.86077617 1.37208731 188.31535339 4.26742554 C192.0390385 8.18206886 193.43612866 11.23745198 193.45236778 16.59665203 C193.45744233 17.48595746 193.46251687 18.37526288 193.46774518 19.29151696 C193.46824294 20.26951329 193.4687407 21.24750963 193.46925354 22.25514221 C193.47582692 23.81247911 193.47582692 23.81247911 193.4825331 25.40127736 C193.49593995 28.89727061 193.5021042 32.39323864 193.50822449 35.88925171 C193.51612394 38.38899856 193.52439279 40.88874427 193.53300476 43.38848877 C193.55697667 50.90235383 193.57215501 58.41621474 193.58506483 65.93010494 C193.58877719 68.05256241 193.59275039 70.17501923 193.59681749 72.29747605 C193.62205441 85.47928958 193.64410625 98.66110416 193.65654564 111.84293652 C193.65947531 114.89597261 193.66243697 117.94900867 193.66545105 121.00204468 C193.6661971 121.76085646 193.66694315 122.51966824 193.66771181 123.30147431 C193.68036375 135.59204991 193.71358498 147.88248078 193.75525288 160.17298874 C193.79768729 172.7931018 193.8212424 185.4131408 193.8264662 198.03332502 C193.82987862 205.11842233 193.84161356 212.20329348 193.87456894 219.28832054 C193.90552321 225.9540321 193.91097791 232.61928076 193.89918518 239.28507614 C193.89896406 241.73120784 193.9073009 244.1773576 193.92483902 246.62342644 C193.94748876 249.96435717 193.93925354 253.30385281 193.9233551 256.64479065 C193.93723719 257.61163337 193.95111928 258.5784761 193.96542203 259.57461709 C193.8901393 266.00020488 192.57022952 270.36355903 188.31535339 275.26742554 C184.33103629 278.66342985 180.43377865 278.69832648 175.39619446 278.66183472 C174.60465214 278.66792582 173.81310982 278.67401692 172.99758136 278.68029261 C170.34831347 278.69692624 167.69952603 278.69214633 165.05021667 278.68734741 C163.14952597 278.69468756 161.24883972 278.70327363 159.34815979 278.7130127 C154.18695401 278.7352437 149.02590782 278.73815856 143.86466074 278.73626518 C139.55549604 278.73614555 135.24636524 278.74470683 130.93720996 278.7530427 C120.77042882 278.77228269 110.60372979 278.77515849 100.43693542 278.7684021 C89.95029401 278.76176135 79.46400435 278.78462581 68.97743428 278.82171583 C59.97260705 278.8524089 50.96789298 278.86377326 41.96301448 278.85987902 C36.58545076 278.85781103 31.2081607 278.86329846 25.83064651 278.88777161 C20.772748 278.91002941 15.71542139 278.90816877 10.65752029 278.88784409 C8.80278581 278.88443229 6.9480129 278.88953044 5.09333038 278.90382767 C2.55771421 278.92202297 0.02403769 278.90927054 -2.51152039 278.8888855 C-3.24256387 278.90140335 -3.97360735 278.91392119 -4.72680366 278.92681837 C-10.33266337 278.8304363 -13.78462837 277.11542439 -17.68464661 273.26742554 C-21.37950886 268.12220487 -21.10761964 263.00031269 -21.06559753 256.90548706 C-21.07027751 255.86328805 -21.07495748 254.82108905 -21.07977927 253.74730825 C-21.09174315 250.25583761 -21.0822663 246.76475846 -21.0728302 243.27328491 C-21.07689527 240.76984935 -21.08223678 238.26641559 -21.08876038 235.76298523 C-21.10102593 229.66967306 -21.09922226 223.57651448 -21.09052245 217.4832083 C-21.08374433 212.5305901 -21.08282974 207.57800297 -21.0860939 202.62538147 C-21.0865536 201.92020963 -21.0870133 201.21503779 -21.08748693 200.48849711 C-21.08844612 199.05590569 -21.08941876 197.62331428 -21.0904047 196.19072288 C-21.09895713 182.76070684 -21.0891268 169.33075225 -21.07300361 155.90074629 C-21.05960055 144.37987552 -21.06192868 132.85909545 -21.07575989 121.33822632 C-21.09181832 107.95591505 -21.09813317 94.57365762 -21.0889231 81.19133806 C-21.08796746 79.76404858 -21.08702435 78.3367591 -21.0860939 76.9094696 C-21.08563108 76.20723569 -21.08516825 75.50500177 -21.0846914 74.78148803 C-21.0821023 69.83543707 -21.08647078 64.8894203 -21.09353256 59.94337463 C-21.10283015 53.28509216 -21.09620035 46.62695449 -21.07884979 39.96867943 C-21.07487906 37.52333549 -21.07602898 35.07797716 -21.08263779 32.63263893 C-21.09081986 29.29801838 -21.08057142 25.96394931 -21.06559753 22.62936401 C-21.0722897 21.65874197 -21.07898186 20.68811992 -21.08587682 19.68808508 C-21.04024027 14.45831994 -20.62674247 10.78209351 -17.68464661 6.26742554 C-12.25116261 1.11991439 -7.32173845 -0.03187301 0 0 Z M68.87785339 92.39242554 C65.79741914 96.3734239 64.88936561 100.2733985 65.31535339 105.26742554 C66.80887704 109.09319873 66.80887704 109.09319873 69.31535339 112.26742554 C69.42852553 114.21886061 69.47219665 116.17435551 69.48893738 118.1289978 C69.50242722 119.38442886 69.51591705 120.63985992 69.52981567 121.93333435 C69.53487562 122.60912096 69.53993557 123.28490757 69.54514885 123.98117256 C69.56154495 126.09644958 69.58478762 128.21154784 69.61004639 130.32673645 C69.68082039 136.34276399 69.74064379 142.35886913 69.79216003 148.37509155 C69.82413396 152.05274663 69.86546782 155.73020402 69.91235542 159.40769768 C69.92828183 160.80496561 69.94064613 162.20227916 69.94926262 163.59961128 C69.79611826 175.85080905 69.79611826 175.85080905 74.06535339 187.07992554 C77.87388299 190.78266264 80.96963406 192.11790117 86.25285339 192.70492554 C90.67198106 192.51058531 93.91323145 191.06510958 97.31535339 188.26742554 C102.29643896 182.23769038 102.43582411 176.52383594 102.47648621 168.93612671 C102.48145111 168.22794296 102.48641602 167.51975922 102.49153137 166.79011536 C102.50605244 164.46353153 102.51293788 162.13701586 102.51847839 159.81039429 C102.52130577 159.01072046 102.52413315 158.21104664 102.5270462 157.38714027 C102.54199766 153.15574441 102.5512528 148.92438229 102.55558777 144.69296265 C102.56106827 140.34215139 102.58509893 135.99165372 102.61355972 131.64094067 C102.63226338 128.2770042 102.63739578 124.91314215 102.63892365 121.5491581 C102.64193297 119.94612221 102.64990277 118.34308708 102.66310883 116.74010277 C103.19227363 103.48736508 103.19227363 103.48736508 98.04026794 91.70069885 C93.77860866 87.73994816 89.01690804 86.55482497 83.37785339 85.95492554 C77.55877824 86.54870872 73.00717516 88.12446947 68.87785339 92.39242554 Z " fill="#000000" transform="translate(169.6846466064453,233.73257446289063)"/>
<path d="M0 0 C5.69131546 5.40674968 7.98224798 11.70513513 10.609375 18.953125 C11.16688446 20.46480255 11.16688446 20.46480255 11.73565674 22.00701904 C12.51578788 24.12701832 13.29214742 26.24840889 14.06494141 28.37109375 C15.25212469 31.63083391 16.45123034 34.88599512 17.65234375 38.140625 C18.40955232 40.20286879 19.16608662 42.2653603 19.921875 44.328125 C20.28118103 45.30517395 20.64048706 46.2822229 21.01068115 47.28887939 C21.33812317 48.19031677 21.66556519 49.09175415 22.00292969 50.02050781 C22.29286804 50.81515442 22.5828064 51.60980103 22.88153076 52.42852783 C23.5 54.375 23.5 54.375 23.5 56.375 C24.68420532 56.41258423 24.68420532 56.41258423 25.89233398 56.45092773 C77.40267377 58.10456826 77.40267377 58.10456826 84.5 65.375 C86.5779284 68.65969782 86.82594676 71.39441555 86.875 75.25 C86.90335938 76.25804688 86.93171875 77.26609375 86.9609375 78.3046875 C86.04084907 84.43341212 81.90986632 88.21572255 77.4375 92.1875 C76.468125 93.04859375 75.49875 93.9096875 74.5 94.796875 C70.79061879 97.98462447 67.00877095 101.07283131 63.203125 104.14453125 C59.66259276 107.06598199 56.26963328 110.13289139 52.88671875 113.234375 C50.14841891 115.69032968 47.33670572 118.03359211 44.5 120.375 C46.3419668 129.10010588 48.32494495 137.7770203 50.546875 146.4140625 C50.72694092 147.11778992 50.90700684 147.82151733 51.0925293 148.54656982 C52.19041192 152.83545408 52.19041192 152.83545408 53.30834961 157.11914062 C57.91088294 174.58789317 57.91088294 174.58789317 55.3125 181.5625 C52.66668433 185.66807604 50.20594492 188.80635169 45.5 190.375 C43.1171875 190.6484375 43.1171875 190.6484375 40.375 190.75 C39.48554688 190.79898438 38.59609375 190.84796875 37.6796875 190.8984375 C29.44800496 189.5433448 22.32736853 183.30866669 15.6875 178.5625 C13.93157977 177.32208078 12.17507111 176.08249412 10.41796875 174.84375 C9.57669434 174.24949219 8.73541992 173.65523437 7.86865234 173.04296875 C4.76300786 170.85602141 1.64255041 168.69618736 -1.5 166.5625 C-2.386875 165.95792969 -3.27375 165.35335937 -4.1875 164.73046875 C-6.49399337 163.37852078 -7.85618712 162.65096654 -10.5 162.375 C-13.02054128 163.54158004 -13.02054128 163.54158004 -15.578125 165.390625 C-16.56723877 166.0602124 -17.55635254 166.7297998 -18.57543945 167.41967773 C-19.62304443 168.14743408 -20.67064941 168.87519043 -21.75 169.625 C-22.82016357 170.35340088 -23.89032715 171.08180176 -24.99291992 171.83227539 C-28.17137765 173.99982852 -31.33757355 176.18414095 -34.5 178.375 C-39.42293325 181.77800378 -39.42293325 181.77800378 -41.75488281 183.38769531 C-43.09495214 184.31563131 -44.43172925 185.2483457 -45.76464844 186.18652344 C-52.02095441 190.55464958 -57.01337489 190.96952611 -64.5 190.375 C-69.10776793 188.57196037 -71.58972958 185.25536056 -74.5 181.375 C-77.00443584 173.86169249 -74.84997931 166.8257433 -72.83984375 159.453125 C-72.57111954 158.43071716 -72.30239532 157.40830933 -72.02552795 156.35491943 C-71.1721165 153.1090755 -70.30634887 149.86674331 -69.4375 146.625 C-68.28989665 142.34133096 -67.15484772 138.05462238 -66.02734375 133.765625 C-65.62587379 132.29213593 -65.62587379 132.29213593 -65.21629333 130.78887939 C-64.97596878 129.87402771 -64.73564423 128.95917603 -64.48803711 128.01660156 C-64.27263779 127.2146637 -64.05723846 126.41272583 -63.83531189 125.58648682 C-63.46534516 123.14644046 -63.64666433 121.67962444 -64.5 119.375 C-66.41873305 117.23632993 -66.41873305 117.23632993 -68.875 115.1875 C-69.77992188 114.39988281 -70.68484375 113.61226563 -71.6171875 112.80078125 C-75.30025827 109.70161195 -79.02845757 106.66155198 -82.76953125 103.6328125 C-86.3220649 100.69523818 -89.73440403 97.62101115 -93.13671875 94.51171875 C-95.99725608 91.92541475 -98.93891275 89.44311544 -101.90625 86.98046875 C-105.36301189 83.49828949 -105.81373403 80.31550527 -105.875 75.5 C-105.77363418 70.29233093 -105.19948398 67.26919367 -101.5 63.375 C-96.04797476 58.68044515 -90.82996888 58.56222428 -83.8125 58.1875 C-82.6879541 58.11418457 -81.5634082 58.04086914 -80.40478516 57.96533203 C-67.7823739 57.18220882 -55.14025445 56.74846379 -42.5 56.375 C-42.32286469 55.76352112 -42.14572937 55.15204224 -41.96322632 54.52203369 C-40.20728476 48.55298859 -38.25565233 42.69561785 -36.1015625 36.859375 C-35.78472504 35.99991272 -35.46788757 35.14045044 -35.14144897 34.25494385 C-34.47606084 32.45605039 -33.80877428 30.65785807 -33.13964844 28.86035156 C-32.46131104 27.03164796 -31.78848426 25.20089111 -31.12109375 23.36816406 C-30.14728829 20.6940179 -29.15755992 18.02625845 -28.1640625 15.359375 C-27.8711734 14.54676208 -27.5782843 13.73414917 -27.27651978 12.89691162 C-25.14353914 7.25233187 -22.64649659 2.56112012 -17.5546875 -0.9765625 C-11.8006742 -2.79246784 -5.41849302 -2.5157289 0 0 Z " fill="#000000" transform="translate(265.5,1.625)"/>
<path d="M0 0 C1.33347725 -0.002062 1.33347725 -0.002062 2.69389343 -0.00416565 C4.1450631 0.00122726 4.1450631 0.00122726 5.62554932 0.00672913 C6.65025833 0.0065831 7.67496735 0.00643707 8.73072815 0.00628662 C12.11789059 0.00698331 15.50499804 0.01476437 18.89215088 0.02259827 C21.24055959 0.02446331 23.58896869 0.02588681 25.93737793 0.02688599 C32.11874465 0.03070436 38.30008788 0.04052887 44.48144531 0.05158997 C50.78891685 0.06181868 57.09639219 0.06638674 63.40386963 0.07142639 C75.78018203 0.08215172 88.156477 0.09922002 100.53277588 0.12025452 C100.5377411 1.19782469 100.5377411 1.19782469 100.54280663 2.29716396 C100.62412926 19.80027819 100.71625191 37.30330247 100.82030296 54.80629635 C100.87036312 63.27071271 100.91680665 71.7351197 100.95465088 80.19960022 C100.98765627 87.57972263 101.02753436 94.95977092 101.07556593 102.33981138 C101.10074619 106.24522375 101.12255218 110.15058748 101.13611984 114.05605888 C101.14901751 117.7373533 101.17115366 121.41848023 101.20015907 125.09968185 C101.21345081 127.08389801 101.21714139 129.06817133 101.22047424 131.0524292 C101.28258373 137.72192928 101.79110323 143.67443875 103.53277588 150.12025452 C89.16386229 150.21377176 74.79499601 150.28400372 60.42584038 150.3275032 C53.75368264 150.34838051 47.08176903 150.37670136 40.409729 150.42201233 C33.97121292 150.46546391 27.53289349 150.48939057 21.0942421 150.49976349 C18.63743112 150.507156 16.18063095 150.5215917 13.72390366 150.54317474 C10.28349268 150.57219849 6.84389499 150.57621079 3.40338135 150.57435608 C2.38702103 150.58873718 1.37066071 150.60311829 0.32350159 150.61793518 C-5.43482687 150.58433039 -9.03144429 150.1695565 -13.46722412 146.12025452 C-18.63882896 140.66030529 -18.03372189 134.79307867 -17.98480225 127.69252014 C-17.99181152 126.44307114 -17.9988208 125.19362213 -18.00604248 123.90631104 C-18.02060385 120.49074056 -18.01723015 117.07614277 -18.00452614 113.66062737 C-17.99437201 110.07997746 -18.00379849 106.49936803 -18.0100708 102.91871643 C-18.01734023 96.9065559 -18.00777817 90.89459217 -17.9887085 84.88246155 C-17.9669409 77.93974426 -17.97399278 70.99749688 -17.99601412 64.05479097 C-18.01418837 58.08515807 -18.01671662 52.11566633 -18.00625944 46.14601469 C-18.00003555 42.58443726 -17.99915816 39.02308044 -18.0124054 35.46151733 C-18.02614608 31.49015656 -18.00708099 27.51931867 -17.98480225 23.54798889 C-17.99289917 22.37274155 -18.00099609 21.1974942 -18.00933838 19.9866333 C-17.9442189 13.7225171 -17.71703581 9.85808988 -13.46722412 5.12025452 C-9.08136692 1.0633366 -5.86676034 -0.00701766 0 0 Z " fill="#000000" transform="translate(17.46722412109375,361.87974548339844)"/>
<path d="M0 0 C13.81279606 -0.11701087 27.62551481 -0.20474178 41.43870544 -0.25906086 C47.8530295 -0.28513381 54.26702015 -0.32049109 60.68115234 -0.37719727 C66.87330392 -0.43159722 73.06513518 -0.46143786 79.25750732 -0.47438622 C81.6177881 -0.4836116 83.9780517 -0.50162676 86.3381958 -0.52865028 C89.64902375 -0.56504513 92.95853485 -0.56994076 96.26953125 -0.56762695 C97.24129807 -0.58560333 98.21306488 -0.60357971 99.21427917 -0.62210083 C105.68745204 -0.57327868 110.06237305 0.70771212 115 5 C118.53331309 9.08633773 118.43372761 13.27669116 118.40405273 18.45874023 C118.41091599 19.29839325 118.41777924 20.13804626 118.42485046 21.00314331 C118.44311427 23.77180003 118.43928156 26.53988986 118.43359375 29.30859375 C118.4381558 31.23763717 118.44346145 33.16667896 118.44947815 35.09571838 C118.45840847 39.13655199 118.45598706 43.17718796 118.44604492 47.21801758 C118.43455625 52.39096862 118.45476562 57.56323693 118.48396206 62.73609829 C118.5023268 66.71930764 118.50203103 70.70235348 118.49632454 74.68559456 C118.49617135 76.59253967 118.50221342 78.49949589 118.51461601 80.40640068 C118.52952916 83.07532185 118.5188469 85.74298293 118.50170898 88.41186523 C118.51137695 89.19595261 118.52104492 89.98003998 118.53100586 90.78788757 C118.46159137 95.96216409 117.49420167 98.95475399 114 103 C108.74534297 107.79683257 103.87881211 107.5496032 97.12939453 107.45410156 C96.04587204 107.45468567 94.96234955 107.45526978 93.84599304 107.45587158 C90.27460382 107.45309112 86.70405543 107.42199938 83.1328125 107.390625 C80.65274512 107.38316252 78.17267183 107.37746962 75.69259644 107.37347412 C69.17244115 107.35821859 62.65264358 107.31893674 56.13262939 107.2746582 C49.47650906 107.23153662 42.82028451 107.21546276 36.1640625 107.1953125 C23.10922259 107.15244301 10.05463034 107.08496349 -3 107 C-2.67657623 105.72161758 -2.35315247 104.44323517 -2.01992798 103.12611389 C-0.89513314 98.03845856 -0.69384737 93.17737209 -0.68115234 87.98217773 C-0.67110672 87.02501358 -0.6610611 86.06784943 -0.65071106 85.0816803 C-0.62006371 81.94899034 -0.60289552 78.81638511 -0.5859375 75.68359375 C-0.567211 73.49926534 -0.54763649 71.31494406 -0.5272522 69.13063049 C-0.47608165 63.40477714 -0.43637542 57.67890037 -0.39910889 51.95294189 C-0.35897445 46.1007312 -0.30792529 40.24861663 -0.2578125 34.39648438 C-0.16123183 22.93105727 -0.07677019 11.46557568 0 0 Z " fill="#000000" transform="translate(394,405)"/>
</svg>
