<?xml version="1.0" encoding="UTF-8"?>
<svg version="1.1" xmlns="http://www.w3.org/2000/svg" width="512" height="512">
<path d="M0 0 C0.76151367 0.00249756 1.52302734 0.00499512 2.30761719 0.00756836 C3.74089355 0.02122437 3.74089355 0.02122437 5.203125 0.03515625 C9.781875 0.06609375 9.781875 0.06609375 14.453125 0.09765625 C14.453125 8.67765625 14.453125 17.25765625 14.453125 26.09765625 C9.173125 26.42765625 3.893125 26.75765625 -1.546875 27.09765625 C-1.876875 90.45765625 -2.206875 153.81765625 -2.546875 219.09765625 C110.973125 219.09765625 224.493125 219.09765625 341.453125 219.09765625 C341.30875 187.60328125 341.164375 156.10890625 341.015625 123.66015625 C340.97252197 113.69771729 340.92941895 103.73527832 340.88500977 93.47094727 C340.84177986 84.57878546 340.84177986 84.57878546 340.79722595 75.68663025 C340.77734107 71.71084802 340.76026896 67.73506413 340.74485779 63.75926208 C340.72514858 58.69797427 340.70073541 53.63673027 340.67281902 48.5754813 C340.66335771 46.71169539 340.65559187 44.84789998 340.64965546 42.98409951 C340.64144052 40.47902081 340.62719735 37.97404961 340.61134338 35.4690094 C340.6103662 34.72896132 340.60938902 33.98891325 340.60838223 33.22643948 C340.87367404 29.87667884 340.87367404 29.87667884 339.453125 27.09765625 C336.92519106 26.86093642 334.42377534 26.67622375 331.890625 26.53515625 C329.43625 26.39078125 326.981875 26.24640625 324.453125 26.09765625 C324.453125 17.51765625 324.453125 8.93765625 324.453125 0.09765625 C327.5675 0.01515625 330.681875 -0.06734375 333.890625 -0.15234375 C334.85282959 -0.18875977 335.81503418 -0.22517578 336.80639648 -0.26269531 C346.22891113 -0.3819068 352.91193493 2.94704861 359.73046875 9.3046875 C366.36507512 16.21009413 367.75274134 23.09434505 367.73400879 32.28030396 C367.73995103 33.195763 367.74589328 34.11122204 367.75201559 35.05442226 C367.76933702 38.11721069 367.77240158 41.17984229 367.77539062 44.24267578 C367.78465078 46.44081454 367.79470061 48.63895008 367.80548096 50.83708191 C367.8316981 56.80634903 367.84461303 62.77557119 367.85350227 68.74488688 C367.85936923 72.47680037 367.86757993 76.20870165 367.87651062 79.94060898 C367.90385351 91.62419894 367.92322137 103.30776318 367.9309144 114.99138272 C367.93180131 116.33474994 367.93269444 117.67811716 367.93359375 119.02148438 C367.93425804 120.02100576 367.93425804 120.02100576 367.93493575 121.04071949 C367.94282504 131.82822226 367.97771558 142.61545428 368.02431279 153.40285255 C368.07183831 164.49530434 368.09615391 175.5876437 368.09899664 186.68020141 C368.10108959 192.90136139 368.11283716 199.12213936 368.14863586 205.3432045 C368.18167709 211.19893863 368.18587037 217.05400524 368.16835785 222.90979958 C368.16682127 225.05270874 368.17544763 227.19565438 368.19527435 229.33847237 C368.39478313 252.25443113 368.39478313 252.25443113 359.7093277 262.06793404 C353.35971492 268.25976614 344.49320298 271.22808707 335.75175476 271.21791077 C334.8361528 271.21928543 333.92055084 271.2206601 332.97720337 271.22207642 C331.4893483 271.2166835 331.4893483 271.2166835 329.97143555 271.21118164 C328.39026192 271.21140068 328.39026192 271.21140068 326.77714539 271.21162415 C323.2980238 271.2109283 319.81895597 271.20315118 316.33984375 271.1953125 C313.92560353 271.19344716 311.51136293 271.1920238 309.09712219 271.19102478 C302.74643914 271.18720876 296.39577899 271.17738626 290.04510498 271.1663208 C282.42341332 271.15428737 274.801714 271.14970008 267.18001556 271.14386749 C255.60436945 271.13417405 244.02877359 271.11501105 232.453125 271.09765625 C232.453125 286.60765625 232.453125 302.11765625 232.453125 318.09765625 C236.00707031 318.05125 239.56101562 318.00484375 243.22265625 317.95703125 C246.69456558 317.92576645 250.16645875 317.90151804 253.63842773 317.87792969 C256.03693756 317.85791116 258.43539918 317.83068792 260.83374023 317.79589844 C264.29683382 317.74695012 267.7592778 317.72458894 271.22265625 317.70703125 C272.28144485 317.68638611 273.34023346 317.66574097 274.43110657 317.64447021 C284.09987561 317.64160696 292.5622729 319.88820484 300.015625 326.2421875 C307.95180809 336.48590208 304.453125 346.7925453 304.453125 360.09765625 C215.353125 360.09765625 126.253125 360.09765625 34.453125 360.09765625 C34.453125 332.66522382 34.453125 332.66522382 39.765625 326.34765625 C48.87451863 318.72160577 56.00123273 317.7944558 67.51171875 317.90234375 C68.65600845 317.90517365 69.80029816 317.90800354 70.97926331 317.91091919 C74.61649243 317.92207047 78.25347091 317.94716611 81.890625 317.97265625 C84.36392872 317.98269256 86.83723632 317.99181727 89.31054688 318 C95.35824603 318.02028748 101.40540654 318.05944673 107.453125 318.09765625 C107.453125 302.58765625 107.453125 287.07765625 107.453125 271.09765625 C99.70070312 271.13246094 91.94828125 271.16726563 83.9609375 271.203125 C79.03905493 271.21846011 74.11720197 271.23290249 69.1953125 271.24414062 C61.3892604 271.26204885 53.58331425 271.28319669 45.77734375 271.32397461 C39.48146277 271.35665674 33.18569546 271.37452804 26.88973618 271.38228798 C24.49206631 271.38781557 22.09440241 271.39860953 19.69678116 271.41484642 C16.32913187 271.43673797 12.96194768 271.43961823 9.59423828 271.43823242 C8.11932167 271.45441116 8.11932167 271.45441116 6.61460876 271.47091675 C-3.25808249 271.42717911 -11.9968509 269.35493182 -19.32421875 262.4140625 C-29.84830752 251.35598191 -29.12478406 239.13961553 -29.06445312 224.7421875 C-29.06987852 222.56976859 -29.07700352 220.39735337 -29.08569336 218.22494507 C-29.10387981 212.34479572 -29.09687838 206.46492809 -29.08417702 200.58477402 C-29.07402516 194.42084768 -29.08344877 188.2569449 -29.08972168 182.09301758 C-29.0969917 171.74328293 -29.08742724 161.39366259 -29.06835938 151.04394531 C-29.04659198 139.09120301 -29.0536438 127.13873366 -29.075665 115.18599796 C-29.0938373 104.9096929 -29.09636833 94.63346984 -29.08591032 84.35715389 C-29.0796855 78.2256568 -29.07881202 72.09428785 -29.09205627 65.96279907 C-29.1036407 60.19737646 -29.09554135 54.43230458 -29.07247925 48.66691971 C-29.06720605 46.55544237 -29.06868203 44.44393533 -29.07752991 42.33246994 C-29.12809401 29.03641643 -29.14635323 18.0756029 -19.546875 7.85546875 C-13.84697728 2.84579302 -7.59777918 -0.05133635 0 0 Z " fill="#000000" transform="translate(69.546875,139.90234375)"/>
<path d="M0 0 C92.4 0 184.8 0 280 0 C280 54.78 280 109.56 280 166 C210.02510937 166.04033135 210.02510937 166.04033135 180.87304688 166.04882812 C174.19978839 166.05078614 167.52652992 166.05280666 160.85327148 166.05493164 C159.59861282 166.05532726 159.59861282 166.05532726 158.31860751 166.05573088 C144.79688408 166.06008582 131.27516488 166.06797272 117.75344396 166.0771528 C103.88705724 166.08648868 90.02067273 166.09205547 76.15428299 166.09408849 C67.59094627 166.09546386 59.02762151 166.09981516 50.46428847 166.10791647 C44.60023418 166.11318313 38.73618611 166.11480448 32.87212963 166.11350138 C29.48372668 166.11285787 26.09534469 166.11387692 22.70694542 166.11920547 C19.04200433 166.12413517 15.37711561 166.12300098 11.71217346 166.12025452 C10.62951173 166.12316736 9.54685 166.1260802 8.43138033 166.12908131 C7.45752192 166.12709026 6.4836635 166.12509921 5.48029423 166.12304783 C4.63313817 166.12342755 3.78598211 166.12380727 2.91315466 166.1241985 C1 166 1 166 0 165 C-0.09690407 162.87373202 -0.12186822 160.74418181 -0.12025452 158.6157074 C-0.12111053 157.94270096 -0.12196655 157.26969452 -0.12284851 156.57629395 C-0.12451333 154.29749973 -0.11896456 152.01877782 -0.11352539 149.73999023 C-0.11321929 148.08783756 -0.11335215 146.43568476 -0.11389065 144.78353214 C-0.11411718 140.34356414 -0.10830505 135.90362287 -0.10128021 131.46366119 C-0.09560162 127.30328788 -0.09531799 123.1429212 -0.09460449 118.98254395 C-0.08934905 106.80085906 -0.07538801 94.6191792 -0.0625 82.4375 C-0.041875 55.233125 -0.02125 28.02875 0 0 Z M132 23 C131.62875 24.36125 131.2575 25.7225 130.875 27.125 C128.22777603 33.16487562 123.33508283 34.73973685 117.60546875 37.1015625 C111.60475831 38.59686413 107.67034396 37.26813758 102 35 C98.37 38.63 94.74 42.26 91 46 C91.7734375 48.0728125 91.7734375 48.0728125 92.5625 50.1875 C94.75523533 56.90144675 92.83124962 60.67391093 89.83984375 66.81640625 C88.76068061 69.23230808 88.76068061 69.23230808 89 73 C88.28972656 73.20496094 87.57945312 73.40992188 86.84765625 73.62109375 C85.92855469 73.89050781 85.00945312 74.15992188 84.0625 74.4375 C83.14597656 74.70433594 82.22945313 74.97117188 81.28515625 75.24609375 C79.0597507 75.79026051 79.0597507 75.79026051 78 77 C77.92680379 79.69654854 77.90757463 82.36691458 77.9375 85.0625 C77.94201172 85.82111328 77.94652344 86.57972656 77.95117188 87.36132812 C77.9629932 89.24091871 77.98092922 91.12046899 78 93 C78.66386719 93.13792969 79.32773438 93.27585937 80.01171875 93.41796875 C84.62210032 94.74387411 87.27800464 95.7486493 89.7421875 100.01953125 C90.99521612 103.32263333 92.0746689 106.59133846 93 110 C93.35384766 111.0828125 93.35384766 111.0828125 93.71484375 112.1875 C94.21322041 115.35526396 92.23437311 118.11979609 91 121 C91.29057551 124.96312713 93.55778387 127.0534242 96.25 129.8125 C97.01828125 130.62332031 97.7865625 131.43414062 98.578125 132.26953125 C100.86792298 134.29052485 100.86792298 134.29052485 103.671875 133.83203125 C106.00100322 133.0733069 106.00100322 133.0733069 108 131.875 C112.96955167 129.70082115 120.25735145 133.43847261 125.015625 135.2578125 C128.46909072 137.27384092 129.37395172 138.6327352 130.8125 142.3125 C131.4003125 144.6328125 131.4003125 144.6328125 132 147 C137.28 147 142.56 147 148 147 C148.99 144.834375 148.99 144.834375 150 142.625 C150.556875 141.40683594 150.556875 141.40683594 151.125 140.1640625 C152.12495013 138.08001567 152.12495013 138.08001567 152 136 C152.804375 135.9175 153.60875 135.835 154.4375 135.75 C157.57376321 135.08973406 159.71978321 134.25357503 162.5625 132.875 C166.20464159 131.1968179 168.1126531 130.56781956 172 132 C174.31 132.66 176.62 133.32 179 134 C182.63 130.37 186.26 126.74 190 123 C189.2575 121.35 188.515 119.7 187.75 118 C185.82944915 112.74375558 185.82944915 112.74375558 186.51953125 109.734375 C187.5625 107.75 187.5625 107.75 188.8046875 105.84375 C190.24607383 103.79903247 190.24607383 103.79903247 191.1875 100.25 C193.84442 95.48586758 196.94578826 94.83123614 202 93 C202 87.39 202 81.78 202 76 C200.411875 75.71125 198.82375 75.4225 197.1875 75.125 C192.39875167 73.70860965 192.39875167 73.70860965 190.7734375 70.8203125 C190.0625 68.25 190.0625 68.25 189.52734375 65.55859375 C189.02651938 63.1286681 188.30338973 61.46880651 187.125 59.3125 C185.61748845 54.87371598 186.99120083 53.09485984 189 49 C188.71765855 45.06335352 186.47064752 42.94360271 183.8125 40.1875 C182.67748047 38.97126953 182.67748047 38.97126953 181.51953125 37.73046875 C179.08115271 35.67639742 179.08115271 35.67639742 175.89453125 36.18359375 C174.93933594 36.45300781 173.98414063 36.72242188 173 37 C166.4994534 38.82015305 162.46729747 36.84253221 156.57421875 34.12890625 C154.16321084 32.86612647 154.16321084 32.86612647 152 33 C151.01 29.7 150.02 26.4 149 23 C143.39 23 137.78 23 132 23 Z " fill="#000000" transform="translate(99,164)"/>
<path d="M0 0 C1.0942819 -0.00694553 2.18856381 -0.01389106 3.31600577 -0.02104706 C6.99575221 -0.03939501 10.67485961 -0.02903062 14.35462952 -0.01878357 C16.98747238 -0.02583806 19.62031118 -0.03458108 22.25314331 -0.04489136 C28.6699117 -0.06655063 35.08650289 -0.06639955 41.50329583 -0.05826581 C46.7181831 -0.05196962 51.93301863 -0.05309933 57.14790535 -0.05953789 C57.88971659 -0.06043954 58.63152783 -0.0613412 59.39581819 -0.06227018 C60.90273941 -0.06412135 62.40966062 -0.06598391 63.91658182 -0.06785773 C78.05284866 -0.08444303 92.18901576 -0.07571095 106.32527662 -0.05887216 C119.26125133 -0.04417579 132.19699376 -0.05880131 145.13293856 -0.08764232 C158.41189043 -0.11702785 171.69073507 -0.128011 184.96971804 -0.11846012 C186.47144574 -0.11743755 187.97317346 -0.11644295 189.4749012 -0.11547661 C190.21379924 -0.11500022 190.95269728 -0.11452383 191.71398617 -0.114033 C196.92250361 -0.11186768 202.13091965 -0.12167924 207.3394146 -0.13624763 C213.68716605 -0.15375467 220.03462137 -0.15367744 226.38236111 -0.13089598 C229.62162107 -0.11973821 232.86025017 -0.11932008 236.09950638 -0.13519669 C239.61005334 -0.15104476 243.11916067 -0.13625193 246.62963867 -0.11352539 C247.65512013 -0.12536112 248.68060159 -0.13719685 249.73715824 -0.14939123 C254.47886225 -0.08679908 256.64597918 -0.05396772 260.48760319 2.92892551 C268.88557896 14.41402366 263.37831116 31.28675181 263.37831116 45.5146637 C170.97831116 45.5146637 78.57831116 45.5146637 -16.62168884 45.5146637 C-16.62168884 7.72151094 -16.62168884 7.72151094 -13.1605444 2.17183018 C-9.03354041 -0.52195548 -4.82164862 -0.03866266 0 0 Z M6.37831116 18.5146637 C5.04170971 21.87059232 5.04170971 21.87059232 5.37831116 25.5146637 C7.20500054 29.09003526 7.20500054 29.09003526 10.37831116 31.5146637 C13.87831116 32.43133036 13.87831116 32.43133036 17.37831116 31.5146637 C21.07017658 28.92250287 22.20714877 27.47317306 23.00331116 23.0146637 C22.21228184 18.5848995 21.0135633 17.12256198 17.37831116 14.5146637 C12.40070378 13.58136231 9.7332132 14.77634428 6.37831116 18.5146637 Z M36.37831116 18.5146637 C35.04170971 21.87059232 35.04170971 21.87059232 35.37831116 25.5146637 C37.20500054 29.09003526 37.20500054 29.09003526 40.37831116 31.5146637 C43.87831116 32.43133036 43.87831116 32.43133036 47.37831116 31.5146637 C51.07017658 28.92250287 52.20714877 27.47317306 53.00331116 23.0146637 C52.21228184 18.5848995 51.0135633 17.12256198 47.37831116 14.5146637 C42.40070378 13.58136231 39.7332132 14.77634428 36.37831116 18.5146637 Z M66.37831116 18.5146637 C65.04170971 21.87059232 65.04170971 21.87059232 65.37831116 25.5146637 C67.20500054 29.09003526 67.20500054 29.09003526 70.37831116 31.5146637 C73.87831116 32.43133036 73.87831116 32.43133036 77.37831116 31.5146637 C81.07017658 28.92250287 82.20714877 27.47317306 83.00331116 23.0146637 C82.21228184 18.5848995 81.0135633 17.12256198 77.37831116 14.5146637 C72.40070378 13.58136231 69.7332132 14.77634428 66.37831116 18.5146637 Z M153.37831116 20.5146637 C153.314819 24.19720865 153.38243144 26.44384156 155.94509888 29.19935608 C159.3643565 31.04768457 162.5805005 30.9493254 166.37220764 30.93458557 C167.17430664 30.94305511 167.97640564 30.95152466 168.80281067 30.96025085 C171.45183711 30.98363239 174.10028312 30.98464277 176.74940491 30.9834137 C178.5925927 30.9905145 180.43577827 30.99821338 182.27896118 31.00648499 C186.14164882 31.01993237 190.00413205 31.02149737 193.86683655 31.01564026 C198.81472607 31.00974338 203.76163462 31.04033374 208.70933437 31.08075714 C212.51580074 31.10661731 216.32203036 31.10951311 220.12857246 31.10586548 C221.95262684 31.10755826 223.77669196 31.11721599 225.60066032 31.13500977 C228.15277987 31.15716746 230.70290693 31.14751539 233.25502014 31.12989807 C234.38279625 31.14979294 234.38279625 31.14979294 235.53335571 31.17008972 C239.45717834 31.10721139 241.23657433 30.62375217 244.3821106 28.20277405 C246.72894457 25.58749982 246.72894457 25.58749982 246.44081116 21.8896637 C245.24117308 18.07904863 244.81097313 17.37023811 241.37831116 15.5146637 C238.63804716 15.21430985 236.12449554 15.08409007 233.38441467 15.09474182 C232.58231567 15.08627228 231.78021667 15.07780273 230.95381165 15.06907654 C228.30478521 15.04569501 225.65633919 15.04468462 223.00721741 15.0459137 C221.16402962 15.03881289 219.32084404 15.03111401 217.47766113 15.02284241 C213.6149735 15.00939502 209.75249026 15.00783002 205.88978577 15.01368713 C200.94189625 15.01958401 195.9949877 14.98899365 191.04728794 14.94857025 C187.24082157 14.92271009 183.43459195 14.91981429 179.62804985 14.92346191 C177.80399548 14.92176913 175.97993036 14.91211141 174.15596199 14.89431763 C171.60384245 14.87215994 169.05371539 14.881812 166.50160217 14.89942932 C165.74975143 14.88616608 164.9979007 14.87290283 164.2232666 14.85923767 C158.91839947 14.94424692 156.53031455 16.2701338 153.37831116 20.5146637 Z " fill="#000000" transform="translate(115.62168884277344,102.48533630371094)"/>
<path d="M0 0 C7.97476694 5.72439179 12.66062527 12.76005319 15 22.3125 C15.0825 23.281875 15.165 24.25125 15.25 25.25 C15.353125 26.425625 15.45625 27.60125 15.5625 28.8125 C15.33152729 38.87906056 11.63345099 47.06329095 4.62109375 54.15625 C-3.81828907 61.6084892 -11.69592685 63.75962807 -22.9296875 63.55078125 C-33.42697984 62.72430731 -40.90631115 58.19114526 -47.75 50.25 C-53.58916647 40.96102713 -54.73303835 32.00449309 -53.75 21.25 C-51.76979161 12.57102952 -46.73821863 5.15270979 -39.5625 -0.0625 C-26.97691331 -7.82537448 -12.48134178 -7.83225139 0 0 Z " fill="#000000" transform="translate(258.75,219.75)"/>
<path d="M0 0 C1.47847412 0.02707031 1.47847412 0.02707031 2.98681641 0.0546875 C24.27456071 0.74640949 45.22639212 9.87616915 60.00390625 25.46875 C73.63967725 41.81947317 81.78131316 60.66107147 82.0625 82.125 C82.10600586 83.2377832 82.10600586 83.2377832 82.15039062 84.37304688 C82.19513346 88.2381393 82.00679157 90.14118396 79.9453125 93.5234375 C76.89926984 96.35267997 74.86945665 96.63477117 70.75 96.5625 C67.94810554 94.79608828 66.23475089 93.53200178 64.75 90.5625 C64.65567589 88.86256995 64.56664878 87.16209197 64.51123047 85.46044922 C63.83544107 66.34590266 57.65949589 49.02330247 43.75 35.5625 C42.88761719 34.70398437 42.88761719 34.70398437 42.0078125 33.828125 C29.56956848 22.28257792 13.15036621 18.44093018 -3.2890625 17.36328125 C-9.63703298 16.94195578 -9.63703298 16.94195578 -12.875 14.9375 C-14.82829011 11.56363526 -14.78862098 9.40017447 -14.25 5.5625 C-10.96465025 -0.78671524 -6.41452201 -0.18212603 0 0 Z " fill="#000000" transform="translate(389.25,11.4375)"/>
<path d="M0 0 C14.61907109 1.90977461 26.78275262 8.50710745 37 19 C37.63421875 19.60199219 38.2684375 20.20398438 38.921875 20.82421875 C49.74800521 31.8659135 53.75161736 48.15151072 54.375 63.1875 C53.99246393 67.07661674 53.45575785 68.99851818 51 72 C47.88134716 74.0791019 47.46260478 74.28159374 44 73.875 C43.319375 73.81054688 42.63875 73.74609375 41.9375 73.6796875 C39.12781279 72.6940311 38.40454475 71.62826488 37 69 C36.59280832 66.31884355 36.31565062 63.75700882 36.125 61.0625 C34.82067804 47.64518371 30.43179158 36.0467861 19.8359375 27.19140625 C17.61984339 25.62134664 15.39273318 24.2831183 13 23 C12.28714844 22.61070313 11.57429688 22.22140625 10.83984375 21.8203125 C4.54600199 18.86231483 -1.79903584 18.28520228 -8.66772461 17.94628906 C-12.83692245 17.648779 -14.60333318 17.31000879 -18.00390625 14.65234375 C-20 12 -20 12 -20.625 8.5 C-18.67494523 -2.42030673 -8.62009476 -0.75436424 0 0 Z " fill="#000000" transform="translate(394,35)"/>
<path d="M0 0 C10.94989069 5.7034489 18.31553193 13.36217538 22.33984375 25.21875 C23.30341965 29.09232512 23.53440407 32.79421299 23.58984375 36.78125 C23.615625 37.89628906 23.64140625 39.01132813 23.66796875 40.16015625 C23.30482178 43.54520475 22.77637429 44.87593217 20.33984375 47.21875 C17.69145232 48.28253903 15.17593976 48.46753035 12.33984375 48.21875 C9.47990897 46.45410939 7.84201526 45.22309303 6.33984375 42.21875 C6.04888503 40.15899274 5.78155975 38.09586405 5.52734375 36.03125 C4.37605807 28.40923457 2.47994944 23.15616741 -3.90234375 18.28125 C-8.74278442 15.35547253 -13.88605899 14.19473171 -19.47265625 13.78125 C-22.42977392 13.50208155 -23.61448756 13.24659676 -26.22265625 11.65625 C-28.27605827 8.17439439 -28.47810207 5.1627066 -27.66015625 1.21875 C-21.37462945 -7.23419983 -8.3362973 -3.78308468 0 0 Z " fill="#000000" transform="translate(400.66015625,61.78125)"/>
</svg>
