<?xml version="1.0" encoding="UTF-8"?>
<svg version="1.1" xmlns="http://www.w3.org/2000/svg" width="512" height="512">
<path d="M0 0 C10.3448468 8.88706879 19.00607411 18.46112883 26.37890625 29.94140625 C27.08789062 31.0396875 27.796875 32.13796875 28.52734375 33.26953125 C45.87238817 61.84565808 50.40707935 96.98469949 42.80419922 129.36035156 C37.64122005 149.52682476 27.98988295 167.24466102 14.37890625 182.94140625 C13.52266488 184.02310053 12.66810483 185.10613147 11.81640625 186.19140625 C8.60446755 189.81513197 5.11231533 192.86575929 1.37890625 195.94140625 C0.47527344 196.70582031 -0.42835938 197.47023437 -1.359375 198.2578125 C-27.47316237 219.46074786 -61.32794665 228.65641229 -94.6484375 225.515625 C-120.22890232 222.63050144 -144.02814185 212.67651628 -163.62109375 195.94140625 C-165.10802734 194.71550781 -165.10802734 194.71550781 -166.625 193.46484375 C-190.69024592 172.69405783 -206.05289918 141.27994217 -208.4921875 109.62109375 C-210.1255741 75.66645104 -201.44219805 41.89318636 -178.45947266 16.08886719 C-176.22542566 13.66092765 -173.92490271 11.30332316 -171.62109375 8.94140625 C-170.56535156 7.77544922 -170.56535156 7.77544922 -169.48828125 6.5859375 C-154.49112636 -9.52317374 -133.48221508 -19.1631634 -112.62109375 -25.05859375 C-111.43128906 -25.40019531 -110.24148438 -25.74179687 -109.015625 -26.09375 C-71.3644096 -34.92146135 -29.5382258 -24.57786576 0 0 Z M-93.01171875 11.48828125 C-95.91588014 15.94678253 -95.98747667 19.72044967 -95.62109375 24.94140625 C-96.89984375 25.12703125 -98.17859375 25.31265625 -99.49609375 25.50390625 C-108.18570558 27.44709504 -115.7135284 33.60926992 -120.62109375 40.94140625 C-126.66272564 51.54709701 -128.42926854 62.07481419 -125.97265625 74.12109375 C-122.59974122 84.29749551 -115.75776517 91.42004864 -107.30859375 97.69140625 C-106.53169189 98.28211914 -105.75479004 98.87283203 -104.9543457 99.48144531 C-98.72916856 104.18805747 -92.40297143 108.75751708 -86.05957031 113.30297852 C-81.34402851 116.68293764 -76.66997623 120.10793507 -72.05859375 123.62890625 C-71.02605469 124.41652344 -69.99351562 125.20414062 -68.9296875 126.015625 C-66.62109375 127.94140625 -66.62109375 127.94140625 -65.62109375 129.94140625 C-65.06210061 136.76112254 -65.06210061 136.76112254 -66.91796875 140.6796875 C-71.24119015 144.29694934 -75.74004746 143.51022189 -81.18359375 143.31640625 C-82.23740234 143.30222656 -83.29121094 143.28804687 -84.37695312 143.2734375 C-92.06665485 143.12621922 -92.06665485 143.12621922 -95.62109375 141.94140625 C-96.359375 139.24609375 -96.359375 139.24609375 -96.93359375 135.81640625 C-98.20328338 129.76045206 -99.78028552 125.86605128 -104.62109375 121.94140625 C-108.42952002 119.4710757 -112.03477982 119.7205723 -116.40234375 120.33203125 C-120.62364567 121.4914029 -123.4303902 124.03464387 -125.7578125 127.76171875 C-128.63314601 135.02161061 -126.73835399 143.45150022 -123.87890625 150.41015625 C-119.1945457 159.83706816 -112.22428469 166.84031461 -102.24609375 170.25390625 C-99.125 171.43359375 -99.125 171.43359375 -96.62109375 172.94140625 C-95.46399676 175.53505007 -95.20072109 177.68076069 -94.95703125 180.5 C-94.40049546 184.5445915 -92.57326326 186.19520206 -89.62109375 188.94140625 C-85.66644877 191.23093756 -82.13384565 191.40824265 -77.62109375 190.94140625 C-72.72512368 189.22730352 -69.6161832 186.50172002 -67.265625 181.890625 C-66.14710819 178.507959 -66.37313175 175.47486471 -66.62109375 171.94140625 C-65.67234375 171.90015625 -64.72359375 171.85890625 -63.74609375 171.81640625 C-55.30622896 170.55468909 -48.67898386 164.72359361 -43.37890625 158.3828125 C-36.15123181 148.34437578 -34.76882853 139.06792277 -35.62109375 126.94140625 C-38.44390806 113.54154073 -46.85989328 105.07642675 -57.62841797 97.37207031 C-59.80814626 95.80710979 -61.96760839 94.21669785 -64.125 92.62109375 C-67.34445623 90.24040535 -70.56672588 87.86367204 -73.79296875 85.4921875 C-74.59283203 84.9038916 -75.39269531 84.3155957 -76.21679688 83.70947266 C-77.81148379 82.5367754 -79.40653226 81.36456964 -81.00195312 80.19287109 C-83.23291338 78.55154857 -85.45885862 76.90365253 -87.68359375 75.25390625 C-88.35624268 74.76100098 -89.0288916 74.2680957 -89.72192383 73.76025391 C-96.28230907 68.87782816 -96.28230907 68.87782816 -96.9921875 64.8203125 C-97.01410156 64.05589844 -97.03601563 63.29148438 -97.05859375 62.50390625 C-97.09855469 61.74207031 -97.13851562 60.98023438 -97.1796875 60.1953125 C-96.62109375 57.94140625 -96.62109375 57.94140625 -94.75 55.69140625 C-90.2208683 53.15825893 -86.22716118 53.3192067 -81.12109375 53.37890625 C-80.18394531 53.35505859 -79.24679687 53.33121094 -78.28125 53.30664062 C-73.68872638 53.31641195 -71.33312265 53.42896121 -67.52734375 56.16796875 C-65.59498685 58.97938966 -64.95922027 60.53462363 -64.62109375 63.87890625 C-63.80702722 69.03210096 -62.39374231 71.34840762 -58.62109375 74.94140625 C-54.37982298 77.49670603 -50.45222201 77.49551415 -45.62109375 76.94140625 C-40.9074707 74.95120985 -37.89936548 71.49794971 -35.62109375 66.94140625 C-34.49938861 56.51506506 -37.23474298 47.26301483 -43.62109375 38.94140625 C-44.67296875 37.45640625 -44.67296875 37.45640625 -45.74609375 35.94140625 C-50.22774311 30.65250327 -57.1580012 27.19498457 -63.62109375 24.94140625 C-64.61109375 24.94140625 -65.60109375 24.94140625 -66.62109375 24.94140625 C-66.52828125 23.39453125 -66.52828125 23.39453125 -66.43359375 21.81640625 C-66.70975611 16.10905077 -68.39238456 13.22726471 -72.30859375 9.12890625 C-79.4343519 4.42321691 -87.09145306 4.90281717 -93.01171875 11.48828125 Z " fill="#000000" transform="translate(386.62109375,28.05859375)"/>
<path d="M0 0 C0.74507812 1.02391846 1.49015625 2.04783691 2.2578125 3.1027832 C6.32711364 7.15823133 10.91090161 6.68927342 16.38485718 6.70399475 C17.05896008 6.69170397 17.73306297 6.67941319 18.42759323 6.66674995 C20.55657824 6.62830784 22.68287612 6.62687221 24.81216431 6.63450623 C29.33353472 6.64380578 33.85386676 6.60501285 38.375 6.5625 C43.61117168 6.51763803 48.84642043 6.49290475 54.08278275 6.50706291 C56.16838486 6.50396937 58.25198312 6.47035752 60.33724976 6.43495178 C67.84130487 6.43657365 73.29384333 6.8225088 79 12 C84.43094417 17.85970292 85.41945266 22.23100287 85.23828125 30.09765625 C84.67035464 37.01518852 80.94711794 40.28400677 75.9375 44.58203125 C71.940884 47.50697401 67.80765734 47.15124263 63.07543945 47.15771484 C62.26855179 47.16279556 61.46166412 47.16787628 60.63032532 47.17311096 C58.87718606 47.18381276 57.12403315 47.19243369 55.3708744 47.19923019 C52.59175643 47.21102888 49.81279316 47.23048596 47.03373718 47.25234985 C39.13167508 47.31392126 31.22962777 47.36793447 23.32739258 47.40136719 C18.49327823 47.42236953 13.65944447 47.45772075 8.82549095 47.50212479 C6.98722841 47.51624459 5.14891621 47.52499811 3.31060219 47.52817917 C0.73061626 47.53311473 -1.84863201 47.55634128 -4.4284668 47.58349609 C-5.55644684 47.57898689 -5.55644684 47.57898689 -6.70721436 47.5743866 C-13.11048169 47.67394688 -18.87369859 48.82054106 -23.5 53.5625 C-25.5108827 58.17077286 -25.67937291 62.04554878 -25 67 C-23.26479453 71.29235036 -21.12852968 73.01856645 -17 75 C-14.13804097 75.29019469 -11.49598323 75.42062637 -8.63647461 75.40405273 C-7.80645935 75.41091599 -6.97644409 75.41777924 -6.12127686 75.42485046 C-3.3814575 75.44312552 -0.64221093 75.43927723 2.09765625 75.43359375 C4.0123259 75.43815787 5.9269939 75.44346413 7.84165955 75.44947815 C11.85731654 75.45841266 15.87277474 75.45598536 19.88842773 75.44604492 C25.00698383 75.43460285 30.12484514 75.45469163 35.24330997 75.48396206 C39.20102732 75.50241803 43.15858146 75.50201216 47.1163311 75.49632454 C49.0015707 75.49617221 50.886822 75.50214242 52.77202034 75.51461601 C72.60053628 75.62725295 86.09954128 70.42326019 101.80371094 58.0378418 C106.16447849 54.60357749 110.64003768 51.36968301 115.1875 48.1875 C121.13529976 44.02108908 127.05474072 39.82035717 132.9375 35.5625 C134.05644653 34.75268677 134.05644653 34.75268677 135.19799805 33.92651367 C136.71013427 32.83161956 138.22209699 31.73648578 139.73388672 30.64111328 C144.22937108 27.38549532 148.72984107 24.13675902 153.23217773 20.890625 C157.09091897 18.10724305 160.94188927 15.31397495 164.78125 12.50390625 C188.53134839 -4.8442461 188.53134839 -4.8442461 199 -4 C205.75690638 -2.15240841 210.17399463 0.08708261 214 6 C217.32681148 12.08003477 217.9483863 17.39477283 216.56640625 24.10546875 C213.90169151 32.66234777 206.36942738 37.74157024 199.25 42.5625 C197.74223413 43.60495733 196.23577231 44.64930275 194.73046875 45.6953125 C193.95364746 46.23446289 193.17682617 46.77361328 192.37646484 47.32910156 C188.38957782 50.1322919 184.47710449 53.03463431 180.5625 55.9375 C172.16536687 62.1531715 163.71276783 68.28758078 155.23388672 74.39111328 C151.48640216 77.09012128 147.74344155 79.79538884 144 82.5 C142.50002146 83.58336304 141.00002146 84.66669638 139.5 85.75 C138.7575 86.28625 138.015 86.8225 137.25 87.375 C135 89 132.75 90.625 130.5 92.25 C129.75758057 92.78641113 129.01516113 93.32282227 128.25024414 93.87548828 C126.75027089 94.95835928 125.24945639 96.04006596 123.74780273 97.12060547 C119.98962403 99.82708091 116.24830591 102.55231343 112.53515625 105.3203125 C81.73598593 128.15991997 51.02159288 140.24228814 12.50854492 140.11352539 C11.33621811 140.11367142 10.1638913 140.11381744 8.95603943 140.1139679 C5.13082952 140.11327841 1.30567002 140.10553173 -2.51953125 140.09765625 C-5.19138166 140.09578864 -7.86322937 140.09431708 -10.53507996 140.09336853 C-16.8174481 140.09027909 -23.09979854 140.08209837 -29.38215894 140.07201904 C-36.54314393 140.06078315 -43.70412984 140.05532874 -50.86512148 140.05032361 C-65.57675665 140.03991335 -80.28837802 140.02236086 -95 140 C-97.34251098 135.94014055 -99.68495515 131.88024256 -102.02734375 127.8203125 C-102.37277662 127.22159458 -102.7182095 126.62287666 -103.07411003 126.00601578 C-106.80233262 119.54400814 -110.53024968 113.08182778 -114.25390625 106.6171875 C-119.55318629 97.41887177 -124.85983797 88.22542323 -130.21972656 79.06225586 C-133.15356663 74.04562284 -136.07714652 69.0230395 -139 64 C-139.34752319 63.40394958 -139.69504639 62.80789917 -140.05310059 62.19378662 C-142.28550052 58.36481256 -144.51019651 54.53153213 -146.72537231 50.69256592 C-147.44380673 49.45011383 -148.16469242 48.20907558 -148.88815308 46.96954346 C-149.89694484 45.24007696 -150.8959378 43.50490623 -151.89453125 41.76953125 C-152.47050049 40.77542236 -153.04646973 39.78131348 -153.63989258 38.75708008 C-154.96614334 36.06863098 -155.72807536 33.9790232 -156 31 C-154.85474452 28.585922 -153.73965296 26.61975353 -152.25 24.4375 C-151.84313965 23.82688721 -151.4362793 23.21627441 -151.01708984 22.5871582 C-134.27791177 -1.85026843 -108.77485939 -17.10267139 -79.95019531 -22.64794922 C-51.5269957 -27.77892742 -21.74805557 -18.66868487 0 0 Z " fill="#000000" transform="translate(292,295)"/>
<path d="M0 0 C7.31483025 5.24759561 11.43232739 15.32307327 15.8125 23 C16.80492138 24.7298456 17.79734765 26.45968843 18.79006958 28.18936157 C19.81264091 29.97189872 20.83390134 31.75518197 21.85498047 33.53857422 C25.014699 39.05439769 28.19606868 44.55773567 31.375 50.0625 C32.6238157 52.22649453 33.8725133 54.39055723 35.12109375 56.5546875 C35.73968262 57.62686523 36.35827148 58.69904297 36.99560547 59.80371094 C38.88480166 63.07949566 40.77264109 66.35605893 42.66015625 69.6328125 C48.20289524 79.25248354 53.7515985 88.86832978 59.34863281 98.45654297 C60.52016857 100.46373989 61.69012663 102.47185861 62.85839844 104.48095703 C65.59133881 109.17687382 68.34609029 113.85608765 71.16015625 118.50390625 C71.92827637 119.78793335 71.92827637 119.78793335 72.71191406 121.09790039 C73.65958016 122.6807411 74.61772511 124.25738101 75.58886719 125.82592773 C78.83836111 131.28968409 80.30817444 135.91240936 79.6328125 142.3828125 C76.26302107 151.99295843 64.24976329 156.25751306 55.9375 161 C54.21817672 161.98609333 52.49885663 162.97219228 50.77972412 163.95861816 C49.00126841 164.97865003 47.22207824 165.99739281 45.44287109 167.01611328 C40.8128731 169.66920496 36.19450151 172.34227648 31.57617188 175.015625 C28.3115063 176.90196142 25.04072882 178.77736461 21.76953125 180.65234375 C18.17106784 182.71954613 14.60573546 184.82446884 11.07421875 187.00390625 C4.67163193 190.90867209 -0.8604367 194.07770433 -8.59765625 193.96484375 C-17.17457139 190.90260666 -20.98055089 182.85181679 -25.125 175.3125 C-26.10930673 173.56439882 -27.09363438 171.81630901 -28.07923889 170.06893921 C-29.09585441 168.2627586 -30.10668361 166.45343281 -31.11669922 164.64355469 C-34.24944644 159.04188854 -37.47261304 153.49228053 -40.6875 147.9375 C-41.30890869 146.86000488 -41.93031738 145.78250977 -42.57055664 144.67236328 C-46.70958388 137.4960371 -50.87938978 130.33819693 -55.0625 123.1875 C-60.50586995 113.88248848 -65.86625694 104.53192539 -71.19750977 95.16244507 C-76.43859517 85.95468925 -81.77587546 76.80826682 -87.22875977 67.72412109 C-87.72947998 66.88574707 -88.2302002 66.04737305 -88.74609375 65.18359375 C-89.40242798 64.09195923 -89.40242798 64.09195923 -90.07202148 62.97827148 C-92.30943388 58.90756083 -92.95651886 54.60915359 -92.125 50.0625 C-89.17970663 42.76292566 -84.22719811 40.23071071 -77.5 36.5625 C-75.32026574 35.33341626 -73.14057988 34.10424667 -70.9609375 32.875 C-69.83268555 32.24722656 -68.70443359 31.61945313 -67.54199219 30.97265625 C-62.03576914 27.89458472 -56.58371551 24.72378464 -51.125 21.5625 C-48.96755251 20.32013086 -46.81000021 19.07794368 -44.65234375 17.8359375 C-40.176094 15.25397888 -35.71122387 12.65356637 -31.25390625 10.0390625 C-30.15111328 9.39259766 -29.04832031 8.74613281 -27.91210938 8.08007812 C-25.80649631 6.84425798 -23.70226466 5.60608028 -21.59960938 4.36523438 C-20.66052734 3.81416016 -19.72144531 3.26308594 -18.75390625 2.6953125 C-17.92963135 2.20949707 -17.10535645 1.72368164 -16.25610352 1.22314453 C-10.94635679 -1.66865704 -5.66522736 -1.69956821 0 0 Z " fill="#000000" transform="translate(95.125,318.9375)"/>
</svg>
