<?xml version="1.0" encoding="UTF-8"?>
<svg version="1.1" xmlns="http://www.w3.org/2000/svg" width="512" height="512">
<path d="M0 0 C13.2 0 26.4 0 40 0 C41.625 9.5 41.625 9.5 42.09228516 12.44335938 C43.38354015 19.38085617 46.01735833 25.02602683 51.79394531 29.33959961 C57.95801241 33.03557424 63.93684002 33.74912303 71 33 C76.95240249 31.1426714 81.83171054 27.05512801 86.703125 23.29296875 C89 22 89 22 90.77514648 22.08007812 C94.11672111 23.46173655 96.37671276 25.90892081 98.89453125 28.42578125 C99.72195076 29.24178047 99.72195076 29.24178047 100.56608582 30.07426453 C101.72719468 31.22458473 102.8843688 32.37888837 104.0378418 33.53686523 C105.80981753 35.30981606 107.60205648 37.06035909 109.39648438 38.81054688 C110.52213143 39.93098905 111.64652499 41.05269226 112.76953125 42.17578125 C113.3089888 42.69884354 113.84844635 43.22190582 114.4042511 43.76081848 C115.88208008 45.2668457 115.88208008 45.2668457 118 48 C117.8721471 51.64160343 115.76477184 53.94592802 113.625 56.8125 C108.23916552 64.39911694 105.66204894 70.63434258 107 80 C109.31513825 87.45988992 113.22005989 92.16148249 120 96 C123.45816653 97.16733195 126.90101722 97.80362865 130.5 98.375 C133.635 98.91125 136.77 99.4475 140 100 C140 113.2 140 126.4 140 140 C130.5 141.625 130.5 141.625 127.55664062 142.09228516 C120.12427414 143.47564873 114.82941436 146.39839131 110.125 152.38671875 C107.07055962 158.63347355 105.7706796 164.07020194 107 171 C109.16779328 177.20025621 112.69281195 182.27000398 116.9609375 187.2109375 C118 189 118 189 117.90405273 190.7434082 C116.55297933 194.11580127 114.10085464 196.36693359 111.57421875 198.89453125 C111.03021927 199.44614426 110.48621979 199.99775726 109.92573547 200.56608582 C108.77541527 201.72719468 107.62111163 202.8843688 106.46313477 204.0378418 C104.69018394 205.80981753 102.93964091 207.60205648 101.18945312 209.39648438 C100.06901095 210.52213143 98.94730774 211.64652499 97.82421875 212.76953125 C97.30115646 213.3089888 96.77809418 213.84844635 96.23918152 214.4042511 C94.7331543 215.88208008 94.7331543 215.88208008 92 218 C87.77944469 217.90962101 84.3585699 214.79492332 80.9375 212.5 C73.79041315 207.73527543 68.63581008 206.00659962 60 207 C53.58417756 209.09939465 48.61620367 212.19215774 45 218 C42.11227022 225.08000416 41.25686254 232.45882475 40 240 C26.8 240 13.6 240 0 240 C-1.32 233.73 -2.64 227.46 -4 221 C-7.45756266 214.48073673 -7.45756266 214.48073673 -12.5625 210.625 C-13.70912109 209.90183594 -13.70912109 209.90183594 -14.87890625 209.1640625 C-20.04406947 206.3294057 -25.25550062 206.33659325 -31 207 C-37.20189636 209.109736 -42.28770031 212.70809857 -47.2109375 216.9609375 C-49 218 -49 218 -50.93426514 217.72120667 C-54.37373468 216.52039024 -56.58919303 213.77409164 -59.078125 211.21484375 C-59.64956238 210.63916153 -60.22099976 210.06347931 -60.80975342 209.47035217 C-62.63033802 207.63299681 -64.44020568 205.78547868 -66.25 203.9375 C-67.48368253 202.68876862 -68.71804978 201.44071331 -69.953125 200.19335938 C-72.97674655 197.1366898 -75.99079921 194.07086474 -79 191 C-77.88365095 189.23774983 -76.76626327 187.47615758 -75.6484375 185.71484375 C-75.02630371 184.73378662 -74.40416992 183.75272949 -73.76318359 182.74194336 C-72.41892649 180.65147652 -71.04592635 178.60038171 -69.625 176.5625 C-66.57379046 171.75097726 -66.34894513 166.57409995 -67 161 C-69.12051139 154.22095581 -72.23552567 148.80754091 -78.25 144.875 C-83.72522002 142.29903934 -89.76138409 141.58531139 -95.68359375 140.61328125 C-99 140 -99 140 -100 139 C-100.08865208 136.1156618 -100.11521296 133.25537842 -100.09765625 130.37109375 C-100.0962413 129.50686295 -100.09482635 128.64263214 -100.09336853 127.75221252 C-100.08775239 124.98060708 -100.07519719 122.2090812 -100.0625 119.4375 C-100.05748708 117.5631522 -100.05292381 115.68880315 -100.04882812 113.81445312 C-100.03777772 109.20960456 -100.0205023 104.60481579 -100 100 C-99.45290878 99.89322937 -98.90581757 99.78645874 -98.34214783 99.67645264 C-95.83966843 99.18319574 -93.33982182 98.67765025 -90.83984375 98.171875 C-89.5488678 97.92026611 -89.5488678 97.92026611 -88.23181152 97.66357422 C-81.04173113 96.19416945 -74.88193859 94.30249756 -70.62109375 87.94140625 C-67.35304429 81.73552835 -66.13631248 75.98891973 -67 69 C-69.4696096 61.73513946 -74.12185549 55.82003408 -79 50 C-77.39185018 46.05485196 -74.66961123 43.31342907 -71.73046875 40.32421875 C-71.21245193 39.79480179 -70.69443512 39.26538483 -70.16072083 38.71992493 C-69.06659869 37.60696503 -67.96958264 36.49684358 -66.86987305 35.3894043 C-65.18943841 33.68946091 -63.53150857 31.96939795 -61.87304688 30.24804688 C-60.80601251 29.16796023 -59.73769534 28.08913906 -58.66796875 27.01171875 C-58.17507858 26.49413498 -57.68218842 25.97655121 -57.17436218 25.44328308 C-55.73901367 24.02612305 -55.73901367 24.02612305 -53 22 C-48.20420577 22.10870289 -44.73073145 24.87810262 -40.875 27.5 C-34.05332249 32.080877 -29.24902898 33.85952256 -21 33 C-13.61765598 30.8608641 -9.02857656 27.16219287 -4.875 20.6875 C-2.14743257 14.30793586 -2.14743257 14.30793586 0 0 Z M-21.21484375 88.5078125 C-30.23207864 101.09642488 -32.23933727 113.94411242 -31 129 C-28.93389451 140.85226979 -22.64401673 152.58284326 -13 160 C0.91865029 169.21617165 14.86687933 173.44337129 31.52734375 170.34375 C45.278813 166.55024124 56.75491162 158.07606144 64.375 146 C71.16290018 133.90964041 72.88445231 120.37273807 69.875 106.8125 C65.90404792 92.877056 57.45973248 82.25347032 45 75 C21.31665556 63.57175275 -3.91755665 67.97838346 -21.21484375 88.5078125 Z " fill="#000000" transform="translate(294,257)"/>
<path d="M0 0 C0.95466156 0.00060425 1.90932312 0.0012085 2.89291382 0.00183105 C117.85627361 0.1978083 117.85627361 0.1978083 149.12109375 29.40234375 C153.18443037 33.92352111 155.14417892 36.8164271 155.01953125 43.10546875 C154.28481639 48.78087487 149.50952703 52.89894446 145.30859375 56.3984375 C88.00013058 96.4706148 -20.79279333 86.81876576 -85.57226562 75.61279297 C-139.04263141 65.80989257 -139.04263141 65.80989257 -152.3125 47.3125 C-153.62807972 42.92723426 -153.65762704 39.55933635 -152.25 35.1875 C-144.93479447 21.93025039 -126.52169281 16.93280565 -113.00878906 12.96484375 C-76.38779485 2.64614945 -37.89612949 -0.04484405 0 0 Z " fill="#000000" transform="translate(168.25,14.8125)"/>
<path d="M0 0 C4.06602681 1.57138437 7.66019991 3.50515522 11.4375 5.6875 C79.03890977 42.74666572 197.23710588 36.67488624 269.5 16 C281.0464581 12.54634261 291.81672133 8.35978996 302.3203125 2.453125 C305 1 305 1 308 0 C308.10162353 7.56213879 308.17155978 15.1241007 308.21972656 22.68676758 C308.23981149 25.25812359 308.26708479 27.82943409 308.30175781 30.40063477 C308.35041081 34.10183966 308.37300083 37.80243933 308.390625 41.50390625 C308.41127014 42.64896133 308.43191528 43.79401642 308.45318604 44.97377014 C308.45503001 51.56903378 307.96560244 55.6531511 304 61 C274.45412268 89.4942444 210.48736643 91.07079784 172.35546875 91.203125 C170.98523425 91.21014569 169.61500008 91.21723252 168.24476624 91.22438049 C163.89233936 91.2437758 159.53996573 91.2488139 155.1875 91.25 C154.07658241 91.25066278 154.07658241 91.25066278 152.94322205 91.25133896 C131.16838132 91.25815617 109.60012971 91.13555119 88 88 C86.71464355 87.81775879 85.42928711 87.63551758 84.10498047 87.44775391 C29.59199274 79.58599486 29.59199274 79.58599486 9 65 C7.576875 64.0409375 7.576875 64.0409375 6.125 63.0625 C1.46273692 58.53736231 -0.23268769 54.66291384 -0.45410156 48.24829102 C-0.45347298 46.00006328 -0.43115357 43.75176874 -0.390625 41.50390625 C-0.38496521 40.31522446 -0.37930542 39.12654266 -0.37347412 37.90184021 C-0.35116226 34.12164293 -0.30097263 30.3424087 -0.25 26.5625 C-0.22992842 23.99285227 -0.21167881 21.42318962 -0.1953125 18.85351562 C-0.15131431 12.56868427 -0.08445283 6.28441096 0 0 Z " fill="#000000" transform="translate(15,158)"/>
<path d="M0 0 C3.53267994 1.37526353 6.85760011 2.94216278 10.21020508 4.71533203 C59.93620681 30.73567965 125.96445942 31.1878572 180.9375 28.25 C181.74549042 28.20709839 182.55348083 28.16419678 183.38595581 28.11999512 C248.0811685 25.23715593 248.0811685 25.23715593 306 0 C306.66 0 307.32 0 308 0 C308.10152851 7.58044988 308.17151993 15.160724 308.21972656 22.74169922 C308.23982563 25.31989088 308.26710941 27.89803704 308.30175781 30.47607422 C308.35034847 34.18468461 308.37298658 37.89269156 308.390625 41.6015625 C308.41127014 42.75177887 308.43191528 43.90199524 308.45318604 45.08706665 C308.45494951 51.3948379 308.24452003 55.20684812 304 60 C303.49082031 60.60585937 302.98164063 61.21171875 302.45703125 61.8359375 C281.06039976 81.86033846 243.10093721 84.99323839 215.4375 88.25 C214.73501129 88.33308411 214.03252258 88.41616821 213.30874634 88.50177002 C195.00746277 90.6356193 176.85834326 91.1864844 158.44091797 91.18530273 C154.667526 91.18747551 150.89443377 91.20565158 147.12109375 91.22460938 C125.99062466 91.27415772 105.00871679 90.10519423 84.0625 87.25 C82.82725586 87.08226074 81.59201172 86.91452148 80.31933594 86.74169922 C20.35209779 78.18914512 20.35209779 78.18914512 3.19921875 59.640625 C0.49584271 55.94219524 -0.24849426 53.17777234 -0.22705078 48.58886719 C-0.22689972 47.50804871 -0.22674866 46.42723022 -0.22659302 45.31365967 C-0.21627045 44.15312073 -0.20594788 42.99258179 -0.1953125 41.796875 C-0.1924826 40.60394836 -0.18965271 39.41102173 -0.18673706 38.1819458 C-0.17554053 34.37119524 -0.15043653 30.56067955 -0.125 26.75 C-0.11496954 24.16667006 -0.1058438 21.58333644 -0.09765625 19 C-0.07560289 12.66658651 -0.04213035 6.33331003 0 0 Z " fill="#000000" transform="translate(15,82)"/>
<path d="M0 0 C1.11869728 0.61590248 1.11869728 0.61590248 2.25999451 1.24424744 C3.2433931 1.78360428 4.22679169 2.32296112 5.23999023 2.87866211 C6.21266342 3.41301376 7.18533661 3.94736542 8.18748474 4.49790955 C37.12265805 19.95142486 72.00498477 24.10441295 104.1875 27.125 C104.99276123 27.20065186 105.79802246 27.27630371 106.62768555 27.35424805 C122.14619773 28.70747332 137.67772636 29.20466289 153.25 29.1875 C154.10596771 29.18756042 154.96193542 29.18762085 155.84384155 29.18768311 C177.50236269 29.16614604 199.02477426 27.89097338 220.54296875 25.3671875 C224 25 224 25 228 25 C227.26276703 25.57621094 226.52553406 26.15242188 225.76596069 26.74609375 C223.29500977 28.75960455 221.01745263 30.83128351 218.74462891 33.0625 C217.94094879 33.85011719 217.13726868 34.63773437 216.30923462 35.44921875 C212.69461043 39.01920951 209.08195282 42.59107966 205.47802734 46.171875 C203.57211088 48.06437643 201.65915942 49.94931527 199.73974609 51.828125 C196.97326263 54.54015945 194.22329961 57.26798605 191.4765625 60 C190.61213531 60.84175781 189.74770813 61.68351562 188.85708618 62.55078125 C187.67993546 63.73220703 187.67993546 63.73220703 186.47900391 64.9375 C185.78126862 65.62714844 185.08353333 66.31679688 184.36465454 67.02734375 C182.75701324 68.89622457 182.75701324 68.89622457 183.21235657 71.13471985 C184.105976 73.25097006 185.17529541 74.98037712 186.50390625 76.85546875 C186.99697266 77.55994141 187.49003906 78.26441406 187.99804688 78.99023438 C188.51431641 79.71533203 189.03058594 80.44042969 189.5625 81.1875 C190.58657489 82.63795552 191.60881615 84.08970801 192.62890625 85.54296875 C193.08338135 86.18258545 193.53785645 86.82220215 194.00610352 87.48120117 C195 89 195 89 195 90 C191.53060466 90.76876204 188.22466611 91.17291184 184.67578125 91.31640625 C183.65701904 91.35846191 182.63825684 91.40051758 181.58862305 91.44384766 C180.50750244 91.48300293 179.42638184 91.5221582 178.3125 91.5625 C176.62411011 91.6251001 176.62411011 91.6251001 174.90161133 91.68896484 C165.59212114 92.01412346 156.31329442 92.18373287 147 92 C146.01821777 91.98211426 145.03643555 91.96422852 144.02490234 91.94580078 C34.64100194 89.68177384 34.64100194 89.68177384 4.9609375 62.10546875 C1.02344831 57.67346078 -0.12703191 54.49668918 -0.11352539 48.70239258 C-0.11341209 47.08105156 -0.11341209 47.08105156 -0.11329651 45.42695618 C-0.10813522 44.26125595 -0.10297394 43.09555573 -0.09765625 41.89453125 C-0.0962413 40.70018967 -0.09482635 39.50584808 -0.09336853 38.27531433 C-0.0877635 34.45435092 -0.07521011 30.63344575 -0.0625 26.8125 C-0.05748565 24.22461022 -0.05292263 21.63671952 -0.04882812 19.04882812 C-0.03779243 12.69919882 -0.02104936 6.34960357 0 0 Z " fill="#000000" transform="translate(15,234)"/>
<path d="M0 0 C8.25 0 16.5 0 25 0 C25.87890625 3.48307292 26.7578125 6.96614583 27.63671875 10.44921875 C29.44091972 15.14841267 32.01227298 17.81810826 36.3125 20.375 C41.28966444 21.5324801 45.11835501 21.05477305 49.515625 18.58984375 C51.72824955 17.11823968 53.88152277 15.60356957 56 14 C60.62274182 16.09445228 63.73141687 19.28923456 67.3125 22.8125 C67.97056641 23.42931641 68.62863281 24.04613281 69.30664062 24.68164062 C73.97944081 29.27631667 73.97944081 29.27631667 74.078125 32.75 C73.04438714 34.90736597 72.03230477 36.4200383 70.4375 38.1875 C67.62714767 41.92919001 67.32280713 45.02282672 67.58203125 49.6328125 C68.22049731 53.24879786 69.51842352 55.32250959 72 58 C77.2287502 61.48583347 81.41132422 61.68226484 88 63 C88 71.25 88 79.5 88 88 C84.04 88.99 80.08 89.98 76 91 C70.90448444 94.05730934 69.8704308 94.68403877 68 100 C66.70268472 106.10571322 68.18882419 109.84773323 71.5 115.0625 C72.655 116.691875 73.81 118.32125 75 120 C69.39 125.61 63.78 131.22 58 137 C53 135 53 135 50.1875 132.9375 C46.37097306 130.61765029 43.46521038 129.64946012 39 130 C33.15460109 131.77767051 31.23335828 133.61106954 28 139 C27.01 142.96 26.02 146.92 25 151 C16.75 151 8.5 151 0 151 C-0.71614583 147.484375 -1.43229167 143.96875 -2.1484375 140.453125 C-3.08907828 136.49537991 -3.08907828 136.49537991 -5 133 C-8.92269614 130.7869922 -13.03573622 130.017219 -17.5 129.9375 C-21.64075569 131.19451512 -24.48128639 133.19516571 -27.88671875 135.8203125 C-30 137 -30 137 -31.90258789 136.78491211 C-34.46972171 135.82421659 -35.76184523 134.58052084 -37.671875 132.62109375 C-38.33574219 131.94755859 -38.99960937 131.27402344 -39.68359375 130.58007812 C-40.36550781 129.87302734 -41.04742187 129.16597656 -41.75 128.4375 C-42.44738281 127.72658203 -43.14476562 127.01566406 -43.86328125 126.28320312 C-45.5824658 124.52869286 -47.29425872 122.76756648 -49 121 C-47.77934541 117.70309181 -46.40525607 114.98635504 -44.375 112.125 C-41.91820118 108.25808588 -41.31280049 105.63859669 -42 101 C-43.74982934 96.30308966 -45.67915241 93.55723633 -50 91 C-53.96 90.01 -57.92 89.02 -62 88 C-62 79.75 -62 71.5 -62 63 C-58.04 62.01 -54.08 61.02 -50 60 C-44.96885795 58.62976156 -44.96885795 58.62976156 -43.75 55.5 C-43.5025 54.675 -43.255 53.85 -43 53 C-42.67 52.34 -42.34 51.68 -42 51 C-41.28505237 43.85052373 -43.76657783 39.1906031 -47.75 33.5 C-48.1625 33.005 -48.575 32.51 -49 32 C-46.90308431 27.35919113 -43.67171494 24.26672047 -40.125 20.6875 C-39.49980469 20.02943359 -38.87460937 19.37136719 -38.23046875 18.69335938 C-37.62074219 18.07654297 -37.01101563 17.45972656 -36.3828125 16.82421875 C-35.82996582 16.25791748 -35.27711914 15.69161621 -34.70751953 15.1081543 C-33 14 -33 14 -30.92993164 14.2331543 C-28.46387807 15.21302454 -26.49264177 16.61540103 -24.3125 18.125 C-19.88481963 20.84821934 -17.06828853 21.65186767 -11.97265625 20.609375 C-7.88527252 19.34673765 -5.72399933 18.0725916 -3.3125 14.5 C-1.45716577 9.86820481 -1.45716577 9.86820481 0 0 Z M-13 56 C-18.54247178 64.80975228 -20.6056788 73.5443322 -18.38671875 83.84765625 C-15.23941416 93.70551336 -9.21415895 100.39266587 -0.078125 105.125 C7.7139688 108.4058816 17.56631638 108.28890976 25.4375 105.375 C34.52119843 101.09332218 40.28116278 94.24589631 43.81640625 84.82421875 C46.07714651 76.68239193 44.99218991 69.72343037 42 62 C37.63638299 54.29094328 31.05745136 48.12412957 22.875 44.6875 C8.49975584 42.13705346 -3.24058284 44.7198847 -13 56 Z " fill="#000000" transform="translate(409,103)"/>
<path d="M0 0 C2.94766026 1.1693165 5.83850707 2.36056933 8.6796875 3.76953125 C51.30226621 24.60360697 100.80942973 27.35758201 147.5625 28.5625 C155.6990625 28.7790625 155.6990625 28.7790625 164 29 C164 49.46 164 69.92 164 91 C129.94051205 91 129.94051205 91 118.625 90.25 C117.95675201 90.20709839 117.28850403 90.16419678 116.6000061 90.11999512 C30.74615378 84.52189121 30.74615378 84.52189121 3.671875 59.9921875 C0.46681306 56.17307163 -0.2504194 52.46286473 -0.22705078 47.56713867 C-0.22689972 46.50641647 -0.22674866 45.44569427 -0.22659302 44.35282898 C-0.21627045 43.2193251 -0.20594788 42.08582123 -0.1953125 40.91796875 C-0.1924826 39.74865311 -0.18965271 38.57933746 -0.18673706 37.37458801 C-0.17555562 33.64545392 -0.15045434 29.91656132 -0.125 26.1875 C-0.11496759 23.65690451 -0.10584219 21.12630526 -0.09765625 18.59570312 C-0.07562292 12.39705323 -0.04216534 6.19854387 0 0 Z " fill="#000000" transform="translate(15,311)"/>
</svg>
