<?xml version="1.0" encoding="UTF-8"?>
<svg version="1.1" xmlns="http://www.w3.org/2000/svg" width="512" height="512">
<path d="M0 0 C4.19676072 0.69946012 7.06617038 1.25779214 10.859375 2.75 C51.97650172 18.46979253 94.35229054 24.90603629 138 29 C138.04704885 38.29518828 138.08222725 47.59033348 138.10362434 56.8856163 C138.11391142 61.20520076 138.12778145 65.52470182 138.15087891 69.84423828 C138.38642057 115.15228428 134.86778669 158.82259129 120 202 C119.77908691 202.65129883 119.55817383 203.30259766 119.33056641 203.97363281 C109.10281309 233.79504629 93.65806488 261.41073439 74 286 C73.19175781 287.01578125 72.38351562 288.0315625 71.55078125 289.078125 C57.04720307 306.92846588 40.36783963 321.78428811 21.375 334.625 C20.21871094 335.40786377 20.21871094 335.40786377 19.0390625 336.20654297 C18.31203125 336.68752441 17.585 337.16850586 16.8359375 337.6640625 C16.19188965 338.09154785 15.5478418 338.5190332 14.88427734 338.95947266 C13 340 13 340 9 341 C9 259.16 9 177.32 9 93 C31.90986998 93 31.90986998 93 37.95703125 97.52734375 C43.61609564 101.60663108 50.63734538 101.33895014 57.296875 100.5390625 C65.55078107 98.89305233 73.55740096 94.44165293 78.75 87.75 C84.15371541 79.42150133 85.01026982 70.79184598 84 61 C82.47251084 55.09370857 80.02276974 50.59745113 76 46 C76 45.34 76 44.68 76 44 C75.484375 43.7525 74.96875 43.505 74.4375 43.25 C72.44608125 42.22875962 70.49691864 41.12547994 68.5625 40 C59.30395851 34.74568004 51.35594013 34.2806685 41.0546875 36.8203125 C38.29851122 37.88471817 36.88585458 38.84841518 34.6015625 40.59765625 C28.53664243 44.5332949 21.45290774 43.52443315 14.5 43.3125 C9.715 43.209375 4.93 43.10625 0 43 C0 28.81 0 14.62 0 0 Z " fill="#000000" transform="translate(281,77)"/>
<path d="M0 0 C0 14.19 0 28.38 0 43 C-7.1775 43.1546875 -7.1775 43.1546875 -14.5 43.3125 C-15.99337891 43.35802002 -17.48675781 43.40354004 -19.02539062 43.45043945 C-27.03965662 43.5339663 -31.68915527 42.87127416 -38 38 C-47.19302199 34.21320551 -56.2110136 34.46743141 -65.4921875 37.9296875 C-68.17031297 39.19517536 -70.50852785 40.4952121 -72.5859375 42.62890625 C-74 44 -74 44 -76 44 C-76.27714844 44.5671875 -76.55429688 45.134375 -76.83984375 45.71875 C-78.4088548 48.80394344 -80.14924876 51.78386135 -81.87890625 54.78125 C-85.35978892 61.67024428 -85.18348609 71.32015786 -83.31640625 78.703125 C-82.36878299 80.95225573 -81.30426371 82.93829122 -80 85 C-79.56429687 85.70769531 -79.12859375 86.41539062 -78.6796875 87.14453125 C-73.50205797 94.76951026 -66.7979358 98.41948018 -57.92578125 100.5546875 C-47.08692785 102.20439282 -38.88725127 98.92483418 -30 93 C-23.07 93 -16.14 93 -9 93 C-9 174.84 -9 256.68 -9 341 C-15.75752376 338.74749208 -15.75752376 338.74749208 -18.69921875 336.71484375 C-19.34552246 336.27124512 -19.99182617 335.82764648 -20.65771484 335.37060547 C-21.32754395 334.89768066 -21.99737305 334.42475586 -22.6875 333.9375 C-23.39084473 333.44652832 -24.09418945 332.95555664 -24.81884766 332.44970703 C-30.78363796 328.24207122 -36.47876852 323.77699025 -42 319 C-42.78117187 318.3296875 -43.56234375 317.659375 -44.3671875 316.96875 C-56.2316279 306.54360237 -67.27851572 295.45696695 -76.68945312 282.75927734 C-78.01797091 280.97587587 -79.37360037 279.21590484 -80.734375 277.45703125 C-87.57662944 268.50640069 -93.30570354 259.07609736 -98.76269531 249.22802734 C-99.86518527 247.24276228 -100.98764863 245.27071865 -102.1171875 243.30078125 C-128.76934622 195.50885809 -138.28197272 139.96854953 -138.09765625 85.8359375 C-138.09578374 84.18014571 -138.0943638 82.52435335 -138.09336853 80.86856079 C-138.08960876 76.57798648 -138.0798371 72.28744776 -138.06866455 67.99688721 C-138.05830708 63.5916797 -138.05384068 59.18646626 -138.04882812 54.78125 C-138.03820667 46.18748393 -138.02121236 37.59374643 -138 29 C-136.15329712 28.81993408 -136.15329712 28.81993408 -134.26928711 28.63623047 C-89.79046873 24.25392653 -47.36848336 16.76041951 -5.43481445 0.79101562 C-3 0 -3 0 0 0 Z " fill="#000000" transform="translate(231,77)"/>
<path d="M0 0 C11.88 0 23.76 0 36 0 C36.09041481 38.22644958 36.16203267 76.45287107 36.20426132 114.67940605 C36.20926418 119.19178846 36.21444147 123.70417065 36.21972656 128.21655273 C36.2207758 129.11489161 36.22182505 130.01323048 36.22290608 130.93879174 C36.24031413 145.48701413 36.27185402 160.03517334 36.30861118 174.58335824 C36.34600948 189.50972189 36.3682335 204.43605244 36.37635398 219.36246103 C36.38184406 228.57382269 36.39918767 237.78500575 36.43166587 246.99631243 C36.45280004 253.31176066 36.45920254 259.62711648 36.45400551 265.94259752 C36.451442 269.58704178 36.45538795 273.23117383 36.4768219 276.87556267 C36.49989496 280.82752218 36.49195361 284.77907481 36.48101807 288.73109436 C36.49266943 289.88187991 36.5043208 291.03266545 36.51632524 292.21832329 C36.46749713 298.73209061 35.82884912 302.67711267 32 308 C31.55245361 308.65081543 31.10490723 309.30163086 30.64379883 309.97216797 C30.25216553 310.47377441 29.86053223 310.97538086 29.45703125 311.4921875 C29.02326172 312.05164063 28.58949219 312.61109375 28.14257812 313.1875 C27.48418945 314.0228125 27.48418945 314.0228125 26.8125 314.875 C26.36197266 315.45507812 25.91144531 316.03515625 25.44726562 316.6328125 C21.29665945 321.95952747 21.29665945 321.95952747 18.22265625 322.37890625 C15 322 15 322 12.62109375 319.83984375 C11.90050781 318.88207031 11.17992187 317.92429687 10.4375 316.9375 C9.29087891 315.43509766 9.29087891 315.43509766 8.12109375 313.90234375 C7.07115234 312.46568359 7.07115234 312.46568359 6 311 C5.45472656 310.27941406 4.90945312 309.55882812 4.34765625 308.81640625 C1.07643686 304.40737142 -0.12530835 301.36658221 -0.12304783 295.93002796 C-0.12503888 294.87555275 -0.12702993 293.82107753 -0.12908131 292.73464853 C-0.12616847 291.57221161 -0.12325563 290.4097747 -0.12025452 289.21211243 C-0.12110894 287.98039989 -0.12196337 286.74868736 -0.12284368 285.4796502 C-0.12420903 282.05453333 -0.12107225 278.62947324 -0.11606562 275.20436323 C-0.11175618 271.51317493 -0.1132079 267.82198845 -0.1139679 264.13079834 C-0.11449282 257.73347366 -0.11134933 251.33615917 -0.10573006 244.93883705 C-0.09761076 235.68932841 -0.09499939 226.4398247 -0.09374207 217.19031288 C-0.09155222 202.18440827 -0.08489397 187.17850909 -0.07543945 172.17260742 C-0.06626359 157.59383166 -0.0591836 143.01505737 -0.05493164 128.4362793 C-0.05466892 127.5379818 -0.05440619 126.6396843 -0.05413551 125.71416567 C-0.05283049 121.20777213 -0.05156678 116.70137858 -0.05032361 112.19498503 C-0.03995311 74.7966527 -0.02206184 37.39832713 0 0 Z " fill="#000000" transform="translate(238,170)"/>
<path d="M0 0 C0.86874756 0.30180176 1.73749512 0.60360352 2.63256836 0.91455078 C43.76460002 15.12453683 84.92382322 23.12023189 128.44140625 25.484375 C129.13164383 25.52355545 129.82188141 25.5627359 130.53303528 25.60310364 C133.84567514 25.7906365 137.15536852 25.9586097 140.47094727 26.09057617 C141.64842529 26.15220947 142.82590332 26.21384277 144.0390625 26.27734375 C145.07240723 26.32109131 146.10575195 26.36483887 147.17041016 26.40991211 C150.70244707 27.14648961 152.43914934 28.49482 155 31 C155.91275253 33.73825759 156.12729031 35.34109332 156.13371277 38.15855408 C156.14011024 39.42927261 156.14011024 39.42927261 156.14663696 40.72566223 C156.14618378 41.65271469 156.14573059 42.57976715 156.14526367 43.53491211 C156.14862228 44.5144989 156.1519809 45.49408569 156.15544128 46.50335693 C156.16497938 49.76136532 156.16689753 53.01932223 156.16796875 56.27734375 C156.17118543 58.56010458 156.17454981 60.84286521 156.17805481 63.12562561 C156.18405741 67.93344599 156.18589416 72.7412484 156.18530273 77.54907227 C156.18522219 82.42996993 156.19204232 87.31077232 156.20581055 92.19165039 C156.35508607 145.93210785 156.35508607 145.93210785 154 167 C153.91076263 167.79943024 153.82152527 168.59886047 153.72958374 169.42251587 C153.19036892 174.03291084 152.51192874 178.60789424 151.75 183.1875 C151.64395447 183.84224304 151.53790894 184.49698608 151.4286499 185.17156982 C148.05529585 205.94027528 142.8876417 226.12244303 136 246 C135.56397461 247.26626221 135.56397461 247.26626221 135.11914062 248.55810547 C120.45124827 290.52997183 96.70746597 328.00140021 66 360 C65.14664063 360.89460938 64.29328125 361.78921875 63.4140625 362.7109375 C58.13074441 368.12758854 52.59434872 373.05258996 46.63574219 377.71484375 C45.47748576 378.62485298 44.32504056 379.54228129 43.17675781 380.46484375 C27.6623929 392.92605623 11.2123754 402.98655482 -7 411 C-7 404.07 -7 397.14 -7 390 C-3.8134375 388.39125 -3.8134375 388.39125 -0.5625 386.75 C12.21997826 380.06973847 24.02208331 371.32159944 35 362 C35.73476563 361.37609375 36.46953125 360.7521875 37.2265625 360.109375 C49.82174715 349.0727918 61.79228575 337.22922424 71.72607422 323.72265625 C73.02634022 321.96438165 74.3557982 320.23153929 75.69140625 318.5 C93.57057517 295.06904636 106.78139536 268.54011033 117 241 C117.32983887 240.11908691 117.65967773 239.23817383 117.99951172 238.33056641 C134.66372222 193.19869258 137.37713393 146.06760243 137.31567383 98.49462891 C137.30978545 93.54652854 137.32709322 88.59879122 137.3500185 83.65075111 C137.36471932 79.80404486 137.36563442 75.95742806 137.36250877 72.1106987 C137.36302023 70.28387079 137.36822486 68.45703766 137.37832069 66.63023758 C137.39064541 64.09780604 137.38392635 61.56611092 137.37231445 59.03369141 C137.37995819 58.28992249 137.38760193 57.54615356 137.39547729 56.77984619 C137.35057832 52.35370337 136.73466654 49.51775274 134 46 C131.10292698 44.55146349 128.39055097 44.6464206 125.16015625 44.421875 C123.70787231 44.31551513 122.25564481 44.20838253 120.8034668 44.10058594 C120.0322348 44.04414917 119.26100281 43.9877124 118.46640015 43.92956543 C74.65738716 40.65713989 30.45762231 33.86652046 -10 16 C-8.56058464 12.96200316 -6.88346492 10.22031941 -5 7.4375 C-4.484375 6.67308594 -3.96875 5.90867187 -3.4375 5.12109375 C-2.963125 4.42113281 -2.48875 3.72117188 -2 3 C-1.34 2.01 -0.68 1.02 0 0 Z " fill="#000000" transform="translate(297,46)"/>
<path d="M0 0 C2.38254264 2.32040016 4.22824001 4.65561721 6.0625 7.4375 C6.56910156 8.19933594 7.07570312 8.96117187 7.59765625 9.74609375 C8.86719683 11.78655313 9.9677619 13.8318061 11 16 C-28.19262157 32.30135587 -69.97381768 40.62232903 -112.26171875 43.51953125 C-114.04703003 43.6429187 -114.04703003 43.6429187 -115.8684082 43.76879883 C-118.15381608 43.91948331 -120.44016367 44.05670633 -122.72729492 44.1784668 C-124.266073 44.27575073 -124.266073 44.27575073 -125.8359375 44.375 C-126.73876465 44.42398438 -127.6415918 44.47296875 -128.57177734 44.5234375 C-131.45068323 45.088451 -132.88012339 45.9913827 -135 48 C-136.21684441 51.65053324 -136.14755735 55.00585747 -136.14526367 58.80664062 C-136.14862228 59.60251587 -136.1519809 60.39839111 -136.15544128 61.21838379 C-136.16497471 63.86435497 -136.16689762 66.51026267 -136.16796875 69.15625 C-136.17118688 71.0154218 -136.17455136 72.87459336 -136.17805481 74.73376465 C-136.18405703 78.65129173 -136.18589431 82.56879676 -136.18530273 86.48632812 C-136.18522237 90.45252126 -136.19201388 94.41859672 -136.20581055 98.38476562 C-136.36584824 145.08317531 -133.46124737 190.48393035 -118 235 C-117.73606445 235.76828125 -117.47212891 236.5365625 -117.20019531 237.328125 C-106.6734241 267.7136438 -91.97660978 296.70885818 -72 322 C-71.35804688 322.83402344 -70.71609375 323.66804688 -70.0546875 324.52734375 C-64.73004343 331.35021763 -58.96121765 337.73412956 -53 344 C-52.11779785 344.93320068 -52.11779785 344.93320068 -51.21777344 345.88525391 C-41.56143122 356.03518704 -31.43483652 364.90607266 -20 373 C-19.34080566 373.46664063 -18.68161133 373.93328125 -18.00244141 374.4140625 C-9.64228739 380.27056269 -1.06620571 385.31409593 8 390 C8 396.93 8 403.86 8 411 C-10.95540821 402.44868803 -28.05120996 392.37479084 -44 379 C-44.59731934 378.50419434 -45.19463867 378.00838867 -45.81005859 377.49755859 C-59.39568742 366.17560616 -72.18854619 354.03462999 -83 340 C-84.00319572 338.73641473 -85.00715842 337.47343816 -86.01171875 336.2109375 C-135.86274408 272.97267443 -155.07032188 194.76048856 -155.203125 115.42578125 C-155.20736607 113.70297471 -155.20736607 113.70297471 -155.21169281 111.945364 C-155.22656354 105.89008742 -155.23587448 99.83483401 -155.24023438 93.77954102 C-155.24576134 87.53417158 -155.26991167 81.28901552 -155.29820633 75.04371357 C-155.31679885 70.22335672 -155.32203608 65.40305226 -155.32357025 60.58266258 C-155.32659518 58.27855424 -155.33461829 55.97444679 -155.34775543 53.67037392 C-155.36477567 50.46147589 -155.36294763 47.25311406 -155.35644531 44.04418945 C-155.3656601 43.09612427 -155.37487488 42.14805908 -155.3843689 41.17126465 C-155.35347975 36.31449125 -155.2460751 32.89328534 -152 29 C-148.88827318 26.92551545 -147.89780972 26.7059754 -144.31787109 26.48510742 C-143.36231323 26.42110245 -142.40675537 26.35709747 -141.42224121 26.29115295 C-139.86358337 26.19923927 -139.86358337 26.19923927 -138.2734375 26.10546875 C-136.03756114 25.95643874 -133.8017227 25.80683901 -131.56591797 25.65673828 C-130.39172302 25.58070374 -129.21752808 25.50466919 -128.00775146 25.42633057 C-84.46729604 22.5638194 -40.59797348 16.96581519 0 0 Z " fill="#000000" transform="translate(214,46)"/>
<path d="M0 0 C29.04 0 58.08 0 88 0 C88 5.94 88 11.88 88 18 C58.96 18 29.92 18 0 18 C0 12.06 0 6.12 0 0 Z " fill="#000000" transform="translate(212,136)"/>
<path d="M0 0 C7.71210792 3.30185558 14.77108216 8.96385269 20 15.5 C21.37185501 18.92963752 21.45033526 21.33298434 21 25 C18.52690825 29.85106459 15.70964892 32.34938873 11 35 C6.45102242 35.71564813 1.91142673 35.65923018 -2.68505859 35.63134766 C-4.86369856 35.62503276 -7.03687584 35.67196005 -9.21484375 35.72265625 C-16.33191852 35.78778194 -22.02192788 35.6077787 -27.62158203 30.68115234 C-29.99650266 27.78464093 -30.92940861 25.45884401 -31.5 21.75 C-30.60144607 15.01084552 -26.30261152 10.80521301 -21.0625 6.75 C-19.71773508 5.81959554 -18.36388697 4.9021405 -17 4 C-16.43410156 3.58492187 -15.86820313 3.16984375 -15.28515625 2.7421875 C-10.37905922 -0.55932721 -5.6863984 -1.11348011 0 0 Z " fill="#000000" transform="translate(261,17)"/>
<path d="M0 0 C7.26311164 6.71837827 7.26311164 6.71837827 7.73828125 11.921875 C7.98734758 22.46131343 7.98734758 22.46131343 3.5 27.3125 C-0.42795792 31.03372329 -4.11436778 33.14258909 -9.6015625 33.41796875 C-15.86167942 33.12755095 -20.23471888 30.89742748 -24.5 26.3125 C-27.71261664 21.42555547 -27.94991232 16.39454845 -27.13671875 10.7109375 C-25.78500757 5.61921563 -23.07686411 2.50476311 -18.9375 -0.625 C-12.54567636 -2.60065458 -6.08801902 -2.93529488 0 0 Z " fill="#000000" transform="translate(342.5,129.6875)"/>
<path d="M0 0 C4.25291542 2.23301224 6.73588623 5.04400408 8.79296875 9.31640625 C10.32365015 15.70304244 10.19978951 20.52481095 6.79296875 26.31640625 C2.3134534 31.35586102 -1.1437226 33.76317109 -7.80078125 34.3359375 C-12.6588043 34.29650549 -16.4489881 32.97125991 -20.00390625 29.625 C-24.82142469 24.13073492 -25.55843668 20.63202338 -25.48828125 13.30078125 C-24.98641149 7.9753855 -22.45317749 5.41420175 -18.58203125 2.00390625 C-13.22728158 -1.80078431 -6.25529006 -1.93747922 0 0 Z " fill="#000000" transform="translate(187.20703125,128.68359375)"/>
<path d="M0 0 C5.94 0 11.88 0 18 0 C18 17.16 18 34.32 18 52 C12.06 52 6.12 52 0 52 C0 34.84 0 17.68 0 0 Z " fill="#000000" transform="translate(247,68)"/>
</svg>
