<?xml version="1.0" encoding="UTF-8"?>
<svg version="1.1" xmlns="http://www.w3.org/2000/svg" width="512" height="512">
<path d="M0 0 C1.16626458 -0.00226556 2.33252917 -0.00453111 3.5341351 -0.00686532 C6.75375383 -0.01208269 9.97333724 -0.01285326 13.19295883 -0.01167095 C16.67229356 -0.01146618 20.15162007 -0.01699292 23.63095093 -0.02172852 C30.44117028 -0.03001931 37.25138097 -0.03278265 44.06160495 -0.03334089 C49.60002354 -0.03381681 55.1384393 -0.03587534 60.67685699 -0.03904152 C76.39533842 -0.0478439 92.11381303 -0.05246156 107.83229694 -0.05171105 C108.67890177 -0.05167109 109.52550659 -0.05163113 110.39776611 -0.05158997 C111.66923224 -0.05152864 111.66923224 -0.05152864 112.96638456 -0.05146609 C126.69914969 -0.05105976 140.43188738 -0.06062701 154.16464457 -0.07472833 C168.28107264 -0.0891087 182.39748735 -0.0959976 196.51392293 -0.09513456 C204.43288536 -0.09480316 212.35181903 -0.09752526 220.27077484 -0.10831261 C227.01376156 -0.11743949 233.75670647 -0.11957494 240.4996967 -0.11280318 C243.93612036 -0.10954896 247.37246392 -0.10944132 250.80887985 -0.11815643 C254.5440442 -0.12589833 258.27900015 -0.12121681 262.01416016 -0.11352539 C263.08656031 -0.11866895 264.15896047 -0.12381252 265.2638576 -0.12911195 C285.0404427 -0.03952608 302.37869852 6.11035547 316.87823486 19.72355652 C331.01991479 34.02751802 337.6298462 51.39467661 337.79602098 71.3897028 C337.7870981 72.70957911 337.77817521 74.02945543 337.76898193 75.389328 C337.77360572 76.85191941 337.77996844 78.31450614 337.78789091 79.7770834 C337.80440491 83.7463311 337.79642092 87.71518824 337.78394604 91.68443632 C337.77482336 95.98445847 337.78890072 100.28441762 337.79986572 104.58442688 C337.81757917 112.98847295 337.81384312 121.3923755 337.80221516 129.79642701 C337.79315272 136.63135082 337.79196895 143.46623462 337.79631042 150.30116272 C337.79692336 151.27685319 337.79753629 152.25254367 337.79816779 153.25780052 C337.7994468 155.24038229 337.80074365 157.22296404 337.80205816 159.20554578 C337.81344294 177.76203883 337.80038332 196.31845261 337.77885669 214.87493265 C337.76098764 230.77015162 337.76409234 246.66525371 337.78253174 262.56047058 C337.80397567 281.05411863 337.8123445 299.54769734 337.80008268 318.04135609 C337.79880859 320.01632499 337.79755111 321.9912939 337.79631042 323.96626282 C337.79538477 325.42354857 337.79538477 325.42354857 337.79444042 326.91027445 C337.79099808 333.73077313 337.79679171 340.55122754 337.80622864 347.37171936 C337.81748924 355.6925382 337.81432367 364.01320624 337.79310566 372.33400798 C337.78264961 376.57304343 337.77837949 380.8118282 337.79170227 385.05086136 C337.80374617 388.94205692 337.79686961 392.8327728 337.77579206 396.72392571 C337.76930726 398.77519222 337.78215386 400.82649285 337.79602098 402.87772274 C337.63329008 422.45836357 331.23723789 440.46452967 317.24542236 454.41105652 C301.72477417 468.999023 283.38762004 474.29730781 262.52209473 474.26742554 C260.77269785 474.27082387 260.77269785 474.27082387 258.98795962 474.27429086 C255.7683409 474.27950823 252.54875748 474.2802788 249.32913589 474.27909648 C245.84980117 474.27889172 242.37047466 474.28441846 238.8911438 474.28915405 C232.08092445 474.29744485 225.27071376 474.30020818 218.46048978 474.30076643 C212.92207118 474.30124235 207.38365543 474.30330087 201.84523773 474.30646706 C186.12675631 474.31526943 170.4082817 474.3198871 154.68979779 474.31913658 C153.84319296 474.31909663 152.99658813 474.31905667 152.12432861 474.3190155 C150.85286248 474.31895418 150.85286248 474.31895418 149.55571017 474.31889162 C135.82294504 474.3184853 122.09020735 474.32805255 108.35745016 474.34215387 C94.24102208 474.35653424 80.12460738 474.36342314 66.0081718 474.36256009 C58.08920937 474.36222869 50.1702757 474.3649508 42.25131989 474.37573814 C35.50833317 474.38486503 28.76538826 474.38700048 22.02239802 474.38022872 C18.58597436 474.3769745 15.14963081 474.37686686 11.71321487 474.38558197 C7.97805053 474.39332386 4.24309458 474.38864235 0.50793457 474.38095093 C-0.56446559 474.38609449 -1.63686574 474.39123805 -2.74176288 474.39653748 C-23.18808973 474.30391776 -40.43084812 467.60700575 -55.39129639 453.57121277 C-70.13417412 438.26413172 -75.22455024 419.99458465 -75.12663269 399.19416809 C-75.13081525 397.7293305 -75.13629778 396.26449616 -75.1429525 394.79966772 C-75.15730499 390.810374 -75.15319464 386.82128867 -75.14578569 382.83198404 C-75.14103085 378.51557425 -75.15358422 374.19920805 -75.1638031 369.8828125 C-75.18095121 361.44061576 -75.18183942 352.99849359 -75.1765902 344.55628397 C-75.17253985 337.69077299 -75.1740023 330.82528395 -75.17933846 323.95977402 C-75.18008688 322.98061299 -75.1808353 322.00145196 -75.1816064 320.99261939 C-75.18313796 319.00311029 -75.18467631 317.01360121 -75.18622137 315.02409212 C-75.19993196 296.38992549 -75.19451884 277.75580091 -75.18303616 259.12163524 C-75.17310507 242.09648943 -75.18604488 225.07145231 -75.20997035 208.04632325 C-75.23438755 190.53854584 -75.24396279 173.03081901 -75.23731762 155.52302492 C-75.23383126 145.70427372 -75.23601893 135.88560609 -75.25356865 126.06686783 C-75.26832343 117.70862551 -75.26888335 109.35052561 -75.25149774 100.99228598 C-75.24301233 96.73313774 -75.2407776 92.47424356 -75.25614929 88.21510887 C-75.27008025 84.306584 -75.26512674 80.39852885 -75.24591006 76.49003057 C-75.2421753 75.08572143 -75.24499808 73.68137389 -75.25552171 72.27709921 C-75.3890547 53.0735648 -69.57555308 36.58118071 -56.73895264 22.13371277 C-56.18465576 21.49691589 -55.63035889 20.86011902 -55.05926514 20.20402527 C-40.71092824 4.7572511 -20.246269 -0.02899542 0 0 Z M211.13604736 92.97355652 C208.7317007 95.74356424 206.24720028 98.43742124 203.76104736 101.13371277 C200.13984471 105.06627913 196.57145139 109.03586064 193.06964111 113.07511902 C190.83093486 115.62327927 188.54694525 118.1278187 186.26104736 120.63371277 C182.20260847 125.08510187 178.20986908 129.58518682 174.26104736 134.13371277 C172.94909596 135.63419262 171.63660503 137.13420091 170.32354736 138.63371277 C169.73702393 139.30402527 169.15050049 139.97433777 168.54620361 140.66496277 C168.12210205 141.14965027 167.69800049 141.63433777 167.26104736 142.13371277 C162.637139 140.53620124 158.86824529 138.0673196 154.82354736 135.38371277 C153.29806233 134.38416482 151.77199157 133.38551037 150.24542236 132.38761902 C149.43653564 131.85797546 148.62764893 131.32833191 147.79425049 130.78263855 C143.40901311 127.92817698 138.99096528 125.12551761 134.57354736 122.32121277 C128.7687619 118.63609771 122.96631684 114.94781341 117.17901611 111.23527527 C116.18796875 110.60081482 115.19692139 109.96635437 114.17584229 109.31266785 C112.27998658 108.09867867 110.38553886 106.88248691 108.49273682 105.66374207 C99.865497 99.7879443 99.865497 99.7879443 89.88604736 97.69621277 C88.5750708 97.66720886 88.5750708 97.66720886 87.23760986 97.63761902 C79.54063363 98.92044839 74.4308652 103.38474226 69.19854736 108.88371277 C68.62555908 109.46636902 68.0525708 110.04902527 67.46221924 110.64933777 C64.47879838 113.70994499 61.61867519 116.85031788 58.82745361 120.08683777 C54.54473348 125.02673906 49.8865964 129.55846161 45.22198486 134.13371277 C41.94404103 137.37368814 38.76969175 140.64068345 35.76104736 144.13371277 C31.51071924 149.06833408 26.86846398 153.57624666 22.22198486 158.13371277 C17.67875946 162.62431394 13.40489559 167.27283142 9.26104736 172.13371277 C8.11635986 173.46402527 8.11635986 173.46402527 6.94854736 174.82121277 C3.16535989 180.00558078 2.46424639 184.85124355 3.26104736 191.13371277 C4.86264973 197.28670414 7.68649074 201.44608982 12.99151611 204.96965027 C18.50578387 207.7979666 23.84838609 208.85890778 29.88604736 207.19621277 C34.91138266 205.17726227 38.45775448 201.90780571 42.26104736 198.13371277 C43.00483643 197.41570496 43.74862549 196.69769714 44.51495361 195.95793152 C48.00704699 192.53674359 51.34717101 189.05160167 54.53839111 185.34855652 C58.87826781 180.35551528 63.58005146 175.7633486 68.30010986 171.13371277 C72.25052935 167.22905103 75.98461394 163.22087652 79.60919189 159.01261902 C82.02338872 156.2665861 84.59081108 153.6945603 87.19854736 151.13371277 C87.69161377 150.64515808 88.18468018 150.15660339 88.69268799 149.65324402 C89.87977965 148.47767752 91.07005234 147.30532451 92.26104736 146.13371277 C97.67081497 148.73996545 102.69892647 151.56743448 107.69854736 154.88371277 C109.18894935 155.85971181 110.67986804 156.8349221 112.17120361 157.80949402 C112.97960693 158.33881531 113.78801025 158.8681366 114.62091064 159.41349792 C122.77820776 164.72848918 131.00015518 169.94438211 139.20782471 175.18107605 C142.10145837 177.03165034 144.9886023 178.89193447 147.87432861 180.75480652 C149.56559798 181.83965536 151.25699616 182.92430343 152.94854736 184.00871277 C153.70764404 184.50234314 154.46674072 184.99597351 155.24884033 185.50456238 C161.69521488 189.61831901 166.95451343 191.81573975 174.68292236 190.78605652 C183.73578092 188.49540897 189.46039148 180.93794234 195.26104736 174.13371277 C196.79783876 172.42099239 198.33945384 170.71258699 199.88604736 169.00871277 C202.49425898 166.11269849 205.08170226 163.20229141 207.63604736 160.25871277 C211.08820815 156.29274201 214.64855617 152.42853631 218.20928955 148.56047058 C221.36802701 145.12346857 224.46743073 141.64349956 227.52667236 138.11808777 C231.7792508 133.25252505 236.12972737 128.47104787 240.48370361 123.69621277 C244.61763668 119.14669913 248.69822953 114.55111318 252.69854736 109.88371277 C253.5222583 108.92980652 254.34596924 107.97590027 255.19464111 106.99308777 C259.18345092 101.47360048 260.15264532 95.7811963 259.26104736 89.13371277 C257.37231341 82.92464128 253.61602405 78.68810777 248.26104736 75.13371277 C231.53226688 67.46635505 220.86971184 81.57861757 211.13604736 92.97355652 Z M17.26104736 269.13371277 C14.98863834 274.60815269 14.76536008 279.45401137 16.26104736 285.13371277 C18.90344111 291.24082197 22.65098021 294.7053384 28.26104736 298.13371277 C31.93877858 299.35962318 35.33096121 299.28180797 39.16075134 299.28088379 C39.97438056 299.28456048 40.78800978 299.28823717 41.62629443 299.29202527 C44.36221776 299.30306915 47.09810312 299.30690715 49.83404541 299.31071472 C51.7919273 299.31697886 53.74980799 299.32362562 55.70768738 299.33062744 C61.03431915 299.34804215 66.36094194 299.35859061 71.68759513 299.36683297 C75.01525577 299.3719824 78.34291361 299.37805817 81.67057228 299.3843441 C92.08125984 299.40339796 102.4919403 299.41762839 112.90264195 299.42595607 C124.92133275 299.43572858 136.93983938 299.46204776 148.95846528 299.50245696 C158.24689824 299.53261525 167.5352784 299.5474247 176.82375938 299.55073708 C182.3718287 299.55308797 187.91970131 299.56205362 193.46771812 299.58719826 C198.68883379 299.61047869 203.90962324 299.61471221 209.13077736 299.60443687 C211.04476125 299.60394139 212.9587612 299.61026545 214.87269592 299.62399292 C217.49099515 299.64171819 220.10812444 299.63460284 222.72642517 299.62145996 C223.47926574 299.63242921 224.23210631 299.64339845 225.00776023 299.6547001 C231.95270968 299.57085452 237.11489663 297.23217127 242.07354736 292.38371277 C246.07779511 286.43454469 247.99823252 281.51394762 246.83135986 274.30168152 C244.95899357 267.18412474 240.55333561 262.99161184 234.57954025 259.01412868 C231.1555008 257.7138966 227.77763019 257.84821094 224.16516113 257.85955811 C223.34251038 257.85432143 222.51985963 257.84908475 221.67228007 257.84368938 C218.91178111 257.82867067 216.15146721 257.82798382 213.39093018 257.82731628 C211.41319465 257.81969599 209.43546208 257.81126871 207.45773315 257.80209351 C202.08156557 257.78012713 196.70545487 257.77134656 191.32924747 257.76626706 C187.97025183 257.76262561 184.61127114 257.75638661 181.25228119 257.74926567 C169.53319137 257.72476245 157.81414586 257.71171767 146.09503174 257.70817566 C135.17276521 257.7045411 124.25077982 257.67465355 113.32859921 257.63277107 C103.95096665 257.59807258 94.57342725 257.58262728 85.19573092 257.58192962 C79.59510416 257.58113658 73.99476361 257.57238512 68.39420319 257.54393196 C63.12458164 257.51775955 57.85548374 257.51554174 52.58582687 257.5315876 C50.65410343 257.53340281 48.72234994 257.52670488 46.79069138 257.51076889 C44.14813258 257.49030116 41.50740462 257.50086349 38.86486816 257.51898193 C38.10492782 257.50578197 37.34498747 257.492582 36.56201863 257.47898203 C28.09068616 257.61115564 21.91190251 262.29421991 17.26104736 269.13371277 Z M20.26104736 366.13371277 C16.37432673 371.53193587 14.99947532 376.45839427 15.26104736 383.13371277 C16.66645297 390.27267578 20.54505166 394.13828735 26.32354736 398.38371277 C30.13240719 400.65282075 33.09520363 401.25610405 37.48461914 401.27415466 C38.31997192 401.27986481 39.15532471 401.28557495 40.01599121 401.29145813 C40.9241156 401.29257599 41.83223999 401.29369385 42.7678833 401.29484558 C44.21251953 401.30229294 44.21251953 401.30229294 45.68634033 401.30989075 C48.87270828 401.32449607 52.05902643 401.33131201 55.24542236 401.33683777 C57.46256512 401.34259097 59.67970786 401.34834868 61.89685059 401.35411072 C66.54722322 401.36461635 71.19757859 401.37046175 75.84796143 401.37394714 C81.79744204 401.3794281 87.74669337 401.40344966 93.69610214 401.4319191 C98.27726908 401.45057348 102.85838112 401.4557526 107.43958282 401.45728302 C109.63235985 401.4603042 111.82513602 401.46831464 114.01787567 401.4814682 C117.09097056 401.49858546 120.16350965 401.49663433 123.2366333 401.49015808 C124.5866745 401.50398026 124.5866745 401.50398026 125.96398926 401.51808167 C132.89064153 401.47251809 138.54990509 400.41353695 144.01104736 395.82121277 C145.12479736 394.49090027 145.12479736 394.49090027 146.26104736 393.13371277 C147.37479736 391.80340027 147.37479736 391.80340027 148.51104736 390.44621277 C151.14841426 385.454054 151.96696841 380.46079965 150.78448486 374.88761902 C148.23686689 367.48272941 144.14823483 363.5773065 137.26104736 360.13371277 C134.46385443 359.27428637 131.95711576 359.00527732 129.03747559 358.99327087 C128.2021228 358.98756073 127.36677002 358.98185059 126.50610352 358.97596741 C125.59797913 358.97484955 124.68985474 358.97373169 123.75421143 358.97257996 C122.3095752 358.9651326 122.3095752 358.9651326 120.83575439 358.95753479 C117.64938644 358.94292947 114.46306829 358.93611353 111.27667236 358.93058777 C109.05952961 358.92483457 106.84238687 358.91907686 104.62524414 358.91331482 C99.9748715 358.90280919 95.32451613 358.89696378 90.6741333 358.89347839 C84.72465269 358.88799743 78.77540136 358.86397588 72.82599258 358.83550644 C68.24482565 358.81685206 63.66371361 358.81167294 59.0825119 358.81014252 C56.88973488 358.80712133 54.69695871 358.7991109 52.50421906 358.78595734 C49.43112417 358.76884008 46.35858508 358.77079121 43.28546143 358.77726746 C41.93542023 358.76344528 41.93542023 358.76344528 40.55810547 358.74934387 C32.77653699 358.80053109 25.95285664 360.44190349 20.26104736 366.13371277 Z " fill="#000000" transform="translate(124.73895263671875,18.866287231445313)"/>
</svg>
