<?xml version="1.0" encoding="UTF-8"?>
<svg version="1.1" xmlns="http://www.w3.org/2000/svg" width="512" height="512">
<path d="M0 0 C0.8962207 0.21430664 1.79244141 0.42861328 2.71582031 0.64941406 C51.76461673 12.70541519 95.45988251 43.93014797 122.18847656 86.91113281 C124.95272276 91.5228517 127.51913163 96.23066637 130 101 C130.34804688 101.66870117 130.69609375 102.33740234 131.0546875 103.02636719 C139.7502428 120.00067956 145.70719561 138.21742082 149 157 C149.17660156 157.97936523 149.35320312 158.95873047 149.53515625 159.96777344 C151.18800705 170.11214524 151.3988885 180.1163374 151.375 190.375 C151.37418427 191.69559921 151.37418427 191.69559921 151.37335205 193.0428772 C151.33280617 207.35313999 150.41339475 221.05028173 147 235 C146.67854004 236.34433105 146.67854004 236.34433105 146.35058594 237.71582031 C135.87330888 280.34171461 110.95586237 319.29760513 76 346 C75.42636719 346.44424316 74.85273438 346.88848633 74.26171875 347.34619141 C49.50123951 366.34008535 20.62331693 378.46967249 -10 384 C-11.01916504 384.18546387 -12.03833008 384.37092773 -13.08837891 384.56201172 C-23.18915358 386.20898894 -33.16837128 386.39983978 -43.375 386.375 C-44.25639648 386.37412384 -45.13779297 386.37324768 -46.04589844 386.37234497 C-60.35457435 386.32554119 -74.06111478 385.46874198 -88 382 C-88.99870117 381.75330566 -89.99740234 381.50661133 -91.02636719 381.25244141 C-104.62788812 377.7871806 -117.43027199 373.22960606 -130 367 C-130.70672852 366.65743164 -131.41345703 366.31486328 -132.14160156 365.96191406 C-158.12407736 353.28378922 -181.45341994 333.97006844 -199 311 C-199.44424316 310.42636719 -199.88848633 309.85273438 -200.34619141 309.26171875 C-219.34008535 284.50123951 -231.46967249 255.62331693 -237 225 C-237.18546387 223.98083496 -237.37092773 222.96166992 -237.56201172 221.91162109 C-239.20903619 211.81055663 -239.39876778 201.83182262 -239.375 191.625 C-239.37445618 190.74460052 -239.37391235 189.86420105 -239.37335205 188.9571228 C-239.33280617 174.64686001 -238.41339475 160.94971827 -235 147 C-234.78569336 146.1037793 -234.57138672 145.20755859 -234.35058594 144.28417969 C-223.44366685 99.910324 -196.97601101 59.91014949 -160 33 C-159.43651855 32.58685547 -158.87303711 32.17371094 -158.29248047 31.74804688 C-136.02297189 15.62867789 -110.73879484 4.96748041 -84 -1 C-82.94329102 -1.2477417 -82.94329102 -1.2477417 -81.86523438 -1.50048828 C-56.19165314 -7.27405876 -25.42258433 -6.22072175 0 0 Z M-50 54.625 C-50.66 54.92664062 -51.32 55.22828125 -52 55.5390625 C-56.6061951 58.90374408 -58.60797873 64.08235174 -60.31835938 69.34985352 C-60.72558228 70.58876846 -61.13280518 71.82768341 -61.55236816 73.10414124 C-61.98305085 74.4456583 -62.41350562 75.78724855 -62.84375 77.12890625 C-63.29850293 78.52433554 -63.75404293 79.91950854 -64.21032715 81.31443787 C-65.40721173 84.98106157 -66.59285835 88.65122573 -67.77630615 92.32220459 C-68.73382468 95.28633697 -69.69892509 98.24797165 -70.66454315 101.20947361 C-74.87112955 114.11087031 -79.04704795 127.01809944 -83 140 C-84.06187027 140.00142502 -85.12374054 140.00285004 -86.2177887 140.00431824 C-96.23751165 140.02100634 -106.2568294 140.06383544 -116.27633762 140.13209057 C-121.42720394 140.16634382 -126.57777417 140.19146799 -131.72875977 140.19555664 C-136.70220082 140.19984311 -141.67497415 140.22833508 -146.64820671 140.27343178 C-148.54311162 140.28639557 -150.43809648 140.29071843 -152.33304024 140.28615379 C-154.99301886 140.28123978 -157.65105194 140.30737428 -160.31079102 140.34057617 C-161.0897876 140.33195053 -161.86878418 140.32332489 -162.67138672 140.31443787 C-168.56827057 140.43738326 -171.50728456 142.18743761 -176 146 C-178.04090929 148.89786567 -178.32029715 151.36307685 -178.375 154.875 C-178.40335938 155.69742188 -178.43171875 156.51984375 -178.4609375 157.3671875 C-177.13656679 164.93181341 -170.99126738 168.60221 -165.125 172.75 C-164.27365479 173.36415771 -163.42230957 173.97831543 -162.54516602 174.61108398 C-160.03699982 176.41725614 -157.51968888 178.20995275 -155 180 C-153.756002 180.89121784 -152.51245417 181.78306468 -151.26953125 182.67578125 C-149.04528759 184.2707706 -146.81713368 185.86006517 -144.5859375 187.4453125 C-132.30581385 196.17923011 -120.13633489 205.06780072 -108 214 C-109.59170356 222.09409921 -112.12032001 229.81938506 -114.71875 237.6328125 C-115.18234457 239.03793755 -115.64551237 240.44320348 -116.10827637 241.84860229 C-117.3203031 245.52628614 -118.53726144 249.20231751 -119.7555542 252.87792969 C-121.70619439 258.76583403 -123.64926499 264.65624026 -125.59230042 270.54665756 C-126.2676409 272.59160384 -126.94510343 274.63583707 -127.6229248 276.67996216 C-128.03675415 277.93171234 -128.4505835 279.18346252 -128.87695312 280.47314453 C-129.23954224 281.56740753 -129.60213135 282.66167053 -129.97570801 283.78909302 C-133.27838231 294.03846202 -133.27838231 294.03846202 -130.4375 304.1875 C-127.3182932 307.78658477 -124.58761567 309.71667591 -120 311 C-112.96155264 310.7085784 -107.96373248 307.37382111 -102.5625 303.1875 C-100.98076459 302.00351092 -99.39872471 300.8199285 -97.81640625 299.63671875 C-96.61781982 298.72865479 -96.61781982 298.72865479 -95.39501953 297.80224609 C-91.63901268 294.97586051 -87.81849802 292.24100313 -84 289.5 C-82.50749038 288.42232098 -81.01530394 287.34419423 -79.5234375 286.265625 C-76.44746806 284.04386872 -73.3690577 281.82554668 -70.2890625 279.609375 C-61.79267526 273.49194086 -53.34045497 267.32893348 -45 261 C-42.33851091 262.27242652 -39.92766173 263.65600662 -37.5234375 265.36328125 C-36.86230957 265.8310498 -36.20118164 266.29881836 -35.52001953 266.78076172 C-34.81216309 267.28623535 -34.10430664 267.79170898 -33.375 268.3125 C-32.62718262 268.84375488 -31.87936523 269.37500977 -31.10888672 269.92236328 C-28.73625304 271.61074503 -26.36742313 273.30432101 -24 275 C-22.8872168 275.79688232 -22.8872168 275.79688232 -21.75195312 276.60986328 C-13.95608519 282.20127521 -6.19765123 287.84161188 1.51855469 293.54248047 C3.93411174 295.32634226 6.35345598 297.10495969 8.7734375 298.8828125 C11.23356518 300.69080594 13.67435822 302.5146865 16.1015625 304.3671875 C21.00398664 308.02503338 25.6758793 311.13673774 32 311 C37.23559372 309.54928487 41.29432706 306.76198437 44 302 C45.59041867 294.96099753 44.19205003 289.97340596 41.9140625 283.23046875 C41.41499138 281.69035378 41.41499138 281.69035378 40.90583801 280.11912537 C39.82729365 276.80343911 38.72625024 273.49570584 37.625 270.1875 C36.8839987 267.91959741 36.14449895 265.65120367 35.40649414 263.38232422 C32.29624815 253.84778975 29.12852145 244.33310376 25.89453125 234.83984375 C25.6760553 234.19587143 25.45757935 233.55189911 25.23248291 232.88841248 C24.27142088 230.05787868 23.29867141 227.23276599 22.30126953 224.41479492 C21.97368652 223.46580322 21.64610352 222.51681152 21.30859375 221.5390625 C20.88791626 220.35111084 20.88791626 220.35111084 20.45874023 219.13916016 C19.92505199 216.65050856 20.02519411 215.34638132 21 213 C22.37255859 211.66650391 22.37255859 211.66650391 24.1484375 210.4765625 C24.81415771 210.02031494 25.47987793 209.56406738 26.16577148 209.09399414 C26.89481689 208.60922607 27.6238623 208.12445801 28.375 207.625 C29.93754396 206.55534906 31.49869161 205.48365617 33.05859375 204.41015625 C33.87312012 203.85215332 34.68764648 203.29415039 35.52685547 202.71923828 C39.55847763 199.9166042 43.49644796 196.99047631 47.4375 194.0625 C53.74007683 189.39375741 60.07114215 184.76887881 66.4375 180.1875 C68.62038534 178.61068245 70.80255163 177.03287642 72.984375 175.45458984 C74.2869956 174.5145446 75.59155529 173.57717794 76.8984375 172.64306641 C78.58436028 171.43706105 80.26181682 170.22017285 81.9375 169 C82.85402344 168.34 83.77054687 167.68 84.71484375 167 C87.88039729 164.22946425 89.69853248 161.71374778 90.43359375 157.53515625 C90.44255545 151.86239996 89.96121107 148.38945011 86 144 C81.70283578 140.67123264 77.77524103 140.58757111 72.5378418 140.65942383 C71.6983046 140.65898575 70.8587674 140.65854767 69.99378967 140.65809631 C67.2286932 140.66018039 64.46420884 140.68349334 61.69921875 140.70703125 C59.77822704 140.71262856 57.85723105 140.71689802 55.93623352 140.71989441 C50.88748286 140.73133252 45.83899233 140.7607909 40.79034424 140.79400635 C35.63565591 140.82472945 30.48092543 140.83840454 25.32617188 140.85351562 C15.21733382 140.88566152 5.10868856 140.93684546 -5 141 C-5.23844383 140.07898247 -5.23844383 140.07898247 -5.48170471 139.13935852 C-7.68683288 130.82522834 -10.29751024 122.65484175 -12.96484375 114.48046875 C-13.1998163 113.75886377 -13.43478886 113.0372588 -13.67688179 112.293787 C-14.91688195 108.48628139 -16.16007591 104.67983672 -17.40600586 100.87426758 C-18.6861147 96.96216019 -19.95506419 93.04652569 -21.22157955 89.13000011 C-22.20461191 86.09700265 -23.19584545 83.06673122 -24.18930244 80.03713417 C-24.66079381 78.59452993 -25.12923499 77.15092485 -25.59446526 75.70628929 C-26.24563457 73.68689922 -26.90839047 71.67165987 -27.57397461 69.65698242 C-27.94687119 68.51323654 -28.31976776 67.36949066 -28.70396423 66.19108582 C-30.72600148 61.21244669 -32.9833696 56.91775686 -38 54.625 C-38.99 54.14933594 -38.99 54.14933594 -40 53.6640625 C-43.76097847 52.41530012 -46.56714822 52.975622 -50 54.625 Z " fill="#000000" transform="translate(300,4)"/>
<path d="M0 0 C1.75914499 1.11683656 3.51794989 2.23420881 5.27661133 3.35180664 C6.25608231 3.97398575 7.23555328 4.59616486 8.2447052 5.23719788 C10.368807 6.59617085 12.4786887 7.96886913 14.57421875 9.37109375 C23.05733934 15.00167191 31.75946382 19.73091869 41 24 C42.07628662 24.50080078 42.07628662 24.50080078 43.17431641 25.01171875 C96.27719957 49.39676824 157.44262538 50.98450148 212.18994141 31.13183594 C222.13682585 27.40198038 231.6589714 23.04987698 241 18 C241.5986084 17.68063477 242.1972168 17.36126953 242.81396484 17.03222656 C251.1148759 12.57520972 258.75737842 7.49230953 266.33203125 1.90625 C269 0 269 0 270 0 C270.09348422 16.71584927 270.16399912 33.43161362 270.20724869 50.14766121 C270.22786492 57.90940215 270.25596736 65.67098057 270.30175781 73.43261719 C270.34165457 80.19848518 270.36743965 86.96423546 270.37635398 93.73021781 C270.381564 97.31207534 270.39378928 100.89359612 270.42292023 104.47534561 C270.45519413 108.47606529 270.45595761 112.47620132 270.45410156 116.47705078 C270.46848267 117.6617244 270.48286377 118.84639801 270.49768066 120.06697083 C270.46705949 126.15747282 270.40588127 130.36130388 266 135 C260.47771754 138.89715141 255.56148527 138.85897252 249 138 C244.91244929 136.70031046 241.23858183 134.84301522 237.45166016 132.84350586 C236.36714569 132.29569962 235.28263123 131.74789337 234.16525269 131.18348694 C231.22278624 129.69203882 228.2920312 128.18010338 225.36480379 126.65903926 C222.28647953 125.06706127 219.19288247 123.5053648 216.10043335 121.9410553 C208.92650584 118.30606242 201.7713347 114.63505731 194.61763 110.96047211 C185.49226725 106.275713 176.35757189 101.60941208 167.20817792 96.97175699 C163.53540498 95.10864847 159.87169083 93.22910298 156.2142899 91.33600795 C153.40648089 89.88735233 150.58834093 88.45902527 147.77197266 87.02709961 C146.76511414 86.49986298 145.75825562 85.97262634 144.72088623 85.42941284 C139.58554249 82.81771116 139.58554249 82.81771116 133.98852539 81.86315918 C129.29417945 83.64889743 124.87082444 85.857766 120.41162109 88.16235352 C119.35712769 88.69894592 118.30263428 89.23553833 117.21618652 89.78839111 C114.33306075 91.25640686 111.45350162 92.73119091 108.574615 94.20749402 C105.54968384 95.75493094 102.51818112 97.28935536 99.48672485 98.82395935 C89.17183285 104.04809486 78.86371122 109.28524987 68.57275391 114.55639648 C62.88375193 117.47020102 57.18616366 120.36644537 51.47866499 123.2438578 C48.46449345 124.7644157 45.45544197 126.29356671 42.45692062 127.84478951 C39.10371081 129.57461104 35.73651989 131.27375708 32.36474609 132.96704102 C30.90072861 133.73612038 30.90072861 133.73612038 29.40713501 134.52073669 C22.58152095 137.89436431 16.60425401 139.00982387 9 138 C4.38188272 135.81247076 2.283679 133.49856453 0 129 C-0.36914349 126.37012005 -0.36914349 126.37012005 -0.36076355 123.50138855 C-0.36488754 122.40908936 -0.36901154 121.31679016 -0.3732605 120.19139099 C-0.36247467 119.0031221 -0.35168884 117.81485321 -0.34057617 116.59057617 C-0.34101425 115.33163544 -0.34145233 114.0726947 -0.34190369 112.77560425 C-0.3427631 109.33166611 -0.32514632 105.88804254 -0.30418181 102.44417739 C-0.28540595 98.84205843 -0.28366386 95.23993195 -0.28010559 91.63777161 C-0.27078777 84.820295 -0.24617764 78.00296301 -0.21605712 71.18555003 C-0.18250485 63.42260343 -0.16602504 55.65964985 -0.15097082 47.89664876 C-0.11962778 31.93101547 -0.0668725 15.9655264 0 0 Z " fill="#000000" transform="translate(121,374)"/>
<path d="M0 0 C0.66 0 1.32 0 2 0 C2.17237686 0.56296783 2.34475372 1.12593567 2.52235413 1.70596313 C4.32829055 7.58753342 6.16679759 13.45820566 8.02416992 19.32373047 C8.71219225 21.51123056 9.39199199 23.70133514 10.06323242 25.89404297 C11.03211218 29.05383884 12.0306247 32.20294571 13.03515625 35.3515625 C13.47312279 36.8144017 13.47312279 36.8144017 13.91993713 38.30679321 C15.89905857 44.38381132 18.24302123 48.82839841 24 52 C27.28230751 52.86273723 30.40573634 53.14005552 33.7902832 53.20532227 C35.17114861 53.2352401 35.17114861 53.2352401 36.57991028 53.26576233 C37.5602977 53.28247482 38.54068512 53.29918732 39.55078125 53.31640625 C40.56472458 53.33718735 41.57866791 53.35796844 42.62333679 53.37937927 C45.85299085 53.44461114 49.08272421 53.50363702 52.3125 53.5625 C54.50586748 53.60571029 56.69922703 53.64932538 58.89257812 53.69335938 C64.26163562 53.80026544 69.6307715 53.90208021 75 54 C72.18352079 56.89076533 69.43521852 59.58112932 66.13671875 61.91015625 C65.42201416 62.4191748 64.70730957 62.92819336 63.97094727 63.45263672 C62.84064087 64.24951904 62.84064087 64.24951904 61.6875 65.0625 C60.08544504 66.21155329 58.48389354 67.3613088 56.8828125 68.51171875 C54.47600988 70.23462903 52.06655401 71.95307514 49.64746094 73.65869141 C47.44198443 75.2166929 45.25142756 76.7938683 43.0625 78.375 C42.39500732 78.837854 41.72751465 79.30070801 41.03979492 79.77758789 C36.69901101 82.94338886 34.48514864 85.65346489 33 91 C33.46439055 96.74504696 35.11590603 101.90512475 36.94140625 107.328125 C37.3721067 108.63435822 37.3721067 108.63435822 37.81150818 109.96697998 C38.72295857 112.72985998 39.64198099 115.49012935 40.5625 118.25 C41.48606952 121.02431345 42.40786185 123.79915705 43.32420349 126.5758667 C43.89298322 128.2990292 44.46597187 130.02080934 45.04359436 131.74102783 C45.30063644 132.51903748 45.55767853 133.29704712 45.82250977 134.09863281 C46.05043716 134.78145325 46.27836456 135.46427368 46.51319885 136.16778564 C47 138 47 138 47 141 C42.2098777 139.43978874 38.73850517 136.73155181 34.8125 133.6875 C33.39945967 132.61063658 31.98535383 131.53517018 30.5703125 130.4609375 C29.46091309 129.61740723 29.46091309 129.61740723 28.32910156 128.75683594 C24.31537644 125.72929233 20.2559354 122.76592247 16.1875 119.8125 C15.41704346 119.24813232 14.64658691 118.68376465 13.8527832 118.10229492 C13.13179443 117.57998291 12.41080566 117.0576709 11.66796875 116.51953125 C11.03141357 116.05651611 10.3948584 115.59350098 9.73901367 115.11645508 C5.88395041 112.64148606 1.4374636 112.18845045 -3 113 C-8.80807217 115.91467358 -13.87697009 119.7333471 -19.0625 123.625 C-20.73908483 124.87046301 -22.41617285 126.11524892 -24.09375 127.359375 C-25.33125 128.27879883 -25.33125 128.27879883 -26.59375 129.21679688 C-30.06779117 131.79130953 -33.5566226 134.34404147 -37.0625 136.875 C-37.92790405 137.50849365 -37.92790405 137.50849365 -38.81079102 138.15478516 C-42.76811637 141 -42.76811637 141 -45 141 C-43.44260568 134.08466684 -41.52697253 127.34937517 -39.265625 120.63671875 C-39.02187134 119.90929474 -38.77811768 119.18187073 -38.52697754 118.43240356 C-37.51380224 115.4167593 -36.49666692 112.40274266 -35.45947266 109.39526367 C-34.69377445 107.16758283 -33.94715475 104.93421462 -33.203125 102.69921875 C-32.96676331 102.02928391 -32.73040161 101.35934906 -32.48687744 100.66911316 C-30.98060463 96.08176558 -30.92591329 92.69172496 -32 88 C-34.86491506 82.36374751 -39.04925391 79.42853297 -44.125 75.9375 C-45.73057779 74.80484206 -47.33604304 73.67202456 -48.94140625 72.5390625 C-49.76914551 71.9605957 -50.59688477 71.38212891 -51.44970703 70.78613281 C-55.67630355 67.82597772 -59.87062379 64.82152005 -64.0625 61.8125 C-65.23159912 60.98383423 -65.23159912 60.98383423 -66.42431641 60.13842773 C-67.14151855 59.62481689 -67.8587207 59.11120605 -68.59765625 58.58203125 C-69.23195557 58.13061768 -69.86625488 57.6792041 -70.51977539 57.21411133 C-72 56 -72 56 -73 54 C-72.43925278 53.99191315 -71.87850555 53.98382629 -71.30076599 53.97549438 C-65.44402074 53.88917783 -59.58760343 53.78966357 -53.73120117 53.68261719 C-51.54798914 53.64442595 -49.3647163 53.60955616 -47.18139648 53.578125 C-44.03607509 53.53226021 -40.89116876 53.47430104 -37.74609375 53.4140625 C-36.29099648 53.39673569 -36.29099648 53.39673569 -34.8065033 53.37905884 C-28.32164463 53.23906698 -22.71994082 52.97869735 -17.2980957 49.03442383 C-14.1051792 44.81847151 -12.77769463 40.46701389 -11.23046875 35.44921875 C-10.90460281 34.43527542 -10.57873688 33.42133209 -10.24299622 32.37666321 C-9.21005374 29.15133781 -8.19855359 25.91974575 -7.1875 22.6875 C-6.48903623 20.49369248 -5.78918172 18.30032722 -5.08789062 16.10742188 C-3.37578268 10.74330009 -1.68120808 5.37388121 0 0 Z " fill="#000000" transform="translate(255,120)"/>
</svg>
