<?xml version="1.0" encoding="UTF-8"?>
<svg version="1.1" xmlns="http://www.w3.org/2000/svg" width="512" height="512">
<path d="M0 0 C9.02120755 6.90186726 16.95595735 15.66949721 25.00610352 23.65600586 C26.54733993 25.18060143 28.09393322 26.69980009 29.64575195 28.21362305 C31.91817717 30.43097948 34.173427 32.66462321 36.42578125 34.90234375 C37.11231277 35.5662059 37.7988443 36.23006805 38.50617981 36.91404724 C45.38873636 43.8268723 49.48202441 51.39581128 50.25 61.1875 C49.28945377 75.83582997 40.06534508 84.23489142 30.1328125 94.0625 C29.08719714 95.10437714 28.04202843 96.14670271 26.99728394 97.18945312 C24.26947818 99.90968604 21.53571731 102.62385424 18.80059814 105.33673096 C16.00140768 108.1153249 13.20799321 110.89971284 10.4140625 113.68359375 C4.9482908 119.12802782 -0.52379602 124.56605704 -6 130 C-4.57554686 133.24420223 -2.85122926 135.39328778 -0.34487343 137.88446236 C0.4195055 138.64912319 1.18388444 139.41378403 1.97142637 140.20161641 C2.81498988 141.03526152 3.6585534 141.86890663 4.52767944 142.72781372 C5.420864 143.61847373 6.31404855 144.50913374 7.2342993 145.42678344 C9.71456706 147.89987325 12.20099321 150.36669022 14.68840981 152.83258677 C17.36974465 155.4929608 20.04524296 158.15919214 22.72132874 160.82484436 C27.36040542 165.44449248 32.00279168 170.06079276 36.64710617 174.67517471 C43.99010587 181.97143314 51.3227393 189.27806061 58.65371704 196.58639526 C61.16237643 199.08705154 63.67110284 201.58764056 66.17984962 204.08820915 C66.80682981 204.71315088 67.43380999 205.3380926 68.07978957 205.98197196 C75.21747374 213.09616854 82.35728716 220.20822648 89.49804688 227.31933594 C90.15081127 227.96939546 90.80357566 228.61945499 91.47612078 229.28921328 C102.04999594 239.81874586 112.63153656 250.34054907 123.21504419 260.86039843 C134.08325938 271.66380117 144.93990876 282.47873634 155.78676951 293.30357921 C162.475851 299.97822324 169.17424076 306.64324317 175.88494267 313.29615085 C180.48552693 317.85869405 185.07509201 322.43213071 189.65620516 327.01422329 C192.2982054 329.65609768 194.94482863 332.29285368 197.60487938 334.91656303 C200.49249987 337.76496387 203.35621398 340.63628081 206.21835327 343.51028442 C207.47700638 344.7406756 207.47700638 344.7406756 208.76108682 345.99592316 C214.90771341 352.2281119 218.86543869 358.60980831 219.5 367.5 C218.95786261 377.34740789 213.77283055 384.1125371 206.99365234 390.78271484 C206.18983124 391.59704987 205.38601013 392.41138489 204.55783081 393.25039673 C201.91535201 395.91913032 199.25171321 398.56549012 196.5859375 401.2109375 C194.73143247 403.06948818 192.87781857 404.92892843 191.02505493 406.78921509 C187.14704653 410.67810299 183.25664365 414.55425279 179.35888672 418.42333984 C174.86912321 422.88045649 170.4013833 427.35877601 165.94446599 431.848719 C161.63538981 436.18842827 157.30947724 440.51094073 152.97630692 444.82658768 C151.14356207 446.65534304 149.3152278 448.48853007 147.49149704 450.32627487 C144.93618344 452.89690425 142.36228123 455.44739086 139.78271484 457.99365234 C139.03948975 458.74902283 138.29626465 459.50439331 137.53051758 460.28265381 C131.50697789 466.16361045 125.03613554 469.90982905 116.5 470.5 C103.04229805 469.58562652 95.66313947 460.3402185 87 451 C88.34865755 447.98702634 89.84198315 445.91948721 92.19287109 443.61181641 C92.84049408 442.97079987 93.48811707 442.32978333 94.15536499 441.66934204 C94.85432892 440.98697479 95.55329285 440.30460754 96.2734375 439.6015625 C97.35366684 438.53269302 97.35366684 438.53269302 98.45571899 437.44223022 C101.53268961 434.39790342 104.62128501 431.36546979 107.70898438 428.33203125 C109.96376924 426.1135215 112.2124578 423.88895949 114.4609375 421.6640625 C115.15585297 420.98574371 115.85076843 420.30742493 116.56674194 419.60855103 C122.54721497 413.68849706 127.05320648 408.58756171 127.375 399.8125 C127.29786033 393.9730266 125.96782917 390.28797187 122 386 C116.86557036 381.13829988 111.94292256 380.44287641 105.02734375 380.43359375 C97.04000107 381.9279998 91.90587923 387.68853647 86.44140625 393.265625 C85.65225327 394.05902283 84.86310028 394.85242065 84.05003357 395.66986084 C81.54701917 398.18958176 79.05467651 400.71956376 76.5625 403.25 C74.86072157 404.96683555 73.15825473 406.682989 71.45507812 408.3984375 C67.29538344 412.59109496 63.14438606 416.79221247 59 421 C56.19030533 419.71977125 54.1460762 418.39285871 51.97558594 416.20263672 C51.41530701 415.64220673 50.85502808 415.08177673 50.277771 414.50436401 C49.68595032 413.90222076 49.09412964 413.30007751 48.484375 412.6796875 C47.5606308 411.75169846 47.5606308 411.75169846 46.6182251 410.80496216 C44.65739664 408.83296186 42.70364699 406.85411263 40.75 404.875 C39.41973201 403.53469836 38.089008 402.19484917 36.7578125 400.85546875 C33.4998985 397.57553411 30.24831467 394.28944058 27 391 C30.65317239 386.62757363 34.40978195 382.49528528 38.51171875 378.53125 C39.52712932 377.53820667 40.54209025 376.54470339 41.55664062 375.55078125 C43.12543864 374.01910728 44.6970575 372.49079931 46.27661133 370.97021484 C47.82265281 369.47898734 49.35539987 367.97507319 50.88671875 366.46875 C51.79639404 365.58638672 52.70606934 364.70402344 53.64331055 363.79492188 C57.6186227 359.08039027 59.56071135 354.17446811 59.28515625 347.98046875 C58.41135614 341.91174743 55.55788139 337.90675547 51 334 C46.48323704 330.67185887 42.36010917 329.66165567 36.75 330.2265625 C28.22577284 332.05708564 22.90894697 338.04474466 17 344 C15.41221296 345.57628133 13.82361562 347.15174671 12.234375 348.7265625 C7.80215617 353.13058104 3.39421529 357.55808531 -1 362 C-7.92810724 356.33425951 -14.14204142 349.96966361 -20.4375 343.625 C-21.56161467 342.49586045 -22.68596174 341.36695222 -23.81054688 340.23828125 C-26.54305235 337.49484812 -29.27239009 334.74830015 -32 332 C-27.82504681 326.9978957 -23.45437814 322.37872765 -18.7734375 317.8515625 C-17.39784036 316.5032131 -16.02285879 315.15423547 -14.6484375 313.8046875 C-12.51044369 311.70990532 -10.36902445 309.61922454 -8.21679688 307.5390625 C-6.11975409 305.50904848 -4.03936675 303.46310824 -1.9609375 301.4140625 C-1.32231781 300.80438629 -0.68369812 300.19471008 -0.02572632 299.56655884 C5.20143501 294.3707561 8.5291648 288.8339438 9.4375 281.4375 C8.65821095 275.31451458 7.32175844 270.83059416 2.625 266.625 C-2.65554923 262.5681271 -7.28926942 261.20294005 -14 262 C-23.31164 264.82674786 -29.87266703 272.72078919 -36.5625 279.46484375 C-37.23925781 280.14301651 -37.91601562 280.82118927 -38.61328125 281.51991272 C-40.74457675 283.65674305 -42.87234218 285.79704823 -45 287.9375 C-46.45679779 289.39932123 -47.91382701 290.86091187 -49.37109375 292.32226562 C-52.91673973 295.878854 -56.45922739 299.43856016 -60 303 C-66.77715965 297.4416326 -72.88350353 291.24368339 -79.05859375 285.0390625 C-80.21422229 283.88156574 -81.37007414 282.72429189 -82.52613831 281.56723022 C-85.54827738 278.54129782 -88.56739953 275.51237303 -91.58587646 272.48278809 C-94.67455447 269.38382705 -97.76611335 266.28774287 -100.85742188 263.19140625 C-106.90775098 257.13039606 -112.95489193 251.06621753 -119 245 C-122.66201323 246.53635528 -124.95181045 248.73233832 -127.7175293 251.55395508 C-128.17182816 252.01438705 -128.62612701 252.47481903 -129.0941925 252.94920349 C-130.07738808 253.94667023 -131.05832529 254.94636701 -132.03723717 255.9480381 C-133.59297426 257.5387079 -135.15582654 259.12205703 -136.72090149 260.70353699 C-141.16885357 265.20024079 -145.6056448 269.70783039 -150.03295898 274.22485352 C-152.74565549 276.99149325 -155.46832224 279.74800168 -158.19712257 282.4987545 C-159.22907305 283.543026 -160.2572271 284.5910647 -161.28128624 285.64307594 C-169.44767416 294.0302182 -176.93063386 300.87201909 -189.125 301.3125 C-206.69988571 300.96275103 -218.47441197 284.78452607 -230.00610352 273.34399414 C-231.54733993 271.81939857 -233.09393322 270.30019991 -234.64575195 268.78637695 C-236.91817717 266.56902052 -239.173427 264.33537679 -241.42578125 262.09765625 C-242.11231277 261.4337941 -242.7988443 260.76993195 -243.50617981 260.08595276 C-250.08457578 253.47862594 -254.97441006 245.45740082 -255.3125 235.9375 C-254.99719567 219.90952999 -242.42131386 210.24774942 -231.78863335 199.86629486 C-228.99457964 197.13424801 -226.2167203 194.38577134 -223.43554688 191.640625 C-219.92097792 188.17406565 -216.40184728 184.71245745 -212.86791992 181.265625 C-209.98515242 178.4530682 -207.11722827 175.6261123 -204.25865364 172.78897858 C-203.17275636 171.71664627 -202.08147109 170.64974105 -200.98470879 169.58852386 C-199.45799287 168.11005052 -197.95094482 166.61390762 -196.44702148 165.11230469 C-195.5859227 164.26754578 -194.72482391 163.42278687 -193.83763123 162.5524292 C-191.57471453 159.40928788 -191.51697786 157.79603915 -192 154 C-193.06375643 151.45259739 -194.15401611 149.14837643 -195.46484375 146.73828125 C-195.8176088 146.06580856 -196.17037384 145.39333588 -196.53382874 144.70048523 C-197.65693988 142.56487249 -198.79652384 140.43861284 -199.9375 138.3125 C-201.07134082 136.17395358 -202.20173409 134.03362996 -203.33045959 131.89237976 C-204.03231774 130.56374801 -204.73778247 129.23701371 -205.44725037 127.91242981 C-209.58861873 120.13999801 -210.47885056 112.02230712 -208.3515625 103.359375 C-204.4096393 93.72356274 -195.59064765 86.41422466 -188.41015625 79.171875 C-187.50680038 78.26044739 -186.60344452 77.34901978 -185.67271423 76.40997314 C-183.77286652 74.49523145 -181.87053307 72.5829932 -179.96704102 70.671875 C-177.54352791 68.23725001 -175.13194047 65.79115125 -172.72272587 63.34238815 C-170.39808476 60.98518752 -168.05938109 58.64209626 -165.72265625 56.296875 C-164.86720718 55.42391785 -164.01175812 54.55096069 -163.13038635 53.65155029 C-156.04990243 46.59639975 -149.24690549 42.02751521 -139 41.375 C-125.15702778 41.46080355 -112.40107411 50.43026672 -100.98046875 57.56640625 C-97.43871879 59.26997405 -95.86783408 59.81044955 -92 59 C-85.40752608 54.24424522 -79.8505834 47.93503746 -74.16945076 42.15291977 C-72.56111644 40.51753308 -70.94809581 38.88690488 -69.33360291 37.25759888 C-64.74897691 32.63062409 -60.16725029 28.00089307 -55.60180664 23.35498047 C-52.79381105 20.4981796 -49.97590112 17.65148275 -47.15148735 14.8109169 C-46.08619505 13.73580542 -45.02454701 12.65706888 -43.96684456 11.57448959 C-31.02376059 -1.66638761 -17.91913582 -9.05314241 0 0 Z " fill="#000000" transform="translate(274,23)"/>
</svg>
