<?xml version="1.0" standalone="no"?>
<!DOCTYPE svg PUBLIC "-//W3C//DTD SVG 20010904//EN"
 "http://www.w3.org/TR/2001/REC-SVG-20010904/DTD/svg10.dtd">
<svg version="1.0" xmlns="http://www.w3.org/2000/svg"
 width="512.000000pt" height="512.000000pt" viewBox="0 0 512.000000 512.000000"
 preserveAspectRatio="xMidYMid meet">
<metadata>
Created by potrace 1.16, written by Peter Selinger 2001-2019
</metadata>
<g transform="translate(0.000000,512.000000) scale(0.100000,-0.100000)"
fill="#000000" stroke="none">
<path d="M2260 4784 c-856 -120 -1559 -702 -1830 -1513 -139 -415 -153 -859
-40 -1287 98 -372 282 -699 545 -972 139 -144 223 -216 375 -317 280 -187 596
-308 929 -356 125 -18 176 -21 371 -16 365 8 626 71 945 227 503 246 884 661
1096 1192 176 442 200 990 64 1446 -250 838 -917 1431 -1785 1587 -134 24
-526 30 -670 9z m498 -214 c536 -58 1036 -326 1367 -735 477 -589 587 -1370
292 -2068 -97 -230 -235 -434 -422 -623 -312 -316 -664 -499 -1110 -580 -121
-21 -415 -30 -541 -15 -378 45 -720 183 -1023 416 -125 96 -316 292 -401 413
-177 251 -294 529 -351 837 -27 141 -36 412 -20 555 96 845 697 1537 1515
1745 72 18 172 38 221 44 50 6 101 13 115 15 56 8 267 5 358 -4z"/>
<path d="M2400 4383 c-223 -24 -592 -139 -652 -204 -55 -58 -53 -61 221 -592
152 -294 259 -489 274 -500 13 -11 41 -19 60 -19 20 0 60 8 89 19 81 28 250
25 349 -6 95 -30 138 -24 172 22 13 18 133 245 267 505 223 436 242 477 237
513 -7 51 -19 65 -86 99 -142 71 -338 130 -514 155 -92 13 -327 18 -417 8z"/>
<path d="M2443 2936 c-104 -34 -194 -114 -241 -214 -24 -50 -27 -69 -27 -162
0 -99 2 -110 32 -171 39 -80 111 -150 191 -187 50 -24 69 -27 162 -27 99 0
110 2 171 32 80 39 150 111 187 191 24 50 27 69 27 162 0 93 -3 112 -27 162
-37 80 -107 152 -186 190 -56 28 -77 33 -156 35 -57 2 -107 -2 -133 -11z"/>
<path d="M3183 2588 c-43 -11 -60 -39 -84 -138 -27 -116 -75 -201 -164 -291
-71 -73 -75 -79 -75 -123 0 -42 11 -62 154 -273 395 -585 467 -688 488 -700
51 -28 92 -17 180 49 113 84 289 264 370 378 171 241 283 552 319 887 11 100
10 114 -5 137 -36 56 -28 55 -506 66 -245 5 -490 11 -545 13 -55 2 -115 0
-132 -5z"/>
<path d="M1335 2524 c-264 -23 -491 -43 -503 -43 -14 -1 -40 -17 -59 -36 l-36
-36 7 -72 c9 -100 51 -281 92 -400 87 -248 220 -455 422 -655 105 -103 306
-259 352 -272 36 -10 91 3 112 28 9 9 138 225 287 478 329 561 315 510 182
641 -100 99 -140 168 -171 291 -26 104 -47 122 -138 121 -37 -1 -283 -21 -547
-45z"/>
</g>
</svg>
