<?xml version="1.0" encoding="UTF-8"?>
<svg version="1.1" xmlns="http://www.w3.org/2000/svg" width="512" height="512">
<path d="M0 0 C0.86263185 -0.00367669 1.7252637 -0.00735338 2.6140359 -0.01114148 C5.51579329 -0.0221886 8.41751488 -0.02602391 11.31929016 -0.02983093 C13.39539708 -0.03609482 15.47150287 -0.04274155 17.54760742 -0.04974365 C23.1965432 -0.06716053 28.84547051 -0.07770736 34.49442649 -0.08594918 C38.02309869 -0.09109805 41.55176827 -0.09717384 45.08043861 -0.10346031 C56.11903501 -0.12251459 67.15762472 -0.13674505 78.19623441 -0.14507228 C90.94164698 -0.15484557 103.68688593 -0.18116661 116.43223733 -0.22157317 C126.28117511 -0.2517265 136.13006311 -0.26654043 145.97904617 -0.26985329 C151.86245885 -0.27220471 157.7456861 -0.28117729 163.6290493 -0.30631447 C169.16533744 -0.32958624 174.70131792 -0.33383187 180.23764229 -0.32355309 C182.26772967 -0.3230574 184.29783216 -0.32938752 186.32787323 -0.34310913 C189.10379713 -0.36081989 191.87861594 -0.35372582 194.65454102 -0.34057617 C195.85383894 -0.35703004 195.85383894 -0.35703004 197.0773651 -0.37381631 C203.41530273 -0.30154925 208.89489863 1.43236973 213.48457336 5.96357727 C213.84679993 6.53978821 214.20902649 7.11599915 214.58222961 7.70967102 C215.15263977 8.57785461 215.15263977 8.57785461 215.73457336 9.46357727 C218.02497177 13.70032282 217.79296331 17.82959647 217.79190063 22.50244141 C217.79557732 23.36507325 217.79925401 24.2277051 217.80304211 25.11647731 C217.81408923 28.0182347 217.81792455 30.91995629 217.82173157 33.82173157 C217.82799545 35.89783848 217.83464219 37.97394427 217.84164429 40.05004883 C217.85906116 45.69898461 217.869608 51.34791192 217.87784982 56.9968679 C217.88299868 60.5255401 217.88907447 64.05420967 217.89536095 67.58288002 C217.91441523 78.62147642 217.92864568 89.66006612 217.93697292 100.69867581 C217.9467462 113.44408839 217.97306725 126.18932734 218.01347381 138.93467873 C218.04362714 148.78361652 218.05844107 158.63250452 218.06175393 168.48148757 C218.06410535 174.36490026 218.07307792 180.2481275 218.0982151 186.13149071 C218.12148688 191.66777885 218.1257325 197.20375933 218.11545372 202.74008369 C218.11495803 204.77017108 218.12128815 206.80027356 218.13500977 208.83031464 C218.15272052 211.60623853 218.14562646 214.38105735 218.13247681 217.15698242 C218.14344605 217.95651437 218.1544153 218.75604632 218.16571695 219.57980651 C218.09344989 225.91774413 216.3595309 231.39734004 211.82832336 235.98701477 C211.25211243 236.34924133 210.67590149 236.7114679 210.08222961 237.08467102 C209.21404602 237.65508118 209.21404602 237.65508118 208.32832336 238.23701477 C204.09157781 240.52741318 199.96230416 240.29540472 195.28945923 240.29434204 C194.42682738 240.29801873 193.56419553 240.30169542 192.67542332 240.30548352 C189.77366594 240.31653064 186.87194435 240.32036595 183.97016907 240.32417297 C181.89406215 240.33043686 179.81795636 240.33708359 177.74185181 240.34408569 C172.09291603 240.36150257 166.44398872 240.37204941 160.79503274 240.38029122 C157.26636053 240.38544009 153.73769096 240.39151588 150.20902061 240.39780235 C139.17042421 240.41685664 128.13183451 240.43108709 117.09322482 240.43941432 C104.34781224 240.44918761 91.60257329 240.47550866 78.8572219 240.51591522 C69.00828411 240.54606854 59.15939612 240.56088247 49.31041306 240.56419533 C43.42700038 240.56654675 37.54377313 240.57551933 31.66040993 240.60065651 C26.12412179 240.62392829 20.58814131 240.62817391 15.05181694 240.61789513 C13.02172955 240.61739944 10.99162707 240.62372956 8.961586 240.63745117 C6.1856621 240.65516193 3.41084329 240.64806786 0.63491821 240.63491821 C-0.16461374 240.64588746 -0.96414568 240.6568567 -1.78790587 240.66815835 C-8.1258435 240.5958913 -13.6054394 238.86197231 -18.19511414 234.33076477 C-18.5573407 233.75455383 -18.91956726 233.1783429 -19.29277039 232.58467102 C-19.67304382 232.00588196 -20.05331726 231.4270929 -20.44511414 230.83076477 C-22.73551254 226.59401922 -22.50350408 222.46474557 -22.50244141 217.79190063 C-22.50611809 216.92926879 -22.50979478 216.06663694 -22.51358289 215.17786473 C-22.52463 212.27610734 -22.52846532 209.37438575 -22.53227234 206.47261047 C-22.53853623 204.39650356 -22.54518296 202.32039777 -22.55218506 200.24429321 C-22.56960193 194.59535744 -22.58014877 188.94643013 -22.58839059 183.29747415 C-22.59353945 179.76880194 -22.59961525 176.24013237 -22.60590172 172.71146202 C-22.624956 161.67286562 -22.63918645 150.63427592 -22.64751369 139.59566623 C-22.65728697 126.85025365 -22.68360802 114.1050147 -22.72401458 101.35966331 C-22.75416791 91.51072552 -22.76898184 81.66183752 -22.7722947 71.81285447 C-22.77464612 65.92944178 -22.78361869 60.04621454 -22.80875587 54.16285133 C-22.83202765 48.62656319 -22.83627327 43.09058271 -22.82599449 37.55425835 C-22.8254988 35.52417096 -22.83182892 33.49406848 -22.84555054 31.4640274 C-22.86326129 28.68810351 -22.85616723 25.91328469 -22.84301758 23.13735962 C-22.85398682 22.33782767 -22.86495607 21.53829572 -22.87625772 20.71453553 C-22.80399066 14.37659791 -21.07007168 8.897002 -16.53886414 4.30732727 C-15.9626532 3.94510071 -15.38644226 3.58287415 -14.79277039 3.20967102 C-13.92458679 2.63926086 -13.92458679 2.63926086 -13.03886414 2.05732727 C-8.80211858 -0.23307114 -4.67284493 -0.00106268 0 0 Z M17.64472961 40.14717102 C17.64472961 92.94717102 17.64472961 145.74717102 17.64472961 200.14717102 C70.44472961 200.14717102 123.24472961 200.14717102 177.64472961 200.14717102 C177.64472961 147.34717102 177.64472961 94.54717102 177.64472961 40.14717102 C124.84472961 40.14717102 72.04472961 40.14717102 17.64472961 40.14717102 Z " fill="#000000" transform="translate(22.355270385742188,-0.1471710205078125)"/>
<path d="M0 0 C4.70215657 3.03638818 7.54334237 6.32169442 9.625 11.5625 C10.77798186 18.28179341 10.42491717 25.21946534 10.36962891 32.01000977 C10.37448894 34.09685999 10.38193165 36.18370556 10.39175415 38.27053833 C10.41052146 43.92143887 10.39176541 49.57164353 10.36508989 55.2224896 C10.34241044 61.14311365 10.35067973 67.06370471 10.35458374 72.98435974 C10.35634797 82.9248284 10.33422263 92.86502383 10.29736328 102.80541992 C10.25501873 114.2907059 10.24801167 125.7755919 10.2604872 137.26094013 C10.27188411 148.3204008 10.26057264 159.37972091 10.23814011 170.4391613 C10.22886203 175.14113914 10.22709437 179.84303084 10.2313118 184.54501534 C10.23508453 190.08310024 10.21881695 195.62077917 10.18719101 201.15877151 C10.17872064 203.18883649 10.17699393 205.21894273 10.18257141 207.24901772 C10.1890394 210.02469509 10.17079414 212.79916866 10.14639282 215.57472229 C10.15395147 216.37405247 10.16151012 217.17338265 10.16929781 217.99693495 C10.07115432 224.32709263 8.33511036 229.81742047 3.80859375 234.40234375 C3.23238281 234.76457031 2.65617188 235.12679687 2.0625 235.5 C1.19431641 236.07041016 1.19431641 236.07041016 0.30859375 236.65234375 C-3.94224319 238.95036001 -8.09329956 238.71073037 -12.7816925 238.70967102 C-14.0838823 238.71518605 -14.0838823 238.71518605 -15.41237897 238.7208125 C-18.33262381 238.73185976 -21.25283308 238.73569493 -24.1730957 238.73950195 C-26.26229974 238.74576574 -28.35150266 238.75241246 -30.44070435 238.75941467 C-36.12462871 238.77683038 -41.80854466 238.78737767 -47.4924891 238.7956202 C-51.04191691 238.80076839 -54.59134209 238.80684416 -58.14076805 238.81313133 C-69.24129691 238.83218368 -80.34181911 238.8464156 -91.44236118 238.8547433 C-104.26533393 238.86452154 -117.08813433 238.89085629 -129.91104633 238.93124419 C-139.81685259 238.9613761 -149.72260937 238.97620934 -159.62846059 238.97952431 C-165.54757941 238.98187782 -171.46651412 238.9908777 -177.38558388 239.01598549 C-182.95305481 239.03922042 -188.52021979 239.04351781 -194.08772659 239.03322411 C-196.13155445 239.03272755 -198.17539713 239.03908319 -200.21917915 239.05278015 C-203.0089403 239.07043108 -205.79759528 239.06342643 -208.58735657 239.05024719 C-209.39660515 239.06121644 -210.20585373 239.07218568 -211.03962499 239.08348733 C-217.37239103 239.01123136 -220.75658454 236.80685611 -225.5625 232.6875 C-230.24065986 227.20276085 -230.71875205 222.56223774 -230.7734375 215.5625 C-228.86182281 201.16916586 -209.40908442 187.44826449 -199.73168945 177.77392578 C-197.8384444 175.87768522 -195.94539038 173.9812556 -194.05255127 172.08460999 C-189.46385896 167.48765789 -184.87243638 162.89344249 -180.27989236 158.3003387 C-176.54708566 154.56705511 -172.81507322 150.83297937 -169.08360863 147.09835434 C-158.48931569 136.4952717 -147.89294628 125.89427058 -137.29388163 115.29595782 C-136.72405646 114.7261726 -136.15423128 114.15638738 -135.56713867 113.56933594 C-134.9966134 112.99885154 -134.42608812 112.42836715 -133.8382742 111.84059535 C-124.57551564 102.57824396 -115.3177667 93.3109032 -106.06225345 84.04131235 C-96.54423436 74.50893115 -87.02249333 64.98028179 -77.4968583 55.45551097 C-72.15457431 50.11355875 -66.81383637 44.77008177 -61.47710609 39.42258072 C-56.93840862 34.87478099 -52.39626543 30.33045797 -47.84961978 25.79060383 C-45.53139696 23.47564607 -43.21535754 21.15857674 -40.9025631 18.83819389 C-38.39396658 16.32189955 -35.87929536 13.81183654 -33.36299133 11.30325317 C-32.27198599 10.20453249 -32.27198599 10.20453249 -31.15894014 9.08361542 C-22.46974106 0.45329414 -12.48869219 -5.3143371 0 0 Z M-34.88041312 71.93416971 C-35.3794326 72.43541992 -35.87845209 72.93667013 -36.39259338 73.45310974 C-36.92022606 73.97918243 -37.44785874 74.50525512 -37.99148029 75.0472694 C-39.77349477 76.82526891 -41.55188248 78.60685316 -43.33032227 80.38842773 C-44.6011816 81.65793324 -45.87225383 82.92722565 -47.14352417 84.19631958 C-50.60645232 87.65467111 -54.06618835 91.11619992 -57.52524686 94.57842135 C-61.13659063 98.19228756 -64.75036298 101.80372387 -68.36375427 105.4155426 C-74.43270031 111.4826666 -80.49952852 117.55190236 -86.56518555 123.62231445 C-93.58937174 130.65194333 -100.61715334 137.6779623 -107.64681393 144.70211643 C-113.66985448 150.72062683 -119.69095377 156.74107411 -125.71041912 162.76316029 C-129.31100662 166.36531111 -132.9122765 169.96677272 -136.51529121 173.5664959 C-139.90162103 176.94994842 -143.28551697 180.33581601 -146.66750717 183.72360611 C-147.91314003 184.97056733 -149.15963594 186.21666708 -150.40703011 187.46186638 C-152.10179531 189.15392306 -153.79348836 190.8489906 -155.48439026 192.54490662 C-155.98564047 193.0439261 -156.48689068 193.54294559 -157.00333029 194.05708688 C-159.35652312 195.97645049 -159.35652312 195.97645049 -160.375 198.5625 C-117.475 198.5625 -74.575 198.5625 -30.375 198.5625 C-30.375 155.6625 -30.375 112.7625 -30.375 68.5625 C-32.38415822 68.5625 -33.5379408 70.59945376 -34.88041312 71.93416971 Z " fill="#000000" transform="translate(502.375,273.4375)"/>
<path d="M0 0 C0.65613281 0.18804199 1.31226563 0.37608398 1.98828125 0.56982422 C21.02085144 6.20163701 37.26789629 15.81057219 52 29 C52.78632813 29.68578125 53.57265625 30.3715625 54.3828125 31.078125 C69.67675897 45.31945168 80.68405192 65.98956129 86 86 C86.31710937 87.13179688 86.63421875 88.26359375 86.9609375 89.4296875 C91.26227199 107.77941719 91.22590736 129.8782224 86 148 C85.81195801 148.65613281 85.62391602 149.31226563 85.43017578 149.98828125 C79.79836299 169.02085144 70.18942781 185.26789629 57 200 C56.31421875 200.78632813 55.6284375 201.57265625 54.921875 202.3828125 C40.68054832 217.67675897 20.01043871 228.68405192 0 234 C-1.13179687 234.31710938 -2.26359375 234.63421875 -3.4296875 234.9609375 C-21.77941719 239.26227199 -43.8782224 239.22590736 -62 234 C-62.65613281 233.81195801 -63.31226563 233.62391602 -63.98828125 233.43017578 C-83.02085144 227.79836299 -99.26789629 218.18942781 -114 205 C-114.78632813 204.31421875 -115.57265625 203.6284375 -116.3828125 202.921875 C-131.67675897 188.68054832 -142.68405192 168.01043871 -148 148 C-148.31710937 146.86820313 -148.63421875 145.73640625 -148.9609375 144.5703125 C-153.26227199 126.22058281 -153.22590736 104.1217776 -148 86 C-147.81195801 85.34386719 -147.62391602 84.68773438 -147.43017578 84.01171875 C-141.79836299 64.97914856 -132.18942781 48.73210371 -119 34 C-117.97132813 32.82050781 -117.97132813 32.82050781 -116.921875 31.6171875 C-102.68054832 16.32324103 -82.01043871 5.31594808 -62 0 C-60.86820312 -0.31710938 -59.73640625 -0.63421875 -58.5703125 -0.9609375 C-40.22058281 -5.26227199 -18.1217776 -5.22590736 0 0 Z M-83 57 C-83.969375 57.77472656 -84.93875 58.54945312 -85.9375 59.34765625 C-98.71811013 70.02084664 -108.26935894 88.51690407 -110 105 C-111.55107627 129.02621559 -107.16024352 150.47927148 -91 169 C-90.22527344 169.969375 -89.45054687 170.93875 -88.65234375 171.9375 C-77.97915336 184.71811013 -59.48309593 194.26935894 -43 196 C-18.97378441 197.55107627 2.47927148 193.16024352 21 177 C21.969375 176.22527344 22.93875 175.45054687 23.9375 174.65234375 C36.71811013 163.97915336 46.26935894 145.48309593 48 129 C49.55107627 104.97378441 45.16024352 83.52072852 29 65 C28.22527344 64.030625 27.45054687 63.06125 26.65234375 62.0625 C15.97915336 49.28188987 -2.51690407 39.73064106 -19 38 C-43.02621559 36.44892373 -64.47927148 40.83975648 -83 57 Z " fill="#000000" transform="translate(423,3)"/>
<path d="M0 0 C5.20555589 2.69028484 8.98322965 6.59299591 13.05566406 10.74188232 C13.88588577 11.57151993 14.71610748 12.40115753 15.57148743 13.25593567 C18.29716335 15.98438512 21.00841816 18.72670056 23.71972656 21.46942139 C25.61314439 23.37030414 27.50733524 25.27038364 29.40258789 27.16943359 C33.86927522 31.64851462 38.32567451 36.13768633 42.77839947 40.63064313 C47.85153847 45.74861256 52.93614631 50.85512298 58.02171326 55.96073866 C68.47545579 66.4562037 78.91484171 76.96587105 89.34472656 87.48504639 C92.42665191 86.11199068 94.52681865 84.54776042 96.89840698 82.15841675 C97.58519531 81.47148743 98.27198364 80.78455811 98.97958374 80.07681274 C99.72253693 79.32352692 100.46549011 78.57024109 101.23095703 77.79412842 C102.02169617 77.00046875 102.8124353 76.20680908 103.62713623 75.38909912 C105.34375389 73.66487007 107.05805706 71.93833438 108.77032089 70.20978165 C111.48118711 67.47340447 114.19823821 64.7433095 116.91702271 62.01480103 C123.18025796 55.72674926 129.43420333 49.42949539 135.68765259 43.13171387 C141.87096089 36.90477504 148.05820046 30.68181825 154.25229263 24.46560287 C156.92743482 21.77750511 159.59647409 19.08344653 162.26535034 16.38912964 C163.90983832 14.73737457 165.55460889 13.08590079 167.19970703 11.43475342 C167.93861176 10.68551605 168.67751648 9.93627869 169.43881226 9.16433716 C175.70494301 2.89693051 180.79579609 -1.60275172 190.03222656 -1.82745361 C195.65703311 -1.75952117 199.88512089 -1.06612109 204.34472656 2.48504639 C208.74326425 7.32343784 210.49735068 11.60080622 210.65722656 18.17254639 C210.71330078 19.66334717 210.71330078 19.66334717 210.77050781 21.18426514 C209.64732538 29.8915051 204.08096763 35.31334199 198.08789062 41.19598389 C197.25825302 42.0262056 196.42861542 42.85642731 195.57383728 43.71180725 C192.84538783 46.43748317 190.10307239 49.14873799 187.36035156 51.86004639 C185.4594688 53.75346421 183.55938931 55.64765506 181.66033936 57.54290771 C177.18125833 62.00959504 172.69208662 66.46599433 168.19912982 70.91871929 C163.08116038 75.9918583 157.97464997 81.07646613 152.86903429 86.16203308 C142.37356924 96.61577561 131.8639019 107.05516154 121.34472656 117.48504639 C122.72310357 120.58553825 124.30154417 122.68346828 126.70932007 125.06323242 C127.40466354 125.75554459 128.10000702 126.44785675 128.81642151 127.16114807 C129.57905807 127.91030991 130.34169464 128.65947174 131.12744141 129.43133545 C131.93085464 130.22861557 132.73426788 131.02589569 133.56202698 131.84733582 C135.30761339 133.57861321 137.05542692 135.30764728 138.80518723 137.03470612 C141.57586793 139.77062175 144.33941305 142.51355697 147.10098267 145.25866699 C154.95375204 153.06320541 162.81814066 160.85597214 170.69140625 168.63983154 C175.50722828 173.40113736 180.31233183 178.17307643 185.11198807 182.95067596 C186.94140751 184.76769612 188.77461117 186.58091457 190.61167526 188.39020538 C193.18476038 190.92474349 195.74518165 193.47147083 198.30322266 196.0211792 C199.06181076 196.76224411 199.82039886 197.50330902 200.60197449 198.26683044 C205.71112257 203.39498951 209.69615872 208.30765663 210.84082031 215.68035889 C210.69390441 223.02615416 209.93725794 227.47210452 205.03222656 233.17254639 C199.25425909 238.14428584 194.78938499 238.82532249 187.34472656 238.88348389 C173.23652185 237.00973795 160.01967474 218.28828012 150.52441406 208.76239014 C148.81256698 207.04867489 147.10049669 205.33518258 145.38821411 203.62190247 C140.91118719 199.14108174 136.43717317 194.65726467 131.96380615 190.17279053 C127.38688653 185.58558889 122.80708759 181.00126386 118.22753906 176.41668701 C109.26380099 167.44226703 100.30314882 158.46477255 91.34472656 149.48504639 C88.2442347 150.8634234 86.14630467 152.44186399 83.76654053 154.84963989 C83.07422836 155.54498337 82.3819162 156.24032684 81.66862488 156.95674133 C80.54488213 158.10069618 80.54488213 158.10069618 79.3984375 159.26776123 C78.60115738 160.07117447 77.80387726 160.87458771 76.98243713 161.7023468 C75.25115974 163.44793322 73.52212567 165.19574675 71.79506683 166.94550705 C69.0591512 169.71618776 66.31621598 172.47973287 63.57110596 175.24130249 C55.76656754 183.09407187 47.97380081 190.95846048 40.18994141 198.83172607 C35.42863559 203.64754811 30.65669652 208.45265165 25.87909698 213.25230789 C24.06207683 215.08172733 22.24885838 216.914931 20.43956757 218.75199509 C17.90502946 221.3250802 15.35830212 223.88550147 12.80859375 226.44354248 C12.06752884 227.20213058 11.32646393 227.96071869 10.5629425 228.74229431 C5.43478344 233.85144239 0.52211631 237.83647854 -6.85058594 238.98114014 C-14.19638121 238.83422423 -18.64233157 238.07757776 -24.34277344 233.17254639 C-29.31451289 227.39457891 -29.99554954 222.92970481 -30.05371094 215.48504639 C-28.179965 201.37684167 -9.45850717 188.15999456 0.06738281 178.66473389 C1.78109806 176.9528868 3.49459037 175.24081651 5.20787048 173.52853394 C9.68869121 169.05150701 14.17250828 164.577493 18.65698242 160.10412598 C23.24418406 155.52720635 27.82850909 150.94740742 32.41308594 146.36785889 C41.38750592 137.40412082 50.36500039 128.44346864 59.34472656 119.48504639 C57.97167086 116.40312104 56.4074406 114.3029543 54.01809692 111.93136597 C53.3311676 111.24457764 52.64423828 110.55778931 51.93649292 109.85018921 C51.18320709 109.10723602 50.42992126 108.36428284 49.65380859 107.59881592 C48.86014893 106.80807678 48.06648926 106.01733765 47.2487793 105.20263672 C45.52455025 103.48601906 43.79801456 101.77171589 42.06946182 100.05945206 C39.33308464 97.34858584 36.60298968 94.63153474 33.8744812 91.91275024 C27.58642943 85.64951499 21.28917556 79.39556962 14.99139404 73.14212036 C8.76445521 66.95881206 2.54149842 60.77157249 -3.67471695 54.57748032 C-6.36281471 51.90233813 -9.05687329 49.23329886 -11.75119019 46.56442261 C-13.40294526 44.91993463 -15.05441904 43.27516406 -16.70556641 41.63006592 C-17.45480377 40.89116119 -18.20404114 40.15225647 -18.97598267 39.39096069 C-25.30316081 33.06507062 -29.76449028 27.99943088 -29.90527344 18.67254639 C-29.83524329 12.21421015 -28.57370392 8.71457371 -24.34277344 3.79754639 C-17.15895233 -2.38388108 -8.82267165 -3.6566179 0 0 Z " fill="#000000" transform="translate(29.6552734375,273.51495361328125)"/>
</svg>
