<?xml version="1.0" standalone="no"?>
<!DOCTYPE svg PUBLIC "-//W3C//DTD SVG 20010904//EN"
 "http://www.w3.org/TR/2001/REC-SVG-20010904/DTD/svg10.dtd">
<svg version="1.0" xmlns="http://www.w3.org/2000/svg"
 width="512.000000pt" height="512.000000pt" viewBox="0 0 512.000000 512.000000"
 preserveAspectRatio="xMidYMid meet">

<g transform="translate(0.000000,512.000000) scale(0.100000,-0.100000)"
fill="#000000" stroke="none">
<path d="M4447 4609 c-115 -4 -223 -13 -242 -19 -99 -33 -136 -169 -69 -250
40 -47 61 -55 171 -60 l103 -5 -531 -423 c-291 -233 -536 -425 -543 -428 -7
-3 -288 196 -625 441 -337 245 -626 452 -642 460 -39 21 -103 19 -147 -4 -20
-11 -451 -283 -957 -604 -856 -544 -922 -588 -942 -628 -13 -23 -23 -56 -23
-73 0 -57 40 -118 94 -145 43 -21 54 -23 95 -15 35 8 259 145 923 567 482 306
879 557 882 557 3 0 272 -194 598 -432 326 -237 617 -447 647 -465 76 -46 128
-45 196 1 28 19 311 243 630 498 l580 464 5 -107 c4 -88 9 -113 26 -136 75
-102 217 -98 278 6 17 30 21 61 27 225 4 105 8 254 8 332 1 130 -1 144 -21
174 -46 67 -67 75 -196 76 -64 1 -211 -2 -325 -7z"/>
<path d="M1644 3416 c-17 -8 -44 -31 -60 -52 l-29 -37 -3 -1341 c-3 -1495 -7
-1398 66 -1454 l35 -27 388 -3 c372 -3 390 -2 428 17 21 11 50 37 62 58 l24
38 0 1350 c0 1262 -1 1352 -17 1382 -10 17 -32 42 -50 55 l-33 23 -390 2
c-313 2 -396 0 -421 -11z m586 -1451 l0 -1145 -175 0 -175 0 0 1145 0 1145
175 0 175 0 0 -1145z"/>
<path d="M4200 3352 c-48 -26 -77 -73 -85 -135 -3 -29 -5 -626 -3 -1327 l3
-1275 22 -35 c12 -20 40 -46 61 -58 39 -22 46 -22 416 -22 419 0 422 0 472 66
l29 37 0 1333 c0 1330 0 1333 -21 1360 -11 15 -33 37 -48 48 -26 20 -41 21
-419 24 -367 2 -394 1 -427 -16z m590 -1417 l0 -1115 -175 0 -175 0 0 1115 0
1115 175 0 175 0 0 -1115z"/>
<path d="M358 2510 c-20 -11 -47 -34 -60 -52 l-23 -33 0 -912 c0 -905 0 -912
21 -939 11 -15 33 -37 48 -48 26 -20 41 -21 417 -24 388 -3 390 -3 430 20 22
12 50 38 62 58 l22 35 3 865 c2 603 0 880 -8 916 -12 55 -53 104 -103 123 -18
7 -161 11 -400 11 -348 -1 -374 -2 -409 -20z m592 -1000 l0 -690 -175 0 -175
0 0 690 0 690 175 0 175 0 0 -690z"/>
<path d="M2965 2391 c-47 -12 -72 -28 -102 -68 l-28 -36 -3 -826 -2 -826 22
-45 c15 -30 37 -53 63 -67 40 -23 41 -23 430 -21 l390 3 34 24 c18 13 42 42
52 65 18 39 19 83 19 853 0 551 -3 821 -11 840 -13 35 -45 70 -84 91 -26 15
-76 17 -390 19 -198 1 -373 -2 -390 -6z m545 -946 l0 -625 -175 0 -175 0 0
625 0 625 175 0 175 0 0 -625z"/>
</g>
</svg>
