<?xml version="1.0" encoding="UTF-8"?>
<svg version="1.1" xmlns="http://www.w3.org/2000/svg" width="512" height="512">
<path d="M0 0 C1.40672102 -0.00967334 1.40672102 -0.00967334 2.84186065 -0.0195421 C3.86889071 -0.01644489 4.89592077 -0.01334769 5.95407295 -0.01015663 C7.04764929 -0.01468774 8.14122563 -0.01921886 9.26794064 -0.02388728 C12.94519044 -0.03658303 16.62229312 -0.03490756 20.29956245 -0.03325844 C22.93077982 -0.03924043 25.56199542 -0.04604521 28.19320869 -0.05361366 C34.60625688 -0.07022977 41.01926829 -0.07572348 47.4323362 -0.07683842 C52.64481909 -0.07778858 57.85728985 -0.08189725 63.06976891 -0.08823967 C77.84620611 -0.10585352 92.62261425 -0.11507828 107.39906202 -0.11357872 C108.19573888 -0.11349881 108.99241574 -0.1134189 109.81323433 -0.11333656 C110.61088322 -0.1132548 111.40853211 -0.11317304 112.23035218 -0.1130888 C125.15914745 -0.11227579 138.08782626 -0.13141674 151.01658784 -0.1596133 C164.28987742 -0.18833297 177.56311018 -0.20215411 190.83643162 -0.20042574 C198.28916665 -0.19976154 205.74177956 -0.2052672 213.19448662 -0.22678185 C219.53959924 -0.2449816 225.8845344 -0.249351 232.22966181 -0.235763 C235.46695237 -0.22922715 238.70383117 -0.23130618 241.94110298 -0.2464695 C245.45110377 -0.26184742 248.96020556 -0.2526621 252.47018623 -0.23720741 C253.49275485 -0.24749454 254.51532346 -0.25778167 255.56887901 -0.26838052 C261.34356773 -0.21205861 264.79525653 0.32546971 269.33911324 4.25726891 C273.20164085 8.64175971 274.46313602 10.93732424 274.47333431 16.7312479 C274.47779216 17.90133402 274.48225 19.07142014 274.48684293 20.27696341 C274.48656639 22.22210057 274.48656639 22.22210057 274.48628426 24.20653343 C274.48958202 25.58920467 274.4933074 26.97187495 274.49742573 28.35454398 C274.50746396 32.16744124 274.51116546 35.98032276 274.51381505 39.79323137 C274.51771275 43.90039643 274.52729149 48.00754896 274.53602791 52.11470604 C274.55580818 62.04057467 274.56586083 71.96644434 274.5747557 81.89232776 C274.57913632 86.56408853 274.58450374 91.23584816 274.58974457 95.90760803 C274.60675894 111.43364508 274.62125349 126.95968141 274.62849331 142.48572636 C274.63040328 146.51658886 274.6323236 150.54745135 274.63427925 154.57831383 C274.63476299 155.58019321 274.63524673 156.5820726 274.63574513 157.61431197 C274.64404679 173.84693907 274.66938508 190.07949251 274.70185993 206.31208744 C274.73491392 222.96969884 274.75294059 239.6272728 274.75613755 256.28491718 C274.75830426 265.64081087 274.76707639 274.99659718 274.79259872 284.35245895 C274.81428311 292.31995357 274.82236734 300.28731473 274.81263194 308.25483551 C274.80808056 312.32053093 274.81002187 316.38595085 274.82939339 320.45160866 C274.84697854 324.17448679 274.84606557 327.89688751 274.8304961 331.61977039 C274.82698484 333.60282083 274.84318105 335.585876 274.86010057 337.56885737 C274.81102881 344.33482162 274.53178161 348.82576101 270.33911324 354.25726891 C264.77905725 358.56914906 260.56709595 359.40766443 253.71429634 359.43135643 C252.9301074 359.43785538 252.14591845 359.44435433 251.3379662 359.45105022 C248.70131449 359.47148369 246.0646782 359.48467516 243.42798042 359.49774742 C241.54056777 359.51055864 239.65315729 359.52369411 237.76574898 359.53713036 C220.50630672 359.65321041 203.24628453 359.70971109 185.98652458 359.75389767 C173.23690391 359.78708852 160.48799703 359.84654483 147.73868251 359.94140869 C138.76607243 360.00590175 129.79365588 360.03945971 120.82082295 360.0506472 C115.46730218 360.05818377 110.11464313 360.07916089 104.76137733 360.13367462 C99.7147963 360.18445503 94.66952476 360.1966172 89.62272835 360.18042374 C87.78097758 360.18102297 85.93916847 360.19508058 84.09765053 360.22437096 C72.92117926 360.39268787 64.96334091 359.14184073 55.3942318 353.14758778 C51.63988384 350.82462889 48.02173288 349.52487208 43.77661324 348.44476891 C43.06593697 348.24286949 42.3552607 348.04097008 41.62304878 347.8329525 C38.3755742 346.93561922 35.27314614 346.24873998 31.92505074 345.81586266 C18.77578098 344.07413361 5.27869273 335.94109595 -2.81908989 325.46527672 C-12.66088676 310.34214937 -12.66088676 310.34214937 -12.66088676 302.25726891 C-10.71948051 300.50336266 -10.71948051 300.50336266 -8.09838676 298.69476891 C-0.38758304 292.82975247 4.85415899 284.64374363 7.33911324 275.25726891 C7.62999724 272.63088512 7.75555211 270.03072077 7.85595894 267.39056969 C8.32066452 255.53900397 8.32066452 255.53900397 11.28833199 251.80414391 C13.65161324 250.38226891 13.65161324 250.38226891 16.08130074 249.29633141 C20.60062486 247.21650404 22.68073947 242.99788609 24.37890816 238.50824547 C25.9420669 233.21584226 25.70793809 227.9907945 25.71411324 222.50726891 C25.75085152 220.81344078 25.75085152 220.81344078 25.78833199 219.08539391 C25.81730591 210.74090347 24.78787403 203.47394463 19.37426949 196.85492516 C18.72329292 196.34832359 18.07231636 195.84172203 17.40161324 195.31976891 C16.7532148 194.79512047 16.10481636 194.27047203 15.43676949 193.72992516 C13.32885241 192.15957663 13.32885241 192.15957663 10.70239449 191.02289391 C7.40316173 188.55801257 7.15189746 185.79291259 6.46411324 181.94476891 C3.77646491 169.49388438 -1.78413984 158.53222504 -10.66088676 149.25726891 C-11.67895912 148.64277885 -12.69703148 148.0282888 -13.74595451 147.39517784 C-15.93440979 145.56377181 -16.59275043 144.56600302 -17.21473694 141.74770546 C-17.42321478 138.44082501 -17.43671883 135.18041488 -17.38964653 131.86713219 C-17.39534157 130.60968193 -17.40103661 129.35223167 -17.40690422 128.05667686 C-17.42142155 124.61402667 -17.39851895 121.17254686 -17.36804509 117.73003817 C-17.3416397 114.1218502 -17.34697725 110.51369665 -17.34812737 106.90543175 C-17.34531927 100.84428974 -17.31929838 94.78359876 -17.27831841 88.72260094 C-17.23118583 81.72600567 -17.21532275 74.72990464 -17.21752506 67.73316205 C-17.21955593 60.27236086 -17.19870257 52.81174897 -17.17118526 45.35100508 C-17.16480716 43.20733698 -17.16266386 41.06369967 -17.16146851 38.92002296 C-17.15787869 34.91517912 -17.12867803 30.91091221 -17.09667778 26.90619469 C-17.09803734 25.72362083 -17.0993969 24.54104698 -17.10079765 23.32263756 C-17.01095799 15.6254183 -16.40724513 10.42614394 -11.22338676 4.44476891 C-7.50124215 1.26732838 -4.90350522 0.00853563 0 0 Z M229.29297066 44.49677086 C228.17110392 46.15917329 227.05526676 47.82565611 225.94458199 49.49555016 C225.05625427 50.81670074 225.05625427 50.81670074 224.14998055 52.16454124 C222.27022865 54.96277317 220.39833239 57.76615924 218.52661324 60.56976891 C217.24913442 62.47441195 215.9711451 64.37871271 214.69262886 66.28265953 C211.56886814 70.93691533 208.45153079 75.59542108 205.33911324 80.25726891 C201.95704701 78.6744075 200.01868596 76.99137191 197.52661324 74.19476891 C194.7777119 71.39477275 193.43703013 70.29212068 189.65161324 68.94476891 C186.19738542 68.99480191 186.19738542 68.99480191 183.40161324 71.31976891 C181.21447904 74.07629402 181.21447904 74.07629402 180.58911324 77.06976891 C181.76131269 82.0516166 184.80655039 84.67284135 188.33911324 88.25726891 C189.37833534 89.3783115 190.41598167 90.50081609 191.45239449 91.62445641 C192.57971403 92.81606368 193.70863016 94.00616247 194.83911324 95.19476891 C195.37238228 95.7749276 195.90565132 96.35508629 196.45508003 96.95282555 C199.26256001 99.83300493 201.01165116 101.1544031 204.93286324 102.38617516 C209.33033575 102.21975704 210.17103549 101.30478616 213.33911324 98.25726891 C215.70978486 95.12910415 217.83228882 91.85457628 219.96020699 88.55805016 C220.58258751 87.60842903 221.20496803 86.65880791 221.84620857 85.68041039 C223.8308332 82.64855787 225.803908 79.60938712 227.77661324 76.56976891 C229.0994111 74.5438754 230.42297105 72.51847929 231.74731636 70.49359703 C234.74366265 65.91079108 237.73388025 61.32409456 240.71188545 56.72934532 C241.81781379 55.04922445 242.94428951 53.38248734 244.08865547 51.72830772 C244.63802773 50.93244255 245.18739998 50.13657738 245.75341988 49.31659508 C246.49514191 48.26154022 246.49514191 48.26154022 247.25184822 47.18517113 C248.5965949 45.14467575 248.5965949 45.14467575 248.46411324 41.94476891 C247.14904879 38.80322607 246.13544662 37.22225993 243.33911324 35.25726891 C236.0812926 33.86747347 233.0309809 39.1350809 229.29297066 44.49677086 Z M27.33911324 74.25726891 C27.19583582 78.34067517 27.54594672 80.36068974 30.27075386 83.44075584 C34.69286164 86.05870751 38.50608352 85.80957158 43.55786324 85.75897789 C44.58444038 85.76438087 45.61101753 85.76978386 46.66870308 85.77535057 C50.05913385 85.78784889 53.44871732 85.77133874 56.83911324 85.75336266 C59.19653556 85.75351762 61.55395815 85.75500612 63.91137886 85.75777245 C68.85094661 85.75915694 73.79022419 85.74658948 78.72973824 85.72382164 C85.06179626 85.69543725 91.39337207 85.69817385 97.72546577 85.71091175 C102.59306139 85.71786625 107.46054552 85.71008219 112.32812691 85.69765472 C114.66292074 85.69313802 116.99772652 85.69280533 119.33252144 85.69672012 C122.59538498 85.69963 125.85758369 85.68313517 129.12036324 85.66132164 C130.08570992 85.66582329 131.05105659 85.67032494 132.0456562 85.674963 C136.92924566 85.62070886 140.41584814 85.51963436 144.33911324 82.25726891 C145.90341571 79.12866395 145.69538607 76.70123966 145.33911324 73.25726891 C143.2051801 70.75889083 141.4491056 69.44598497 138.16824532 68.88818741 C135.41704072 68.72777515 132.69265306 68.70554554 129.93676949 68.72382164 C128.8906852 68.71520607 127.84460091 68.7065905 126.76681709 68.69771385 C123.31149694 68.67502458 119.8569858 68.68179819 116.40161324 68.69086266 C113.99934841 68.68562866 111.59708564 68.67935301 109.19482613 68.67207909 C104.1611177 68.66166955 99.12769187 68.66624497 94.09399605 68.68085289 C87.64068884 68.69804679 81.18827147 68.67453969 74.73506355 68.63936329 C69.77480344 68.61741322 64.81475706 68.61882498 59.85446358 68.6271286 C57.47499808 68.62794931 55.09551708 68.62106312 52.71609688 68.60635757 C49.39065868 68.58895554 46.06683013 68.60341956 42.74145699 68.62616539 C41.75740883 68.61447319 40.77336067 68.60278099 39.75949287 68.59073448 C33.95925586 68.67153358 30.86125405 69.16988969 27.33911324 74.25726891 Z M233.33911324 140.25726891 C230.9223915 143.27937339 228.83235646 146.49455386 226.72583199 149.73773766 C226.11141747 150.6657267 225.49700294 151.59371574 224.8639698 152.54982567 C222.90832226 155.50843882 220.96735575 158.47636252 219.02661324 161.44476891 C217.70139865 163.45516588 216.37523755 165.46493928 215.04809761 167.47406578 C211.80076124 172.39462337 208.56541869 177.3228997 205.33911324 182.25726891 C201.95788947 180.67295166 199.97625333 178.97426527 197.46411324 176.19476891 C194.98719514 173.68115573 193.50344186 172.32628693 190.21411324 170.94476891 C185.9035866 171.41330441 184.15944566 173.03403185 181.33911324 176.25726891 C180.80334316 180.38524978 180.82134241 182.48134329 183.15576363 185.97968102 C183.99099556 186.82280846 184.82622749 187.6659359 185.68676949 188.53461266 C187.06058784 189.92196617 187.06058784 189.92196617 188.46216011 191.33734703 C188.94547798 191.80600182 189.42879585 192.2746566 189.92675972 192.75751305 C191.39831395 194.19155372 192.82872975 195.65916584 194.25903511 197.13422203 C195.18393745 198.05010094 196.1088398 198.96597984 197.06176949 199.90961266 C197.90489693 200.74484459 198.74802437 201.58007652 199.61670113 202.44061852 C203.18762708 204.82347745 205.12469394 204.96425141 209.33911324 204.25726891 C214.39824266 200.4741883 217.58574583 194.6677532 220.99536324 189.42523766 C221.62011543 188.47465981 222.24486763 187.52408195 222.88855171 186.54469872 C224.87768031 183.51502329 226.85838548 180.47994149 228.83911324 177.44476891 C230.17061634 175.41512546 231.50264233 173.38582493 232.83520699 171.35687828 C237.33230308 164.50427992 237.33230308 164.50427992 241.80127144 157.63333702 C242.81316216 156.06989839 243.83235541 154.51115793 244.85937691 152.95761681 C245.54640694 151.89998634 245.54640694 151.89998634 246.24731636 150.82098961 C246.64986641 150.20850868 247.05241646 149.59602776 247.46716499 148.9649868 C248.57333329 147.09383012 248.57333329 147.09383012 248.46411324 144.00726891 C247.0423409 140.53182542 245.53569506 139.19008583 242.33911324 137.25726891 C237.80340519 137.25726891 236.84028147 137.50646563 233.33911324 140.25726891 Z M28.33911324 175.25726891 C27.00818164 178.65696702 27.00818164 178.65696702 27.33911324 182.25726891 C29.35228822 185.17566979 30.968517 186.97027599 34.52978897 187.71598053 C37.31433681 187.90312026 40.05837777 187.92116733 42.849123 187.88837242 C43.90656715 187.89552773 44.96401131 187.90268303 46.05349922 187.91005516 C49.5462797 187.92695395 53.03777898 187.90753255 56.53051949 187.88617516 C58.95759881 187.88700367 61.38467809 187.88946241 63.81175423 187.89348412 C68.8968108 187.89634287 73.98142709 187.8816314 79.06640816 187.85419273 C85.58923597 187.82009243 92.1112773 187.82613388 98.63414288 187.84485531 C103.64498149 187.85541537 108.65563659 187.84649668 113.66645813 187.83147049 C116.07185446 187.82628218 118.47726989 187.8267783 120.88266373 187.83301544 C124.24169566 187.8384561 127.59959505 187.8181284 130.958498 187.79071617 C131.95549217 187.79724205 132.95248634 187.80376793 133.97969246 187.81049156 C139.30573571 187.78589005 139.30573571 187.78589005 143.95665169 185.44267845 C146.0010077 182.21093928 145.87317472 179.99569931 145.33911324 176.25726891 C143.47202819 173.89229451 142.01849893 172.59696175 139.33911324 171.25726891 C137.93147012 171.15717443 136.51925574 171.11789602 135.10807991 171.11009789 C133.77694412 171.09936493 133.77694412 171.09936493 132.4189167 171.08841515 C131.44278419 171.08572624 130.46665169 171.08303734 129.46093941 171.08026695 C127.9217308 171.07041016 127.9217308 171.07041016 126.35142708 171.06035423 C122.94497803 171.04059252 119.53857312 171.02895269 116.13208199 171.01898766 C114.97070528 171.01491213 113.80932858 171.0108366 112.61275864 171.00663757 C106.46677642 170.98576533 100.32081661 170.97146817 94.17480659 170.96210289 C87.81911244 170.95103149 81.46376772 170.91662608 75.10819721 170.87693119 C70.22776312 170.85081663 65.34741296 170.84241566 60.46691513 170.83882141 C58.12371966 170.83394271 55.78052826 170.82229246 53.43740082 170.80378342 C50.15980707 170.7795007 46.88312635 170.78033737 43.60547066 170.7872982 C42.63541084 170.77448814 41.66535103 170.76167809 40.66589546 170.74847984 C35.33524731 170.78979666 32.07360106 171.02552695 28.33911324 175.25726891 Z M228.84649849 249.35562706 C227.29717264 251.63722531 225.78556507 253.93979119 224.28442574 256.25336266 C223.46480858 257.50368027 223.46480858 257.50368027 222.6286335 258.77925682 C220.90248986 261.41476211 219.18320797 264.0546617 217.46411324 266.69476891 C216.28748246 268.49389308 215.11040343 270.29272419 213.93286324 272.09125328 C211.0630898 276.47655084 208.1989206 280.86546648 205.33911324 285.25726891 C204.23545825 284.31809277 203.13278738 283.37776011 202.03051949 282.43695641 C201.41636177 281.9134359 200.80220406 281.38991539 200.1694355 280.85053062 C199.01157114 279.84263109 197.87228976 278.81261323 196.76074409 277.75385094 C194.29828471 275.47813177 192.58626349 274.30770773 189.27661324 273.63226891 C185.24666474 274.48970476 183.76981991 275.96866576 181.33911324 279.25726891 C180.33737788 282.12486483 180.33737788 282.12486483 181.33911324 285.25726891 C183.3327445 288.25445105 185.81034647 290.7073939 188.33911324 293.25726891 C189.33829675 294.29325911 190.33696112 295.32975018 191.33520699 296.36664391 C192.39752026 297.45663855 193.46132564 298.54518098 194.52661324 299.63226891 C195.03740425 300.15643394 195.54819527 300.68059898 196.0744648 301.22064781 C199.59828296 304.75022009 202.11227349 307.10881292 207.15161324 307.44476891 C214.93142317 304.54640834 219.88848941 293.62119675 224.29614449 286.89398766 C224.92518181 285.9395829 225.55421913 284.98517815 226.20231819 284.00185204 C227.51914978 282.00214534 228.83417698 280.00124936 230.14746284 277.99921227 C232.15925918 274.93311604 234.17745183 271.8713046 236.19653511 268.81000328 C237.4801153 266.85907944 238.76333145 264.90791602 240.04614449 262.95648766 C240.64820213 262.04292 241.25025978 261.12935234 241.8705616 260.18810081 C242.4284185 259.33653908 242.98627541 258.48497734 243.56103706 257.6076107 C244.05066429 256.86198372 244.54029152 256.11635674 245.04475594 255.34813499 C247.73102964 251.09737015 247.73102964 251.09737015 248.21411324 246.19476891 C247.55562595 243.24698527 247.55562595 243.24698527 245.71411324 241.38226891 C236.91181107 237.21275736 233.52239883 242.78211997 228.84649849 249.35562706 Z M27.33911324 279.25726891 C27.33911324 282.8848806 27.54715541 285.17732642 29.71411324 288.13226891 C32.62373931 290.14662542 35.22861004 290.38439824 38.65243721 290.3977108 C39.53282158 290.40342094 40.41320595 290.40913109 41.32026863 290.41501427 C42.76504837 290.41669106 42.76504837 290.41669106 44.23901558 290.41840172 C45.2555471 290.42336662 46.27207863 290.42833153 47.31941414 290.43344688 C50.68796651 290.44807256 54.05647181 290.45487088 57.42505074 290.46039391 C59.76291086 290.46614461 62.10077097 290.47190235 64.43863106 290.47766685 C69.34296069 290.48817771 74.24727392 290.49401997 79.15161324 290.49750328 C85.43883448 290.50299102 91.72583948 290.52702485 98.01299286 290.55547523 C102.84281233 290.57408863 107.67257956 290.57930651 112.50243187 290.58083916 C114.82049556 290.58386867 117.13855828 290.59190718 119.45658684 290.60502434 C122.69803318 290.62205887 125.93894902 290.62021083 129.18042183 290.61371422 C130.13955986 290.622929 131.09869789 290.63214378 132.08690071 290.6416378 C136.96476013 290.61097775 140.41896897 290.5167426 144.33911324 287.25726891 C145.88498199 284.16553139 145.63270845 281.66297338 145.33911324 278.25726891 C144.04183384 275.85729216 144.04183384 275.85729216 141.33911324 274.25726891 C137.88376312 273.64848652 134.45954659 273.70090534 130.958498 273.72382164 C129.90280617 273.71520607 128.84711433 273.7065905 127.75943184 273.69771385 C124.26621236 273.67499244 120.77379112 273.68180467 117.28051949 273.69086266 C114.85440519 273.68562966 112.42829294 273.67935438 110.00218391 273.67207909 C104.91542175 273.66166329 99.82893913 273.66625329 94.74218941 273.68085289 C88.22047546 273.69803777 81.69964274 273.67455407 75.17802715 273.63936329 C70.1671533 273.61741203 65.156491 273.61882544 60.14558411 273.6271286 C57.74099893 273.62794944 55.33639843 273.62106085 52.93185806 273.60635757 C49.5703941 273.58895567 46.21052262 273.60342014 42.849123 273.62616539 C41.35666809 273.60862709 41.35666809 273.60862709 39.83406258 273.59073448 C34.01676273 273.67090116 30.85518483 274.1311357 27.33911324 279.25726891 Z " fill="#000000" transform="translate(220.66088676452637,16.74273109436035)"/>
<path d="M0 0 C1.38301086 1.4980011 1.38301086 1.4980011 2.63793945 3.4465332 C3.11556229 4.17431473 3.59318512 4.90209625 4.08528137 5.65193176 C4.58952133 6.44355209 5.09376129 7.23517242 5.61328125 8.05078125 C6.70754639 9.71558413 7.80195189 11.38029475 8.89648438 13.04492188 C10.60585248 15.6753037 12.31014566 18.30884984 14.01049805 20.94506836 C15.65706581 23.48885192 17.32177383 26.02003235 18.98828125 28.55078125 C19.48644852 29.33632889 19.98461578 30.12187653 20.49787903 30.93122864 C24.22124546 36.56687598 27.75644612 39.72064191 34.37109375 41.71484375 C35.05300781 41.78832031 35.73492187 41.86179687 36.4375 41.9375 C37.45650391 42.07478516 37.45650391 42.07478516 38.49609375 42.21484375 C46.27239981 41.54761 50.95148697 37.7619187 56.125 32.36328125 C56.75736572 31.72384079 57.38973145 31.08440033 58.04125977 30.42558289 C60.03965252 28.39941232 62.01985804 26.35649419 64 24.3125 C65.35950815 22.92788775 66.72017464 21.54441183 68.08203125 20.16210938 C71.4015599 16.7877319 74.70490061 13.3982299 78 10 C82.14471152 11.62351595 84.86711377 14.64749339 87.90234375 17.77734375 C88.46192276 18.344496 89.02150177 18.91164825 89.59803772 19.49598694 C91.98437292 21.91491854 94.35871351 24.34550029 96.73413086 26.77514648 C98.47355474 28.55084317 100.2190249 30.32043763 101.96484375 32.08984375 C102.49520737 32.63680405 103.02557098 33.18376434 103.57200623 33.74729919 C108.89261038 39.13719897 113.02222417 41.52167754 120.50390625 42.06640625 C126.41661255 41.9091042 130.75903522 38.83255827 135 35 C137.07272059 32.34799186 138.90278769 29.55404091 140.73828125 26.734375 C141.26391159 25.94097717 141.78954193 25.14757935 142.33110046 24.33013916 C143.99925386 21.80840254 145.65598371 19.27939237 147.3125 16.75 C148.44521632 15.03336088 149.57867197 13.31720936 150.71289062 11.6015625 C153.48385405 7.40664002 156.24460023 3.20516005 159 -1 C180.03644026 2.23654399 198.13099905 8.46992066 211.6875 25.75 C225.25365892 44.47643623 227.52875697 67.86862743 224.69970703 90.390625 C222.90138077 99.70068606 218.31780168 106.88384477 210.625 112.3125 C203.2959624 117.10245154 196.63690069 118.44514973 188.06985474 118.38768005 C186.61235693 118.39575836 186.61235693 118.39575836 185.12541473 118.40399987 C181.88442327 118.41825492 178.64384166 118.41118163 175.40283203 118.40405273 C173.0730761 118.40975759 170.74332296 118.4167223 168.41357422 118.42485046 C162.09535585 118.44278467 155.77727634 118.44161286 149.45904016 118.43590808 C143.5124882 118.43242504 137.5659574 118.4403814 131.61941002 118.44726873 C119.12159223 118.46098272 106.62383712 118.45556401 94.12602077 118.44408352 C82.70687041 118.43415388 71.28788215 118.44708904 59.86875679 118.47101771 C48.12760954 118.49543471 36.38653771 118.50501011 24.6453656 118.49836498 C18.05999555 118.49499627 11.47475939 118.49740501 4.88940811 118.51461601 C-1.30441058 118.53009735 -7.49792015 118.52611596 -13.69172668 118.50731087 C-15.96123827 118.50362826 -18.23077281 118.50672383 -20.50026321 118.51719666 C-23.60582562 118.53043037 -26.71036824 118.5188372 -29.81588745 118.50120544 C-30.70734777 118.51081045 -31.5988081 118.52041546 -32.51728237 118.53031152 C-42.77860984 118.41099321 -50.43634331 114.50581547 -57.796875 107.515625 C-65.97759985 98.17451365 -66.26809902 88.18404111 -66.35009766 76.41723633 C-66.36647804 74.70388029 -66.39352332 72.99058726 -66.43212891 71.27758789 C-66.87987361 51.26339974 -62.29117721 35.19451229 -48.26953125 20.3125 C-47.52058594 19.549375 -46.77164063 18.78625 -46 18 C-45.38511719 17.360625 -44.77023438 16.72125 -44.13671875 16.0625 C-35.53216621 7.80802562 -24.7062546 3.87891731 -13.375 1 C-12.5097168 0.78005371 -11.64443359 0.56010742 -10.75292969 0.33349609 C-3.69881522 -1.32654069 -3.69881522 -1.32654069 0 0 Z " fill="#000000" transform="translate(83,377)"/>
<path d="M0 0 C10.59913512 8.15529308 15.86920271 21.01726364 18.2578125 33.78515625 C18.42404003 35.44991255 18.57202536 37.11667028 18.6953125 38.78515625 C18.97516578 41.60404206 19.20523091 42.70190206 20.7578125 45.16015625 C23.76314272 47.11362089 26.66720129 47.94458727 30.13671875 48.78125 C33.29460748 50.27586768 33.94264232 51.52402894 35.2578125 54.78515625 C35.68636524 58.45959221 35.67634564 62.08967631 35.6328125 65.78515625 C35.64441406 66.77 35.65601563 67.75484375 35.66796875 68.76953125 C35.62979819 78.18493572 35.62979819 78.18493572 32.2578125 81.78515625 C29.8828125 82.7890625 29.8828125 82.7890625 27.2578125 83.34765625 C23.50986577 84.1402799 23.50986577 84.1402799 20.63476562 86.52270508 C19.01001942 89.19230137 18.87660663 90.75056586 18.8515625 93.85546875 C18.81869141 95.325 18.81869141 95.325 18.78515625 96.82421875 C18.77613281 97.84257812 18.76710938 98.8609375 18.7578125 99.91015625 C18.65170209 111.61261858 17.52926143 120.42414614 9.18359375 129.0703125 C-15.46011915 151.93730912 -15.46011915 151.93730912 -33.4296875 152.09765625 C-34.49380859 152.12666016 -35.55792969 152.15566406 -36.65429688 152.18554688 C-46.83606395 152.26730288 -52.68640252 149.18755573 -60.1171875 142.53515625 C-61.23966721 141.55329308 -62.36337792 140.57283553 -63.48828125 139.59375 C-64.03597168 139.11534668 -64.58366211 138.63694336 -65.14794922 138.14404297 C-67.423119 136.20474818 -69.80194041 134.40876074 -72.1796875 132.59765625 C-79.53298906 126.76284135 -84.21930886 120.32710166 -85.52124023 110.93188477 C-86.05903148 105.70669314 -86.07162076 100.42090071 -86.171875 95.171875 C-86.21828125 93.81255859 -86.21828125 93.81255859 -86.265625 92.42578125 C-86.28544434 91.60625977 -86.30526367 90.78673828 -86.32568359 89.94238281 C-86.83480407 87.30546105 -87.65568433 86.42668263 -89.7421875 84.78515625 C-91.90457831 83.89764079 -91.90457831 83.89764079 -94.2421875 83.28515625 C-97.5696896 82.35345566 -99.55130752 81.5103972 -101.7421875 78.78515625 C-103.16371035 74.52058771 -102.96664043 70.4401994 -102.9921875 65.97265625 C-103.023125 64.63750977 -103.023125 64.63750977 -103.0546875 63.27539062 C-103.08543072 58.09131573 -102.90570785 54.13155812 -99.7421875 49.78515625 C-97.3671875 48.6484375 -97.3671875 48.6484375 -94.7421875 48.09765625 C-91.07670639 47.29583226 -89.15306301 46.69889313 -86.7421875 43.78515625 C-86.16614105 40.94856389 -85.72719769 38.21072017 -85.3671875 35.34765625 C-83.70213327 24.04334911 -80.37706706 14.47833595 -72.7421875 5.78515625 C-72.24203125 5.1921875 -71.741875 4.59921875 -71.2265625 3.98828125 C-51.95746047 -17.15160738 -21.8250535 -15.21881533 0 0 Z " fill="#000000" transform="translate(195.7421875,173.21484375)"/>
<path d="M0 0 C3.60256651 1.75655613 7.03609384 3.74836406 10.48828125 5.78125 C17.8545024 9.35552838 24.73570076 9.33540641 32.8125 9.3125 C34.49956055 9.33666992 34.49956055 9.33666992 36.22070312 9.36132812 C44.90975379 9.36637696 53.65356682 8.76071069 60.4375 2.75 C62.30859375 1.109375 62.30859375 1.109375 64 0 C67 1 67 1 68.82421875 4.0546875 C69.45571529 5.32299844 70.07642765 6.59672339 70.6875 7.875 C71.00783203 8.51308594 71.32816406 9.15117187 71.65820312 9.80859375 C73.08290944 12.71876144 74 14.71997964 74 18 C71.81494847 19.60665554 69.7146551 20.96552958 67.375 22.3125 C66.36252197 22.90635498 66.36252197 22.90635498 65.32958984 23.51220703 C58.78023696 27.27148369 52.04305347 30.26830764 45 33 C44.15566406 33.35191406 43.31132812 33.70382812 42.44140625 34.06640625 C33.57588588 37.49276854 25.80153683 34.9868804 17.3125 31.5 C16.44906982 31.14977783 15.58563965 30.79955566 14.69604492 30.4387207 C6.95138083 27.1841956 -0.44015983 23.28750233 -7 18 C-8 15 -8 15 -6.34765625 11.42578125 C-5.59612277 10.04907832 -4.8339433 8.67814591 -4.0625 7.3125 C-3.48338867 6.2596582 -3.48338867 6.2596582 -2.89257812 5.18554688 C-1.93738227 3.45204328 -0.96984614 1.72534991 0 0 Z " fill="#000000" transform="translate(129,331)"/>
<path d="M0 0 C4.45524758 2.43993891 8.46671586 5.45103542 12.58203125 8.4140625 C12.16590576 9.06745605 11.74978027 9.72084961 11.32104492 10.39404297 C10.7407251 11.30557129 10.16040527 12.21709961 9.5625 13.15625 C8.92231934 14.16139648 8.28213867 15.16654297 7.62255859 16.20214844 C6.29856402 18.28619636 4.97834545 20.37264981 3.66259766 22.46191406 C1.75116169 25.49492832 -0.17607426 28.51744772 -2.10546875 31.5390625 C-2.75580078 32.57804687 -3.40613281 33.61703125 -4.07617188 34.6875 C-4.70845703 35.67234375 -5.34074219 36.6571875 -5.9921875 37.671875 C-6.55510498 38.5602002 -7.11802246 39.44852539 -7.69799805 40.36376953 C-9.41796875 42.4140625 -9.41796875 42.4140625 -11.3996582 43.39233398 C-14.23614455 43.42287073 -15.09437633 42.43334603 -17.13671875 40.50390625 C-17.83152344 39.85534668 -18.52632812 39.20678711 -19.2421875 38.53857422 C-19.96019531 37.83748535 -20.67820313 37.13639648 -21.41796875 36.4140625 C-22.12566406 35.72715332 -22.83335937 35.04024414 -23.5625 34.33251953 C-25.69880802 32.23087282 -27.81164846 30.10823665 -29.91796875 27.9765625 C-30.645 27.24501953 -31.37203125 26.51347656 -32.12109375 25.75976562 C-33.88906374 23.98016426 -35.65463253 22.19825332 -37.41796875 20.4140625 C-36.92296875 18.9290625 -36.92296875 18.9290625 -36.41796875 17.4140625 C-34.02918886 16.22718444 -31.70254659 15.20696739 -29.23046875 14.2265625 C-20.71934658 10.68762637 -11.26284451 6.74895134 -4.33984375 0.5546875 C-2.41796875 -0.5859375 -2.41796875 -0.5859375 0 0 Z " fill="#000000" transform="translate(215.41796875,360.5859375)"/>
<path d="M0 0 C3.09943243 1.82799343 6.16929261 3.69136501 9.2109375 5.61328125 C17.59441902 10.79809635 26.45232157 14.67487971 35.5234375 18.48828125 C30.7203872 24.23340894 25.64549286 29.64706993 20.3984375 34.98828125 C19.20154297 36.24125 19.20154297 36.24125 17.98046875 37.51953125 C17.20832031 38.30328125 16.43617187 39.08703125 15.640625 39.89453125 C14.94565918 40.60931641 14.25069336 41.32410156 13.53466797 42.06054688 C11.5234375 43.48828125 11.5234375 43.48828125 9.36914062 43.32324219 C6.75441378 42.14038957 5.7861807 40.59485292 4.1484375 38.23828125 C3.47039062 37.26375 2.79234375 36.28921875 2.09375 35.28515625 C1.23671643 34.01970915 0.37998315 32.75405866 -0.4765625 31.48828125 C-1.04922852 30.65361328 -1.62189453 29.81894531 -2.21191406 28.95898438 C-4.14327442 26.14196159 -6.06188297 23.31666457 -7.9765625 20.48828125 C-8.61255371 19.5559668 -9.24854492 18.62365234 -9.90380859 17.66308594 C-10.49500488 16.78040039 -11.08620117 15.89771484 -11.6953125 14.98828125 C-12.23091797 14.19421875 -12.76652344 13.40015625 -13.31835938 12.58203125 C-14.4765625 10.48828125 -14.4765625 10.48828125 -14.4765625 7.48828125 C-12.02734375 5.375 -12.02734375 5.375 -8.7890625 3.17578125 C-7.73332031 2.43714844 -6.67757812 1.69851563 -5.58984375 0.9375 C-2.4765625 -0.51171875 -2.4765625 -0.51171875 0 0 Z " fill="#000000" transform="translate(111.4765625,360.51171875)"/>
</svg>
