<?xml version="1.0" encoding="UTF-8"?>
<svg version="1.1" xmlns="http://www.w3.org/2000/svg" width="512" height="512">
<path d="M0 0 C16.98275493 14.14766327 27.84740955 33.97294961 30.38671875 55.98828125 C31.64208373 79.93678233 25.64251077 102.36591867 9.63671875 120.55078125 C7.27248308 123.13408071 5.31204218 125.03806563 2.38671875 126.98828125 C2.05800781 125.23064453 2.05800781 125.23064453 1.72265625 123.4375 C-0.12820439 114.07449864 -2.2208586 106.03247219 -7.61328125 97.98828125 C-8.19078125 97.08078125 -8.76828125 96.17328125 -9.36328125 95.23828125 C-21.06757659 83.53398591 -34.65337506 80.79269476 -50.57592773 80.74804688 C-52.64544139 80.73842235 -54.71392543 80.70739967 -56.78320312 80.67578125 C-72.46763832 80.55132401 -84.76544446 83.69177084 -96.28125 94.5 C-104.91534329 103.712592 -107.85288104 114.66455375 -108.61328125 126.98828125 C-119.85923436 122.22648128 -126.4156934 108.23891551 -131.1171875 97.578125 C-139.7353566 75.17088533 -139.70196597 52.24342067 -130.37109375 30.03125 C-120.87079191 9.55461071 -103.64376762 -5.92883895 -82.58984375 -13.98046875 C-81.60757813 -14.32078125 -80.6253125 -14.66109375 -79.61328125 -15.01171875 C-78.26363281 -15.49125 -78.26363281 -15.49125 -76.88671875 -15.98046875 C-50.24176485 -23.73695129 -21.57439632 -16.60809283 0 0 Z M-77.61328125 16.98828125 C-83.19795775 24.88924851 -85.36830925 32.57873853 -84.2109375 42.18359375 C-82.48869222 50.26576439 -78.13499511 56.95303605 -71.61328125 61.98828125 C-63.04969122 67.16113121 -53.84818531 68.7648997 -43.97265625 66.33984375 C-35.32819439 62.80347299 -28.71271743 56.31992887 -24.61328125 47.98828125 C-21.75283847 40.63285696 -21.51592469 33.29489763 -24.17578125 25.86328125 C-28.3794062 16.46781075 -35.27252327 11.0145521 -44.36328125 6.67578125 C-57.29626104 3.9399586 -68.77375953 6.98721881 -77.61328125 16.98828125 Z " fill="#000000" transform="translate(445.61328125,18.01171875)"/>
<path d="M0 0 C1.56561582 1.36891706 3.10675887 2.76622217 4.625 4.1875 C5.97658203 5.40373047 5.97658203 5.40373047 7.35546875 6.64453125 C24.45388235 22.75241606 32.74095691 43.27734395 33.5859375 66.55859375 C34.02838141 89.33504134 24.77395586 110.06316969 9.9453125 126.87109375 C7.625 129.1875 7.625 129.1875 5.625 129.1875 C5.39425781 128.07632813 5.16351563 126.96515625 4.92578125 125.8203125 C1.95763684 112.0515925 -1.95562714 100.14568189 -13.796875 91.3984375 C-22.02206719 86.21299025 -29.90946145 83.71801373 -39.6171875 83.75390625 C-40.46620636 83.7486644 -41.31522522 83.74342255 -42.18997192 83.73802185 C-43.97315384 83.73164362 -45.75637806 83.73288369 -47.53955078 83.74145508 C-50.2367813 83.74995833 -52.93188441 83.72115677 -55.62890625 83.68945312 C-70.09929546 83.63019929 -81.59947779 86.06260421 -92.53515625 96.1875 C-102.11371787 106.21365796 -104.25580642 116.87410771 -105.375 130.1875 C-114.80150785 126.50357739 -122.15951814 112.79096426 -126.375 104.1875 C-135.9337393 82.15291295 -137.44251616 57.99549566 -128.6875 35.4375 C-120.14550003 14.82266396 -104.37360813 -0.02805587 -84.49609375 -9.53125 C-57.12520958 -20.76735764 -23.83347552 -18.33633898 0 0 Z M-74.375 19.1875 C-79.38839108 26.41343358 -82.38553343 34.28518165 -81.375 43.1875 C-79.49897899 53.07208131 -74.74965299 60.18310809 -66.5078125 65.93359375 C-58.45075375 70.67043598 -50.35065649 71.35850958 -41.375 69.125 C-32.62726334 66.19097652 -26.90998598 60.6844619 -22.52734375 52.671875 C-18.68222461 44.38205881 -18.46579184 36.3942477 -21.26953125 27.74609375 C-24.67979254 19.85308617 -30.77276463 13.4899162 -38.72265625 10.22265625 C-51.92968691 5.79309574 -65.01958366 8.36498428 -74.375 19.1875 Z " fill="#000000" transform="translate(306.375,153.8125)"/>
<path d="M0 0 C1.32182035 1.1140342 2.63520367 2.23820383 3.9375 3.375 C4.535625 3.84292969 5.13375 4.31085937 5.75 4.79296875 C20.88073082 16.85026987 29.66026349 35.63745264 32.9375 54.375 C33.89103068 68.42806934 33.62859975 82.02002539 28.9375 95.375 C28.525 96.55964844 28.1125 97.74429688 27.6875 98.96484375 C23.14174746 110.65207684 16.12417061 121.84572172 5.9375 129.375 C5.76734375 128.56417969 5.5971875 127.75335938 5.421875 126.91796875 C2.1716163 112.06705266 -2.05970909 99.39306466 -15.0625 90.375 C-25.73808281 83.88309153 -36.07033978 83.01922934 -48.40234375 83.05932617 C-50.42763269 83.06248461 -52.45145303 83.03894893 -54.4765625 83.01367188 C-67.29172948 83.00738993 -77.47953647 84.98402547 -88.0625 92.375 C-89.114375 93.096875 -90.16625 93.81875 -91.25 94.5625 C-99.85360678 103.16610678 -104.13407273 113.30636294 -104.75390625 125.30859375 C-105.0625 127.375 -105.0625 127.375 -107.0625 129.375 C-108.75752694 127.73133751 -110.41627933 126.06694902 -112.0625 124.375 C-112.59359375 123.84003906 -113.1246875 123.30507812 -113.671875 122.75390625 C-129.06341024 106.3386221 -134.8031202 84.16789955 -134.3046875 62.15234375 C-133.40934545 39.91506124 -122.99962216 20.21729482 -107.08203125 4.9453125 C-77.14322796 -20.53946443 -31.86697339 -24.35933051 0 0 Z M-74.0625 19.375 C-79.85949228 26.84929462 -82.18901889 34.95448575 -81.0625 44.375 C-78.62319695 53.5362461 -74.02788844 60.80359774 -65.9375 65.8125 C-58.31796195 70.16821723 -49.82897691 70.71379044 -41.26953125 68.7265625 C-32.52553433 65.55432176 -26.20069835 60.00603726 -22.03125 51.6953125 C-18.48743439 43.20730253 -18.27562795 35.38629917 -21.6875 26.8125 C-26.03390253 17.91789767 -31.97337515 13.07738827 -41.0625 9.375 C-53.83778636 5.11657121 -65.31429997 9.97737027 -74.0625 19.375 Z " fill="#000000" transform="translate(170.0625,15.625)"/>
<path d="M0 0 C2.15290906 -0.00964349 4.30483653 -0.04067385 6.45751953 -0.07226562 C19.9268939 -0.17681294 30.64647643 1.89443178 40.75048828 11.27929688 C48.73252957 19.61478649 51.38073097 28.92847647 52.55517578 40.24023438 C52.68794922 41.26503906 52.82072266 42.28984375 52.95751953 43.34570312 C52.55517578 46.24023438 52.55517578 46.24023438 50.16845703 48.40039062 C48.53457031 49.34205078 48.53457031 49.34205078 46.86767578 50.30273438 C46.28405273 50.63998535 45.70042969 50.97723633 45.09912109 51.32470703 C24.12852395 63.08061015 -0.00889334 64.98896594 -23.00732422 58.55273438 C-30.49274935 56.0761439 -39.56830916 52.9102138 -45.35107422 47.43554688 C-48.35827439 41.39966653 -45.9084742 32.2258334 -44.25732422 25.92773438 C-41.08210743 16.61580051 -34.75985754 8.41221294 -25.88623047 3.95507812 C-17.24445527 0.37252942 -9.26010389 0.02503295 0 0 Z " fill="#000000" transform="translate(389.44482421875,104.759765625)"/>
<path d="M0 0 C2.03416 0.00315223 4.0668496 -0.0203432 6.10083008 -0.0456543 C20.33861644 -0.05260974 31.39537199 2.11952307 41.77075195 12.31567383 C49.97941962 21.79659784 51.36437694 34.28142498 52.7355957 46.31567383 C32.44555837 60.21876028 10.02391863 64.803216 -14.30834961 60.99584961 C-25.67877052 58.85563648 -36.65928038 53.71908977 -46.2644043 47.31567383 C-46.43181199 44.3966924 -46.41234452 41.77523417 -46.2019043 38.87817383 C-46.14518555 38.0628418 -46.0884668 37.24750977 -46.0300293 36.4074707 C-45.02605093 24.4639167 -41.30751944 16.40912014 -32.2644043 8.31567383 C-22.15038128 0.65881941 -12.42322316 -0.04014686 0 0 Z " fill="#000000" transform="translate(117.264404296875,104.684326171875)"/>
<path d="M0 0 C1.27920822 -0.00786278 1.27920822 -0.00786278 2.58425903 -0.0158844 C4.37761351 -0.02227027 6.17101006 -0.02101245 7.96435547 -0.01245117 C10.68143728 -0.00394966 13.39640685 -0.03273577 16.11328125 -0.06445312 C33.07430954 -0.13432177 33.07430954 -0.13432177 40.8203125 4.43359375 C41.72265625 4.96339844 42.625 5.49320313 43.5546875 6.0390625 C54.83603094 14.89360532 57.93135674 25.27584337 60.5859375 38.890625 C60.85117514 41.76845335 60.78389722 43.69897599 59.8203125 46.43359375 C45.32099 59.49405218 22.82921245 62.57815092 4.03417969 61.60205078 C-6.67329549 60.78730024 -16.50861821 58.16256014 -26.1796875 53.43359375 C-27.21867188 52.94503906 -28.25765625 52.45648438 -29.328125 51.953125 C-36.92557227 48.15440136 -36.92557227 48.15440136 -37.9921875 45.12890625 C-38.86135289 32.63465382 -36.28484293 21.13732107 -28.1640625 11.4375 C-20.29605496 3.49205144 -11.01523711 -0.04030555 0 0 Z " fill="#000000" transform="translate(245.1796875,243.56640625)"/>
<path d="M0 0 C0.85892349 -0.00807175 1.71784698 -0.01614349 2.60279846 -0.02445984 C4.42780537 -0.03831108 6.2528383 -0.04902857 8.07788086 -0.05688477 C10.83694748 -0.07395909 13.59477168 -0.11781705 16.35351562 -0.16210938 C27.82385443 -0.26317594 38.41122885 0.29701753 47.875 7.6171875 C54.2448635 14.20944025 56.800645 21.5442029 56.734375 30.50390625 C56.08714433 36.5447258 53.15512382 41.88418983 50.44140625 47.23828125 C50.9003125 47.69976562 51.35921875 48.16125 51.83203125 48.63671875 C57.98059655 55.17279867 61.54383614 61.64546809 61.94140625 70.73828125 C61.61600906 78.41765482 58.91601377 86.01556459 53.40185547 91.52709961 C42.92837493 100.66889601 31.46253945 100.14407044 18.24804688 99.96557617 C14.92059289 99.92553076 11.59706064 99.94502774 8.26953125 99.97070312 C6.14972414 99.96315239 4.02992579 99.9522074 1.91015625 99.9375 C0.91850464 99.9444841 -0.07314697 99.9514682 -1.09484863 99.95866394 C-2.0168103 99.93967545 -2.93877197 99.92068695 -3.88867188 99.90112305 C-5.10012878 99.89063179 -5.10012878 99.89063179 -6.33605957 99.87992859 C-9.79071551 98.88256674 -10.77324127 97.31986099 -12.55859375 94.23828125 C-12.93600897 91.22099765 -13.08632902 88.57600564 -13.04443359 85.56420898 C-13.04823029 84.70183624 -13.05202698 83.8394635 -13.05593872 82.95095825 C-13.06333308 80.10755757 -13.04197919 77.26518447 -13.01953125 74.421875 C-13.01714625 72.44320292 -13.01624162 70.46452855 -13.01675415 68.4858551 C-13.01362815 64.34239492 -12.99707692 60.19928124 -12.97021484 56.0559082 C-12.93621322 50.74391843 -12.92858704 45.4323089 -12.93010521 40.12022305 C-12.92956149 36.03587716 -12.91859442 31.95161445 -12.90410233 27.86729622 C-12.89773718 25.90847465 -12.89379609 23.94964365 -12.89231491 21.9908123 C-12.88798018 19.25469771 -12.87047605 16.51898685 -12.84912109 13.78295898 C-12.85002747 12.97297958 -12.85093384 12.16300018 -12.85186768 11.32847595 C-12.77155779 4.29420221 -12.77155779 4.29420221 -10.55859375 1.23828125 C-7.26994185 -0.4060447 -3.61666608 0.03218334 0 0 Z M2.44140625 15.23828125 C2.44140625 24.14828125 2.44140625 33.05828125 2.44140625 42.23828125 C7.85546875 42.33109375 7.85546875 42.33109375 13.37890625 42.42578125 C14.49773193 42.45309326 15.61655762 42.48040527 16.76928711 42.50854492 C24.47622252 42.5719008 30.82068773 41.54937818 37.37890625 37.36328125 C39.71036137 34.96117597 40.68288422 33.49992599 41.44140625 30.23828125 C41.36473879 25.94490348 40.94447169 23.87070637 38.25390625 20.48828125 C33.28007942 16.50921979 29.33513379 14.85408514 22.94921875 14.9453125 C21.32717529 14.95655151 21.32717529 14.95655151 19.67236328 14.96801758 C18.31739746 14.99532959 16.96243164 15.0226416 15.56640625 15.05078125 C11.23515625 15.11265625 6.90390625 15.17453125 2.44140625 15.23828125 Z M2.44140625 57.23828125 C2.44140625 66.14828125 2.44140625 75.05828125 2.44140625 84.23828125 C7.19252503 84.3072862 11.94189396 84.36697632 16.69311523 84.40307617 C18.30808414 84.41813001 19.92301238 84.43857773 21.5378418 84.46459961 C23.8638718 84.50113411 26.18935966 84.5180414 28.515625 84.53125 C29.23352707 84.54673386 29.95142914 84.56221771 30.69108582 84.57817078 C36.52142576 84.58011266 39.58160688 83.04641953 43.69140625 79.05078125 C45.90388826 75.4950066 46.76116151 72.37987314 46.44140625 68.23828125 C45.21886144 64.21107481 43.737115 61.23064834 40.36303711 58.64648438 C36.62937291 56.84688756 33.34783081 56.86052409 29.296875 56.9453125 C28.52708817 56.94955734 27.75730133 56.95380219 26.96418762 56.95817566 C24.51872979 56.97489528 22.07411268 57.01253355 19.62890625 57.05078125 C17.96550674 57.06583684 16.30209424 57.07952371 14.63867188 57.09179688 C10.5723365 57.12221834 6.5078063 57.18094819 2.44140625 57.23828125 Z " fill="#000000" transform="translate(367.55859375,274.76171875)"/>
<path d="M0 0 C2 2 2 2 2.375 5.375 C2 9 2 9 0.4375 11.4375 C-3.06718358 13.68409204 -4.86738308 13.599896 -9 13 C-11.54686498 11.89035304 -13.9540032 10.6508732 -16.375 9.2890625 C-26.35129124 4.38999091 -38.32192745 4.64915177 -48.875 7.5625 C-58.43995978 10.94045977 -65.70918298 16.32166317 -71 25 C-71.61875 26.010625 -72.2375 27.02125 -72.875 28.0625 C-75.49216792 35.0098912 -75.12337919 43.42411534 -72.93359375 50.39453125 C-68.09125155 60.88407361 -60.5797065 66.73939422 -50 71 C-38.18631431 75.00846683 -25.85089865 74.2452201 -14.50390625 69.2890625 C-11.85626355 67.9853039 -11.85626355 67.9853039 -9 66 C-5.12661246 65.57744863 -2.88401391 65.43332442 0.4375 67.5625 C2.64774651 71.01048456 2.70501923 72.98139041 2 77 C-4.79904428 84.71783405 -16.369111 88.35084317 -26.40209961 89.2043457 C-28.87626799 89.30253685 -31.33647606 89.32929474 -33.8125 89.3125 C-34.6890625 89.30686035 -35.565625 89.3012207 -36.46875 89.29541016 C-53.13117455 88.98468178 -66.31536073 82.83095855 -78 71 C-78.87978516 70.15308594 -78.87978516 70.15308594 -79.77734375 69.2890625 C-88.65714578 60.02514689 -90.48784095 47.66186487 -90.27734375 35.40625 C-89.85966622 25.73109285 -86.01343683 17.46589222 -80 10 C-79.39800781 9.24976563 -78.79601562 8.49953125 -78.17578125 7.7265625 C-59.25053169 -13.39762082 -22.64815345 -16.68811307 0 0 Z " fill="#000000" transform="translate(300,423)"/>
<path d="M0 0 C3.95671359 3.03029287 5.17893816 6.61208987 6.51782227 11.24023438 C6.73791962 11.96281433 6.95801697 12.68539429 7.18478394 13.42987061 C7.9076634 15.81430641 8.61215974 18.20375099 9.31640625 20.59375 C9.81813152 22.2635361 10.32091026 23.93300598 10.82469177 25.60217285 C11.87871724 29.10362117 12.92447945 32.60738796 13.96362305 36.11328125 C15.28661059 40.57679596 16.62278105 45.03620893 17.96437168 49.49416351 C19.25259312 53.7760999 20.53505189 58.05975441 21.81640625 62.34375 C22.05702852 63.14725388 22.29765079 63.95075775 22.54556465 64.77861023 C23.86649562 69.19830351 25.17030307 73.62223898 26.44115067 78.05661011 C26.97196065 79.90249361 27.51468999 81.74493728 28.05807495 83.5871582 C28.35207184 84.64443115 28.64606873 85.7017041 28.94897461 86.79101562 C29.2038414 87.68743774 29.45870819 88.58385986 29.72129822 89.50744629 C30.06908928 92.61789606 29.48901273 94.26785591 28 97 C24.51131349 99.32579101 23.10281481 99.41865457 19 99 C15.55302885 96.95926392 14.39116094 95.25143085 13.296875 91.4375 C13.0390625 90.55835938 12.78125 89.67921875 12.515625 88.7734375 C12.26296875 87.85820312 12.0103125 86.94296875 11.75 86 C11.481875 85.08476562 11.21375 84.16953125 10.9375 83.2265625 C9 76.48485332 9 76.48485332 9 73 C1.08 73 -6.84 73 -15 73 C-15.86625 76.6815625 -15.86625 76.6815625 -16.75 80.4375 C-19.76062857 92.75984033 -19.76062857 92.75984033 -23 98 C-25.85324437 99.42662219 -27.83454549 99.31033868 -31 99 C-33.9375 97.5625 -33.9375 97.5625 -36 95 C-35.71013175 87.42755062 -33.60059643 80.50001883 -31.4296875 73.27734375 C-31.0703714 72.05962784 -30.7110553 70.84191193 -30.34085083 69.58729553 C-29.38557695 66.35465131 -28.42387513 63.12406981 -27.45880127 59.89434814 C-26.12640464 55.42827724 -24.80784717 50.95809454 -23.48590088 46.48892212 C-22.74238038 43.98059005 -21.9960994 41.47307453 -21.24700928 38.96640015 C-19.45486069 32.96364572 -17.69678164 26.95578197 -16.02441406 20.91845703 C-15.71456573 19.81280899 -15.40471741 18.70716095 -15.08547974 17.56800842 C-14.50886951 15.50225172 -13.94265436 13.43355367 -13.3888855 11.36155701 C-11.19296022 3.54377225 -9.13080706 -1.30440101 0 0 Z M-4 34 C-5.00646726 37.43564022 -6.0040545 40.87379629 -7 44.3125 C-7.28617188 45.28896484 -7.57234375 46.26542969 -7.8671875 47.27148438 C-8.27324219 48.67817383 -8.27324219 48.67817383 -8.6875 50.11328125 C-8.93886719 50.97735596 -9.19023438 51.84143066 -9.44921875 52.73168945 C-10.11797962 55.09684446 -10.11797962 55.09684446 -10 58 C-5.38 58 -0.76 58 4 58 C2.05577487 49.83425444 -0.23228661 41.92380889 -3 34 C-3.33 34 -3.66 34 -4 34 Z " fill="#000000" transform="translate(123,275)"/>
<path d="M0 0 C5.77277455 4.1855143 8.95749087 9.61580918 10.23046875 16.6171875 C10.9447823 24.33177389 8.94587434 30.86715635 4.16796875 36.9296875 C-0.85375047 42.22627977 -7.07924625 44.71214541 -14.33203125 45.1171875 C-21.84628434 44.68061998 -27.1176645 41.68983098 -32.20703125 36.2421875 C-37.16960353 30.164763 -38.24400834 25.12319661 -38.0859375 17.3671875 C-37.31479631 10.66492337 -33.81960879 5.94582539 -28.76953125 1.6171875 C-19.8348508 -4.94706752 -9.76296117 -5.49457592 0 0 Z " fill="#000000" transform="translate(269.76953125,172.3828125)"/>
<path d="M0 0 C5.70544086 3.76112861 9.36736877 9.43686798 11.5 15.875 C12.69440737 22.10831347 11.61462021 28.76258597 8.83984375 34.43359375 C4.89293941 40.24950571 -0.49752942 43.89859604 -7.296875 45.65625 C-13.893557 46.65712589 -19.29184133 45.52490568 -25.125 42.375 C-30.88792896 37.73960062 -35.35524794 32.86081269 -36.37109375 25.30078125 C-36.56102494 16.93263655 -35.02747154 10.48446192 -29.28515625 4.1796875 C-21.37732152 -2.98408401 -9.76803495 -4.81756826 0 0 Z " fill="#000000" transform="translate(132,32.9375)"/>
<path d="M0 0 C5.92526227 3.56265769 9.98087232 8.77689285 12.08984375 15.34375 C13.80098078 22.92366281 12.52446133 29.74962099 8.5625 36.4375 C3.23963919 42.4604448 -2.20784476 45.59178247 -10.265625 46.39453125 C-18.07932341 46.54911881 -23.8339497 43.77421457 -29.4375 38.4375 C-33.98343826 32.69526219 -35.93806523 27.0890119 -35.75390625 19.80859375 C-34.8548417 13.07115939 -31.62355054 7.75920879 -26.4375 3.4375 C-18.7396906 -2.10492277 -9.02095451 -4.09089798 0 0 Z " fill="#000000" transform="translate(403.4375,32.5625)"/>
<path d="M0 0 C2.9375 1 2.9375 1 4.59407043 3.21147156 C6.07023975 6.27552511 6.33100403 8.23485022 6.36987305 11.61645508 C6.39956429 13.26760063 6.39956429 13.26760063 6.42985535 14.95210266 C6.43624527 16.1293541 6.44263519 17.30660553 6.44921875 18.51953125 C6.47614555 20.34009285 6.47614555 20.34009285 6.50361633 22.19743347 C6.55774301 26.06908711 6.59162377 29.94061728 6.625 33.8125 C6.65817086 36.43947031 6.69266029 39.06642433 6.72851562 41.69335938 C6.81347111 48.12879554 6.88181127 54.56424763 6.9375 61 C7.25710693 60.50846436 7.57671387 60.01692871 7.90600586 59.51049805 C8.33792236 58.87152588 8.76983887 58.23255371 9.21484375 57.57421875 C9.63757568 56.93830811 10.06030762 56.30239746 10.49584961 55.6472168 C11.9375 54 11.9375 54 15.5 52.8125 C18.9375 53 18.9375 53 21.375 54.5625 C23.47652233 57.84087484 23.51620478 59.11693512 22.9375 63 C21.02227151 66.3509802 18.68599051 69.33769625 16.3125 72.375 C15.69503906 73.18710938 15.07757813 73.99921875 14.44140625 74.8359375 C13.21293305 76.44976334 11.97627979 78.05739777 10.73120117 79.65844727 C9.5477027 81.2034226 8.39067827 82.76909013 7.26293945 84.35522461 C6.74691162 85.0797583 6.23088379 85.80429199 5.69921875 86.55078125 C5.02572388 87.52011597 5.02572388 87.52011597 4.33862305 88.5090332 C2.9375 90 2.9375 90 -0.625 90.8125 C-7.7994142 89.11672937 -11.64038935 81.66166677 -15.6875 75.9375 C-16.82529209 74.34228474 -17.9633054 72.74722724 -19.1015625 71.15234375 C-19.59865723 70.45101318 -20.09575195 69.74968262 -20.60791016 69.02709961 C-21.60810719 67.63323658 -22.64845592 66.26759825 -23.72021484 64.92797852 C-25.65986117 62.14198597 -25.54589591 60.31471483 -25.0625 57 C-23.5 54.5625 -23.5 54.5625 -21.0625 53 C-17.6875 52.75 -17.6875 52.75 -14.0625 54 C-12.39599609 55.87207031 -12.39599609 55.87207031 -10.8359375 58.078125 C-10.31177246 58.8093457 -9.78760742 59.54056641 -9.24755859 60.29394531 C-8.66095459 61.13844238 -8.66095459 61.13844238 -8.0625 62 C-8.05885437 61.26750534 -8.05520874 60.53501068 -8.05145264 59.78031921 C-8.01359486 52.87913496 -7.95676768 45.97833994 -7.87859726 39.07750225 C-7.83907782 35.52959524 -7.8069118 31.98193805 -7.79150391 28.43383789 C-7.77347082 24.35522462 -7.72354061 20.27754562 -7.671875 16.19921875 C-7.67064636 14.92414963 -7.66941772 13.64908051 -7.66815186 12.33537292 C-7.64843323 11.15437515 -7.6287146 9.97337738 -7.60839844 8.7565918 C-7.59951599 7.71512497 -7.59063354 6.67365814 -7.58148193 5.60063171 C-7.0625 3 -7.0625 3 -5.2197876 1.14021301 C-3.0625 0 -3.0625 0 0 0 Z " fill="#000000" transform="translate(120.0625,174)"/>
<path d="M0 0 C2.36932099 1.73467946 2.94177799 2.62580029 3.39872742 5.56266785 C3.40983047 6.58636978 3.42093353 7.61007172 3.43237305 8.66479492 C3.46206429 10.40626045 3.46206429 10.40626045 3.49235535 12.1829071 C3.49874527 13.43610245 3.50513519 14.68929779 3.51171875 15.98046875 C3.53864555 17.90515739 3.53864555 17.90515739 3.56611633 19.86872864 C3.61362737 23.27663059 3.64342907 26.68446629 3.66955566 30.09259033 C3.69935598 33.57162563 3.74588801 37.05043261 3.79101562 40.52929688 C3.87706083 47.35273455 3.94440051 54.17624822 4 61 C4.42152344 60.43410156 4.84304688 59.86820313 5.27734375 59.28515625 C5.82519531 58.55167969 6.37304688 57.81820312 6.9375 57.0625 C7.48277344 56.33160156 8.02804687 55.60070312 8.58984375 54.84765625 C10 53 10 53 11 52 C17.27631579 52.23245614 17.27631579 52.23245614 20.0625 55.1875 C21.34279299 59.02837898 20.62006001 60.26959866 19 64 C16.88006407 67.28244568 14.54745304 70.38728245 12.1875 73.5 C11.57068359 74.32886719 10.95386719 75.15773438 10.31835938 76.01171875 C8.56452726 78.35637423 6.78870795 80.68188235 5 83 C4.52377197 83.62737061 4.04754395 84.25474121 3.55688477 84.90112305 C1.22005611 87.8724168 0.36197967 88.91444117 -3.4375 89.8125 C-10.95674391 88.09758472 -15.46420376 78.75996713 -19.75 72.75 C-20.32621094 71.94820313 -20.90242188 71.14640625 -21.49609375 70.3203125 C-28.01001268 61.2403043 -28.01001268 61.2403043 -27.875 58 C-27 55 -27 55 -25.3125 53.0625 C-23 52 -23 52 -20.125 51.8125 C-16.62218084 53.14357128 -15.92621306 54.10467392 -13.8046875 57.07421875 C-13.27601074 57.80600342 -12.74733398 58.53778809 -12.20263672 59.29174805 C-11.8057666 59.85547119 -11.40889648 60.41919434 -11 61 C-10.99191315 60.28003342 -10.98382629 59.56006683 -10.97549438 58.81828308 C-10.89756976 52.03492739 -10.81028552 45.25174984 -10.71247292 38.46865368 C-10.66251626 34.98134023 -10.6161864 31.49405697 -10.578125 28.0065918 C-10.53421416 23.99768923 -10.4745654 19.98915548 -10.4140625 15.98046875 C-10.39673569 14.10067574 -10.39673569 14.10067574 -10.37905884 12.1829071 C-10.35918915 11.02193008 -10.33931946 9.86095306 -10.31884766 8.66479492 C-10.30552399 7.64109299 -10.29220032 6.61739105 -10.2784729 5.56266785 C-10 3 -10 3 -8 0 C-4.65044556 -1.11651815 -3.32740404 -0.99822121 0 0 Z " fill="#000000" transform="translate(395,175)"/>
<path d="M0 0 C3.07595365 3.03996964 3.3856015 5.45837527 3.43237305 9.68652344 C3.46206429 11.39784454 3.46206429 11.39784454 3.49235535 13.14373779 C3.49874527 14.36989807 3.50513519 15.59605835 3.51171875 16.859375 C3.53864555 18.74864716 3.53864555 18.74864716 3.56611633 20.67608643 C3.611106 24.01668884 3.64340522 27.35692392 3.66955566 30.69769287 C3.69938936 34.10979498 3.74590992 37.5216654 3.79101562 40.93359375 C3.87605021 47.62228889 3.94435863 54.31099928 4 61 C4.39034424 60.43047607 4.78068848 59.86095215 5.18286133 59.27416992 C5.7064624 58.53787354 6.23006348 57.80157715 6.76953125 57.04296875 C7.28362549 56.30844482 7.79771973 55.5739209 8.32739258 54.81713867 C10 53 10 53 13.6875 52.3125 C17 53 17 53 18.9375 54.125 C20.56426866 56.99576823 20.39728256 58.70823021 20 62 C18.45555463 64.96524463 16.50399769 67.58039092 14.5 70.25 C13.95263184 70.99636719 13.40526367 71.74273437 12.84130859 72.51171875 C11.74462149 73.99932018 10.64106019 75.48188133 9.53027344 76.95898438 C8.20767029 78.72301793 6.91518577 80.50358257 5.6328125 82.296875 C4.97023438 83.18890625 4.30765625 84.0809375 3.625 85 C3.06039063 85.763125 2.49578125 86.52625 1.9140625 87.3125 C-0.75811796 89.66838155 -2.44797187 90.07193981 -6 90 C-8.15064108 88.37145989 -9.38005934 87.09794633 -11 85 C-11.5455957 84.29601074 -12.09119141 83.59202148 -12.65332031 82.86669922 C-14.50881741 80.41208384 -16.32130631 77.93039454 -18.125 75.4375 C-19.35673217 73.74866972 -20.58850167 72.05986666 -21.8203125 70.37109375 C-22.35930176 69.62786865 -22.89829102 68.88464355 -23.45361328 68.11889648 C-24.49264235 66.69519373 -25.58018627 65.30578054 -26.71044922 63.95336914 C-28 62 -28 62 -27.8125 58.375 C-27 55 -27 55 -25 53 C-21.8125 52.375 -21.8125 52.375 -18 53 C-16.09643555 54.81103516 -16.09643555 54.81103516 -14.26171875 57.0390625 C-13.64643311 57.77592285 -13.03114746 58.5127832 -12.3972168 59.27197266 C-11.93613525 59.84222168 -11.47505371 60.4124707 -11 61 C-10.99413376 60.28003342 -10.98826752 59.56006683 -10.98222351 58.81828308 C-10.92433137 52.03486974 -10.85227486 45.25173902 -10.76428509 38.46865368 C-10.71954792 34.9813232 -10.68029968 31.49411043 -10.65356445 28.0065918 C-10.62259149 23.99758213 -10.56780184 19.98920633 -10.51171875 15.98046875 C-10.50213387 14.10067574 -10.50213387 14.10067574 -10.49235535 12.1829071 C-10.47256119 11.02193008 -10.45276703 9.86095306 -10.43237305 8.66479492 C-10.42126999 7.64109299 -10.41016693 6.61739105 -10.39872742 5.56266785 C-10 3 -10 3 -8.69172668 1.17329407 C-5.81751599 -0.82010971 -3.3634081 -0.42042601 0 0 Z " fill="#000000" transform="translate(259,313)"/>
</svg>
