<?xml version="1.0" standalone="no"?>
<!DOCTYPE svg PUBLIC "-//W3C//DTD SVG 20010904//EN"
 "http://www.w3.org/TR/2001/REC-SVG-20010904/DTD/svg10.dtd">
<svg version="1.0" xmlns="http://www.w3.org/2000/svg"
 width="512.000000pt" height="512.000000pt" viewBox="0 0 512.000000 512.000000"
 preserveAspectRatio="xMidYMid meet">
<metadata>
Created by potrace 1.16, written by Peter Selinger 2001-2019
</metadata>
<g transform="translate(0.000000,512.000000) scale(0.100000,-0.100000)"
fill="#000000" stroke="none">
<path d="M328 5101 c-145 -47 -269 -174 -312 -320 -14 -49 -16 -243 -16 -1879
l0 -1823 25 -76 c46 -136 137 -243 260 -305 113 -58 113 -58 698 -58 516 0
539 1 576 20 80 40 132 143 116 228 -10 56 -51 119 -97 150 l-42 27 -515 5
c-393 4 -521 8 -538 18 -49 28 -53 51 -53 342 l0 270 811 0 c579 0 823 3 850
11 50 15 105 62 129 110 19 36 20 60 20 494 l0 455 454 0 c316 0 463 3 487 12
90 30 142 105 143 202 0 90 -40 158 -116 197 -35 18 -65 19 -503 19 l-465 0 0
320 0 320 689 0 689 0 4 -137 c3 -125 5 -142 28 -183 14 -24 45 -58 68 -75 40
-27 51 -30 122 -30 71 0 82 3 122 30 23 17 54 51 68 75 l25 45 3 557 c2 475 0
567 -13 624 -39 171 -161 304 -324 354 -62 20 -101 20 -1700 19 -1558 0 -1639
-1 -1693 -18z m1482 -1581 l0 -320 -690 0 -690 0 0 320 0 320 690 0 690 0 0
-320z m0 -1065 l0 -315 -690 0 -690 0 0 315 0 315 690 0 690 0 0 -315z"/>
<path d="M4273 3315 c-101 -27 -133 -53 -373 -291 l-235 -234 458 -457 457
-458 235 235 c208 209 238 243 267 305 32 67 33 75 33 190 0 176 -7 189 -257
441 -207 209 -252 244 -352 270 -65 17 -166 17 -233 -1z"/>
<path d="M2736 1861 l-709 -709 -123 -521 c-104 -442 -121 -526 -113 -556 13
-47 52 -75 103 -75 22 0 268 54 545 119 l504 119 711 711 711 711 -455 455
c-250 250 -457 455 -460 455 -3 0 -324 -319 -714 -709z"/>
</g>
</svg>
