<?xml version="1.0" encoding="UTF-8"?>
<svg version="1.1" xmlns="http://www.w3.org/2000/svg" width="512" height="512">
<path d="M0 0 C1.4201219 -0.0073501 2.84023784 -0.01593905 4.26034546 -0.02566528 C8.09945137 -0.04779515 11.93834209 -0.05081615 15.77750301 -0.04891777 C18.99280722 -0.04879763 22.20806656 -0.05737961 25.4233582 -0.06569529 C33.01631904 -0.0849 40.60916997 -0.08782446 48.20214844 -0.08105469 C56.00937007 -0.0744213 63.81611836 -0.09725642 71.62324405 -0.13436842 C78.34798088 -0.1651636 85.07256625 -0.1764147 91.7973721 -0.1725316 C95.8040731 -0.17047361 99.81040589 -0.17579455 103.81703949 -0.20042419 C107.58972149 -0.22285115 111.36164 -0.2206833 115.13432693 -0.20049667 C117.159698 -0.19551538 119.18508435 -0.21499115 121.21035767 -0.23550415 C133.00474896 -0.12832006 142.41382573 3.03729884 150.97753906 11.32226562 C161.01166804 22.38659265 161.3211017 34.94535533 161.26756287 49.16989136 C161.2717394 50.97663552 161.27721867 52.78337706 161.28388268 54.59011376 C161.29831405 59.5382948 161.29409975 64.48630894 161.28671587 69.43449903 C161.2819808 74.77749516 161.29449706 80.12045537 161.30473328 85.46343994 C161.32191995 95.92436318 161.32276154 106.38522635 161.31752037 116.84616004 C161.31347719 125.3498299 161.314924 133.85348202 161.32026863 142.35715103 C161.32101705 143.56793968 161.32176548 144.77872833 161.32253658 146.02620754 C161.32406807 148.48600943 161.32560642 150.94581132 161.32715154 153.4056132 C161.34087612 176.46762445 161.33543919 199.52960176 161.32396633 222.59161223 C161.31403408 243.68317928 161.3269746 264.7746586 161.35090052 285.86621211 C161.37529148 307.53119352 161.38489939 329.19613407 161.3782478 350.86112893 C161.37475557 363.02111177 161.37698795 375.18102715 161.39449883 387.3409996 C161.40922072 397.69250744 161.40985632 408.04390029 161.39242791 418.39540587 C161.38391552 423.6748787 161.38177439 428.95414613 161.39707947 434.23360825 C161.41092911 439.07097712 161.40615966 443.90796468 161.38684023 448.74531151 C161.38308079 450.49083929 161.38600055 452.23639764 161.39645188 453.98189817 C161.47407334 467.94361036 160.03063296 479.9785572 149.87988281 490.41992188 C140.33489881 499.29020846 130.30620103 501.01642627 117.60864258 500.9375 C116.19645469 500.94293142 114.78427248 500.95005977 113.37210083 500.95874023 C109.56408121 500.97685735 105.75649878 500.96995425 101.94847226 500.95722389 C97.94577512 500.94703352 93.94311318 500.9565064 89.94041443 500.96276855 C83.21989282 500.97002835 76.49954752 500.96050217 69.77905273 500.94140625 C62.03316337 500.91964949 54.28769543 500.92668674 46.54181629 500.94871187 C39.86715157 500.96692427 33.19261297 500.96939554 26.5179314 500.9589572 C22.54210733 500.95275306 18.56648065 500.95180077 14.59066963 500.96510315 C10.85002899 500.97674628 7.10992599 500.9684838 3.3693428 500.94552612 C1.35933907 500.93780286 -0.65071069 500.94952293 -2.66069031 500.96203613 C-14.62256305 500.85151014 -24.47785764 497.99479538 -33.12011719 489.41992188 C-40.13194838 480.75102774 -43.23920942 472.15930676 -43.25433826 461.0318222 C-43.25669049 460.29381681 -43.25904272 459.55581142 -43.26146623 458.79544222 C-43.26813941 456.3149073 -43.26769852 453.83442497 -43.26728821 451.35388184 C-43.27058788 449.5604178 -43.27431367 447.7669545 -43.27842969 445.97349215 C-43.28844607 441.03879957 -43.2921659 436.10411916 -43.294819 431.16941786 C-43.29872313 425.84950208 -43.30830141 420.52959592 -43.31703186 415.20968628 C-43.33679335 402.35879756 -43.34686216 389.50790805 -43.35575965 376.65700793 C-43.36014313 370.60479859 -43.36550979 364.55259012 -43.37074852 358.50038147 C-43.3877606 338.38052299 -43.40225464 318.26066505 -43.40949726 298.14080048 C-43.41140715 292.91971333 -43.41332748 287.69862619 -43.4152832 282.47753906 C-43.41576694 281.17986857 -43.41625068 279.88219807 -43.41674908 278.54520422 C-43.42504888 257.52513316 -43.45038507 236.50511901 -43.48286388 215.48507279 C-43.51593953 193.90274374 -43.53394649 172.32044361 -43.5371415 150.73808908 C-43.53930614 138.62102638 -43.54804813 126.50404667 -43.57360268 114.38700867 C-43.59531655 104.06725975 -43.60335667 93.74761399 -43.59363589 83.42784482 C-43.58909322 78.16447634 -43.59097578 72.90132067 -43.61039734 67.63798141 C-43.6280438 62.81394364 -43.62701913 57.9902737 -43.61150005 53.16623193 C-43.60912624 51.4265878 -43.61343565 49.6869181 -43.6253287 47.94731301 C-43.70780322 35.08056481 -42.96308426 22.66178288 -34.17089844 12.41992188 C-23.80701266 2.31266565 -14.08220762 -0.03132178 0 0 Z M82.87988281 59.41992188 C82.46321615 61.91992188 82.46321615 61.91992188 82.87988281 64.41992188 C85.39693086 66.93696993 86.9566118 66.66661787 90.39147949 66.69781494 C91.14046509 66.69376648 91.88945068 66.68971802 92.66113281 66.68554688 C93.43042114 66.68746033 94.19970947 66.68937378 94.99230957 66.69134521 C96.61971361 66.69270696 98.24712852 66.68901126 99.87451172 66.68066406 C102.37003912 66.66996408 104.86484663 66.68055939 107.36035156 66.69335938 C108.93978024 66.69203778 110.51920847 66.68947538 112.09863281 66.68554688 C113.22211121 66.69161957 113.22211121 66.69161957 114.36828613 66.69781494 C118.58299429 66.8017939 118.58299429 66.8017939 121.87988281 64.41992188 C122.29654948 61.91992188 122.29654948 61.91992188 121.87988281 59.41992188 C118.27251623 57.01501082 115.64027007 57.13009324 111.47363281 57.15429688 C110.75252319 57.15238342 110.03141357 57.15046997 109.28845215 57.14849854 C107.7653773 57.14713887 106.24229079 57.1508201 104.71923828 57.15917969 C102.38840699 57.16988273 100.0583464 57.15927749 97.72753906 57.14648438 C96.24706861 57.14780601 94.76659864 57.15036848 93.28613281 57.15429688 C92.24072327 57.14822418 92.24072327 57.14822418 91.17419434 57.14202881 C87.5179232 57.17744858 86.00933854 57.33361806 82.87988281 59.41992188 Z M53.98350525 105.77813721 C52.60344645 107.45643364 52.60344645 107.45643364 53.12988281 110.04492188 C53.65733926 112.35116257 53.65733926 112.35116257 54.87988281 113.41992188 C56.8939441 113.52452906 58.91170192 113.55848015 60.9284668 113.56518555 C62.22328476 113.5715654 63.51810272 113.57794525 64.85215759 113.58451843 C66.27676354 113.58604699 67.70136998 113.58716101 69.12597656 113.58789062 C70.57707249 113.5911015 72.02816808 113.59446544 73.47926331 113.59797668 C76.52500153 113.60397433 79.57071136 113.60581594 82.61645508 113.60522461 C86.52524138 113.60512296 90.43384613 113.61877496 94.34258938 113.63599682 C97.34081361 113.64709858 100.33899371 113.64914438 103.3372364 113.64861488 C104.77858163 113.64979777 106.21992789 113.65423673 107.66125298 113.66194725 C109.67477977 113.67170974 111.68835949 113.66761458 113.7019043 113.6628418 C114.84916489 113.66426682 115.99642548 113.66569183 117.17845154 113.66716003 C120.02962809 113.69665523 120.02962809 113.69665523 121.87988281 111.41992188 C121.71546005 108.35000506 121.71546005 108.35000506 120.87988281 105.41992188 C118.15117328 104.05556711 115.97182444 104.27765202 112.91723633 104.25878906 C111.66576309 104.24918152 110.41428986 104.23957397 109.12489319 104.22967529 C107.75286033 104.22482804 106.38082536 104.22054904 105.00878906 104.21679688 C103.60635882 104.21104582 102.2039286 104.20528808 100.80149841 104.19952393 C97.86009352 104.18901516 94.91871595 104.18317148 91.97729492 104.1796875 C88.20643633 104.17419862 84.43593808 104.15016216 80.6651926 104.12171555 C77.76815226 104.10310262 74.87119902 104.09788433 71.97410393 104.09635162 C70.58381108 104.09332221 69.19351987 104.08528389 67.8032856 104.07216644 C65.85957081 104.05513376 63.91570768 104.05882698 61.97192383 104.06347656 C60.86542984 104.05983093 59.75893585 104.0561853 58.61891174 104.0524292 C55.8690294 104.20342502 55.8690294 104.20342502 53.98350525 105.77813721 Z M82.87988281 153.41992188 C82.46321615 155.91992188 82.46321615 155.91992188 82.87988281 158.41992188 C85.39693086 160.93696993 86.9566118 160.66661787 90.39147949 160.69781494 C91.14046509 160.69376648 91.88945068 160.68971802 92.66113281 160.68554688 C93.43042114 160.68746033 94.19970947 160.68937378 94.99230957 160.69134521 C96.61971361 160.69270696 98.24712852 160.68901126 99.87451172 160.68066406 C102.37003912 160.66996408 104.86484663 160.68055939 107.36035156 160.69335938 C108.93978024 160.69203778 110.51920847 160.68947538 112.09863281 160.68554688 C113.22211121 160.69161957 113.22211121 160.69161957 114.36828613 160.69781494 C118.58299429 160.8017939 118.58299429 160.8017939 121.87988281 158.41992188 C121.55016802 155.12277395 121.25719891 153.79723798 118.87988281 151.41992188 C116.40575102 151.22037994 114.04600763 151.14002713 111.57128906 151.15429688 C110.8487645 151.15238342 110.12623993 151.15046997 109.38182068 151.14849854 C107.85276949 151.14713684 106.32370674 151.15083223 104.79467773 151.15917969 C102.45497598 151.16986437 100.11604474 151.15929238 97.77636719 151.14648438 C96.29133945 151.14780628 94.80631219 151.15036931 93.32128906 151.15429688 C92.62121231 151.15024841 91.92113556 151.14619995 91.19984436 151.14202881 C87.53614986 151.17734533 86.01481716 151.32996565 82.87988281 153.41992188 Z M52.87988281 201.41992188 C53.25892489 204.71068184 53.25892489 204.71068184 54.87988281 207.41992188 C56.8939441 207.52452906 58.91170192 207.55848015 60.9284668 207.56518555 C62.22328476 207.5715654 63.51810272 207.57794525 64.85215759 207.58451843 C66.27676354 207.58604699 67.70136998 207.58716101 69.12597656 207.58789062 C70.57707249 207.5911015 72.02816808 207.59446544 73.47926331 207.59797668 C76.52500153 207.60397433 79.57071136 207.60581594 82.61645508 207.60522461 C86.52524138 207.60512296 90.43384613 207.61877496 94.34258938 207.63599682 C97.34081361 207.64709858 100.33899371 207.64914438 103.3372364 207.64861488 C104.77858163 207.64979777 106.21992789 207.65423673 107.66125298 207.66194725 C109.67477977 207.67170974 111.68835949 207.66761458 113.7019043 207.6628418 C114.84916489 207.66426682 115.99642548 207.66569183 117.17845154 207.66716003 C120.02962809 207.69665523 120.02962809 207.69665523 121.87988281 205.41992188 C121.78876344 202.88040644 121.78876344 202.88040644 120.87988281 200.41992188 C117.4190717 198.11271447 116.08465416 198.16292206 112.00317383 198.14526367 C110.79504532 198.13573166 109.58691681 198.12619965 108.34217834 198.11637878 C107.03590988 198.11729019 105.72964142 198.1182016 104.38378906 198.11914062 C103.03002287 198.11525316 101.6762579 198.11091839 100.32249451 198.1061554 C97.48538255 198.0986948 94.64839503 198.09898316 91.8112793 198.10424805 C88.17839108 198.11004164 84.54601286 198.09311425 80.91320896 198.06990337 C78.1173353 198.05515961 75.32158428 198.05429519 72.52567863 198.0574131 C70.53594087 198.05665102 68.54622212 198.04278222 66.55653381 198.0287323 C65.34525314 198.03496109 64.13397247 198.04118988 62.88598633 198.04760742 C61.82025894 198.046978 60.75453156 198.04634857 59.6565094 198.04570007 C56.54634866 198.46487417 55.17499584 199.3337318 52.87988281 201.41992188 Z M82.87988281 248.41992188 C83.1697155 251.72675653 83.1697155 251.72675653 84.87988281 254.41992188 C87.45007766 254.5332428 89.99239759 254.58409673 92.56347656 254.58789062 C93.33417984 254.59121902 94.10488312 254.59454742 94.89894104 254.59797668 C96.53231203 254.60304898 98.16569341 254.60538492 99.79907227 254.60522461 C102.30339581 254.60740967 104.80727802 254.62555783 107.31152344 254.64453125 C108.8955063 254.64746535 110.47949126 254.64945003 112.06347656 254.65039062 C112.81559921 254.65757614 113.56772186 254.66476166 114.34263611 254.67216492 C118.57092731 254.80136653 118.57092731 254.80136653 121.87988281 252.41992188 C121.59005013 249.11308722 121.59005013 249.11308722 119.87988281 246.41992188 C117.30968796 246.30660095 114.76736804 246.25574702 112.19628906 246.25195312 C111.42558578 246.24862473 110.65488251 246.24529633 109.86082458 246.24186707 C108.2274536 246.23679477 106.59407221 246.23445883 104.96069336 246.23461914 C102.45636982 246.23243408 99.95248761 246.21428592 97.44824219 246.1953125 C95.86425933 246.1923784 94.28027436 246.19039372 92.69628906 246.18945312 C91.94416641 246.18226761 91.19204376 246.17508209 90.41712952 246.16767883 C86.18883831 246.03847722 86.18883831 246.03847722 82.87988281 248.41992188 Z M52.87988281 295.41992188 C52.88910983 297.96705591 52.88910983 297.96705591 53.87988281 300.41992188 C57.11975475 302.60877649 59.93489887 302.67763361 63.77832031 302.69458008 C64.96635254 302.70411209 66.15438477 302.7136441 67.37841797 302.72346497 C69.29726807 302.72209785 69.29726807 302.72209785 71.25488281 302.72070312 C73.22980713 302.72713081 73.22980713 302.72713081 75.24462891 302.73368835 C78.02868684 302.74114076 80.81261794 302.74086609 83.59667969 302.7355957 C87.16116144 302.72979665 90.72512431 302.7467466 94.28952026 302.76994038 C97.69466296 302.78822675 101.09969126 302.78449242 104.50488281 302.78320312 C105.78411621 302.79241287 107.06334961 302.80162262 108.38134766 302.81111145 C110.163396 302.80176826 110.163396 302.80176826 111.98144531 302.79223633 C113.54886475 302.79318047 113.54886475 302.79318047 115.14794922 302.79414368 C118.2284468 302.37217538 119.60142253 301.48243224 121.87988281 299.41992188 C121.50084073 296.12916191 121.50084073 296.12916191 119.87988281 293.41992188 C117.86582153 293.31531469 115.8480637 293.2813636 113.83129883 293.2746582 C112.53648087 293.26827835 111.2416629 293.2618985 109.90760803 293.25532532 C108.48300209 293.25379676 107.05839564 293.25268274 105.63378906 293.25195312 C104.18269314 293.24874225 102.73159755 293.24537831 101.28050232 293.24186707 C98.23476409 293.23586942 95.18905427 293.23402781 92.14331055 293.23461914 C88.23452425 293.23472079 84.32591949 293.22106879 80.41717625 293.20384693 C77.41895201 293.19274517 74.42077191 293.19069937 71.42252922 293.19122887 C69.981184 293.19004598 68.53983773 293.18560702 67.09851265 293.1778965 C65.08498585 293.16813401 63.07140613 293.17222917 61.05786133 293.17700195 C59.91060074 293.17557693 58.76334015 293.17415192 57.58131409 293.17268372 C54.73013753 293.14318852 54.73013753 293.14318852 52.87988281 295.41992188 Z M82.87988281 342.41992188 C82.46321615 344.91992188 82.46321615 344.91992188 82.87988281 347.41992188 C87.83048145 350.72032097 93.76009601 349.75269596 99.55834961 349.7355957 C101.80599544 349.73243787 104.05232178 349.75589227 106.29980469 349.78125 C107.73144366 349.78352335 109.16308616 349.78422632 110.59472656 349.78320312 C111.89531006 349.78618408 113.19589355 349.78916504 114.53588867 349.79223633 C118.01470156 349.40491139 119.38841884 348.80270179 121.87988281 346.41992188 C121.50084073 343.12916191 121.50084073 343.12916191 119.87988281 340.41992188 C117.30968796 340.30660095 114.76736804 340.25574702 112.19628906 340.25195312 C111.42558578 340.24862473 110.65488251 340.24529633 109.86082458 340.24186707 C108.2274536 340.23679477 106.59407221 340.23445883 104.96069336 340.23461914 C102.45636982 340.23243408 99.95248761 340.21428592 97.44824219 340.1953125 C95.86425933 340.1923784 94.28027436 340.19039372 92.69628906 340.18945312 C91.94416641 340.18226761 91.19204376 340.17508209 90.41712952 340.16767883 C86.18883831 340.03847722 86.18883831 340.03847722 82.87988281 342.41992188 Z M52.87988281 389.41992188 C53.20959761 392.7170698 53.50256671 394.04260577 55.87988281 396.41992188 C58.6101058 396.73425491 58.6101058 396.73425491 61.8425293 396.69458008 C63.09400253 396.70411209 64.34547577 396.7136441 65.63487244 396.72346497 C67.00690743 396.72320354 68.37894244 396.72226652 69.75097656 396.72070312 C71.15340808 396.72458881 72.55583841 396.72892321 73.95826721 396.73368835 C76.89970715 396.74115623 79.84102709 396.74085536 82.7824707 396.7355957 C86.55336232 396.72980184 90.32376265 396.74672671 94.09457302 396.76994038 C96.99163184 396.78466763 99.88857208 396.7855508 102.7856617 396.78243065 C104.17594437 396.78294443 105.56623358 396.78819282 106.95648003 396.79824257 C108.90022924 396.81056791 110.84407746 396.80188646 112.7878418 396.79223633 C113.89433578 396.79286575 115.00082977 396.79349518 116.14085388 396.79414368 C118.89067617 396.63569333 118.89067617 396.63569333 120.77626038 395.06071472 C122.15640822 393.38334217 122.15640822 393.38334217 121.62988281 390.79492188 C121.10242636 388.48868118 121.10242636 388.48868118 119.87988281 387.41992188 C117.86582153 387.31531469 115.8480637 387.2813636 113.83129883 387.2746582 C112.53648087 387.26827835 111.2416629 387.2618985 109.90760803 387.25532532 C108.48300209 387.25379676 107.05839564 387.25268274 105.63378906 387.25195312 C104.18269314 387.24874225 102.73159755 387.24537831 101.28050232 387.24186707 C98.23476409 387.23586942 95.18905427 387.23402781 92.14331055 387.23461914 C88.23452425 387.23472079 84.32591949 387.22106879 80.41717625 387.20384693 C77.41895201 387.19274517 74.42077191 387.19069937 71.42252922 387.19122887 C69.981184 387.19004598 68.53983773 387.18560702 67.09851265 387.1778965 C65.08498585 387.16813401 63.07140613 387.17222917 61.05786133 387.17700195 C59.91060074 387.17557693 58.76334015 387.17415192 57.58131409 387.17268372 C54.73013753 387.14318852 54.73013753 387.14318852 52.87988281 389.41992188 Z " fill="#000000" transform="translate(107.1201171875,5.580078125)"/>
<path d="M0 0 C43.89 0 87.78 0 133 0 C133 67.83883197 133 67.83883197 122.3046875 78.90234375 C115.53779411 85.06136367 108.10369086 87.30193264 99.04199219 87.29052734 C97.87971352 87.30060318 97.87971352 87.30060318 96.69395447 87.31088257 C94.14486182 87.32980269 91.5960334 87.33378399 89.046875 87.3359375 C87.26336563 87.34237056 85.4798573 87.3490993 83.6963501 87.35610962 C79.96079057 87.36806813 76.22532341 87.37179201 72.48974609 87.37060547 C67.72415292 87.37040259 62.95915814 87.39767918 58.19370651 87.43214989 C54.50973846 87.45448936 50.82591268 87.45844083 47.14188385 87.45738602 C45.38616122 87.45973236 43.63043409 87.46850087 41.87477875 87.48405075 C29.30295986 87.58495848 19.30129708 86.93288754 9.75 77.84375 C-9.27050148 57.80429308 0 23.49221819 0 0 Z " fill="#000000" transform="translate(315,419)"/>
<path d="M0 0 C3.65649858 1.82824929 5.79493659 3.4535958 8.75 6.1875 C12.59088894 9.71020879 16.46820127 13.1763302 20.40625 16.58984375 C23.9645068 19.73820332 23.9645068 19.73820332 24.24839699 21.83216822 C24.24725783 22.95652012 24.24725783 22.95652012 24.24609566 24.1035862 C24.25007775 24.967967 24.25405985 25.83234781 24.25816262 26.72292197 C24.24942409 28.15577979 24.24942409 28.15577979 24.24050903 29.61758423 C24.24221788 30.62793051 24.24392673 31.63827679 24.24568737 32.67923963 C24.24899848 36.08652342 24.23795192 39.49361306 24.22705078 42.90087891 C24.22648702 45.33464046 24.22680254 47.76840235 24.22793579 50.2021637 C24.22839217 55.45307947 24.22269583 60.70395082 24.21146011 65.95485306 C24.19522558 73.54682912 24.18999921 81.13878112 24.18748413 88.73077266 C24.1831038 101.04741673 24.16978556 113.36403436 24.15087891 125.68066406 C24.13252883 137.64713407 24.11836806 149.6135969 24.10986328 161.58007812 C24.10933783 162.31734059 24.10881239 163.05460305 24.10827102 163.81420679 C24.105661 167.51273108 24.10313357 171.21125542 24.10064721 174.90977979 C24.0799042 205.60653937 24.04412017 236.3032646 24 267 C16.08 267 8.16 267 0 267 C0 178.89 0 90.78 0 0 Z " fill="#000000" transform="translate(386,91)"/>
<path d="M0 0 C0 88.11 0 176.22 0 267 C-7.92 267 -15.84 267 -24 267 C-24.15826112 235.65286535 -24.28357584 204.3058744 -24.35745731 172.95843654 C-24.3662122 169.25720247 -24.37527246 165.5559692 -24.38452148 161.85473633 C-24.38635766 161.11789065 -24.38819383 160.38104498 -24.39008565 159.62187064 C-24.42054103 147.69249957 -24.47573073 135.76336474 -24.54006957 123.8341338 C-24.60554141 111.5926904 -24.64441376 99.35137069 -24.65861946 87.10975939 C-24.66822223 79.55649562 -24.69854473 72.00389959 -24.75541527 64.45084137 C-24.79680852 58.65809468 -24.80118358 52.86577539 -24.79175377 47.07291031 C-24.79368092 44.69728674 -24.80762371 42.3216381 -24.83443832 39.94616508 C-24.86925665 36.70279785 -24.86090101 33.46228985 -24.84178162 30.21885681 C-24.86217151 29.27818247 -24.8825614 28.33750813 -24.90356916 27.36832851 C-24.82290937 22.30826918 -24.2049826 19.64663819 -20.5841074 15.98656559 C-19.40868462 14.96835193 -18.2159065 13.96950974 -17 13 C-16.278125 12.33871094 -15.55625 11.67742187 -14.8125 10.99609375 C-14.214375 10.48175781 -13.61625 9.96742187 -13 9.4375 C-12.33742188 8.86773437 -11.67484375 8.29796875 -10.9921875 7.7109375 C-10.33476562 7.14632812 -9.67734375 6.58171875 -9 6 C-8.01386719 5.12214844 -8.01386719 5.12214844 -7.0078125 4.2265625 C-6.38648438 3.67742187 -5.76515625 3.12828125 -5.125 2.5625 C-4.57070313 2.06878906 -4.01640625 1.57507813 -3.4453125 1.06640625 C-2 0 -2 0 0 0 Z " fill="#000000" transform="translate(377,91)"/>
<path d="M0 0 C5.62090261 3.37254157 5.62090261 3.37254157 8.15625 5.77734375 C8.70410156 6.29103516 9.25195312 6.80472656 9.81640625 7.33398438 C10.37199219 7.86314453 10.92757813 8.39230469 11.5 8.9375 C12.61307179 9.98988226 13.72763195 11.04069279 14.84375 12.08984375 C15.33037109 12.55253662 15.81699219 13.01522949 16.31835938 13.49194336 C18.041064 15.14192391 18.041064 15.14192391 20.567523 16.47574997 C24.24694469 20.2939897 23.67948147 23.77687465 23.60127258 28.89605713 C23.60554471 29.91219581 23.60981683 30.9283345 23.61421841 31.97526526 C23.62247417 35.39052982 23.59491934 38.80457458 23.56762695 42.21972656 C23.56621705 44.66363496 23.56700733 47.10754548 23.56983948 49.55145264 C23.57097918 54.81829858 23.55677042 60.08476263 23.52865028 65.35150909 C23.48802008 72.9662771 23.47499361 80.58089533 23.46871033 88.19575998 C23.45776635 100.55018789 23.42448946 112.90445077 23.37719727 125.25878906 C23.33130429 137.26008274 23.29591113 149.2613316 23.2746582 161.26269531 C23.27334459 162.00241932 23.27203097 162.74214333 23.27067754 163.50428322 C23.26415237 167.21525007 23.25783383 170.92621724 23.25161803 174.63718462 C23.1997818 205.42491349 23.11033808 236.21242264 23 267 C15.41 267 7.82 267 0 267 C0 178.89 0 90.78 0 0 Z " fill="#000000" transform="translate(320,91)"/>
<path d="M0 0 C0 88.11 0 176.22 0 267 C-7.59 267 -15.18 267 -23 267 C-23.22616616 235.55956983 -23.40515026 204.1194327 -23.51065329 172.67838493 C-23.52316004 168.96470643 -23.53610329 165.25102957 -23.54931641 161.53735352 C-23.55193951 160.79804185 -23.55456261 160.05873018 -23.55726521 159.29701512 C-23.60075336 147.33329906 -23.6795844 135.37006456 -23.77152796 123.40663398 C-23.86511476 111.12677582 -23.9206026 98.84716948 -23.94088495 86.56696934 C-23.95459217 78.99191241 -23.99784569 71.41821665 -24.07916467 63.84357887 C-24.13838298 58.03068611 -24.14453445 52.21866126 -24.13107681 46.40552711 C-24.13382594 44.02425006 -24.15369286 41.64292107 -24.19205475 39.26195145 C-24.46768233 21.27101162 -24.46768233 21.27101162 -20.85123825 15.67512321 C-18.33972319 13.38084623 -15.92449485 11.71607171 -13 10 C-11.51616734 8.73770862 -10.05283832 7.45029869 -8.625 6.125 C-1.67149758 0 -1.67149758 0 0 0 Z " fill="#000000" transform="translate(443,91)"/>
<path d="M0 0 C1.04169846 -0.00571014 2.08339691 -0.01142029 3.15666199 -0.01730347 C4.29908356 -0.01842133 5.44150513 -0.01953918 6.61854553 -0.02069092 C8.42372902 -0.02813828 8.42372902 -0.02813828 10.26538086 -0.03573608 C13.5670356 -0.04784401 16.86862702 -0.05530236 20.17029643 -0.05974674 C22.2328937 -0.06267872 24.29548543 -0.06678371 26.35807991 -0.07125092 C32.81122783 -0.08492109 39.26436307 -0.09459075 45.71752447 -0.09845281 C53.16761093 -0.10293606 60.61751414 -0.12049817 68.06754488 -0.1494534 C73.82643509 -0.17105951 79.58527369 -0.18115647 85.34420401 -0.18249393 C88.78391253 -0.1835425 92.22344868 -0.18946148 95.66311455 -0.20731354 C99.49857903 -0.22683331 103.33381375 -0.22250953 107.16932678 -0.21600342 C108.87992279 -0.22982559 108.87992279 -0.22982559 110.62507629 -0.243927 C112.19185371 -0.23557327 112.19185371 -0.23557327 113.7902832 -0.22705078 C115.15053572 -0.22925062 115.15053572 -0.22925062 116.53826809 -0.2314949 C118.95863342 0.14044189 118.95863342 0.14044189 122.95863342 3.14044189 C122.95863342 16.67044189 122.95863342 30.20044189 122.95863342 44.14044189 C79.06863342 44.14044189 35.17863342 44.14044189 -10.04136658 44.14044189 C-10.04136658 4.14044189 -10.04136658 4.14044189 -8.04136658 1.14044189 C-5.06520415 0.14838775 -3.10643137 0.01019417 0 0 Z " fill="#000000" transform="translate(325.04136657714844,365.85955810546875)"/>
<path d="M0 0 C0.77745071 -0.03066559 1.55490143 -0.06133118 2.35591125 -0.09292603 C9.57265822 -0.36243478 16.79195875 -0.52374751 24.01247692 -0.65152359 C28.86048308 -0.73913564 33.70155907 -0.86234642 38.54589844 -1.07324219 C69.85238583 -2.40314332 69.85238583 -2.40314332 77.71075439 2.2800293 C82.32766209 6.54788971 85.30721571 11.41614927 87.61909485 17.2366333 C88.52355827 19.50970604 88.52355827 19.50970604 90.20828247 21.56666565 C91.58129883 23.41503906 91.58129883 23.41503906 91.43505859 25.49194336 C89.97538051 28.77987136 87.17002341 30.89192769 84.51879883 33.22753906 C83.93042236 33.75653809 83.3420459 34.28553711 82.73583984 34.83056641 C81.56148913 35.88392146 80.38373175 36.93349243 79.20239258 37.97900391 C77.81956965 39.20396843 76.44910421 40.44285949 75.08129883 41.68457031 C72.00048032 44.45614 69.31865599 46.60342488 65.58129883 48.41503906 C65.16879883 48.02759521 64.75629883 47.64015137 64.33129883 47.2409668 C54.38933766 37.81913331 54.38933766 37.81913331 44.13208008 28.74707031 C42.74443619 27.5551646 41.43728149 26.27102173 40.14379883 24.97753906 C36.99315975 23.05641767 34.86182117 22.42381817 31.17504883 22.57128906 C25.76345038 24.33168856 21.86731509 29.05283696 17.95776367 33.03466797 C16.15947973 34.83805523 14.26310934 36.50649055 12.33129883 38.16503906 C11.71770508 38.69742188 11.10411133 39.22980469 10.47192383 39.77832031 C9.84801758 40.3184375 9.22411133 40.85855469 8.58129883 41.41503906 C7.0806579 42.72680622 5.58064913 44.03929692 4.08129883 45.35253906 C2.91463216 46.3733724 1.74796549 47.39420573 0.58129883 48.41503906 C-4.99547227 44.44695194 -10.04035462 40.13073629 -15.02905273 35.46264648 C-18.39813379 32.31497828 -21.85605467 29.33810066 -25.41870117 26.41503906 C-24.8057094 22.67827144 -23.1509593 20.43558985 -20.85620117 17.46582031 C-20.14206055 16.53576172 -19.42791992 15.60570313 -18.69213867 14.64746094 C-17.9419043 13.68388672 -17.19166992 12.7203125 -16.41870117 11.72753906 C-15.6684668 10.75236328 -14.91823242 9.7771875 -14.14526367 8.77246094 C-7.58851598 0.26880892 -7.58851598 0.26880892 0 0 Z " fill="#000000" transform="translate(348.418701171875,55.5849609375)"/>
<path d="M0 0 C5.24521101 1.36606045 7.07299944 4.43055149 10.1171875 8.73828125 C10.70854492 9.53766113 11.29990234 10.33704102 11.90917969 11.16064453 C13.16207973 12.85902749 14.40517466 14.56468054 15.63916016 16.27685547 C17.56697349 18.94277118 19.52942903 21.57944017 21.50390625 24.2109375 C23.94134464 27.4712388 26.37801383 30.73183636 28.7890625 34.01171875 C29.27600586 34.67220215 29.76294922 35.33268555 30.26464844 36.01318359 C31.5546875 37.92578125 31.5546875 37.92578125 33.5546875 41.92578125 C11.4446875 41.92578125 -10.6653125 41.92578125 -33.4453125 41.92578125 C-29.20031443 35.55828415 -24.90096798 29.40278406 -20.27270508 23.33398438 C-17.52074286 19.71574938 -14.83291403 16.07457104 -12.24609375 12.3359375 C-11.72418457 11.59738525 -11.20227539 10.85883301 -10.66455078 10.09790039 C-9.66394673 8.6789692 -8.68090141 7.24744664 -7.71826172 5.80249023 C-5.28690241 2.40124208 -4.14854192 1.11474426 0 0 Z " fill="#000000" transform="translate(381.4453125,5.07421875)"/>
</svg>
