<?xml version="1.0" encoding="UTF-8"?>
<svg version="1.1" xmlns="http://www.w3.org/2000/svg" width="512" height="512">
<path d="M0 0 C0.69334946 -0.00686325 1.38669891 -0.0137265 2.10105896 -0.02079773 C4.38276917 -0.03903173 6.66378952 -0.03523331 8.94555664 -0.02954102 C10.53829674 -0.03410458 12.13103486 -0.03941067 13.72377014 -0.04542542 C17.05844126 -0.05434989 20.39287281 -0.0519412 23.72753906 -0.04199219 C27.99253259 -0.03050502 32.25669786 -0.05071278 36.5215826 -0.07990932 C39.809954 -0.09829109 43.09812765 -0.09797495 46.38653755 -0.0922718 C47.95855432 -0.09211882 49.53058469 -0.09814423 51.10255241 -0.11056328 C53.30456765 -0.12550931 55.50506229 -0.11477202 57.70703125 -0.09765625 C59.58303261 -0.097407 59.58303261 -0.097407 61.49693298 -0.09715271 C66.50273342 0.63617941 69.40216115 2.74236718 72.77192688 6.43583679 C74.60406799 11.18001966 74.30843771 15.85617027 74.25878906 20.89550781 C74.25922714 22.05691284 74.25966522 23.21831787 74.26011658 24.41491699 C74.25802763 28.2513107 74.23469069 32.08726667 74.21118164 35.92358398 C74.20558607 38.58445476 74.20116821 41.24530132 74.19831848 43.90617371 C74.18900295 50.19241672 74.16439596 56.47850278 74.13427001 62.76467675 C74.10071058 69.92303818 74.08423613 77.08140721 74.06918371 84.23982775 C74.03784589 98.96131627 73.98509503 113.68268176 73.91821289 128.40405273 C72.47212294 128.08278828 71.02603836 127.76149968 69.57995605 127.44020081 C68.77466713 127.26128579 67.9693782 127.08237078 67.13968658 126.8980341 C65.53635942 126.54150782 63.93326673 126.18392656 62.33032227 125.82568359 C25.37825184 117.66499854 -10.42112613 122.58522259 -43.08178711 142.40405273 C-73.56684132 162.07992243 -93.9943033 192.09732781 -102.08178711 227.40405273 C-104.05453131 236.55910207 -104.48542031 245.55842385 -104.45678711 254.90405273 C-104.45547287 255.95669815 -104.45547287 255.95669815 -104.45413208 257.03060913 C-104.30706877 292.87385713 -89.90236033 325.57910364 -64.89428711 351.15405273 C-44.27052082 371.45293131 -16.0223158 385.43868079 12.91821289 388.40405273 C14.14926758 388.53682617 15.38032227 388.66959961 16.64868164 388.80639648 C33.90985058 390.38464346 50.66106495 388.29965394 67.24243164 383.42749023 C70.91821289 382.40405273 70.91821289 382.40405273 73.91821289 382.40405273 C74.01171414 397.81603649 74.08222043 413.22799898 74.12546158 428.64019966 C74.1460742 435.79660659 74.17416964 442.95283715 74.2199707 450.10913086 C74.25987865 456.34762182 74.28565516 462.58598503 74.29456687 468.8246001 C74.29977507 472.12703464 74.31409548 475.42901916 74.34113312 478.73135757 C74.37014077 482.42081687 74.37416981 486.10951741 74.37231445 489.79907227 C74.38669556 490.89023849 74.40107666 491.98140472 74.41589355 493.1056366 C74.38371509 499.01347806 74.12426837 502.87009284 69.91821289 507.40405273 C65.96857934 510.57032588 62.82383036 510.78654576 57.83642578 510.80810547 C57.14307632 510.81496872 56.44972687 510.82183197 55.73536682 510.8289032 C53.45365661 510.84713719 51.17263626 510.84333878 48.89086914 510.83764648 C47.29812904 510.84221005 45.70539092 510.84751614 44.11265564 510.85353088 C40.77798452 510.86245536 37.44355297 510.86004667 34.10888672 510.85009766 C29.84389319 510.83861049 25.57972792 510.85881825 21.31484318 510.88801479 C18.02647178 510.90639656 14.73829813 510.90608042 11.44988823 510.90037727 C9.87787146 510.90022429 8.30584109 510.9062497 6.73387337 510.91866875 C4.53185813 510.93361478 2.3313635 510.92287749 0.12939453 510.90576172 C-1.12127304 510.90559555 -2.37194061 510.90542938 -3.6605072 510.90525818 C-8.67174059 510.17113015 -11.84460177 507.9883983 -14.93847656 504.02636719 C-16.2762213 500.95809552 -16.42613206 498.78647473 -16.37475586 495.44702148 C-16.36508789 494.33520508 -16.35541992 493.22338867 -16.34545898 492.07788086 C-16.32032227 490.92739258 -16.29518555 489.7769043 -16.26928711 488.59155273 C-16.25575195 487.42172852 -16.2422168 486.2519043 -16.22827148 485.04663086 C-16.19298989 482.16530073 -16.14368991 479.28491369 -16.08178711 476.40405273 C-16.98590332 476.25653564 -17.89001953 476.10901855 -18.8215332 475.95703125 C-44.12368079 471.66548083 -69.62084786 461.21912937 -90.72631836 446.63452148 C-92.93314409 445.1972978 -92.93314409 445.1972978 -95.03564453 445.64770508 C-97.37534791 446.5125662 -98.46891074 447.47110111 -100.17553711 449.27514648 C-101.00891602 450.1365625 -101.00891602 450.1365625 -101.85913086 451.01538086 C-102.42760742 451.61801758 -102.99608398 452.2206543 -103.58178711 452.84155273 C-104.71235831 454.03236979 -105.84763925 455.21873664 -106.98803711 456.40014648 C-107.48625977 456.92793701 -107.98448242 457.45572754 -108.49780273 457.99951172 C-111.91165042 461.02661802 -114.96028633 461.71607653 -119.45678711 461.77905273 C-120.37202148 461.80741211 -121.28725586 461.83577148 -122.23022461 461.86499023 C-130.12936867 460.58814229 -135.86343202 452.91148237 -141.22241211 447.52905273 C-142.19524476 446.5575693 -143.16837398 445.58638277 -144.14178467 444.61547852 C-146.17225084 442.58794868 -148.19908638 440.55687672 -150.22338867 438.52319336 C-152.81463663 435.92052122 -155.41480231 433.32697286 -158.01773453 430.73599243 C-160.02537512 428.73558478 -162.02822069 426.73043086 -164.02965546 424.72381592 C-165.45060535 423.30088982 -166.87557244 421.88197901 -168.30059814 420.46313477 C-169.16199402 419.59543457 -170.02338989 418.72773438 -170.91088867 417.83374023 C-171.67000549 417.07303223 -172.42912231 416.31232422 -173.21124268 415.52856445 C-176.48645665 411.8086686 -177.38779613 408.95500844 -177.45678711 404.02905273 C-177.48514648 403.11381836 -177.51350586 402.19858398 -177.54272461 401.25561523 C-176.38244125 394.07759107 -170.18627905 389.38683235 -165.06420898 384.72827148 C-162.07362471 382.10105929 -162.07362471 382.10105929 -160.98022461 378.47045898 C-162.60064207 375.43073971 -164.27196108 372.43439134 -166.01928711 369.46655273 C-178.32200084 347.94240378 -188.28902167 325.05702812 -192.08178711 300.40405273 C-192.80769043 300.425 -193.53359375 300.44594727 -194.28149414 300.4675293 C-197.58978266 300.55098923 -200.89784922 300.60280812 -204.20678711 300.65405273 C-205.34889648 300.68756836 -206.49100586 300.72108398 -207.66772461 300.75561523 C-218.43749568 300.88084513 -218.43749568 300.88084513 -223.08178711 296.40405273 C-226.09137105 292.32445987 -226.46411956 289.34681763 -226.48583984 284.32226562 C-226.49613472 283.28224144 -226.49613472 283.28224144 -226.50663757 282.22120667 C-226.52487157 279.93949646 -226.52107315 277.6584761 -226.51538086 275.37670898 C-226.51994442 273.78396889 -226.52525052 272.19123076 -226.53126526 270.59849548 C-226.54018973 267.26382436 -226.53778104 263.92939281 -226.52783203 260.59472656 C-226.51634486 256.32973303 -226.53655263 252.06556777 -226.56574917 247.80068302 C-226.58413093 244.51231162 -226.5838148 241.22413798 -226.57811165 237.93572807 C-226.57795866 236.3637113 -226.58398408 234.79168093 -226.59640312 233.21971321 C-226.61134916 231.01769797 -226.60061187 228.81720334 -226.58349609 226.61523438 C-226.58332993 225.3645668 -226.58316376 224.11389923 -226.58299255 222.82533264 C-225.84886453 217.81409925 -223.66613267 214.64123807 -219.70410156 211.54736328 C-216.63582989 210.20961854 -214.46420911 210.05970778 -211.12475586 210.11108398 C-210.01293945 210.12075195 -208.90112305 210.13041992 -207.75561523 210.14038086 C-206.60512695 210.16551758 -205.45463867 210.1906543 -204.26928711 210.21655273 C-203.09946289 210.23008789 -201.92963867 210.24362305 -200.72436523 210.25756836 C-197.84303511 210.29284995 -194.96264807 210.34214994 -192.08178711 210.40405273 C-191.93427002 209.49993652 -191.78675293 208.59582031 -191.63476562 207.66430664 C-187.34321521 182.36215906 -176.89686375 156.86499198 -162.31225586 135.75952148 C-160.87503217 133.55269575 -160.87503217 133.55269575 -161.32543945 131.45019531 C-162.19030058 129.11049193 -163.14883549 128.01692911 -164.95288086 126.31030273 C-165.5271582 125.7547168 -166.10143555 125.19913086 -166.69311523 124.62670898 C-167.29575195 124.05823242 -167.89838867 123.48975586 -168.51928711 122.90405273 C-169.71010417 121.77348153 -170.89647101 120.63820059 -172.07788086 119.49780273 C-172.60567139 118.99958008 -173.13346191 118.50135742 -173.67724609 117.98803711 C-176.7043524 114.57418943 -177.39381091 111.52555351 -177.45678711 107.02905273 C-177.48514648 106.11381836 -177.51350586 105.19858398 -177.54272461 104.25561523 C-176.26587667 96.35647118 -168.58921674 90.62240782 -163.20678711 85.26342773 C-162.23530368 84.29059508 -161.26411714 83.31746586 -160.29321289 82.34405518 C-158.26568306 80.31358901 -156.2346111 78.28675347 -154.20092773 76.26245117 C-151.5982556 73.67120321 -149.00470723 71.07103754 -146.41372681 68.46810532 C-144.41331916 66.46046473 -142.40816524 64.45761916 -140.40155029 62.45618439 C-138.9786242 61.0352345 -137.55971339 59.6102674 -136.14086914 58.1852417 C-135.27316895 57.32384583 -134.40546875 56.46244995 -133.51147461 55.57495117 C-132.7507666 54.81583435 -131.99005859 54.05671753 -131.20629883 53.27459717 C-127.48640298 49.99938319 -124.63274282 49.09804371 -119.70678711 49.02905273 C-118.33393555 48.98651367 -118.33393555 48.98651367 -116.93334961 48.94311523 C-109.75532544 50.10339859 -105.06456672 56.29956079 -100.40600586 61.42163086 C-97.77879367 64.41221514 -97.77879367 64.41221514 -94.14819336 65.50561523 C-91.10847409 63.88519778 -88.11212572 62.21387877 -85.14428711 60.46655273 C-63.62013815 48.16383901 -40.73476249 38.19681818 -16.08178711 34.40405273 C-16.10273438 33.67814941 -16.12368164 32.95224609 -16.14526367 32.2043457 C-16.22872361 28.89605718 -16.2805425 25.58799063 -16.33178711 22.27905273 C-16.36530273 21.13694336 -16.39881836 19.99483398 -16.43334961 18.81811523 C-16.55857951 8.04834417 -16.55857951 8.04834417 -12.08178711 3.40405273 C-8.00219425 0.3944688 -5.02455201 0.02172029 0 0 Z " fill="#000000" transform="translate(226.081787109375,0.595947265625)"/>
<path d="M0 0 C0 63.36 0 126.72 0 192 C-30.09795983 203.28673493 -60.20497661 205.44979112 -90 192 C-114.80678934 180.29543001 -134.14438405 159.65316848 -144 134 C-151.51171374 111.79633292 -153.571596 86.51553548 -146 64 C-145.649375 62.8965625 -145.29875 61.793125 -144.9375 60.65625 C-135.4210445 33.42861343 -115.437029 12.35151731 -89.6875 -0.25 C-59.99804327 -13.34399873 -29.85440677 -11.19540254 0 0 Z " fill="#000000" transform="translate(300,160)"/>
<path d="M0 0 C10.68365967 -0.13577383 21.36674257 -0.24575768 32.05107117 -0.31087303 C37.01272744 -0.34213169 41.97376079 -0.38450417 46.93505859 -0.45263672 C51.72672613 -0.51802491 56.51779608 -0.55374713 61.30987549 -0.56926346 C63.13431196 -0.58031499 64.95871721 -0.60189668 66.78289795 -0.63438034 C82.87315482 -0.90940238 82.87315482 -0.90940238 87.98120117 2.86938477 C89.0193147 3.88124668 90.02923389 4.92335828 91 6 C92.0679782 6.9056044 93.14593064 7.79972937 94.23828125 8.67578125 C95.26478783 9.55262311 96.28950652 10.43156201 97.3125 11.3125 C102.34158713 15.60729043 107.41656722 19.83506494 112.5703125 23.98046875 C114.73504926 25.77977567 116.72805072 27.67044903 118.75 29.625 C121.46641675 31.98965055 121.79106338 32.0035413 125.6875 31.9375 C127.3271875 31.4734375 127.3271875 31.4734375 129 31 C139.39048984 28.11871238 152.5344852 28.76375777 162 34 C171.01275045 39.62022888 178.02966993 47.52638666 181.33984375 57.71484375 C183.7470218 69.69375935 183.04405611 81.91121572 176.4921875 92.41796875 C170.15174924 101.22085629 161.76569846 107.83661945 151 110 C138.58281916 111.33804566 127.61109291 110.27526374 117.25 102.8125 C109.74961453 96.492855 103.67609379 88.85110605 102 79 C102.00267007 76.27065306 102.12076351 73.55796318 102.24462891 70.83154297 C102.90536053 62.01600746 102.90536053 62.01600746 100.17578125 53.89453125 C97.58251219 51.59437894 94.94955782 49.81632744 92 48 C90.14815605 46.50176133 88.31476719 44.98044044 86.5 43.4375 C84.67104599 41.95292182 82.8369036 40.47473059 81 39 C80.37195465 38.3556752 79.7439093 37.7113504 79.09683228 37.04750061 C71.48664967 29.83375786 64.35535904 29.86699821 54.4921875 30 C52.91462206 29.99246823 51.33706987 29.98142259 49.759552 29.96704102 C45.63930885 29.93878959 41.52063334 29.95777399 37.40045166 29.98712158 C33.18353416 30.00862555 28.96688944 29.98473597 24.75 29.96484375 C16.49948925 29.93252479 8.25044827 29.95438591 0 30 C0 20.1 0 10.2 0 0 Z " fill="#000000" transform="translate(330,311)"/>
<path d="M0 0 C8.80288754 6.34043826 15.4186507 14.72648904 17.58203125 25.4921875 C18.92007691 37.90936834 17.85729499 48.88109459 10.39453125 59.2421875 C3.61814182 67.28465394 -4.79466543 73.72693294 -15.56933594 74.68310547 C-23.27271735 75.07036348 -30.09399749 75.07468795 -37.41796875 72.4921875 C-40.78798284 72.00857521 -41.92074666 72.13327121 -44.70703125 74.14453125 C-45.86332031 75.27568359 -45.86332031 75.27568359 -47.04296875 76.4296875 C-50.51437181 79.71649601 -54.01018648 82.86380634 -57.73046875 85.8671875 C-60.79448599 88.34280882 -63.8363584 90.83622772 -66.828125 93.3984375 C-67.40457764 93.89166504 -67.98103027 94.38489258 -68.57495117 94.89306641 C-69.69098728 95.85066567 -70.80457989 96.81112276 -71.9152832 97.77490234 C-77.86274764 102.87113069 -81.71021902 104.94507733 -89.60473633 104.83276367 C-90.41501282 104.83320175 -91.22528931 104.83363983 -92.06011963 104.83409119 C-94.72782823 104.83200774 -97.39490172 104.80869795 -100.0625 104.78515625 C-101.91623084 104.77955871 -103.76996613 104.77528936 -105.623703 104.77229309 C-110.49490685 104.76085677 -115.36584096 104.73139998 -120.23693848 104.69818115 C-125.21065624 104.66745415 -130.18441773 104.65378213 -135.15820312 104.63867188 C-144.91159572 104.60652909 -154.66471757 104.55377102 -164.41796875 104.4921875 C-164.41796875 94.5921875 -164.41796875 84.6921875 -164.41796875 74.4921875 C-161.2938855 74.53315552 -161.2938855 74.53315552 -158.10668945 74.57495117 C-151.17761961 74.6576643 -144.24930377 74.67890915 -137.31977558 74.67096996 C-133.12336848 74.66800753 -128.92911147 74.68489159 -124.7331543 74.74926758 C-120.67327946 74.81079 -116.61649338 74.81739042 -112.55629539 74.78801918 C-111.01788895 74.786135 -109.47932496 74.80309748 -107.94137001 74.84041405 C-98.0214377 75.06551906 -92.04107333 73.69781392 -84.70066547 66.76237011 C-83.74023194 65.81278919 -82.78682278 64.85604355 -81.84107018 63.89183998 C-79.5495605 61.63808832 -77.05590507 59.68195383 -74.54296875 57.6796875 C-72.82899903 56.290781 -71.12097533 54.89451488 -69.41796875 53.4921875 C-68.80107178 53.0897583 -68.1841748 52.6873291 -67.54858398 52.27270508 C-64.61101683 50.19092672 -62.6808376 48.75226626 -61.92480469 45.12817383 C-61.87209601 42.32608778 -62.01535767 39.59877547 -62.23046875 36.8046875 C-62.67184777 25.00335223 -61.17724449 16.80003811 -53.390625 7.55859375 C-39.45028894 -7.04425333 -17.51265688 -10.92065518 0 0 Z " fill="#000000" transform="translate(494.41796875,96.5078125)"/>
<path d="M0 0 C8.80288754 6.34043826 15.4186507 14.72648904 17.58203125 25.4921875 C18.92007691 37.90936834 17.85729499 48.88109459 10.39453125 59.2421875 C3.58210875 67.3274193 -4.72289951 73.55522767 -15.48876953 74.71533203 C-28.41886816 75.61220123 -39.1114299 74.01605918 -49.34375 65.4921875 C-53.96031521 61.04081012 -57.55476097 56.21860306 -60.41796875 50.4921875 C-94.73796875 50.1621875 -129.05796875 49.8321875 -164.41796875 49.4921875 C-164.41796875 39.5921875 -164.41796875 29.6921875 -164.41796875 19.4921875 C-161.30415771 19.51949951 -158.19034668 19.54681152 -154.98217773 19.57495117 C-144.68835191 19.65721257 -134.39503713 19.67894325 -124.10090542 19.67096996 C-117.8599035 19.66799243 -111.62034227 19.68533159 -105.37963867 19.74926758 C-99.35548007 19.81023489 -93.33340878 19.81761678 -87.30903816 19.78801918 C-85.01211154 19.78611723 -82.71508506 19.80344849 -80.41845512 19.84041405 C-68.23337278 20.60755431 -68.23337278 20.60755431 -57.55056763 16.09292603 C-55.76892344 13.27575033 -54.63573134 10.58158827 -53.41796875 7.4921875 C-40.28088849 -7.46650785 -16.73531878 -10.43591769 0 0 Z " fill="#000000" transform="translate(494.41796875,221.5078125)"/>
<path d="M0 0 C8.80288754 6.34043826 15.4186507 14.72648904 17.58203125 25.4921875 C18.92007691 37.90936834 17.85729499 48.88109459 10.39453125 59.2421875 C3.58210875 67.3274193 -4.72289951 73.55522767 -15.48876953 74.71533203 C-28.41886816 75.61220123 -39.1114299 74.01605918 -49.34375 65.4921875 C-53.96031521 61.04081012 -57.55476097 56.21860306 -60.41796875 50.4921875 C-71.63796875 50.1621875 -82.85796875 49.8321875 -94.41796875 49.4921875 C-94.41796875 39.5921875 -94.41796875 29.6921875 -94.41796875 19.4921875 C-92.04480469 19.54761719 -89.67164063 19.60304688 -87.2265625 19.66015625 C-84.90951927 19.67637077 -82.59320795 19.67367215 -80.27612305 19.66918945 C-78.67467866 19.6761347 -77.07318936 19.70252836 -75.47241211 19.74926758 C-70.25755586 19.89371893 -65.4852678 19.82490595 -60.41796875 18.4921875 C-57.69725948 15.90681459 -56.28256879 13.62578794 -54.70849609 10.23510742 C-51.1321518 2.63385351 -42.8740002 -1.43917371 -35.41796875 -4.5078125 C-23.81083189 -7.83715339 -10.17580867 -6.3454962 0 0 Z " fill="#000000" transform="translate(424.41796875,431.5078125)"/>
<path d="M0 0 C8.80288754 6.34043826 15.4186507 14.72648904 17.58203125 25.4921875 C18.92007691 37.90936834 17.85729499 48.88109459 10.39453125 59.2421875 C3.58210875 67.3274193 -4.72289951 73.55522767 -15.48876953 74.71533203 C-28.41886816 75.61220123 -39.1114299 74.01605918 -49.34375 65.4921875 C-53.96031521 61.04081012 -57.55476097 56.21860306 -60.41796875 50.4921875 C-71.63796875 50.1621875 -82.85796875 49.8321875 -94.41796875 49.4921875 C-94.41796875 39.5921875 -94.41796875 29.6921875 -94.41796875 19.4921875 C-92.04480469 19.54761719 -89.67164063 19.60304688 -87.2265625 19.66015625 C-84.90951927 19.67637077 -82.59320795 19.67367215 -80.27612305 19.66918945 C-78.67467866 19.6761347 -77.07318936 19.70252836 -75.47241211 19.74926758 C-70.25755586 19.89371893 -65.4852678 19.82490595 -60.41796875 18.4921875 C-57.69725948 15.90681459 -56.28256879 13.62578794 -54.70849609 10.23510742 C-51.1321518 2.63385351 -42.8740002 -1.43917371 -35.41796875 -4.5078125 C-23.81083189 -7.83715339 -10.17580867 -6.3454962 0 0 Z " fill="#000000" transform="translate(424.41796875,11.5078125)"/>
</svg>
