<?xml version="1.0" encoding="UTF-8"?>
<svg version="1.1" xmlns="http://www.w3.org/2000/svg" width="512" height="512">
<path d="M0 0 C1.13819939 -0.01052147 1.13819939 -0.01052147 2.2993927 -0.02125549 C4.73481243 -0.03866479 7.16998908 -0.04510777 9.60546875 -0.046875 C10.43721619 -0.04754974 11.26896362 -0.04822449 12.12591553 -0.04891968 C24.27191381 -0.03324232 35.93200944 0.37497793 47.79296875 3.203125 C48.54529785 3.36941406 49.29762695 3.53570312 50.07275391 3.70703125 C75.21982325 9.31488483 99.52981642 20.2158516 119.79296875 36.203125 C120.33083008 36.62674316 120.86869141 37.05036133 121.42285156 37.48681641 C158.07779853 66.72062084 181.34476363 106.91011959 188.79296875 153.203125 C188.96803955 154.27908936 189.14311035 155.35505371 189.32348633 156.46362305 C189.82256434 160.43885859 189.98908707 164.35570567 190.03125 168.35546875 C190.04104385 169.12420822 190.05083771 169.89294769 190.06092834 170.6849823 C190.43605582 207.81139796 183.37939351 239.53061986 165.45703125 272.1640625 C164.18661218 274.48421751 162.97593822 276.83718605 161.79296875 279.203125 C170.04296875 287.453125 178.29296875 295.703125 186.79296875 304.203125 C190.69996003 302.44658901 190.69996003 302.44658901 193.23046875 300.140625 C195.99643509 298.0492846 197.33208201 297.203125 200.79296875 297.203125 C205.26760361 299.85638283 208.98309301 303.06186251 212.6640625 306.703125 C213.19064957 307.22068359 213.71723663 307.73824219 214.25978088 308.27148438 C215.36067644 309.35797354 216.45886921 310.44720764 217.55444336 311.5390625 C219.23826055 313.21086119 220.93987377 314.86309376 222.64257812 316.515625 C223.71338042 317.57697524 224.78308271 318.63943669 225.8515625 319.703125 C226.61852699 320.44079102 226.61852699 320.44079102 227.40098572 321.19335938 C228.79858398 322.609375 228.79858398 322.609375 230.79296875 325.203125 C230.46077905 328.44676117 229.26111473 330.11312533 227.00419617 332.38630676 C226.11469772 333.2928299 226.11469772 333.2928299 225.20722961 334.21766663 C224.55320663 334.868759 223.89918365 335.51985138 223.2253418 336.19067383 C222.53911743 336.88536774 221.85289307 337.58006165 221.14587402 338.29580688 C218.87327994 340.59181817 216.5896321 342.87643999 214.3046875 345.16015625 C212.72356439 346.74837656 211.14274249 348.3368968 209.56221008 349.92570496 C206.2475844 353.2537853 202.92706768 356.57585573 199.6027832 359.89428711 C195.33508151 364.15608322 191.08593317 368.43586537 186.84143353 372.72075367 C183.58247156 376.0055072 180.31216833 379.27878117 177.03846169 382.54883385 C175.46637039 384.12262349 173.89828224 385.70042219 172.33423424 387.28220558 C170.15075128 389.48771416 167.95211298 391.67689649 165.7487793 393.86254883 C164.77685387 394.85436913 164.77685387 394.85436913 163.78529358 395.8662262 C163.18383514 396.45647583 162.58237671 397.04672546 161.96269226 397.65486145 C161.44409984 398.17416638 160.92550741 398.69347132 160.39120007 399.22851276 C158.79296875 400.203125 158.79296875 400.203125 156.76469135 400.00895214 C153.55846902 398.69859491 151.3920503 396.20779042 149.00390625 393.77734375 C148.45940826 393.23334427 147.91491028 392.68934479 147.35391235 392.12886047 C146.20563992 390.97825059 145.06105192 389.82395356 143.91992188 388.66625977 C142.17601679 386.89878182 140.41919944 385.14497691 138.66015625 383.39257812 C137.54477883 382.27162291 136.43016936 381.14990293 135.31640625 380.02734375 C134.79243256 379.50428146 134.26845886 378.98121918 133.72860718 378.44230652 C127.79296875 372.39059922 127.79296875 372.39059922 127.79296875 367.890625 C129.26136064 363.94432178 131.9329303 361.23808935 134.79296875 358.203125 C133.20865422 354.29461301 130.5266178 351.67945144 127.56640625 348.78125 C127.05872711 348.27640076 126.55104797 347.77155151 126.02798462 347.25140381 C124.41263033 345.64720404 122.79044666 344.05011644 121.16796875 342.453125 C120.06855177 341.36374393 118.96958816 340.2739051 117.87109375 339.18359375 C115.18360855 336.51810615 112.48997854 333.85897357 109.79296875 331.203125 C108.79330078 331.75709961 108.79330078 331.75709961 107.7734375 332.32226562 C80.69455668 347.22511822 52.00706007 359.2110933 20.5859375 359.40625 C19.82713791 359.41326431 19.06833832 359.42027863 18.2865448 359.42750549 C15.85112507 359.44491479 13.41594842 359.45135777 10.98046875 359.453125 C10.14872131 359.45379974 9.31697388 359.45447449 8.46002197 359.45516968 C-3.68597631 359.43949232 -15.34607194 359.03127207 -27.20703125 356.203125 C-27.95936035 356.03683594 -28.71168945 355.87054688 -29.48681641 355.69921875 C-54.63388575 350.09136517 -78.94387892 339.1903984 -99.20703125 323.203125 C-99.74489258 322.77950684 -100.28275391 322.35588867 -100.83691406 321.91943359 C-138.38579139 291.9726835 -163.16302644 249.26889628 -168.99438477 201.36216736 C-169.3442879 197.80953072 -169.40871577 194.2670233 -169.4453125 190.69921875 C-169.45510635 189.90691864 -169.46490021 189.11461853 -169.47499084 188.29830933 C-169.6455013 170.92619081 -169.55912583 154.14118563 -165.20703125 137.203125 C-164.99272461 136.3481543 -164.77841797 135.49318359 -164.55761719 134.61230469 C-161.3722982 122.24659038 -156.80952475 110.66204182 -151.20703125 99.203125 C-150.88476562 98.53941895 -150.5625 97.87571289 -150.23046875 97.19189453 C-129.96814266 55.99800903 -92.37364758 24.58162398 -49.40551758 9.28808594 C-33.53796057 3.88573903 -16.81773021 0.10445498 0 0 Z M-99.11328125 79.140625 C-100.90411792 81.10040853 -102.56087585 83.1198748 -104.20703125 85.203125 C-105.02558594 86.22277344 -105.84414062 87.24242187 -106.6875 88.29296875 C-131.39498145 119.95025989 -141.44336031 159.33311485 -136.92578125 198.953125 C-132.22529543 235.34227927 -113.17943506 271.3095335 -84.20703125 294.203125 C-82.67755859 295.43095703 -82.67755859 295.43095703 -81.1171875 296.68359375 C-49.536893 321.33098185 -9.7848533 331.69676705 29.80078125 326.921875 C66.12792959 321.96500846 101.88778475 303.1901994 124.79296875 274.203125 C126.02080078 272.67365234 126.02080078 272.67365234 127.2734375 271.11328125 C151.98091895 239.45599011 162.02929781 200.07313515 157.51171875 160.453125 C152.81123293 124.06397073 133.76537256 88.0967165 104.79296875 65.203125 C103.26349609 63.97529297 103.26349609 63.97529297 101.703125 62.72265625 C39.92924482 14.51016098 -45.37908649 24.5255418 -99.11328125 79.140625 Z M144.00537109 299.76367188 C143.3036377 300.47587891 142.6019043 301.18808594 141.87890625 301.921875 C141.11835938 302.68886719 140.3578125 303.45585937 139.57421875 304.24609375 C138.78015625 305.05691406 137.98609375 305.86773437 137.16796875 306.703125 C136.36617188 307.51394531 135.564375 308.32476562 134.73828125 309.16015625 C132.75198451 311.17009938 130.7704884 313.18455176 128.79296875 315.203125 C130.35579857 318.96916369 132.69931625 321.33951651 135.58203125 324.1875 C136.0453183 324.64795715 136.50860535 325.10841431 136.9859314 325.58282471 C138.45862773 327.04437578 139.93814278 328.49879668 141.41796875 329.953125 C142.42103197 330.94615111 143.42364132 331.93963589 144.42578125 332.93359375 C146.8762771 335.36210441 149.33293545 337.78427175 151.79296875 340.203125 C154.94501856 338.80965124 157.05468648 337.17827421 159.46484375 334.7265625 C160.12871094 334.05625 160.79257812 333.3859375 161.4765625 332.6953125 C162.15847656 331.99664062 162.84039062 331.29796875 163.54296875 330.578125 C164.24035156 329.87171875 164.93773437 329.1653125 165.65625 328.4375 C167.37309363 326.69713797 169.08508707 324.95227519 170.79296875 323.203125 C169.23201806 319.46505889 166.91867729 317.07069959 164.07421875 314.21875 C163.14222656 313.28417969 162.21023438 312.34960938 161.25 311.38671875 C160.7648291 310.9057373 160.2796582 310.42475586 159.77978516 309.92919922 C158.29090536 308.45107652 156.81305224 306.96252589 155.3359375 305.47265625 C154.40394531 304.54324219 153.47195313 303.61382812 152.51171875 302.65625 C151.2268457 301.37476074 151.2268457 301.37476074 149.91601562 300.06738281 C147.27536232 297.74861227 146.67215874 297.43560486 144.00537109 299.76367188 Z " fill="#000000" transform="translate(169.20703125,-0.203125)"/>
<path d="M0 0 C2.23039314 0.92919776 3.47268113 1.9232389 5.1840229 3.62233734 C5.78837166 4.2153363 6.39272041 4.80833527 7.01538277 5.41930389 C7.66647514 6.07332687 8.31756752 6.72734985 8.98838997 7.40119171 C10.03043083 8.43052826 10.03043083 8.43052826 11.09352303 9.48065948 C13.38953432 11.75325357 15.67415613 14.03690141 17.95787239 16.32184601 C19.5460927 17.90296912 21.13461294 19.48379102 22.7234211 21.06432343 C26.05150144 24.37894911 29.37357187 27.69946583 32.69200325 31.02375031 C36.95379936 35.291452 41.23358151 39.54060034 45.51846981 43.78509998 C48.80322334 47.04406195 52.07649731 50.31436518 55.34654999 53.58807182 C56.92033963 55.16016311 58.49813833 56.72825127 60.07992172 58.29229927 C62.2854303 60.47578223 64.47461263 62.67442052 66.66026497 64.87775421 C67.3214785 65.5257045 67.98269203 66.17365479 68.66394234 66.84123993 C69.54931679 67.74342758 69.54931679 67.74342758 70.45257759 68.66384125 C70.97188252 69.18243367 71.49118746 69.7010261 72.0262289 70.23533344 C73.00084114 71.83356476 73.00084114 71.83356476 72.8344059 73.83272362 C71.90520813 76.06311675 70.911167 77.30540475 69.21206856 79.01674652 C68.6190696 79.62109528 68.02607063 80.22544403 67.41510201 80.84810638 C66.76107903 81.49919876 66.10705605 82.15029114 65.43321419 82.82111359 C64.40387764 83.86315445 64.40387764 83.86315445 63.35374641 84.92624664 C61.08115233 87.22225793 58.79750449 89.50687974 56.51255989 91.79059601 C54.93143678 93.37881632 53.35061488 94.96733656 51.77008247 96.55614471 C48.45545679 99.88422506 45.13494007 103.20629549 41.81065559 106.52472687 C37.5429539 110.78652298 33.29380556 115.06630513 29.04930592 119.35119343 C25.79034395 122.63594696 22.52004072 125.90922092 19.24633408 129.17927361 C17.67424278 130.75306325 16.10615463 132.33086194 14.54210663 133.91264534 C12.35862367 136.11815392 10.15998538 138.30733625 7.95665169 140.49298859 C7.3087014 141.15420212 6.66075111 141.81541565 5.99316597 142.49666595 C5.09097832 143.38204041 5.09097832 143.38204041 4.17056465 144.28530121 C3.65197223 144.80460614 3.1333798 145.32391108 2.59907246 145.85895252 C1.00084114 146.83356476 1.00084114 146.83356476 -0.99831772 146.66712952 C-3.22871085 145.73793175 -4.47099885 144.74389062 -6.18234062 143.04479218 C-6.78668938 142.45179321 -7.39103813 141.85879425 -8.01370049 141.24782562 C-8.66479286 140.59380264 -9.31588524 139.93977966 -9.98670769 139.26593781 C-11.02874855 138.23660126 -11.02874855 138.23660126 -12.09184074 137.18647003 C-14.38785203 134.91387595 -16.67247385 132.63022811 -18.95619011 130.34528351 C-20.54441042 128.7641604 -22.13293066 127.1833385 -23.72173882 125.60280609 C-27.04981916 122.2881804 -30.37188959 118.96766369 -33.69032097 115.64337921 C-37.95211708 111.37567751 -42.23189923 107.12652917 -46.51678753 102.88202953 C-49.80154106 99.62306756 -53.07481503 96.35276434 -56.34486771 93.07905769 C-57.91865735 91.5069664 -59.49645605 89.93887825 -61.07823944 88.37483025 C-63.28374802 86.19134729 -65.47293035 83.99270899 -67.65858269 81.78937531 C-68.31979622 81.14142502 -68.98100975 80.49347473 -69.66226006 79.82588959 C-70.25250969 79.22443115 -70.84275932 78.62297272 -71.45089531 78.00328827 C-71.97020024 77.48469584 -72.48950518 76.96610342 -73.02454662 76.43179607 C-73.99915886 74.83356476 -73.99915886 74.83356476 -73.83272362 72.8344059 C-72.90352585 70.60401276 -71.90948472 69.36172477 -70.21038628 67.650383 C-69.61738731 67.04603424 -69.02438835 66.44168549 -68.41341972 65.81902313 C-67.75939674 65.16793076 -67.10537376 64.51683838 -66.43153191 63.84601593 C-65.40219536 62.80397507 -65.40219536 62.80397507 -64.35206413 61.74088287 C-62.07947005 59.44487158 -59.79582221 57.16024977 -57.51087761 54.87653351 C-55.9297545 53.2883132 -54.3489326 51.69979296 -52.76840019 50.1109848 C-49.45377451 46.78290446 -46.13325779 43.46083403 -42.80897331 40.14240265 C-38.54127162 35.88060654 -34.29212328 31.60082439 -30.04762363 27.31593609 C-26.78866167 24.03118256 -23.51835844 20.75790859 -20.24465179 17.48785591 C-18.6725605 15.91406627 -17.10447235 14.33626757 -15.54042435 12.75448418 C-13.35694139 10.5489756 -11.15830309 8.35979327 -8.95496941 6.17414093 C-8.30701912 5.5129274 -7.65906883 4.85171387 -6.99148369 4.17046356 C-6.39002525 3.58021393 -5.78856682 2.98996429 -5.16888237 2.38182831 C-4.65028995 1.86252337 -4.13169752 1.34321844 -3.59739017 0.80817699 C-1.99915886 -0.16643524 -1.99915886 -0.16643524 0 0 Z " fill="#000000" transform="translate(408.99915885925293,335.1664352416992)"/>
<path d="M0 0 C10.97031658 7.04483588 19.13259669 16.32027365 22.6875 29.125 C29.14929189 59.7934009 6.88440424 89.11686827 -8.47998047 114.11425781 C-10.25087468 117.02375254 -11.97579782 119.95609044 -13.69140625 122.8984375 C-14.73100394 124.64108273 -15.77132586 126.38329619 -16.8125 128.125 C-17.26810303 128.92631348 -17.72370605 129.72762695 -18.19311523 130.55322266 C-20.49828637 134.33755578 -21.57670684 135.85151936 -25.84375 137.4375 C-29.40335493 137.11681487 -30.76173142 136.63681525 -33.05664062 133.91699219 C-35.80059061 130.00163587 -38.18928353 125.89723187 -40.5625 121.75 C-41.71956144 119.75752749 -42.87711469 117.76534051 -44.03515625 115.7734375 C-44.59605957 114.80374023 -45.15696289 113.83404297 -45.73486328 112.83496094 C-47.43402745 109.91624811 -49.17141266 107.02364812 -50.92700195 104.13867188 C-81.44971607 53.96891379 -81.44971607 53.96891379 -76.3125 29.125 C-72.98646411 16.91792589 -64.83135969 6.95139862 -54.3125 0.125 C-36.64970553 -9.41193586 -17.56985146 -9.99482568 0 0 Z M-49.8125 24.4375 C-55.12297961 31.56513488 -57.86670209 39.43920029 -57.12890625 48.33984375 C-55.5347363 57.69121181 -50.40334823 65.25017736 -42.7421875 70.71875 C-34.9885017 75.20641381 -27.0997031 76.20806107 -18.4375 74.0625 C-11.08427167 71.67857666 -4.51189388 66.73655385 -0.31640625 60.1875 C3.87160537 51.58333605 4.57999132 43.23327054 1.6875 34.125 C-1.43208075 26.93065743 -5.61006759 22.1385119 -12.3125 18.125 C-13.323125 17.50625 -14.33375 16.8875 -15.375 16.25 C-27.29183669 11.7607807 -41.21240447 15.25834567 -49.8125 24.4375 Z " fill="#000000" transform="translate(206.3125,105.875)"/>
<path d="M0 0 C8.57592932 3.45653221 13.78981525 14.53260572 17.57264423 22.42562389 C22.60563747 34.72214146 23.33251108 50.68701108 18.27186298 63.15218639 C11.43470333 76.74583125 2.23404272 87.13786035 -12.29796124 92.63436413 C-18.40217189 94.65173569 -24.01892491 95.29722932 -30.42735577 95.22249889 C-31.80371197 95.21113903 -31.80371197 95.21113903 -33.20787334 95.19954967 C-50.36534357 94.7840705 -62.13174697 86.2523526 -74.05235577 74.78499889 C-73.46946425 71.5617508 -72.56166267 69.91645608 -70.26358318 67.60181713 C-69.67058422 66.99746838 -69.07758526 66.39311962 -68.46661663 65.77045727 C-67.81259365 65.11936489 -67.15857067 64.46827251 -66.48472881 63.79745007 C-65.45539227 62.7554092 -65.45539227 62.7554092 -64.40526104 61.69231701 C-62.13266696 59.39630572 -59.84901911 57.11168391 -57.56407452 54.82796764 C-55.9829514 53.23974733 -54.40212951 51.65122709 -52.8215971 50.06241894 C-49.50697141 46.73433859 -46.1864547 43.41226816 -42.86217022 40.09383678 C-38.59446852 35.83204067 -34.34532018 31.55225853 -30.10082054 27.26737022 C-26.84185857 23.9826167 -23.57155534 20.70934273 -20.2978487 17.43929005 C-18.72575741 15.8655004 -17.15766926 14.28770171 -15.59362125 12.70591831 C-13.4101383 10.50040973 -11.2115 8.3112274 -9.00816631 6.12557507 C-8.36021603 5.46436153 -7.71226574 4.803148 -7.0446806 4.1218977 C-6.44322216 3.53164806 -5.84176373 2.94139843 -5.22207928 2.33326244 C-4.70348685 1.81395751 -4.18489443 1.29465258 -3.65058708 0.75961113 C-2.05235577 -0.21500111 -2.05235577 -0.21500111 0 0 Z " fill="#000000" transform="translate(491.0523557662964,417.2150011062622)"/>
<path d="M0 0 C1.82177734 2.47509766 1.82177734 2.47509766 3.8359375 5.9140625 C4.37778183 6.82495132 4.37778183 6.82495132 4.93057251 7.75424194 C6.08923143 9.70516604 7.23291937 11.66433211 8.375 13.625 C9.51182709 15.56301491 10.651865 17.49896486 11.79800415 19.43148804 C12.51072631 20.63459088 13.21794756 21.84097653 13.91854858 23.05117798 C16.65781899 27.69658703 19.62367275 32.62423159 24.375 35.375 C29.03619027 36.48480721 32.67584245 36.4933136 37.1875 34.8125 C43.23910948 30.91257389 46.36181473 24.25411209 49.9375 18.1875 C50.96673241 16.45139854 51.99667222 14.71571624 53.02734375 12.98046875 C53.52218262 12.14692871 54.01702148 11.31338867 54.52685547 10.45458984 C56.63679546 6.93895566 58.8128379 3.46804156 61 0 C73.22004851 1.38068002 88.09924656 3.66971958 97 13 C99.62452843 16.65843357 100 18.48018642 100 23 C99.1868367 27.32044341 97.4418047 30.27029282 94 33 C75.56694648 44.81605995 52.03626022 45.40663983 30.8125 45.3125 C29.95759979 45.31067719 29.10269958 45.30885437 28.22189331 45.30697632 C-19.27250274 45.13666995 -19.27250274 45.13666995 -35 31 C-38.14815296 27.33696221 -39.28071041 23.83546313 -39 19 C-36.69540945 13.33454824 -33.52687222 9.77252636 -28 7 C-19.16421945 3.5359724 -9.58016481 0 0 0 Z " fill="#000000" transform="translate(149,215)"/>
<path d="M0 0 C5.26820156 1.86375055 8.88049614 5.09422864 11.3125 10.12109375 C13.86209694 17.08902629 13.05464727 22.39842759 10 29 C6.93549933 33.8609321 3.5083238 36.06399806 -2.03515625 37.54296875 C-8.42307331 38.68085168 -13.41931927 37.20011063 -19 34 C-23.72479432 29.96423818 -25.05590995 25.79613036 -25.91015625 19.81640625 C-26.09882005 13.90220638 -24.35608306 9.64157423 -20.625 5.125 C-13.88184567 -0.33374398 -8.58134828 -1.08821446 0 0 Z " fill="#000000" transform="translate(186,132)"/>
</svg>
