<?xml version="1.0" standalone="no"?>
<!DOCTYPE svg PUBLIC "-//W3C//DTD SVG 20010904//EN"
 "http://www.w3.org/TR/2001/REC-SVG-20010904/DTD/svg10.dtd">
<svg version="1.0" xmlns="http://www.w3.org/2000/svg"
 width="4501.000000pt" height="2022.000000pt" viewBox="0 0 4501.000000 2022.000000"
 preserveAspectRatio="xMidYMid meet">

<g transform="translate(0.000000,2022.000000) scale(0.100000,-0.100000)"
fill="#000000" stroke="none">
<path d="M4985 15174 c-638 -283 -1167 -522 -1176 -532 -21 -23 -674 -2321
-663 -2332 5 -5 75 19 162 56 l153 64 406 -327 c224 -181 414 -333 422 -340
14 -10 10 -18 -31 -60 l-48 -49 226 -184 c124 -102 229 -186 234 -188 10 -4
240 206 240 219 0 4 -289 236 -642 514 -354 279 -647 512 -652 519 -18 26 355
1340 415 1457 24 49 81 97 124 105 37 7 101 -2 109 -15 3 -4 -87 -324 -199
-711 -113 -386 -205 -709 -205 -716 0 -8 4 -14 8 -14 5 0 373 171 818 379
l809 380 337 1133 c186 623 338 1139 338 1146 0 6 -6 12 -12 12 -7 -1 -535
-233 -1173 -516z"/>
<path d="M17833 15359 c-18 -5 -44 -24 -58 -43 l-25 -33 0 -5043 0 -5043 25
-33 c15 -20 40 -37 63 -44 49 -13 714 -13 764 0 20 6 48 24 62 41 l26 31 0
2124 0 2125 1583 -4 c1563 -3 1584 -3 1713 -24 692 -114 1060 -378 1170 -843
17 -70 18 -182 21 -1724 l4 -1650 25 -33 c16 -21 39 -36 65 -43 26 -7 169 -10
414 -8 l375 3 37 38 38 37 0 1688 c0 1591 -1 1694 -18 1802 -85 525 -321 903
-739 1183 -302 201 -718 343 -1183 401 -282 36 -371 39 -1289 45 l-928 6 2226
2363 c1828 1942 2226 2369 2232 2397 3 19 4 75 3 124 -4 90 -4 91 -42 128
l-37 38 -478 0 c-408 0 -480 -2 -498 -15 -12 -8 -1055 -1144 -2318 -2525
-2255 -2463 -2298 -2510 -2337 -2513 l-39 -3 0 2490 0 2489 -26 31 c-14 17
-42 35 -62 41 -46 13 -724 12 -769 -1z"/>
<path d="M6139 14178 c0 -2 -71 -245 -157 -541 l-157 -539 -500 -232 c-308
-143 -500 -238 -500 -246 0 -13 844 -458 871 -459 11 -1 997 1263 1002 1285 2
7 -119 172 -268 368 -242 317 -288 375 -291 364z"/>
<path d="M8950 13669 c-689 -52 -1350 -261 -1834 -579 -165 -109 -281 -206
-421 -352 -241 -252 -394 -529 -470 -855 -43 -184 -45 -222 -45 -1460 l0
-1183 -2002 -2 -2003 -3 0 -360 0 -360 2002 -3 2002 -2 4 -533 c4 -572 7 -611
63 -831 38 -150 70 -238 139 -381 107 -221 206 -356 396 -541 452 -438 1094
-727 1877 -843 226 -34 407 -44 681 -38 345 7 690 51 1041 132 677 156 1210
452 1573 874 87 101 209 268 223 304 4 11 -89 72 -343 225 -192 116 -356 214
-364 217 -11 4 -34 -18 -76 -72 -123 -159 -305 -320 -493 -436 -183 -113 -477
-227 -720 -281 -153 -34 -465 -82 -622 -97 -167 -15 -584 -7 -743 15 -484 67
-870 200 -1176 404 -325 218 -500 453 -570 768 -21 93 -22 129 -26 603 -3 366
-2 506 7 515 14 14 175 11 750 -11 501 -19 1229 -21 1470 -4 614 42 1058 131
1449 287 622 250 1110 686 1376 1229 110 224 182 452 220 696 22 142 31 465
16 615 -59 589 -319 1135 -739 1552 -290 288 -672 514 -1074 636 -232 70 -596
133 -898 156 -154 11 -514 11 -670 -1z m818 -923 c370 -50 632 -120 842 -226
464 -234 786 -664 892 -1192 33 -162 32 -454 -1 -608 -114 -532 -425 -910
-941 -1141 -330 -148 -762 -254 -1261 -309 -368 -40 -443 -43 -1357 -47 l-903
-5 3 1159 3 1158 27 98 c65 238 207 448 412 613 345 277 855 456 1466 514 143
13 684 4 818 -14z"/>
<path d="M39840 13144 c-589 -52 -1112 -209 -1503 -452 -199 -122 -434 -326
-526 -454 -19 -26 -38 -45 -42 -42 -5 3 -9 187 -9 410 l0 404 -360 0 -360 0 0
-4665 0 -4665 390 0 390 0 0 1228 c0 676 2 1231 5 1234 3 3 34 -24 68 -59 93
-98 228 -208 362 -295 707 -464 1813 -586 2792 -308 677 191 1198 544 1516
1025 110 167 185 338 237 541 63 243 61 154 57 2319 l-3 1970 -26 121 c-121
539 -427 940 -962 1257 -333 197 -804 350 -1266 413 -120 16 -643 28 -760 18z
m380 -774 c428 -29 754 -110 1078 -265 404 -195 654 -457 743 -781 22 -80 39
-233 27 -240 -4 -3 -8 -825 -8 -1827 0 -2000 2 -1923 -60 -2109 -64 -191 -163
-342 -322 -494 -287 -274 -716 -452 -1278 -531 -177 -25 -679 -25 -865 0 -478
64 -867 198 -1176 405 -276 185 -445 414 -516 701 -15 60 -17 229 -20 1776 -4
1770 -2 1888 36 2065 37 169 112 343 212 495 81 122 279 315 419 408 458 303
1065 442 1730 397z"/>
<path d="M27985 13134 c-380 -12 -705 -64 -1090 -175 -634 -183 -1118 -506
-1407 -938 -109 -164 -173 -302 -224 -488 -62 -227 -57 -59 -61 -2243 -3
-1392 -1 -2024 7 -2090 56 -485 286 -891 689 -1213 438 -349 1033 -568 1766
-647 164 -18 612 -24 785 -11 891 68 1589 347 2059 821 259 262 417 564 488
933 17 86 18 219 18 2147 l0 2055 -27 126 c-120 551 -460 980 -1026 1293 -333
183 -838 339 -1287 396 -195 25 -495 39 -690 34z m515 -810 c599 -68 1093
-266 1400 -560 54 -52 121 -128 150 -169 67 -98 134 -239 162 -345 l22 -85 4
-1870 c3 -1903 2 -1979 -34 -2120 -23 -92 -114 -271 -183 -362 -280 -371 -859
-635 -1553 -709 -190 -20 -649 -14 -828 10 -341 47 -616 129 -881 261 -397
199 -636 455 -741 795 l-23 75 -3 1950 c-3 2163 -7 2021 63 2193 126 310 395
549 818 726 275 116 650 200 1003 226 155 11 454 4 624 -16z"/>
<path d="M34870 13039 c-631 -55 -1149 -235 -1545 -538 -86 -65 -258 -234
-326 -319 l-59 -73 0 410 0 411 -385 0 -385 0 0 -3775 0 -3775 400 0 400 0 3
2768 c3 2536 4 2772 19 2832 89 348 311 630 674 858 171 106 456 235 657 296
346 105 651 151 1002 150 281 0 448 -20 643 -76 51 -15 76 -18 80 -11 12 19
127 721 120 729 -19 19 -365 83 -563 104 -135 15 -605 21 -735 9z"/>
<path d="M14875 9277 c-3 -6 -4 -170 -3 -362 l3 -350 840 0 840 0 3 363 2 362
-840 0 c-665 0 -842 -3 -845 -13z"/>
</g>
</svg>
