<?xml version="1.0" standalone="no"?>
<!DOCTYPE svg PUBLIC "-//W3C//DTD SVG 20010904//EN"
 "http://www.w3.org/TR/2001/REC-SVG-20010904/DTD/svg10.dtd">
<svg version="1.0" xmlns="http://www.w3.org/2000/svg"
 width="1304.000000pt" height="1384.000000pt" viewBox="0 0 1304.000000 1384.000000"
 preserveAspectRatio="xMidYMid meet">

<g transform="translate(0.000000,1384.000000) scale(0.100000,-0.100000)"
fill="#000000" stroke="none">
<path d="M3415 11984 c-638 -283 -1167 -522 -1176 -532 -21 -23 -674 -2321
-663 -2332 5 -5 75 19 162 56 l153 64 406 -327 c224 -181 414 -333 422 -340
14 -10 10 -18 -31 -60 l-48 -49 226 -184 c124 -102 229 -186 234 -188 10 -4
240 206 240 219 0 4 -289 236 -642 514 -354 279 -647 512 -652 519 -18 26 355
1340 415 1457 24 49 81 97 124 105 37 7 101 -2 109 -15 3 -4 -87 -324 -199
-711 -113 -386 -205 -709 -205 -716 0 -8 4 -14 8 -14 5 0 373 171 818 379
l809 380 337 1133 c186 623 338 1139 338 1146 0 6 -6 12 -12 12 -7 -1 -535
-233 -1173 -516z"/>
<path d="M4569 10988 c0 -2 -71 -245 -157 -541 l-157 -539 -500 -232 c-308
-143 -500 -238 -500 -246 0 -13 844 -458 871 -459 11 -1 997 1263 1002 1285 2
7 -119 172 -268 368 -242 317 -288 375 -291 364z"/>
<path d="M7380 10479 c-689 -52 -1350 -261 -1834 -579 -165 -109 -281 -206
-421 -352 -241 -252 -394 -529 -470 -855 -43 -184 -45 -222 -45 -1460 l0
-1183 -2002 -2 -2003 -3 0 -360 0 -360 2002 -3 2002 -2 4 -533 c4 -572 7 -611
63 -831 38 -150 70 -238 139 -381 107 -221 206 -356 396 -541 452 -438 1094
-727 1877 -843 226 -34 407 -44 681 -38 345 7 690 51 1041 132 677 156 1210
452 1573 874 87 101 209 268 223 304 4 11 -89 72 -343 225 -192 116 -356 214
-364 217 -11 4 -34 -18 -76 -72 -123 -159 -305 -320 -493 -436 -183 -113 -477
-227 -720 -281 -153 -34 -465 -82 -622 -97 -167 -15 -584 -7 -743 15 -484 67
-870 200 -1176 404 -325 218 -500 453 -570 768 -21 93 -22 129 -26 603 -3 366
-2 506 7 515 14 14 175 11 750 -11 501 -19 1229 -21 1470 -4 614 42 1058 131
1449 287 622 250 1110 686 1376 1229 110 224 182 452 220 696 22 142 31 465
16 615 -59 589 -319 1135 -739 1552 -290 288 -672 514 -1074 636 -232 70 -596
133 -898 156 -154 11 -514 11 -670 -1z m818 -923 c370 -50 632 -120 842 -226
464 -234 786 -664 892 -1192 33 -162 32 -454 -1 -608 -114 -532 -425 -910
-941 -1141 -330 -148 -762 -254 -1261 -309 -368 -40 -443 -43 -1357 -47 l-903
-5 3 1159 3 1158 27 98 c65 238 207 448 412 613 345 277 855 456 1466 514 143
13 684 4 818 -14z"/>
</g>
</svg>
